G04 #@! TF.GenerationSoftware,KiCad,Pcbnew,5.1.2-f72e74a~84~ubuntu18.04.1*
G04 #@! TF.CreationDate,2019-07-03T17:08:05+08:00*
G04 #@! TF.ProjectId,cowin-tryout,636f7769-6e2d-4747-9279-6f75742e6b69,rev?*
G04 #@! TF.SameCoordinates,Original*
G04 #@! TF.FileFunction,Soldermask,Bot*
G04 #@! TF.FilePolarity,Negative*
%FSLAX46Y46*%
G04 Gerber Fmt 4.6, Leading zero omitted, Abs format (unit mm)*
G04 Created by KiCad (PCBNEW 5.1.2-f72e74a~84~ubuntu18.04.1) date 2019-07-03 17:08:05*
%MOMM*%
%LPD*%
G04 APERTURE LIST*
%ADD10C,1.200000*%
%ADD11C,0.100000*%
G04 APERTURE END LIST*
D10*
X116905000Y-56000000D02*
G75*
G03X116905000Y-56000000I-1905000J0D01*
G01*
X59905000Y-56000000D02*
G75*
G03X59905000Y-56000000I-1905000J0D01*
G01*
X116905000Y-108000000D02*
G75*
G03X116905000Y-108000000I-1905000J0D01*
G01*
X59905000Y-108000000D02*
G75*
G03X59905000Y-108000000I-1905000J0D01*
G01*
D11*
G36*
X115831313Y-105259523D02*
G01*
X116349980Y-105474362D01*
X116349981Y-105474363D01*
X116816769Y-105786260D01*
X117213740Y-106183231D01*
X117326499Y-106351987D01*
X117525638Y-106650020D01*
X117740477Y-107168687D01*
X117850000Y-107719298D01*
X117850000Y-108280702D01*
X117740477Y-108831313D01*
X117525638Y-109349980D01*
X117525637Y-109349981D01*
X117213740Y-109816769D01*
X116816769Y-110213740D01*
X116504871Y-110422143D01*
X116349980Y-110525638D01*
X115831313Y-110740477D01*
X115280702Y-110850000D01*
X114719298Y-110850000D01*
X114168687Y-110740477D01*
X113650020Y-110525638D01*
X113495129Y-110422143D01*
X113183231Y-110213740D01*
X112786260Y-109816769D01*
X112474363Y-109349981D01*
X112474362Y-109349980D01*
X112259523Y-108831313D01*
X112150000Y-108280702D01*
X112150000Y-107719298D01*
X112259523Y-107168687D01*
X112474362Y-106650020D01*
X112673501Y-106351987D01*
X112786260Y-106183231D01*
X113183231Y-105786260D01*
X113650019Y-105474363D01*
X113650020Y-105474362D01*
X114168687Y-105259523D01*
X114719298Y-105150000D01*
X115280702Y-105150000D01*
X115831313Y-105259523D01*
X115831313Y-105259523D01*
G37*
G36*
X58831313Y-105259523D02*
G01*
X59349980Y-105474362D01*
X59349981Y-105474363D01*
X59816769Y-105786260D01*
X60213740Y-106183231D01*
X60326499Y-106351987D01*
X60525638Y-106650020D01*
X60740477Y-107168687D01*
X60850000Y-107719298D01*
X60850000Y-108280702D01*
X60740477Y-108831313D01*
X60525638Y-109349980D01*
X60525637Y-109349981D01*
X60213740Y-109816769D01*
X59816769Y-110213740D01*
X59504871Y-110422143D01*
X59349980Y-110525638D01*
X58831313Y-110740477D01*
X58280702Y-110850000D01*
X57719298Y-110850000D01*
X57168687Y-110740477D01*
X56650020Y-110525638D01*
X56495129Y-110422143D01*
X56183231Y-110213740D01*
X55786260Y-109816769D01*
X55474363Y-109349981D01*
X55474362Y-109349980D01*
X55259523Y-108831313D01*
X55150000Y-108280702D01*
X55150000Y-107719298D01*
X55259523Y-107168687D01*
X55474362Y-106650020D01*
X55673501Y-106351987D01*
X55786260Y-106183231D01*
X56183231Y-105786260D01*
X56650019Y-105474363D01*
X56650020Y-105474362D01*
X57168687Y-105259523D01*
X57719298Y-105150000D01*
X58280702Y-105150000D01*
X58831313Y-105259523D01*
X58831313Y-105259523D01*
G37*
G36*
X87608015Y-105916973D02*
G01*
X87711879Y-105948479D01*
X87739055Y-105963005D01*
X87807600Y-105999643D01*
X87891501Y-106068499D01*
X87960357Y-106152400D01*
X87996995Y-106220945D01*
X88011521Y-106248121D01*
X88043027Y-106351985D01*
X88053666Y-106460000D01*
X88043027Y-106568015D01*
X88011521Y-106671879D01*
X88011519Y-106671882D01*
X87960357Y-106767600D01*
X87891501Y-106851501D01*
X87807600Y-106920357D01*
X87739055Y-106956995D01*
X87711879Y-106971521D01*
X87699131Y-106975388D01*
X87676504Y-106984760D01*
X87656130Y-106998374D01*
X87638803Y-107015701D01*
X87625189Y-107036075D01*
X87615812Y-107058714D01*
X87611031Y-107082747D01*
X87611031Y-107107251D01*
X87615811Y-107131285D01*
X87625188Y-107153924D01*
X87638802Y-107174298D01*
X87656129Y-107191625D01*
X87676503Y-107205239D01*
X87699131Y-107214612D01*
X87711879Y-107218479D01*
X87739055Y-107233005D01*
X87807600Y-107269643D01*
X87891501Y-107338499D01*
X87960357Y-107422400D01*
X87996995Y-107490945D01*
X88011521Y-107518121D01*
X88043027Y-107621985D01*
X88053666Y-107730000D01*
X88043027Y-107838015D01*
X88011521Y-107941879D01*
X88011519Y-107941882D01*
X87960357Y-108037600D01*
X87891501Y-108121501D01*
X87807600Y-108190356D01*
X87763807Y-108213764D01*
X87743437Y-108227375D01*
X87726110Y-108244702D01*
X87712496Y-108265076D01*
X87703119Y-108287715D01*
X87698338Y-108311748D01*
X87698338Y-108336252D01*
X87703118Y-108360286D01*
X87712495Y-108382924D01*
X87726109Y-108403299D01*
X87743436Y-108420626D01*
X87763810Y-108434240D01*
X87786449Y-108443617D01*
X87810482Y-108448398D01*
X87822735Y-108449000D01*
X88051000Y-108449000D01*
X88051000Y-109551000D01*
X86949000Y-109551000D01*
X86949000Y-108449000D01*
X87177265Y-108449000D01*
X87201651Y-108446598D01*
X87225100Y-108439485D01*
X87246711Y-108427934D01*
X87265653Y-108412389D01*
X87281198Y-108393447D01*
X87292749Y-108371836D01*
X87299862Y-108348387D01*
X87302264Y-108324001D01*
X87299862Y-108299615D01*
X87292749Y-108276166D01*
X87281198Y-108254555D01*
X87265653Y-108235613D01*
X87246711Y-108220068D01*
X87236198Y-108213767D01*
X87192400Y-108190356D01*
X87108499Y-108121501D01*
X87039643Y-108037600D01*
X86988481Y-107941882D01*
X86988479Y-107941879D01*
X86956973Y-107838015D01*
X86946334Y-107730000D01*
X86956973Y-107621985D01*
X86988479Y-107518121D01*
X87003005Y-107490945D01*
X87039643Y-107422400D01*
X87108499Y-107338499D01*
X87192400Y-107269643D01*
X87260945Y-107233005D01*
X87288121Y-107218479D01*
X87300869Y-107214612D01*
X87323496Y-107205240D01*
X87343870Y-107191626D01*
X87361197Y-107174299D01*
X87374811Y-107153925D01*
X87384188Y-107131286D01*
X87388969Y-107107253D01*
X87388969Y-107082749D01*
X87384189Y-107058715D01*
X87374812Y-107036076D01*
X87361198Y-107015702D01*
X87343871Y-106998375D01*
X87323497Y-106984761D01*
X87300869Y-106975388D01*
X87288121Y-106971521D01*
X87260945Y-106956995D01*
X87192400Y-106920357D01*
X87108499Y-106851501D01*
X87039643Y-106767600D01*
X86988481Y-106671882D01*
X86988479Y-106671879D01*
X86956973Y-106568015D01*
X86946334Y-106460000D01*
X86956973Y-106351985D01*
X86988479Y-106248121D01*
X87003005Y-106220945D01*
X87039643Y-106152400D01*
X87108499Y-106068499D01*
X87192400Y-105999643D01*
X87260945Y-105963005D01*
X87288121Y-105948479D01*
X87391985Y-105916973D01*
X87472933Y-105909000D01*
X87527067Y-105909000D01*
X87608015Y-105916973D01*
X87608015Y-105916973D01*
G37*
G36*
X84181000Y-108451000D02*
G01*
X82519000Y-108451000D01*
X82519000Y-107699000D01*
X84181000Y-107699000D01*
X84181000Y-108451000D01*
X84181000Y-108451000D01*
G37*
G36*
X81481000Y-108451000D02*
G01*
X79819000Y-108451000D01*
X79819000Y-105799000D01*
X81481000Y-105799000D01*
X81481000Y-108451000D01*
X81481000Y-108451000D01*
G37*
G36*
X84181000Y-106551000D02*
G01*
X82519000Y-106551000D01*
X82519000Y-105799000D01*
X84181000Y-105799000D01*
X84181000Y-106551000D01*
X84181000Y-106551000D01*
G37*
G36*
X115610443Y-100685519D02*
G01*
X115676627Y-100692037D01*
X115846466Y-100743557D01*
X116002991Y-100827222D01*
X116038729Y-100856552D01*
X116140186Y-100939814D01*
X116223448Y-101041271D01*
X116252778Y-101077009D01*
X116336443Y-101233534D01*
X116387963Y-101403373D01*
X116405359Y-101580000D01*
X116387963Y-101756627D01*
X116336443Y-101926466D01*
X116252778Y-102082991D01*
X116223448Y-102118729D01*
X116140186Y-102220186D01*
X116038729Y-102303448D01*
X116002991Y-102332778D01*
X115846466Y-102416443D01*
X115676627Y-102467963D01*
X115610443Y-102474481D01*
X115544260Y-102481000D01*
X115455740Y-102481000D01*
X115389557Y-102474481D01*
X115323373Y-102467963D01*
X115153534Y-102416443D01*
X114997009Y-102332778D01*
X114961271Y-102303448D01*
X114859814Y-102220186D01*
X114776552Y-102118729D01*
X114747222Y-102082991D01*
X114663557Y-101926466D01*
X114612037Y-101756627D01*
X114594641Y-101580000D01*
X114612037Y-101403373D01*
X114663557Y-101233534D01*
X114747222Y-101077009D01*
X114776552Y-101041271D01*
X114859814Y-100939814D01*
X114961271Y-100856552D01*
X114997009Y-100827222D01*
X115153534Y-100743557D01*
X115323373Y-100692037D01*
X115389557Y-100685519D01*
X115455740Y-100679000D01*
X115544260Y-100679000D01*
X115610443Y-100685519D01*
X115610443Y-100685519D01*
G37*
G36*
X112364499Y-100303445D02*
G01*
X112401995Y-100314820D01*
X112436554Y-100333292D01*
X112466847Y-100358153D01*
X112491708Y-100388446D01*
X112510180Y-100423005D01*
X112521555Y-100460501D01*
X112526000Y-100505638D01*
X112526000Y-101244362D01*
X112521555Y-101289499D01*
X112510180Y-101326995D01*
X112491708Y-101361554D01*
X112466847Y-101391847D01*
X112436554Y-101416708D01*
X112401995Y-101435180D01*
X112364499Y-101446555D01*
X112319362Y-101451000D01*
X111680638Y-101451000D01*
X111635501Y-101446555D01*
X111598005Y-101435180D01*
X111563446Y-101416708D01*
X111533153Y-101391847D01*
X111508292Y-101361554D01*
X111489820Y-101326995D01*
X111478445Y-101289499D01*
X111474000Y-101244362D01*
X111474000Y-100505638D01*
X111478445Y-100460501D01*
X111489820Y-100423005D01*
X111508292Y-100388446D01*
X111533153Y-100358153D01*
X111563446Y-100333292D01*
X111598005Y-100314820D01*
X111635501Y-100303445D01*
X111680638Y-100299000D01*
X112319362Y-100299000D01*
X112364499Y-100303445D01*
X112364499Y-100303445D01*
G37*
G36*
X115610443Y-98145519D02*
G01*
X115676627Y-98152037D01*
X115846466Y-98203557D01*
X116002991Y-98287222D01*
X116038729Y-98316552D01*
X116140186Y-98399814D01*
X116223448Y-98501271D01*
X116252778Y-98537009D01*
X116336443Y-98693534D01*
X116387963Y-98863373D01*
X116405359Y-99040000D01*
X116387963Y-99216627D01*
X116336443Y-99386466D01*
X116252778Y-99542991D01*
X116224871Y-99576995D01*
X116140186Y-99680186D01*
X116038729Y-99763448D01*
X116002991Y-99792778D01*
X115846466Y-99876443D01*
X115676627Y-99927963D01*
X115610442Y-99934482D01*
X115544260Y-99941000D01*
X115455740Y-99941000D01*
X115389558Y-99934482D01*
X115323373Y-99927963D01*
X115153534Y-99876443D01*
X114997009Y-99792778D01*
X114961271Y-99763448D01*
X114859814Y-99680186D01*
X114775129Y-99576995D01*
X114747222Y-99542991D01*
X114663557Y-99386466D01*
X114612037Y-99216627D01*
X114594641Y-99040000D01*
X114612037Y-98863373D01*
X114663557Y-98693534D01*
X114747222Y-98537009D01*
X114776552Y-98501271D01*
X114859814Y-98399814D01*
X114961271Y-98316552D01*
X114997009Y-98287222D01*
X115153534Y-98203557D01*
X115323373Y-98152037D01*
X115389557Y-98145519D01*
X115455740Y-98139000D01*
X115544260Y-98139000D01*
X115610443Y-98145519D01*
X115610443Y-98145519D01*
G37*
G36*
X112364499Y-98553445D02*
G01*
X112401995Y-98564820D01*
X112436554Y-98583292D01*
X112466847Y-98608153D01*
X112491708Y-98638446D01*
X112510180Y-98673005D01*
X112521555Y-98710501D01*
X112526000Y-98755638D01*
X112526000Y-99494362D01*
X112521555Y-99539499D01*
X112510180Y-99576995D01*
X112491708Y-99611554D01*
X112466847Y-99641847D01*
X112436554Y-99666708D01*
X112401995Y-99685180D01*
X112364499Y-99696555D01*
X112319362Y-99701000D01*
X111680638Y-99701000D01*
X111635501Y-99696555D01*
X111598005Y-99685180D01*
X111563446Y-99666708D01*
X111533153Y-99641847D01*
X111508292Y-99611554D01*
X111489820Y-99576995D01*
X111478445Y-99539499D01*
X111474000Y-99494362D01*
X111474000Y-98755638D01*
X111478445Y-98710501D01*
X111489820Y-98673005D01*
X111508292Y-98638446D01*
X111533153Y-98608153D01*
X111563446Y-98583292D01*
X111598005Y-98564820D01*
X111635501Y-98553445D01*
X111680638Y-98549000D01*
X112319362Y-98549000D01*
X112364499Y-98553445D01*
X112364499Y-98553445D01*
G37*
G36*
X116401000Y-97401000D02*
G01*
X114599000Y-97401000D01*
X114599000Y-95599000D01*
X116401000Y-95599000D01*
X116401000Y-97401000D01*
X116401000Y-97401000D01*
G37*
G36*
X112705997Y-91503051D02*
G01*
X112739652Y-91513261D01*
X112770665Y-91529838D01*
X112797851Y-91552149D01*
X112820162Y-91579335D01*
X112836739Y-91610348D01*
X112846949Y-91644003D01*
X112851000Y-91685138D01*
X112851000Y-94914862D01*
X112846949Y-94955997D01*
X112836739Y-94989652D01*
X112820162Y-95020665D01*
X112797851Y-95047851D01*
X112770665Y-95070162D01*
X112739652Y-95086739D01*
X112705997Y-95096949D01*
X112664862Y-95101000D01*
X111335138Y-95101000D01*
X111294003Y-95096949D01*
X111260348Y-95086739D01*
X111229335Y-95070162D01*
X111202149Y-95047851D01*
X111179838Y-95020665D01*
X111163261Y-94989652D01*
X111153051Y-94955997D01*
X111149000Y-94914862D01*
X111149000Y-91685138D01*
X111153051Y-91644003D01*
X111163261Y-91610348D01*
X111179838Y-91579335D01*
X111202149Y-91552149D01*
X111229335Y-91529838D01*
X111260348Y-91513261D01*
X111294003Y-91503051D01*
X111335138Y-91499000D01*
X112664862Y-91499000D01*
X112705997Y-91503051D01*
X112705997Y-91503051D01*
G37*
G36*
X112705997Y-85903051D02*
G01*
X112739652Y-85913261D01*
X112770665Y-85929838D01*
X112797851Y-85952149D01*
X112820162Y-85979335D01*
X112836739Y-86010348D01*
X112846949Y-86044003D01*
X112851000Y-86085138D01*
X112851000Y-89314862D01*
X112846949Y-89355997D01*
X112836739Y-89389652D01*
X112820162Y-89420665D01*
X112797851Y-89447851D01*
X112770665Y-89470162D01*
X112739652Y-89486739D01*
X112705997Y-89496949D01*
X112664862Y-89501000D01*
X111335138Y-89501000D01*
X111294003Y-89496949D01*
X111260348Y-89486739D01*
X111229335Y-89470162D01*
X111202149Y-89447851D01*
X111179838Y-89420665D01*
X111163261Y-89389652D01*
X111153051Y-89355997D01*
X111149000Y-89314862D01*
X111149000Y-86085138D01*
X111153051Y-86044003D01*
X111163261Y-86010348D01*
X111179838Y-85979335D01*
X111202149Y-85952149D01*
X111229335Y-85929838D01*
X111260348Y-85913261D01*
X111294003Y-85903051D01*
X111335138Y-85899000D01*
X112664862Y-85899000D01*
X112705997Y-85903051D01*
X112705997Y-85903051D01*
G37*
G36*
X111564499Y-83828445D02*
G01*
X111601995Y-83839820D01*
X111636554Y-83858292D01*
X111666847Y-83883153D01*
X111691708Y-83913446D01*
X111710180Y-83948005D01*
X111721555Y-83985501D01*
X111726000Y-84030638D01*
X111726000Y-84769362D01*
X111721555Y-84814499D01*
X111710180Y-84851995D01*
X111691708Y-84886554D01*
X111666847Y-84916847D01*
X111636554Y-84941708D01*
X111601995Y-84960180D01*
X111564499Y-84971555D01*
X111519362Y-84976000D01*
X110880638Y-84976000D01*
X110835501Y-84971555D01*
X110798005Y-84960180D01*
X110763446Y-84941708D01*
X110733153Y-84916847D01*
X110708292Y-84886554D01*
X110689820Y-84851995D01*
X110678445Y-84814499D01*
X110674000Y-84769362D01*
X110674000Y-84030638D01*
X110678445Y-83985501D01*
X110689820Y-83948005D01*
X110708292Y-83913446D01*
X110733153Y-83883153D01*
X110763446Y-83858292D01*
X110798005Y-83839820D01*
X110835501Y-83828445D01*
X110880638Y-83824000D01*
X111519362Y-83824000D01*
X111564499Y-83828445D01*
X111564499Y-83828445D01*
G37*
G36*
X113391000Y-84801000D02*
G01*
X112289000Y-84801000D01*
X112289000Y-84099000D01*
X113391000Y-84099000D01*
X113391000Y-84801000D01*
X113391000Y-84801000D01*
G37*
G36*
X115511000Y-83851000D02*
G01*
X114409000Y-83851000D01*
X114409000Y-83149000D01*
X115511000Y-83149000D01*
X115511000Y-83851000D01*
X115511000Y-83851000D01*
G37*
G36*
X72108015Y-76106973D02*
G01*
X72211879Y-76138479D01*
X72231504Y-76148969D01*
X72307600Y-76189643D01*
X72391501Y-76258499D01*
X72460357Y-76342400D01*
X72496995Y-76410945D01*
X72511521Y-76438121D01*
X72543027Y-76541985D01*
X72553666Y-76650000D01*
X72543027Y-76758015D01*
X72511521Y-76861879D01*
X72511519Y-76861882D01*
X72460357Y-76957600D01*
X72391501Y-77041501D01*
X72307600Y-77110357D01*
X72239055Y-77146995D01*
X72211879Y-77161521D01*
X72199131Y-77165388D01*
X72176504Y-77174760D01*
X72156130Y-77188374D01*
X72138803Y-77205701D01*
X72125189Y-77226075D01*
X72115812Y-77248714D01*
X72111031Y-77272747D01*
X72111031Y-77297251D01*
X72115811Y-77321285D01*
X72125188Y-77343924D01*
X72138802Y-77364298D01*
X72156129Y-77381625D01*
X72176503Y-77395239D01*
X72199131Y-77404612D01*
X72211879Y-77408479D01*
X72239055Y-77423005D01*
X72307600Y-77459643D01*
X72391501Y-77528499D01*
X72460357Y-77612400D01*
X72479920Y-77649000D01*
X72511521Y-77708121D01*
X72543027Y-77811985D01*
X72553666Y-77920000D01*
X72543027Y-78028015D01*
X72511521Y-78131879D01*
X72511519Y-78131882D01*
X72460357Y-78227600D01*
X72391501Y-78311501D01*
X72307600Y-78380357D01*
X72239055Y-78416995D01*
X72211879Y-78431521D01*
X72199131Y-78435388D01*
X72176504Y-78444760D01*
X72156130Y-78458374D01*
X72138803Y-78475701D01*
X72125189Y-78496075D01*
X72115812Y-78518714D01*
X72111031Y-78542747D01*
X72111031Y-78567251D01*
X72115811Y-78591285D01*
X72125188Y-78613924D01*
X72138802Y-78634298D01*
X72156129Y-78651625D01*
X72176503Y-78665239D01*
X72199131Y-78674612D01*
X72211879Y-78678479D01*
X72239055Y-78693005D01*
X72307600Y-78729643D01*
X72391501Y-78798499D01*
X72460357Y-78882400D01*
X72496995Y-78950945D01*
X72511521Y-78978121D01*
X72543027Y-79081985D01*
X72553666Y-79190000D01*
X72543027Y-79298015D01*
X72511521Y-79401879D01*
X72511519Y-79401882D01*
X72460357Y-79497600D01*
X72391501Y-79581501D01*
X72307600Y-79650357D01*
X72239055Y-79686995D01*
X72211879Y-79701521D01*
X72199131Y-79705388D01*
X72176504Y-79714760D01*
X72156130Y-79728374D01*
X72138803Y-79745701D01*
X72125189Y-79766075D01*
X72115812Y-79788714D01*
X72111031Y-79812747D01*
X72111031Y-79837251D01*
X72115811Y-79861285D01*
X72125188Y-79883924D01*
X72138802Y-79904298D01*
X72156129Y-79921625D01*
X72176503Y-79935239D01*
X72199131Y-79944612D01*
X72211879Y-79948479D01*
X72239055Y-79963005D01*
X72307600Y-79999643D01*
X72391501Y-80068499D01*
X72460357Y-80152400D01*
X72496995Y-80220945D01*
X72511521Y-80248121D01*
X72543027Y-80351985D01*
X72553666Y-80460000D01*
X72543027Y-80568015D01*
X72511521Y-80671879D01*
X72511519Y-80671882D01*
X72460357Y-80767600D01*
X72391501Y-80851501D01*
X72307600Y-80920357D01*
X72239055Y-80956995D01*
X72211879Y-80971521D01*
X72199131Y-80975388D01*
X72176504Y-80984760D01*
X72156130Y-80998374D01*
X72138803Y-81015701D01*
X72125189Y-81036075D01*
X72115812Y-81058714D01*
X72111031Y-81082747D01*
X72111031Y-81107251D01*
X72115811Y-81131285D01*
X72125188Y-81153924D01*
X72138802Y-81174298D01*
X72156129Y-81191625D01*
X72176503Y-81205239D01*
X72199131Y-81214612D01*
X72211879Y-81218479D01*
X72239055Y-81233005D01*
X72307600Y-81269643D01*
X72391501Y-81338499D01*
X72460357Y-81422400D01*
X72496995Y-81490945D01*
X72511521Y-81518121D01*
X72543027Y-81621985D01*
X72553666Y-81730000D01*
X72543027Y-81838015D01*
X72511521Y-81941879D01*
X72511519Y-81941882D01*
X72460357Y-82037600D01*
X72430484Y-82074000D01*
X72391501Y-82121501D01*
X72307600Y-82190356D01*
X72263807Y-82213764D01*
X72243437Y-82227375D01*
X72226110Y-82244702D01*
X72212496Y-82265076D01*
X72203119Y-82287715D01*
X72198338Y-82311748D01*
X72198338Y-82336252D01*
X72203118Y-82360286D01*
X72212495Y-82382924D01*
X72226109Y-82403299D01*
X72243436Y-82420626D01*
X72263810Y-82434240D01*
X72286449Y-82443617D01*
X72310482Y-82448398D01*
X72322735Y-82449000D01*
X72551000Y-82449000D01*
X72551000Y-83551000D01*
X71449000Y-83551000D01*
X71449000Y-82449000D01*
X71677265Y-82449000D01*
X71701651Y-82446598D01*
X71725100Y-82439485D01*
X71746711Y-82427934D01*
X71765653Y-82412389D01*
X71781198Y-82393447D01*
X71792749Y-82371836D01*
X71799862Y-82348387D01*
X71802264Y-82324001D01*
X71799862Y-82299615D01*
X71792749Y-82276166D01*
X71781198Y-82254555D01*
X71765653Y-82235613D01*
X71746711Y-82220068D01*
X71736198Y-82213767D01*
X71692400Y-82190356D01*
X71608499Y-82121501D01*
X71569516Y-82074000D01*
X71539643Y-82037600D01*
X71488481Y-81941882D01*
X71488479Y-81941879D01*
X71456973Y-81838015D01*
X71446334Y-81730000D01*
X71456973Y-81621985D01*
X71488479Y-81518121D01*
X71503005Y-81490945D01*
X71539643Y-81422400D01*
X71608499Y-81338499D01*
X71692400Y-81269643D01*
X71760945Y-81233005D01*
X71788121Y-81218479D01*
X71800869Y-81214612D01*
X71823496Y-81205240D01*
X71843870Y-81191626D01*
X71861197Y-81174299D01*
X71874811Y-81153925D01*
X71884188Y-81131286D01*
X71888969Y-81107253D01*
X71888969Y-81082749D01*
X71884189Y-81058715D01*
X71874812Y-81036076D01*
X71861198Y-81015702D01*
X71843871Y-80998375D01*
X71823497Y-80984761D01*
X71800869Y-80975388D01*
X71788121Y-80971521D01*
X71760945Y-80956995D01*
X71692400Y-80920357D01*
X71608499Y-80851501D01*
X71539643Y-80767600D01*
X71488481Y-80671882D01*
X71488479Y-80671879D01*
X71456973Y-80568015D01*
X71446334Y-80460000D01*
X71456973Y-80351985D01*
X71488479Y-80248121D01*
X71503005Y-80220945D01*
X71539643Y-80152400D01*
X71608499Y-80068499D01*
X71692400Y-79999643D01*
X71760945Y-79963005D01*
X71788121Y-79948479D01*
X71800869Y-79944612D01*
X71823496Y-79935240D01*
X71843870Y-79921626D01*
X71861197Y-79904299D01*
X71874811Y-79883925D01*
X71884188Y-79861286D01*
X71888969Y-79837253D01*
X71888969Y-79812749D01*
X71884189Y-79788715D01*
X71874812Y-79766076D01*
X71861198Y-79745702D01*
X71843871Y-79728375D01*
X71823497Y-79714761D01*
X71800869Y-79705388D01*
X71788121Y-79701521D01*
X71760945Y-79686995D01*
X71692400Y-79650357D01*
X71608499Y-79581501D01*
X71539643Y-79497600D01*
X71488481Y-79401882D01*
X71488479Y-79401879D01*
X71456973Y-79298015D01*
X71446334Y-79190000D01*
X71456973Y-79081985D01*
X71488479Y-78978121D01*
X71503005Y-78950945D01*
X71539643Y-78882400D01*
X71608499Y-78798499D01*
X71692400Y-78729643D01*
X71760945Y-78693005D01*
X71788121Y-78678479D01*
X71800869Y-78674612D01*
X71823496Y-78665240D01*
X71843870Y-78651626D01*
X71861197Y-78634299D01*
X71874811Y-78613925D01*
X71884188Y-78591286D01*
X71888969Y-78567253D01*
X71888969Y-78542749D01*
X71884189Y-78518715D01*
X71874812Y-78496076D01*
X71861198Y-78475702D01*
X71843871Y-78458375D01*
X71823497Y-78444761D01*
X71800869Y-78435388D01*
X71788121Y-78431521D01*
X71760945Y-78416995D01*
X71692400Y-78380357D01*
X71608499Y-78311501D01*
X71539643Y-78227600D01*
X71488481Y-78131882D01*
X71488479Y-78131879D01*
X71456973Y-78028015D01*
X71446334Y-77920000D01*
X71456973Y-77811985D01*
X71488479Y-77708121D01*
X71520080Y-77649000D01*
X71539643Y-77612400D01*
X71608499Y-77528499D01*
X71692400Y-77459643D01*
X71760945Y-77423005D01*
X71788121Y-77408479D01*
X71800869Y-77404612D01*
X71823496Y-77395240D01*
X71843870Y-77381626D01*
X71861197Y-77364299D01*
X71874811Y-77343925D01*
X71884188Y-77321286D01*
X71888969Y-77297253D01*
X71888969Y-77272749D01*
X71884189Y-77248715D01*
X71874812Y-77226076D01*
X71861198Y-77205702D01*
X71843871Y-77188375D01*
X71823497Y-77174761D01*
X71800869Y-77165388D01*
X71788121Y-77161521D01*
X71760945Y-77146995D01*
X71692400Y-77110357D01*
X71608499Y-77041501D01*
X71539643Y-76957600D01*
X71488481Y-76861882D01*
X71488479Y-76861879D01*
X71456973Y-76758015D01*
X71446334Y-76650000D01*
X71456973Y-76541985D01*
X71488479Y-76438121D01*
X71503005Y-76410945D01*
X71539643Y-76342400D01*
X71608499Y-76258499D01*
X71692400Y-76189643D01*
X71768496Y-76148969D01*
X71788121Y-76138479D01*
X71891985Y-76106973D01*
X71972933Y-76099000D01*
X72027067Y-76099000D01*
X72108015Y-76106973D01*
X72108015Y-76106973D01*
G37*
G36*
X111564499Y-82078445D02*
G01*
X111601995Y-82089820D01*
X111636554Y-82108292D01*
X111666847Y-82133153D01*
X111691708Y-82163446D01*
X111710180Y-82198005D01*
X111721555Y-82235501D01*
X111726000Y-82280638D01*
X111726000Y-83019362D01*
X111721555Y-83064499D01*
X111710180Y-83101995D01*
X111691708Y-83136554D01*
X111666847Y-83166847D01*
X111636554Y-83191708D01*
X111601995Y-83210180D01*
X111564499Y-83221555D01*
X111519362Y-83226000D01*
X110880638Y-83226000D01*
X110835501Y-83221555D01*
X110798005Y-83210180D01*
X110763446Y-83191708D01*
X110733153Y-83166847D01*
X110708292Y-83136554D01*
X110689820Y-83101995D01*
X110678445Y-83064499D01*
X110674000Y-83019362D01*
X110674000Y-82280638D01*
X110678445Y-82235501D01*
X110689820Y-82198005D01*
X110708292Y-82163446D01*
X110733153Y-82133153D01*
X110763446Y-82108292D01*
X110798005Y-82089820D01*
X110835501Y-82078445D01*
X110880638Y-82074000D01*
X111519362Y-82074000D01*
X111564499Y-82078445D01*
X111564499Y-82078445D01*
G37*
G36*
X113391000Y-82901000D02*
G01*
X112289000Y-82901000D01*
X112289000Y-82199000D01*
X113391000Y-82199000D01*
X113391000Y-82901000D01*
X113391000Y-82901000D01*
G37*
G36*
X115051000Y-79751000D02*
G01*
X112949000Y-79751000D01*
X112949000Y-77649000D01*
X115051000Y-77649000D01*
X115051000Y-79751000D01*
X115051000Y-79751000D01*
G37*
G36*
X114306564Y-75149389D02*
G01*
X114497833Y-75228615D01*
X114497835Y-75228616D01*
X114591027Y-75290885D01*
X114669973Y-75343635D01*
X114816365Y-75490027D01*
X114931385Y-75662167D01*
X115010611Y-75853436D01*
X115051000Y-76056484D01*
X115051000Y-76263516D01*
X115010611Y-76466564D01*
X114931385Y-76657833D01*
X114931384Y-76657835D01*
X114816365Y-76829973D01*
X114669973Y-76976365D01*
X114497835Y-77091384D01*
X114497834Y-77091385D01*
X114497833Y-77091385D01*
X114306564Y-77170611D01*
X114103516Y-77211000D01*
X113896484Y-77211000D01*
X113693436Y-77170611D01*
X113502167Y-77091385D01*
X113502166Y-77091385D01*
X113502165Y-77091384D01*
X113330027Y-76976365D01*
X113183635Y-76829973D01*
X113068616Y-76657835D01*
X113068615Y-76657833D01*
X112989389Y-76466564D01*
X112949000Y-76263516D01*
X112949000Y-76056484D01*
X112989389Y-75853436D01*
X113068615Y-75662167D01*
X113183635Y-75490027D01*
X113330027Y-75343635D01*
X113408973Y-75290885D01*
X113502165Y-75228616D01*
X113502167Y-75228615D01*
X113693436Y-75149389D01*
X113896484Y-75109000D01*
X114103516Y-75109000D01*
X114306564Y-75149389D01*
X114306564Y-75149389D01*
G37*
G36*
X107639499Y-75178445D02*
G01*
X107676995Y-75189820D01*
X107711554Y-75208292D01*
X107741847Y-75233153D01*
X107766708Y-75263446D01*
X107785180Y-75298005D01*
X107796555Y-75335501D01*
X107801000Y-75380638D01*
X107801000Y-76019362D01*
X107796555Y-76064499D01*
X107785180Y-76101995D01*
X107766708Y-76136554D01*
X107741847Y-76166847D01*
X107711554Y-76191708D01*
X107676995Y-76210180D01*
X107639499Y-76221555D01*
X107594362Y-76226000D01*
X106855638Y-76226000D01*
X106810501Y-76221555D01*
X106773005Y-76210180D01*
X106738446Y-76191708D01*
X106708153Y-76166847D01*
X106683292Y-76136554D01*
X106664820Y-76101995D01*
X106653445Y-76064499D01*
X106649000Y-76019362D01*
X106649000Y-75380638D01*
X106653445Y-75335501D01*
X106664820Y-75298005D01*
X106683292Y-75263446D01*
X106708153Y-75233153D01*
X106738446Y-75208292D01*
X106773005Y-75189820D01*
X106810501Y-75178445D01*
X106855638Y-75174000D01*
X107594362Y-75174000D01*
X107639499Y-75178445D01*
X107639499Y-75178445D01*
G37*
G36*
X109389499Y-75178445D02*
G01*
X109426995Y-75189820D01*
X109461554Y-75208292D01*
X109491847Y-75233153D01*
X109516708Y-75263446D01*
X109535180Y-75298005D01*
X109546555Y-75335501D01*
X109551000Y-75380638D01*
X109551000Y-76019362D01*
X109546555Y-76064499D01*
X109535180Y-76101995D01*
X109516708Y-76136554D01*
X109491847Y-76166847D01*
X109461554Y-76191708D01*
X109426995Y-76210180D01*
X109389499Y-76221555D01*
X109344362Y-76226000D01*
X108605638Y-76226000D01*
X108560501Y-76221555D01*
X108523005Y-76210180D01*
X108488446Y-76191708D01*
X108458153Y-76166847D01*
X108433292Y-76136554D01*
X108414820Y-76101995D01*
X108403445Y-76064499D01*
X108399000Y-76019362D01*
X108399000Y-75380638D01*
X108403445Y-75335501D01*
X108414820Y-75298005D01*
X108433292Y-75263446D01*
X108458153Y-75233153D01*
X108488446Y-75208292D01*
X108523005Y-75189820D01*
X108560501Y-75178445D01*
X108605638Y-75174000D01*
X109344362Y-75174000D01*
X109389499Y-75178445D01*
X109389499Y-75178445D01*
G37*
G36*
X107639499Y-73378445D02*
G01*
X107676995Y-73389820D01*
X107711554Y-73408292D01*
X107741847Y-73433153D01*
X107766708Y-73463446D01*
X107785180Y-73498005D01*
X107796555Y-73535501D01*
X107801000Y-73580638D01*
X107801000Y-74219362D01*
X107796555Y-74264499D01*
X107785180Y-74301995D01*
X107766708Y-74336554D01*
X107741847Y-74366847D01*
X107711554Y-74391708D01*
X107676995Y-74410180D01*
X107639499Y-74421555D01*
X107594362Y-74426000D01*
X106855638Y-74426000D01*
X106810501Y-74421555D01*
X106773005Y-74410180D01*
X106738446Y-74391708D01*
X106708153Y-74366847D01*
X106683292Y-74336554D01*
X106664820Y-74301995D01*
X106653445Y-74264499D01*
X106649000Y-74219362D01*
X106649000Y-73580638D01*
X106653445Y-73535501D01*
X106664820Y-73498005D01*
X106683292Y-73463446D01*
X106708153Y-73433153D01*
X106738446Y-73408292D01*
X106773005Y-73389820D01*
X106810501Y-73378445D01*
X106855638Y-73374000D01*
X107594362Y-73374000D01*
X107639499Y-73378445D01*
X107639499Y-73378445D01*
G37*
G36*
X109389499Y-73378445D02*
G01*
X109426995Y-73389820D01*
X109461554Y-73408292D01*
X109491847Y-73433153D01*
X109516708Y-73463446D01*
X109535180Y-73498005D01*
X109546555Y-73535501D01*
X109551000Y-73580638D01*
X109551000Y-74219362D01*
X109546555Y-74264499D01*
X109535180Y-74301995D01*
X109516708Y-74336554D01*
X109491847Y-74366847D01*
X109461554Y-74391708D01*
X109426995Y-74410180D01*
X109389499Y-74421555D01*
X109344362Y-74426000D01*
X108605638Y-74426000D01*
X108560501Y-74421555D01*
X108523005Y-74410180D01*
X108488446Y-74391708D01*
X108458153Y-74366847D01*
X108433292Y-74336554D01*
X108414820Y-74301995D01*
X108403445Y-74264499D01*
X108399000Y-74219362D01*
X108399000Y-73580638D01*
X108403445Y-73535501D01*
X108414820Y-73498005D01*
X108433292Y-73463446D01*
X108458153Y-73433153D01*
X108488446Y-73408292D01*
X108523005Y-73389820D01*
X108560501Y-73378445D01*
X108605638Y-73374000D01*
X109344362Y-73374000D01*
X109389499Y-73378445D01*
X109389499Y-73378445D01*
G37*
G36*
X116150442Y-70405518D02*
G01*
X116216627Y-70412037D01*
X116386466Y-70463557D01*
X116542991Y-70547222D01*
X116578729Y-70576552D01*
X116680186Y-70659814D01*
X116763448Y-70761271D01*
X116792778Y-70797009D01*
X116876443Y-70953534D01*
X116927963Y-71123373D01*
X116945359Y-71300000D01*
X116927963Y-71476627D01*
X116876443Y-71646466D01*
X116792778Y-71802991D01*
X116763448Y-71838729D01*
X116680186Y-71940186D01*
X116578729Y-72023448D01*
X116542991Y-72052778D01*
X116386466Y-72136443D01*
X116216627Y-72187963D01*
X116150442Y-72194482D01*
X116084260Y-72201000D01*
X115995740Y-72201000D01*
X115929558Y-72194482D01*
X115863373Y-72187963D01*
X115693534Y-72136443D01*
X115537009Y-72052778D01*
X115501271Y-72023448D01*
X115399814Y-71940186D01*
X115316552Y-71838729D01*
X115287222Y-71802991D01*
X115203557Y-71646466D01*
X115152037Y-71476627D01*
X115134641Y-71300000D01*
X115152037Y-71123373D01*
X115203557Y-70953534D01*
X115287222Y-70797009D01*
X115316552Y-70761271D01*
X115399814Y-70659814D01*
X115501271Y-70576552D01*
X115537009Y-70547222D01*
X115693534Y-70463557D01*
X115863373Y-70412037D01*
X115929558Y-70405518D01*
X115995740Y-70399000D01*
X116084260Y-70399000D01*
X116150442Y-70405518D01*
X116150442Y-70405518D01*
G37*
G36*
X114401000Y-72201000D02*
G01*
X112599000Y-72201000D01*
X112599000Y-70399000D01*
X114401000Y-70399000D01*
X114401000Y-72201000D01*
X114401000Y-72201000D01*
G37*
G36*
X109389499Y-71078445D02*
G01*
X109426995Y-71089820D01*
X109461554Y-71108292D01*
X109491847Y-71133153D01*
X109516708Y-71163446D01*
X109535180Y-71198005D01*
X109546555Y-71235501D01*
X109551000Y-71280638D01*
X109551000Y-71919362D01*
X109546555Y-71964499D01*
X109535180Y-72001995D01*
X109516708Y-72036554D01*
X109491847Y-72066847D01*
X109461554Y-72091708D01*
X109426995Y-72110180D01*
X109389499Y-72121555D01*
X109344362Y-72126000D01*
X108605638Y-72126000D01*
X108560501Y-72121555D01*
X108523005Y-72110180D01*
X108488446Y-72091708D01*
X108458153Y-72066847D01*
X108433292Y-72036554D01*
X108414820Y-72001995D01*
X108403445Y-71964499D01*
X108399000Y-71919362D01*
X108399000Y-71280638D01*
X108403445Y-71235501D01*
X108414820Y-71198005D01*
X108433292Y-71163446D01*
X108458153Y-71133153D01*
X108488446Y-71108292D01*
X108523005Y-71089820D01*
X108560501Y-71078445D01*
X108605638Y-71074000D01*
X109344362Y-71074000D01*
X109389499Y-71078445D01*
X109389499Y-71078445D01*
G37*
G36*
X107639499Y-71078445D02*
G01*
X107676995Y-71089820D01*
X107711554Y-71108292D01*
X107741847Y-71133153D01*
X107766708Y-71163446D01*
X107785180Y-71198005D01*
X107796555Y-71235501D01*
X107801000Y-71280638D01*
X107801000Y-71919362D01*
X107796555Y-71964499D01*
X107785180Y-72001995D01*
X107766708Y-72036554D01*
X107741847Y-72066847D01*
X107711554Y-72091708D01*
X107676995Y-72110180D01*
X107639499Y-72121555D01*
X107594362Y-72126000D01*
X106855638Y-72126000D01*
X106810501Y-72121555D01*
X106773005Y-72110180D01*
X106738446Y-72091708D01*
X106708153Y-72066847D01*
X106683292Y-72036554D01*
X106664820Y-72001995D01*
X106653445Y-71964499D01*
X106649000Y-71919362D01*
X106649000Y-71280638D01*
X106653445Y-71235501D01*
X106664820Y-71198005D01*
X106683292Y-71163446D01*
X106708153Y-71133153D01*
X106738446Y-71108292D01*
X106773005Y-71089820D01*
X106810501Y-71078445D01*
X106855638Y-71074000D01*
X107594362Y-71074000D01*
X107639499Y-71078445D01*
X107639499Y-71078445D01*
G37*
G36*
X67151000Y-66211000D02*
G01*
X66922735Y-66211000D01*
X66898349Y-66213402D01*
X66874900Y-66220515D01*
X66853289Y-66232066D01*
X66834347Y-66247611D01*
X66818802Y-66266553D01*
X66807251Y-66288164D01*
X66800138Y-66311613D01*
X66797736Y-66335999D01*
X66800138Y-66360385D01*
X66807251Y-66383834D01*
X66818802Y-66405445D01*
X66834347Y-66424387D01*
X66853289Y-66439932D01*
X66863802Y-66446233D01*
X66907600Y-66469644D01*
X66907602Y-66469645D01*
X66907601Y-66469645D01*
X66991501Y-66538499D01*
X67060357Y-66622400D01*
X67096995Y-66690945D01*
X67111521Y-66718121D01*
X67143027Y-66821985D01*
X67153666Y-66930000D01*
X67143027Y-67038015D01*
X67111521Y-67141879D01*
X67111519Y-67141882D01*
X67060357Y-67237600D01*
X66991501Y-67321501D01*
X66907600Y-67390357D01*
X66839055Y-67426995D01*
X66811879Y-67441521D01*
X66799131Y-67445388D01*
X66776504Y-67454760D01*
X66756130Y-67468374D01*
X66738803Y-67485701D01*
X66725189Y-67506075D01*
X66715812Y-67528714D01*
X66711031Y-67552747D01*
X66711031Y-67577251D01*
X66715811Y-67601285D01*
X66725188Y-67623924D01*
X66738802Y-67644298D01*
X66756129Y-67661625D01*
X66776503Y-67675239D01*
X66799131Y-67684612D01*
X66811879Y-67688479D01*
X66839055Y-67703005D01*
X66907600Y-67739643D01*
X66991501Y-67808499D01*
X67060357Y-67892400D01*
X67084434Y-67937446D01*
X67111521Y-67988121D01*
X67143027Y-68091985D01*
X67153666Y-68200000D01*
X67143027Y-68308015D01*
X67111521Y-68411879D01*
X67111519Y-68411882D01*
X67060357Y-68507600D01*
X66991501Y-68591501D01*
X66907600Y-68660357D01*
X66839055Y-68696995D01*
X66811879Y-68711521D01*
X66799131Y-68715388D01*
X66776504Y-68724760D01*
X66756130Y-68738374D01*
X66738803Y-68755701D01*
X66725189Y-68776075D01*
X66715812Y-68798714D01*
X66711031Y-68822747D01*
X66711031Y-68847251D01*
X66715811Y-68871285D01*
X66725188Y-68893924D01*
X66738802Y-68914298D01*
X66756129Y-68931625D01*
X66776503Y-68945239D01*
X66799131Y-68954612D01*
X66811879Y-68958479D01*
X66839055Y-68973005D01*
X66907600Y-69009643D01*
X66991501Y-69078499D01*
X67060357Y-69162400D01*
X67096995Y-69230945D01*
X67111521Y-69258121D01*
X67143027Y-69361985D01*
X67153666Y-69470000D01*
X67143027Y-69578015D01*
X67111521Y-69681879D01*
X67111519Y-69681882D01*
X67060357Y-69777600D01*
X66991501Y-69861501D01*
X66907600Y-69930357D01*
X66839055Y-69966995D01*
X66811879Y-69981521D01*
X66708015Y-70013027D01*
X66627067Y-70021000D01*
X66572933Y-70021000D01*
X66491985Y-70013027D01*
X66388121Y-69981521D01*
X66360945Y-69966995D01*
X66292400Y-69930357D01*
X66208499Y-69861501D01*
X66139643Y-69777600D01*
X66088481Y-69681882D01*
X66088479Y-69681879D01*
X66056973Y-69578015D01*
X66046334Y-69470000D01*
X66056973Y-69361985D01*
X66088479Y-69258121D01*
X66103005Y-69230945D01*
X66139643Y-69162400D01*
X66208499Y-69078499D01*
X66292400Y-69009643D01*
X66360945Y-68973005D01*
X66388121Y-68958479D01*
X66400869Y-68954612D01*
X66423496Y-68945240D01*
X66443870Y-68931626D01*
X66461197Y-68914299D01*
X66474811Y-68893925D01*
X66484188Y-68871286D01*
X66488969Y-68847253D01*
X66488969Y-68822749D01*
X66484189Y-68798715D01*
X66474812Y-68776076D01*
X66461198Y-68755702D01*
X66443871Y-68738375D01*
X66423497Y-68724761D01*
X66400869Y-68715388D01*
X66388121Y-68711521D01*
X66360945Y-68696995D01*
X66292400Y-68660357D01*
X66208499Y-68591501D01*
X66139643Y-68507600D01*
X66088481Y-68411882D01*
X66088479Y-68411879D01*
X66056973Y-68308015D01*
X66046334Y-68200000D01*
X66056973Y-68091985D01*
X66088479Y-67988121D01*
X66115566Y-67937446D01*
X66139643Y-67892400D01*
X66208499Y-67808499D01*
X66292400Y-67739643D01*
X66360945Y-67703005D01*
X66388121Y-67688479D01*
X66400869Y-67684612D01*
X66423496Y-67675240D01*
X66443870Y-67661626D01*
X66461197Y-67644299D01*
X66474811Y-67623925D01*
X66484188Y-67601286D01*
X66488969Y-67577253D01*
X66488969Y-67552749D01*
X66484189Y-67528715D01*
X66474812Y-67506076D01*
X66461198Y-67485702D01*
X66443871Y-67468375D01*
X66423497Y-67454761D01*
X66400869Y-67445388D01*
X66388121Y-67441521D01*
X66360945Y-67426995D01*
X66292400Y-67390357D01*
X66208499Y-67321501D01*
X66139643Y-67237600D01*
X66088481Y-67141882D01*
X66088479Y-67141879D01*
X66056973Y-67038015D01*
X66046334Y-66930000D01*
X66056973Y-66821985D01*
X66088479Y-66718121D01*
X66103005Y-66690945D01*
X66139643Y-66622400D01*
X66208499Y-66538499D01*
X66292399Y-66469645D01*
X66292398Y-66469645D01*
X66292400Y-66469644D01*
X66336193Y-66446236D01*
X66356563Y-66432625D01*
X66373890Y-66415298D01*
X66387504Y-66394924D01*
X66396881Y-66372285D01*
X66401662Y-66348252D01*
X66401662Y-66323748D01*
X66396882Y-66299714D01*
X66387505Y-66277076D01*
X66373891Y-66256701D01*
X66356564Y-66239374D01*
X66336190Y-66225760D01*
X66313551Y-66216383D01*
X66289518Y-66211602D01*
X66277265Y-66211000D01*
X66049000Y-66211000D01*
X66049000Y-65109000D01*
X67151000Y-65109000D01*
X67151000Y-66211000D01*
X67151000Y-66211000D01*
G37*
G36*
X110401000Y-69251000D02*
G01*
X108599000Y-69251000D01*
X108599000Y-67449000D01*
X110401000Y-67449000D01*
X110401000Y-69251000D01*
X110401000Y-69251000D01*
G37*
G36*
X116451355Y-67752140D02*
G01*
X116515118Y-67758420D01*
X116605904Y-67785960D01*
X116637836Y-67795646D01*
X116750925Y-67856094D01*
X116850054Y-67937446D01*
X116931406Y-68036575D01*
X116991854Y-68149664D01*
X116991855Y-68149668D01*
X117029080Y-68272382D01*
X117041649Y-68400000D01*
X117029080Y-68527618D01*
X117009701Y-68591501D01*
X116991854Y-68650336D01*
X116931406Y-68763425D01*
X116850054Y-68862554D01*
X116750925Y-68943906D01*
X116637836Y-69004354D01*
X116620400Y-69009643D01*
X116515118Y-69041580D01*
X116451355Y-69047860D01*
X116419474Y-69051000D01*
X115655526Y-69051000D01*
X115623645Y-69047860D01*
X115559882Y-69041580D01*
X115454600Y-69009643D01*
X115437164Y-69004354D01*
X115324075Y-68943906D01*
X115224946Y-68862554D01*
X115143594Y-68763425D01*
X115083146Y-68650336D01*
X115065299Y-68591501D01*
X115045920Y-68527618D01*
X115033351Y-68400000D01*
X115045920Y-68272382D01*
X115083145Y-68149668D01*
X115083146Y-68149664D01*
X115143594Y-68036575D01*
X115224946Y-67937446D01*
X115324075Y-67856094D01*
X115437164Y-67795646D01*
X115469096Y-67785960D01*
X115559882Y-67758420D01*
X115623645Y-67752140D01*
X115655526Y-67749000D01*
X116419474Y-67749000D01*
X116451355Y-67752140D01*
X116451355Y-67752140D01*
G37*
G36*
X113563848Y-66653820D02*
G01*
X113563850Y-66653821D01*
X113563851Y-66653821D01*
X113705074Y-66712317D01*
X113705077Y-66712319D01*
X113832169Y-66797239D01*
X113940261Y-66905331D01*
X113956744Y-66930000D01*
X114025183Y-67032426D01*
X114083679Y-67173649D01*
X114083680Y-67173652D01*
X114113500Y-67323569D01*
X114113500Y-67476431D01*
X114093446Y-67577251D01*
X114083679Y-67626351D01*
X114025183Y-67767574D01*
X114025181Y-67767577D01*
X113940261Y-67894669D01*
X113832169Y-68002761D01*
X113705077Y-68087681D01*
X113705074Y-68087683D01*
X113563851Y-68146179D01*
X113563850Y-68146179D01*
X113563848Y-68146180D01*
X113413931Y-68176000D01*
X113261069Y-68176000D01*
X113111152Y-68146180D01*
X113111150Y-68146179D01*
X113111149Y-68146179D01*
X112969926Y-68087683D01*
X112969923Y-68087681D01*
X112842831Y-68002761D01*
X112734739Y-67894669D01*
X112649819Y-67767577D01*
X112649817Y-67767574D01*
X112591321Y-67626351D01*
X112581555Y-67577251D01*
X112561500Y-67476431D01*
X112561500Y-67323569D01*
X112591320Y-67173652D01*
X112591321Y-67173649D01*
X112649817Y-67032426D01*
X112718256Y-66930000D01*
X112734739Y-66905331D01*
X112842831Y-66797239D01*
X112969923Y-66712319D01*
X112969926Y-66712317D01*
X113111149Y-66653821D01*
X113111150Y-66653821D01*
X113111152Y-66653820D01*
X113261069Y-66624000D01*
X113413931Y-66624000D01*
X113563848Y-66653820D01*
X113563848Y-66653820D01*
G37*
G36*
X109610443Y-64915519D02*
G01*
X109676627Y-64922037D01*
X109846466Y-64973557D01*
X110002991Y-65057222D01*
X110038729Y-65086552D01*
X110140186Y-65169814D01*
X110217191Y-65263646D01*
X110252778Y-65307009D01*
X110336443Y-65463534D01*
X110387963Y-65633373D01*
X110405359Y-65810000D01*
X110387963Y-65986627D01*
X110336443Y-66156466D01*
X110252778Y-66312991D01*
X110223840Y-66348252D01*
X110140186Y-66450186D01*
X110038729Y-66533448D01*
X110002991Y-66562778D01*
X109846466Y-66646443D01*
X109676627Y-66697963D01*
X109610443Y-66704481D01*
X109544260Y-66711000D01*
X109455740Y-66711000D01*
X109389557Y-66704481D01*
X109323373Y-66697963D01*
X109153534Y-66646443D01*
X108997009Y-66562778D01*
X108961271Y-66533448D01*
X108859814Y-66450186D01*
X108776160Y-66348252D01*
X108747222Y-66312991D01*
X108663557Y-66156466D01*
X108612037Y-65986627D01*
X108594641Y-65810000D01*
X108612037Y-65633373D01*
X108663557Y-65463534D01*
X108747222Y-65307009D01*
X108782809Y-65263646D01*
X108859814Y-65169814D01*
X108961271Y-65086552D01*
X108997009Y-65057222D01*
X109153534Y-64973557D01*
X109323373Y-64922037D01*
X109389557Y-64915519D01*
X109455740Y-64909000D01*
X109544260Y-64909000D01*
X109610443Y-64915519D01*
X109610443Y-64915519D01*
G37*
G36*
X113939499Y-64378445D02*
G01*
X113976995Y-64389820D01*
X114011554Y-64408292D01*
X114041847Y-64433153D01*
X114066708Y-64463446D01*
X114085180Y-64498005D01*
X114096555Y-64535501D01*
X114101000Y-64580638D01*
X114101000Y-65219362D01*
X114096555Y-65264499D01*
X114085180Y-65301995D01*
X114066708Y-65336554D01*
X114041847Y-65366847D01*
X114011554Y-65391708D01*
X113976995Y-65410180D01*
X113939499Y-65421555D01*
X113894362Y-65426000D01*
X113155638Y-65426000D01*
X113110501Y-65421555D01*
X113073005Y-65410180D01*
X113038446Y-65391708D01*
X113008153Y-65366847D01*
X112983292Y-65336554D01*
X112964820Y-65301995D01*
X112953445Y-65264499D01*
X112949000Y-65219362D01*
X112949000Y-64580638D01*
X112953445Y-64535501D01*
X112964820Y-64498005D01*
X112983292Y-64463446D01*
X113008153Y-64433153D01*
X113038446Y-64408292D01*
X113073005Y-64389820D01*
X113110501Y-64378445D01*
X113155638Y-64374000D01*
X113894362Y-64374000D01*
X113939499Y-64378445D01*
X113939499Y-64378445D01*
G37*
G36*
X115689499Y-64378445D02*
G01*
X115726995Y-64389820D01*
X115761554Y-64408292D01*
X115791847Y-64433153D01*
X115816708Y-64463446D01*
X115835180Y-64498005D01*
X115846555Y-64535501D01*
X115851000Y-64580638D01*
X115851000Y-65219362D01*
X115846555Y-65264499D01*
X115835180Y-65301995D01*
X115816708Y-65336554D01*
X115791847Y-65366847D01*
X115761554Y-65391708D01*
X115726995Y-65410180D01*
X115689499Y-65421555D01*
X115644362Y-65426000D01*
X114905638Y-65426000D01*
X114860501Y-65421555D01*
X114823005Y-65410180D01*
X114788446Y-65391708D01*
X114758153Y-65366847D01*
X114733292Y-65336554D01*
X114714820Y-65301995D01*
X114703445Y-65264499D01*
X114699000Y-65219362D01*
X114699000Y-64580638D01*
X114703445Y-64535501D01*
X114714820Y-64498005D01*
X114733292Y-64463446D01*
X114758153Y-64433153D01*
X114788446Y-64408292D01*
X114823005Y-64389820D01*
X114860501Y-64378445D01*
X114905638Y-64374000D01*
X115644362Y-64374000D01*
X115689499Y-64378445D01*
X115689499Y-64378445D01*
G37*
G36*
X109610443Y-62375519D02*
G01*
X109676627Y-62382037D01*
X109846466Y-62433557D01*
X110002991Y-62517222D01*
X110038729Y-62546552D01*
X110140186Y-62629814D01*
X110223448Y-62731271D01*
X110252778Y-62767009D01*
X110336443Y-62923534D01*
X110387963Y-63093373D01*
X110405359Y-63270000D01*
X110387963Y-63446627D01*
X110336443Y-63616466D01*
X110252778Y-63772991D01*
X110223448Y-63808729D01*
X110140186Y-63910186D01*
X110038729Y-63993448D01*
X110002991Y-64022778D01*
X109846466Y-64106443D01*
X109676627Y-64157963D01*
X109610442Y-64164482D01*
X109544260Y-64171000D01*
X109455740Y-64171000D01*
X109389558Y-64164482D01*
X109323373Y-64157963D01*
X109153534Y-64106443D01*
X108997009Y-64022778D01*
X108961271Y-63993448D01*
X108859814Y-63910186D01*
X108776552Y-63808729D01*
X108747222Y-63772991D01*
X108663557Y-63616466D01*
X108612037Y-63446627D01*
X108594641Y-63270000D01*
X108612037Y-63093373D01*
X108663557Y-62923534D01*
X108747222Y-62767009D01*
X108776552Y-62731271D01*
X108859814Y-62629814D01*
X108961271Y-62546552D01*
X108997009Y-62517222D01*
X109153534Y-62433557D01*
X109323373Y-62382037D01*
X109389557Y-62375519D01*
X109455740Y-62369000D01*
X109544260Y-62369000D01*
X109610443Y-62375519D01*
X109610443Y-62375519D01*
G37*
G36*
X113563848Y-61653820D02*
G01*
X113563850Y-61653821D01*
X113563851Y-61653821D01*
X113705074Y-61712317D01*
X113705077Y-61712319D01*
X113832169Y-61797239D01*
X113940261Y-61905331D01*
X114025181Y-62032423D01*
X114025183Y-62032426D01*
X114083679Y-62173649D01*
X114113500Y-62323571D01*
X114113500Y-62476429D01*
X114083679Y-62626351D01*
X114025183Y-62767574D01*
X114025181Y-62767577D01*
X113940261Y-62894669D01*
X113832169Y-63002761D01*
X113705077Y-63087681D01*
X113705074Y-63087683D01*
X113563851Y-63146179D01*
X113563850Y-63146179D01*
X113563848Y-63146180D01*
X113413931Y-63176000D01*
X113261069Y-63176000D01*
X113111152Y-63146180D01*
X113111150Y-63146179D01*
X113111149Y-63146179D01*
X112969926Y-63087683D01*
X112969923Y-63087681D01*
X112842831Y-63002761D01*
X112734739Y-62894669D01*
X112649819Y-62767577D01*
X112649817Y-62767574D01*
X112591321Y-62626351D01*
X112561500Y-62476429D01*
X112561500Y-62323571D01*
X112591321Y-62173649D01*
X112649817Y-62032426D01*
X112649819Y-62032423D01*
X112734739Y-61905331D01*
X112842831Y-61797239D01*
X112969923Y-61712319D01*
X112969926Y-61712317D01*
X113111149Y-61653821D01*
X113111150Y-61653821D01*
X113111152Y-61653820D01*
X113261069Y-61624000D01*
X113413931Y-61624000D01*
X113563848Y-61653820D01*
X113563848Y-61653820D01*
G37*
G36*
X116451355Y-60752140D02*
G01*
X116515118Y-60758420D01*
X116605904Y-60785960D01*
X116637836Y-60795646D01*
X116750925Y-60856094D01*
X116850054Y-60937446D01*
X116931406Y-61036575D01*
X116991854Y-61149664D01*
X116991855Y-61149668D01*
X117029080Y-61272382D01*
X117041649Y-61400000D01*
X117029080Y-61527618D01*
X117001674Y-61617963D01*
X116991854Y-61650336D01*
X116931406Y-61763425D01*
X116850054Y-61862554D01*
X116750925Y-61943906D01*
X116637836Y-62004354D01*
X116605904Y-62014040D01*
X116515118Y-62041580D01*
X116451355Y-62047860D01*
X116419474Y-62051000D01*
X115655526Y-62051000D01*
X115623645Y-62047860D01*
X115559882Y-62041580D01*
X115469096Y-62014040D01*
X115437164Y-62004354D01*
X115324075Y-61943906D01*
X115224946Y-61862554D01*
X115143594Y-61763425D01*
X115083146Y-61650336D01*
X115073326Y-61617963D01*
X115045920Y-61527618D01*
X115033351Y-61400000D01*
X115045920Y-61272382D01*
X115083145Y-61149668D01*
X115083146Y-61149664D01*
X115143594Y-61036575D01*
X115224946Y-60937446D01*
X115324075Y-60856094D01*
X115437164Y-60795646D01*
X115469096Y-60785960D01*
X115559882Y-60758420D01*
X115623645Y-60752140D01*
X115655526Y-60749000D01*
X116419474Y-60749000D01*
X116451355Y-60752140D01*
X116451355Y-60752140D01*
G37*
G36*
X109610443Y-59835519D02*
G01*
X109676627Y-59842037D01*
X109846466Y-59893557D01*
X110002991Y-59977222D01*
X110027101Y-59997009D01*
X110140186Y-60089814D01*
X110223448Y-60191271D01*
X110252778Y-60227009D01*
X110336443Y-60383534D01*
X110387963Y-60553373D01*
X110405359Y-60730000D01*
X110387963Y-60906627D01*
X110336443Y-61076466D01*
X110252778Y-61232991D01*
X110236539Y-61252778D01*
X110140186Y-61370186D01*
X110038729Y-61453448D01*
X110002991Y-61482778D01*
X109846466Y-61566443D01*
X109676627Y-61617963D01*
X109615331Y-61624000D01*
X109544260Y-61631000D01*
X109455740Y-61631000D01*
X109384669Y-61624000D01*
X109323373Y-61617963D01*
X109153534Y-61566443D01*
X108997009Y-61482778D01*
X108961271Y-61453448D01*
X108859814Y-61370186D01*
X108763461Y-61252778D01*
X108747222Y-61232991D01*
X108663557Y-61076466D01*
X108612037Y-60906627D01*
X108594641Y-60730000D01*
X108612037Y-60553373D01*
X108663557Y-60383534D01*
X108747222Y-60227009D01*
X108776552Y-60191271D01*
X108859814Y-60089814D01*
X108972899Y-59997009D01*
X108997009Y-59977222D01*
X109153534Y-59893557D01*
X109323373Y-59842037D01*
X109389557Y-59835519D01*
X109455740Y-59829000D01*
X109544260Y-59829000D01*
X109610443Y-59835519D01*
X109610443Y-59835519D01*
G37*
G36*
X102330443Y-59605519D02*
G01*
X102396627Y-59612037D01*
X102566466Y-59663557D01*
X102722991Y-59747222D01*
X102758729Y-59776552D01*
X102860186Y-59859814D01*
X102943448Y-59961271D01*
X102972778Y-59997009D01*
X103056443Y-60153534D01*
X103107963Y-60323373D01*
X103125359Y-60500000D01*
X103107963Y-60676627D01*
X103056443Y-60846466D01*
X102972778Y-61002991D01*
X102945217Y-61036574D01*
X102860186Y-61140186D01*
X102758729Y-61223448D01*
X102722991Y-61252778D01*
X102566466Y-61336443D01*
X102396627Y-61387963D01*
X102330442Y-61394482D01*
X102264260Y-61401000D01*
X102175740Y-61401000D01*
X102109558Y-61394482D01*
X102043373Y-61387963D01*
X101873534Y-61336443D01*
X101717009Y-61252778D01*
X101681271Y-61223448D01*
X101579814Y-61140186D01*
X101494783Y-61036574D01*
X101467222Y-61002991D01*
X101383557Y-60846466D01*
X101332037Y-60676627D01*
X101314641Y-60500000D01*
X101332037Y-60323373D01*
X101383557Y-60153534D01*
X101467222Y-59997009D01*
X101496552Y-59961271D01*
X101579814Y-59859814D01*
X101681271Y-59776552D01*
X101717009Y-59747222D01*
X101873534Y-59663557D01*
X102043373Y-59612037D01*
X102109557Y-59605519D01*
X102175740Y-59599000D01*
X102264260Y-59599000D01*
X102330443Y-59605519D01*
X102330443Y-59605519D01*
G37*
G36*
X99790443Y-59605519D02*
G01*
X99856627Y-59612037D01*
X100026466Y-59663557D01*
X100182991Y-59747222D01*
X100218729Y-59776552D01*
X100320186Y-59859814D01*
X100403448Y-59961271D01*
X100432778Y-59997009D01*
X100516443Y-60153534D01*
X100567963Y-60323373D01*
X100585359Y-60500000D01*
X100567963Y-60676627D01*
X100516443Y-60846466D01*
X100432778Y-61002991D01*
X100405217Y-61036574D01*
X100320186Y-61140186D01*
X100218729Y-61223448D01*
X100182991Y-61252778D01*
X100026466Y-61336443D01*
X99856627Y-61387963D01*
X99790442Y-61394482D01*
X99724260Y-61401000D01*
X99635740Y-61401000D01*
X99569558Y-61394482D01*
X99503373Y-61387963D01*
X99333534Y-61336443D01*
X99177009Y-61252778D01*
X99141271Y-61223448D01*
X99039814Y-61140186D01*
X98954783Y-61036574D01*
X98927222Y-61002991D01*
X98843557Y-60846466D01*
X98792037Y-60676627D01*
X98774641Y-60500000D01*
X98792037Y-60323373D01*
X98843557Y-60153534D01*
X98927222Y-59997009D01*
X98956552Y-59961271D01*
X99039814Y-59859814D01*
X99141271Y-59776552D01*
X99177009Y-59747222D01*
X99333534Y-59663557D01*
X99503373Y-59612037D01*
X99569557Y-59605519D01*
X99635740Y-59599000D01*
X99724260Y-59599000D01*
X99790443Y-59605519D01*
X99790443Y-59605519D01*
G37*
G36*
X97250443Y-59605519D02*
G01*
X97316627Y-59612037D01*
X97486466Y-59663557D01*
X97642991Y-59747222D01*
X97678729Y-59776552D01*
X97780186Y-59859814D01*
X97863448Y-59961271D01*
X97892778Y-59997009D01*
X97976443Y-60153534D01*
X98027963Y-60323373D01*
X98045359Y-60500000D01*
X98027963Y-60676627D01*
X97976443Y-60846466D01*
X97892778Y-61002991D01*
X97865217Y-61036574D01*
X97780186Y-61140186D01*
X97678729Y-61223448D01*
X97642991Y-61252778D01*
X97486466Y-61336443D01*
X97316627Y-61387963D01*
X97250442Y-61394482D01*
X97184260Y-61401000D01*
X97095740Y-61401000D01*
X97029558Y-61394482D01*
X96963373Y-61387963D01*
X96793534Y-61336443D01*
X96637009Y-61252778D01*
X96601271Y-61223448D01*
X96499814Y-61140186D01*
X96414783Y-61036574D01*
X96387222Y-61002991D01*
X96303557Y-60846466D01*
X96252037Y-60676627D01*
X96234641Y-60500000D01*
X96252037Y-60323373D01*
X96303557Y-60153534D01*
X96387222Y-59997009D01*
X96416552Y-59961271D01*
X96499814Y-59859814D01*
X96601271Y-59776552D01*
X96637009Y-59747222D01*
X96793534Y-59663557D01*
X96963373Y-59612037D01*
X97029557Y-59605519D01*
X97095740Y-59599000D01*
X97184260Y-59599000D01*
X97250443Y-59605519D01*
X97250443Y-59605519D01*
G37*
G36*
X95501000Y-61401000D02*
G01*
X93699000Y-61401000D01*
X93699000Y-59599000D01*
X95501000Y-59599000D01*
X95501000Y-61401000D01*
X95501000Y-61401000D01*
G37*
G36*
X109610442Y-57295518D02*
G01*
X109676627Y-57302037D01*
X109846466Y-57353557D01*
X110002991Y-57437222D01*
X110038729Y-57466552D01*
X110140186Y-57549814D01*
X110223448Y-57651271D01*
X110252778Y-57687009D01*
X110336443Y-57843534D01*
X110387963Y-58013373D01*
X110405359Y-58190000D01*
X110387963Y-58366627D01*
X110336443Y-58536466D01*
X110252778Y-58692991D01*
X110223448Y-58728729D01*
X110140186Y-58830186D01*
X110038729Y-58913448D01*
X110002991Y-58942778D01*
X109846466Y-59026443D01*
X109676627Y-59077963D01*
X109610442Y-59084482D01*
X109544260Y-59091000D01*
X109455740Y-59091000D01*
X109389558Y-59084482D01*
X109323373Y-59077963D01*
X109153534Y-59026443D01*
X108997009Y-58942778D01*
X108961271Y-58913448D01*
X108859814Y-58830186D01*
X108776552Y-58728729D01*
X108747222Y-58692991D01*
X108663557Y-58536466D01*
X108612037Y-58366627D01*
X108594641Y-58190000D01*
X108612037Y-58013373D01*
X108663557Y-57843534D01*
X108747222Y-57687009D01*
X108776552Y-57651271D01*
X108859814Y-57549814D01*
X108961271Y-57466552D01*
X108997009Y-57437222D01*
X109153534Y-57353557D01*
X109323373Y-57302037D01*
X109389558Y-57295518D01*
X109455740Y-57289000D01*
X109544260Y-57289000D01*
X109610442Y-57295518D01*
X109610442Y-57295518D01*
G37*
G36*
X58831313Y-53259523D02*
G01*
X59349980Y-53474362D01*
X59349981Y-53474363D01*
X59816769Y-53786260D01*
X60213740Y-54183231D01*
X60299780Y-54312000D01*
X60525638Y-54650020D01*
X60740477Y-55168687D01*
X60850000Y-55719298D01*
X60850000Y-56280702D01*
X60740477Y-56831313D01*
X60525638Y-57349980D01*
X60525637Y-57349981D01*
X60213740Y-57816769D01*
X59816769Y-58213740D01*
X59587960Y-58366625D01*
X59349980Y-58525638D01*
X58831313Y-58740477D01*
X58280702Y-58850000D01*
X57719298Y-58850000D01*
X57168687Y-58740477D01*
X56650020Y-58525638D01*
X56412040Y-58366625D01*
X56183231Y-58213740D01*
X55786260Y-57816769D01*
X55474363Y-57349981D01*
X55474362Y-57349980D01*
X55259523Y-56831313D01*
X55150000Y-56280702D01*
X55150000Y-55719298D01*
X55259523Y-55168687D01*
X55474362Y-54650020D01*
X55700220Y-54312000D01*
X55786260Y-54183231D01*
X56183231Y-53786260D01*
X56650019Y-53474363D01*
X56650020Y-53474362D01*
X57168687Y-53259523D01*
X57719298Y-53150000D01*
X58280702Y-53150000D01*
X58831313Y-53259523D01*
X58831313Y-53259523D01*
G37*
G36*
X115831313Y-53259523D02*
G01*
X116349980Y-53474362D01*
X116349981Y-53474363D01*
X116816769Y-53786260D01*
X117213740Y-54183231D01*
X117299780Y-54312000D01*
X117525638Y-54650020D01*
X117740477Y-55168687D01*
X117850000Y-55719298D01*
X117850000Y-56280702D01*
X117740477Y-56831313D01*
X117525638Y-57349980D01*
X117525637Y-57349981D01*
X117213740Y-57816769D01*
X116816769Y-58213740D01*
X116587960Y-58366625D01*
X116349980Y-58525638D01*
X115831313Y-58740477D01*
X115280702Y-58850000D01*
X114719298Y-58850000D01*
X114168687Y-58740477D01*
X113650020Y-58525638D01*
X113412040Y-58366625D01*
X113183231Y-58213740D01*
X112786260Y-57816769D01*
X112474363Y-57349981D01*
X112474362Y-57349980D01*
X112259523Y-56831313D01*
X112150000Y-56280702D01*
X112150000Y-55719298D01*
X112259523Y-55168687D01*
X112474362Y-54650020D01*
X112700220Y-54312000D01*
X112786260Y-54183231D01*
X113183231Y-53786260D01*
X113650019Y-53474363D01*
X113650020Y-53474362D01*
X114168687Y-53259523D01*
X114719298Y-53150000D01*
X115280702Y-53150000D01*
X115831313Y-53259523D01*
X115831313Y-53259523D01*
G37*
G36*
X85264499Y-55803445D02*
G01*
X85301995Y-55814820D01*
X85336554Y-55833292D01*
X85366847Y-55858153D01*
X85391708Y-55888446D01*
X85410180Y-55923005D01*
X85421555Y-55960501D01*
X85426000Y-56005638D01*
X85426000Y-56744362D01*
X85421555Y-56789499D01*
X85410180Y-56826995D01*
X85391708Y-56861554D01*
X85366847Y-56891847D01*
X85336554Y-56916708D01*
X85301995Y-56935180D01*
X85264499Y-56946555D01*
X85219362Y-56951000D01*
X84580638Y-56951000D01*
X84535501Y-56946555D01*
X84498005Y-56935180D01*
X84463446Y-56916708D01*
X84433153Y-56891847D01*
X84408292Y-56861554D01*
X84389820Y-56826995D01*
X84378445Y-56789499D01*
X84374000Y-56744362D01*
X84374000Y-56005638D01*
X84378445Y-55960501D01*
X84389820Y-55923005D01*
X84408292Y-55888446D01*
X84433153Y-55858153D01*
X84463446Y-55833292D01*
X84498005Y-55814820D01*
X84535501Y-55803445D01*
X84580638Y-55799000D01*
X85219362Y-55799000D01*
X85264499Y-55803445D01*
X85264499Y-55803445D01*
G37*
G36*
X88264499Y-55803445D02*
G01*
X88301995Y-55814820D01*
X88336554Y-55833292D01*
X88366847Y-55858153D01*
X88391708Y-55888446D01*
X88410180Y-55923005D01*
X88421555Y-55960501D01*
X88426000Y-56005638D01*
X88426000Y-56744362D01*
X88421555Y-56789499D01*
X88410180Y-56826995D01*
X88391708Y-56861554D01*
X88366847Y-56891847D01*
X88336554Y-56916708D01*
X88301995Y-56935180D01*
X88264499Y-56946555D01*
X88219362Y-56951000D01*
X87580638Y-56951000D01*
X87535501Y-56946555D01*
X87498005Y-56935180D01*
X87463446Y-56916708D01*
X87433153Y-56891847D01*
X87408292Y-56861554D01*
X87389820Y-56826995D01*
X87378445Y-56789499D01*
X87374000Y-56744362D01*
X87374000Y-56005638D01*
X87378445Y-55960501D01*
X87389820Y-55923005D01*
X87408292Y-55888446D01*
X87433153Y-55858153D01*
X87463446Y-55833292D01*
X87498005Y-55814820D01*
X87535501Y-55803445D01*
X87580638Y-55799000D01*
X88219362Y-55799000D01*
X88264499Y-55803445D01*
X88264499Y-55803445D01*
G37*
G36*
X91364499Y-55803445D02*
G01*
X91401995Y-55814820D01*
X91436554Y-55833292D01*
X91466847Y-55858153D01*
X91491708Y-55888446D01*
X91510180Y-55923005D01*
X91521555Y-55960501D01*
X91526000Y-56005638D01*
X91526000Y-56744362D01*
X91521555Y-56789499D01*
X91510180Y-56826995D01*
X91491708Y-56861554D01*
X91466847Y-56891847D01*
X91436554Y-56916708D01*
X91401995Y-56935180D01*
X91364499Y-56946555D01*
X91319362Y-56951000D01*
X90680638Y-56951000D01*
X90635501Y-56946555D01*
X90598005Y-56935180D01*
X90563446Y-56916708D01*
X90533153Y-56891847D01*
X90508292Y-56861554D01*
X90489820Y-56826995D01*
X90478445Y-56789499D01*
X90474000Y-56744362D01*
X90474000Y-56005638D01*
X90478445Y-55960501D01*
X90489820Y-55923005D01*
X90508292Y-55888446D01*
X90533153Y-55858153D01*
X90563446Y-55833292D01*
X90598005Y-55814820D01*
X90635501Y-55803445D01*
X90680638Y-55799000D01*
X91319362Y-55799000D01*
X91364499Y-55803445D01*
X91364499Y-55803445D01*
G37*
G36*
X95501000Y-56901000D02*
G01*
X93699000Y-56901000D01*
X93699000Y-55099000D01*
X95501000Y-55099000D01*
X95501000Y-56901000D01*
X95501000Y-56901000D01*
G37*
G36*
X99790442Y-55105518D02*
G01*
X99856627Y-55112037D01*
X100026466Y-55163557D01*
X100026468Y-55163558D01*
X100087063Y-55195947D01*
X100182991Y-55247222D01*
X100218729Y-55276552D01*
X100320186Y-55359814D01*
X100403448Y-55461271D01*
X100432778Y-55497009D01*
X100516443Y-55653534D01*
X100567963Y-55823373D01*
X100585359Y-56000000D01*
X100567963Y-56176627D01*
X100516443Y-56346466D01*
X100432778Y-56502991D01*
X100403448Y-56538729D01*
X100320186Y-56640186D01*
X100218729Y-56723448D01*
X100182991Y-56752778D01*
X100182989Y-56752779D01*
X100036064Y-56831313D01*
X100026466Y-56836443D01*
X99856627Y-56887963D01*
X99817191Y-56891847D01*
X99724260Y-56901000D01*
X99635740Y-56901000D01*
X99542809Y-56891847D01*
X99503373Y-56887963D01*
X99333534Y-56836443D01*
X99323937Y-56831313D01*
X99177011Y-56752779D01*
X99177009Y-56752778D01*
X99141271Y-56723448D01*
X99039814Y-56640186D01*
X98956552Y-56538729D01*
X98927222Y-56502991D01*
X98843557Y-56346466D01*
X98792037Y-56176627D01*
X98774641Y-56000000D01*
X98792037Y-55823373D01*
X98843557Y-55653534D01*
X98927222Y-55497009D01*
X98956552Y-55461271D01*
X99039814Y-55359814D01*
X99141271Y-55276552D01*
X99177009Y-55247222D01*
X99272937Y-55195947D01*
X99333532Y-55163558D01*
X99333534Y-55163557D01*
X99503373Y-55112037D01*
X99569558Y-55105518D01*
X99635740Y-55099000D01*
X99724260Y-55099000D01*
X99790442Y-55105518D01*
X99790442Y-55105518D01*
G37*
G36*
X97250442Y-55105518D02*
G01*
X97316627Y-55112037D01*
X97486466Y-55163557D01*
X97486468Y-55163558D01*
X97547063Y-55195947D01*
X97642991Y-55247222D01*
X97678729Y-55276552D01*
X97780186Y-55359814D01*
X97863448Y-55461271D01*
X97892778Y-55497009D01*
X97976443Y-55653534D01*
X98027963Y-55823373D01*
X98045359Y-56000000D01*
X98027963Y-56176627D01*
X97976443Y-56346466D01*
X97892778Y-56502991D01*
X97863448Y-56538729D01*
X97780186Y-56640186D01*
X97678729Y-56723448D01*
X97642991Y-56752778D01*
X97642989Y-56752779D01*
X97496064Y-56831313D01*
X97486466Y-56836443D01*
X97316627Y-56887963D01*
X97277191Y-56891847D01*
X97184260Y-56901000D01*
X97095740Y-56901000D01*
X97002809Y-56891847D01*
X96963373Y-56887963D01*
X96793534Y-56836443D01*
X96783937Y-56831313D01*
X96637011Y-56752779D01*
X96637009Y-56752778D01*
X96601271Y-56723448D01*
X96499814Y-56640186D01*
X96416552Y-56538729D01*
X96387222Y-56502991D01*
X96303557Y-56346466D01*
X96252037Y-56176627D01*
X96234641Y-56000000D01*
X96252037Y-55823373D01*
X96303557Y-55653534D01*
X96387222Y-55497009D01*
X96416552Y-55461271D01*
X96499814Y-55359814D01*
X96601271Y-55276552D01*
X96637009Y-55247222D01*
X96732937Y-55195947D01*
X96793532Y-55163558D01*
X96793534Y-55163557D01*
X96963373Y-55112037D01*
X97029558Y-55105518D01*
X97095740Y-55099000D01*
X97184260Y-55099000D01*
X97250442Y-55105518D01*
X97250442Y-55105518D01*
G37*
G36*
X102330442Y-55105518D02*
G01*
X102396627Y-55112037D01*
X102566466Y-55163557D01*
X102566468Y-55163558D01*
X102627063Y-55195947D01*
X102722991Y-55247222D01*
X102758729Y-55276552D01*
X102860186Y-55359814D01*
X102943448Y-55461271D01*
X102972778Y-55497009D01*
X103056443Y-55653534D01*
X103107963Y-55823373D01*
X103125359Y-56000000D01*
X103107963Y-56176627D01*
X103056443Y-56346466D01*
X102972778Y-56502991D01*
X102943448Y-56538729D01*
X102860186Y-56640186D01*
X102758729Y-56723448D01*
X102722991Y-56752778D01*
X102722989Y-56752779D01*
X102576064Y-56831313D01*
X102566466Y-56836443D01*
X102396627Y-56887963D01*
X102357191Y-56891847D01*
X102264260Y-56901000D01*
X102175740Y-56901000D01*
X102082809Y-56891847D01*
X102043373Y-56887963D01*
X101873534Y-56836443D01*
X101863937Y-56831313D01*
X101717011Y-56752779D01*
X101717009Y-56752778D01*
X101681271Y-56723448D01*
X101579814Y-56640186D01*
X101496552Y-56538729D01*
X101467222Y-56502991D01*
X101383557Y-56346466D01*
X101332037Y-56176627D01*
X101314641Y-56000000D01*
X101332037Y-55823373D01*
X101383557Y-55653534D01*
X101467222Y-55497009D01*
X101496552Y-55461271D01*
X101579814Y-55359814D01*
X101681271Y-55276552D01*
X101717009Y-55247222D01*
X101812937Y-55195947D01*
X101873532Y-55163558D01*
X101873534Y-55163557D01*
X102043373Y-55112037D01*
X102109558Y-55105518D01*
X102175740Y-55099000D01*
X102264260Y-55099000D01*
X102330442Y-55105518D01*
X102330442Y-55105518D01*
G37*
G36*
X65870443Y-54605519D02*
G01*
X65936627Y-54612037D01*
X66106466Y-54663557D01*
X66262991Y-54747222D01*
X66298729Y-54776552D01*
X66400186Y-54859814D01*
X66483448Y-54961271D01*
X66512778Y-54997009D01*
X66596443Y-55153534D01*
X66647963Y-55323373D01*
X66665359Y-55500000D01*
X66647963Y-55676627D01*
X66596443Y-55846466D01*
X66512778Y-56002991D01*
X66483448Y-56038729D01*
X66400186Y-56140186D01*
X66298729Y-56223448D01*
X66262991Y-56252778D01*
X66106466Y-56336443D01*
X65936627Y-56387963D01*
X65870442Y-56394482D01*
X65804260Y-56401000D01*
X65715740Y-56401000D01*
X65649558Y-56394482D01*
X65583373Y-56387963D01*
X65413534Y-56336443D01*
X65257009Y-56252778D01*
X65221271Y-56223448D01*
X65119814Y-56140186D01*
X65036552Y-56038729D01*
X65007222Y-56002991D01*
X64923557Y-55846466D01*
X64872037Y-55676627D01*
X64854641Y-55500000D01*
X64872037Y-55323373D01*
X64923557Y-55153534D01*
X65007222Y-54997009D01*
X65036552Y-54961271D01*
X65119814Y-54859814D01*
X65221271Y-54776552D01*
X65257009Y-54747222D01*
X65413534Y-54663557D01*
X65583373Y-54612037D01*
X65649557Y-54605519D01*
X65715740Y-54599000D01*
X65804260Y-54599000D01*
X65870443Y-54605519D01*
X65870443Y-54605519D01*
G37*
G36*
X78570443Y-54605519D02*
G01*
X78636627Y-54612037D01*
X78806466Y-54663557D01*
X78962991Y-54747222D01*
X78998729Y-54776552D01*
X79100186Y-54859814D01*
X79183448Y-54961271D01*
X79212778Y-54997009D01*
X79296443Y-55153534D01*
X79347963Y-55323373D01*
X79365359Y-55500000D01*
X79347963Y-55676627D01*
X79296443Y-55846466D01*
X79212778Y-56002991D01*
X79183448Y-56038729D01*
X79100186Y-56140186D01*
X78998729Y-56223448D01*
X78962991Y-56252778D01*
X78806466Y-56336443D01*
X78636627Y-56387963D01*
X78570442Y-56394482D01*
X78504260Y-56401000D01*
X78415740Y-56401000D01*
X78349558Y-56394482D01*
X78283373Y-56387963D01*
X78113534Y-56336443D01*
X77957009Y-56252778D01*
X77921271Y-56223448D01*
X77819814Y-56140186D01*
X77736552Y-56038729D01*
X77707222Y-56002991D01*
X77623557Y-55846466D01*
X77572037Y-55676627D01*
X77554641Y-55500000D01*
X77572037Y-55323373D01*
X77623557Y-55153534D01*
X77707222Y-54997009D01*
X77736552Y-54961271D01*
X77819814Y-54859814D01*
X77921271Y-54776552D01*
X77957009Y-54747222D01*
X78113534Y-54663557D01*
X78283373Y-54612037D01*
X78349557Y-54605519D01*
X78415740Y-54599000D01*
X78504260Y-54599000D01*
X78570443Y-54605519D01*
X78570443Y-54605519D01*
G37*
G36*
X76030443Y-54605519D02*
G01*
X76096627Y-54612037D01*
X76266466Y-54663557D01*
X76422991Y-54747222D01*
X76458729Y-54776552D01*
X76560186Y-54859814D01*
X76643448Y-54961271D01*
X76672778Y-54997009D01*
X76756443Y-55153534D01*
X76807963Y-55323373D01*
X76825359Y-55500000D01*
X76807963Y-55676627D01*
X76756443Y-55846466D01*
X76672778Y-56002991D01*
X76643448Y-56038729D01*
X76560186Y-56140186D01*
X76458729Y-56223448D01*
X76422991Y-56252778D01*
X76266466Y-56336443D01*
X76096627Y-56387963D01*
X76030442Y-56394482D01*
X75964260Y-56401000D01*
X75875740Y-56401000D01*
X75809558Y-56394482D01*
X75743373Y-56387963D01*
X75573534Y-56336443D01*
X75417009Y-56252778D01*
X75381271Y-56223448D01*
X75279814Y-56140186D01*
X75196552Y-56038729D01*
X75167222Y-56002991D01*
X75083557Y-55846466D01*
X75032037Y-55676627D01*
X75014641Y-55500000D01*
X75032037Y-55323373D01*
X75083557Y-55153534D01*
X75167222Y-54997009D01*
X75196552Y-54961271D01*
X75279814Y-54859814D01*
X75381271Y-54776552D01*
X75417009Y-54747222D01*
X75573534Y-54663557D01*
X75743373Y-54612037D01*
X75809557Y-54605519D01*
X75875740Y-54599000D01*
X75964260Y-54599000D01*
X76030443Y-54605519D01*
X76030443Y-54605519D01*
G37*
G36*
X73490443Y-54605519D02*
G01*
X73556627Y-54612037D01*
X73726466Y-54663557D01*
X73882991Y-54747222D01*
X73918729Y-54776552D01*
X74020186Y-54859814D01*
X74103448Y-54961271D01*
X74132778Y-54997009D01*
X74216443Y-55153534D01*
X74267963Y-55323373D01*
X74285359Y-55500000D01*
X74267963Y-55676627D01*
X74216443Y-55846466D01*
X74132778Y-56002991D01*
X74103448Y-56038729D01*
X74020186Y-56140186D01*
X73918729Y-56223448D01*
X73882991Y-56252778D01*
X73726466Y-56336443D01*
X73556627Y-56387963D01*
X73490442Y-56394482D01*
X73424260Y-56401000D01*
X73335740Y-56401000D01*
X73269558Y-56394482D01*
X73203373Y-56387963D01*
X73033534Y-56336443D01*
X72877009Y-56252778D01*
X72841271Y-56223448D01*
X72739814Y-56140186D01*
X72656552Y-56038729D01*
X72627222Y-56002991D01*
X72543557Y-55846466D01*
X72492037Y-55676627D01*
X72474641Y-55500000D01*
X72492037Y-55323373D01*
X72543557Y-55153534D01*
X72627222Y-54997009D01*
X72656552Y-54961271D01*
X72739814Y-54859814D01*
X72841271Y-54776552D01*
X72877009Y-54747222D01*
X73033534Y-54663557D01*
X73203373Y-54612037D01*
X73269557Y-54605519D01*
X73335740Y-54599000D01*
X73424260Y-54599000D01*
X73490443Y-54605519D01*
X73490443Y-54605519D01*
G37*
G36*
X70950443Y-54605519D02*
G01*
X71016627Y-54612037D01*
X71186466Y-54663557D01*
X71342991Y-54747222D01*
X71378729Y-54776552D01*
X71480186Y-54859814D01*
X71563448Y-54961271D01*
X71592778Y-54997009D01*
X71676443Y-55153534D01*
X71727963Y-55323373D01*
X71745359Y-55500000D01*
X71727963Y-55676627D01*
X71676443Y-55846466D01*
X71592778Y-56002991D01*
X71563448Y-56038729D01*
X71480186Y-56140186D01*
X71378729Y-56223448D01*
X71342991Y-56252778D01*
X71186466Y-56336443D01*
X71016627Y-56387963D01*
X70950442Y-56394482D01*
X70884260Y-56401000D01*
X70795740Y-56401000D01*
X70729558Y-56394482D01*
X70663373Y-56387963D01*
X70493534Y-56336443D01*
X70337009Y-56252778D01*
X70301271Y-56223448D01*
X70199814Y-56140186D01*
X70116552Y-56038729D01*
X70087222Y-56002991D01*
X70003557Y-55846466D01*
X69952037Y-55676627D01*
X69934641Y-55500000D01*
X69952037Y-55323373D01*
X70003557Y-55153534D01*
X70087222Y-54997009D01*
X70116552Y-54961271D01*
X70199814Y-54859814D01*
X70301271Y-54776552D01*
X70337009Y-54747222D01*
X70493534Y-54663557D01*
X70663373Y-54612037D01*
X70729557Y-54605519D01*
X70795740Y-54599000D01*
X70884260Y-54599000D01*
X70950443Y-54605519D01*
X70950443Y-54605519D01*
G37*
G36*
X68410443Y-54605519D02*
G01*
X68476627Y-54612037D01*
X68646466Y-54663557D01*
X68802991Y-54747222D01*
X68838729Y-54776552D01*
X68940186Y-54859814D01*
X69023448Y-54961271D01*
X69052778Y-54997009D01*
X69136443Y-55153534D01*
X69187963Y-55323373D01*
X69205359Y-55500000D01*
X69187963Y-55676627D01*
X69136443Y-55846466D01*
X69052778Y-56002991D01*
X69023448Y-56038729D01*
X68940186Y-56140186D01*
X68838729Y-56223448D01*
X68802991Y-56252778D01*
X68646466Y-56336443D01*
X68476627Y-56387963D01*
X68410442Y-56394482D01*
X68344260Y-56401000D01*
X68255740Y-56401000D01*
X68189558Y-56394482D01*
X68123373Y-56387963D01*
X67953534Y-56336443D01*
X67797009Y-56252778D01*
X67761271Y-56223448D01*
X67659814Y-56140186D01*
X67576552Y-56038729D01*
X67547222Y-56002991D01*
X67463557Y-55846466D01*
X67412037Y-55676627D01*
X67394641Y-55500000D01*
X67412037Y-55323373D01*
X67463557Y-55153534D01*
X67547222Y-54997009D01*
X67576552Y-54961271D01*
X67659814Y-54859814D01*
X67761271Y-54776552D01*
X67797009Y-54747222D01*
X67953534Y-54663557D01*
X68123373Y-54612037D01*
X68189557Y-54605519D01*
X68255740Y-54599000D01*
X68344260Y-54599000D01*
X68410443Y-54605519D01*
X68410443Y-54605519D01*
G37*
G36*
X63330443Y-54605519D02*
G01*
X63396627Y-54612037D01*
X63566466Y-54663557D01*
X63722991Y-54747222D01*
X63758729Y-54776552D01*
X63860186Y-54859814D01*
X63943448Y-54961271D01*
X63972778Y-54997009D01*
X64056443Y-55153534D01*
X64107963Y-55323373D01*
X64125359Y-55500000D01*
X64107963Y-55676627D01*
X64056443Y-55846466D01*
X63972778Y-56002991D01*
X63943448Y-56038729D01*
X63860186Y-56140186D01*
X63758729Y-56223448D01*
X63722991Y-56252778D01*
X63566466Y-56336443D01*
X63396627Y-56387963D01*
X63330442Y-56394482D01*
X63264260Y-56401000D01*
X63175740Y-56401000D01*
X63109558Y-56394482D01*
X63043373Y-56387963D01*
X62873534Y-56336443D01*
X62717009Y-56252778D01*
X62681271Y-56223448D01*
X62579814Y-56140186D01*
X62496552Y-56038729D01*
X62467222Y-56002991D01*
X62383557Y-55846466D01*
X62332037Y-55676627D01*
X62314641Y-55500000D01*
X62332037Y-55323373D01*
X62383557Y-55153534D01*
X62467222Y-54997009D01*
X62496552Y-54961271D01*
X62579814Y-54859814D01*
X62681271Y-54776552D01*
X62717009Y-54747222D01*
X62873534Y-54663557D01*
X63043373Y-54612037D01*
X63109557Y-54605519D01*
X63175740Y-54599000D01*
X63264260Y-54599000D01*
X63330443Y-54605519D01*
X63330443Y-54605519D01*
G37*
G36*
X81901000Y-56401000D02*
G01*
X80099000Y-56401000D01*
X80099000Y-54599000D01*
X81901000Y-54599000D01*
X81901000Y-56401000D01*
X81901000Y-56401000D01*
G37*
G36*
X91364499Y-54053445D02*
G01*
X91401995Y-54064820D01*
X91436554Y-54083292D01*
X91466847Y-54108153D01*
X91491708Y-54138446D01*
X91510180Y-54173005D01*
X91521555Y-54210501D01*
X91526000Y-54255638D01*
X91526000Y-54994362D01*
X91521555Y-55039499D01*
X91510180Y-55076995D01*
X91491708Y-55111554D01*
X91466847Y-55141847D01*
X91436554Y-55166708D01*
X91401995Y-55185180D01*
X91364499Y-55196555D01*
X91319362Y-55201000D01*
X90680638Y-55201000D01*
X90635501Y-55196555D01*
X90598005Y-55185180D01*
X90563446Y-55166708D01*
X90533153Y-55141847D01*
X90508292Y-55111554D01*
X90489820Y-55076995D01*
X90478445Y-55039499D01*
X90474000Y-54994362D01*
X90474000Y-54255638D01*
X90478445Y-54210501D01*
X90489820Y-54173005D01*
X90508292Y-54138446D01*
X90533153Y-54108153D01*
X90563446Y-54083292D01*
X90598005Y-54064820D01*
X90635501Y-54053445D01*
X90680638Y-54049000D01*
X91319362Y-54049000D01*
X91364499Y-54053445D01*
X91364499Y-54053445D01*
G37*
G36*
X85264499Y-54053445D02*
G01*
X85301995Y-54064820D01*
X85336554Y-54083292D01*
X85366847Y-54108153D01*
X85391708Y-54138446D01*
X85410180Y-54173005D01*
X85421555Y-54210501D01*
X85426000Y-54255638D01*
X85426000Y-54994362D01*
X85421555Y-55039499D01*
X85410180Y-55076995D01*
X85391708Y-55111554D01*
X85366847Y-55141847D01*
X85336554Y-55166708D01*
X85301995Y-55185180D01*
X85264499Y-55196555D01*
X85219362Y-55201000D01*
X84580638Y-55201000D01*
X84535501Y-55196555D01*
X84498005Y-55185180D01*
X84463446Y-55166708D01*
X84433153Y-55141847D01*
X84408292Y-55111554D01*
X84389820Y-55076995D01*
X84378445Y-55039499D01*
X84374000Y-54994362D01*
X84374000Y-54255638D01*
X84378445Y-54210501D01*
X84389820Y-54173005D01*
X84408292Y-54138446D01*
X84433153Y-54108153D01*
X84463446Y-54083292D01*
X84498005Y-54064820D01*
X84535501Y-54053445D01*
X84580638Y-54049000D01*
X85219362Y-54049000D01*
X85264499Y-54053445D01*
X85264499Y-54053445D01*
G37*
G36*
X88264499Y-54053445D02*
G01*
X88301995Y-54064820D01*
X88336554Y-54083292D01*
X88366847Y-54108153D01*
X88391708Y-54138446D01*
X88410180Y-54173005D01*
X88421555Y-54210501D01*
X88426000Y-54255638D01*
X88426000Y-54994362D01*
X88421555Y-55039499D01*
X88410180Y-55076995D01*
X88391708Y-55111554D01*
X88366847Y-55141847D01*
X88336554Y-55166708D01*
X88301995Y-55185180D01*
X88264499Y-55196555D01*
X88219362Y-55201000D01*
X87580638Y-55201000D01*
X87535501Y-55196555D01*
X87498005Y-55185180D01*
X87463446Y-55166708D01*
X87433153Y-55141847D01*
X87408292Y-55111554D01*
X87389820Y-55076995D01*
X87378445Y-55039499D01*
X87374000Y-54994362D01*
X87374000Y-54255638D01*
X87378445Y-54210501D01*
X87389820Y-54173005D01*
X87408292Y-54138446D01*
X87433153Y-54108153D01*
X87463446Y-54083292D01*
X87498005Y-54064820D01*
X87535501Y-54053445D01*
X87580638Y-54049000D01*
X88219362Y-54049000D01*
X88264499Y-54053445D01*
X88264499Y-54053445D01*
G37*
M02*
