G04 #@! TF.GenerationSoftware,KiCad,Pcbnew,5.1.2-f72e74a~84~ubuntu18.04.1*
G04 #@! TF.CreationDate,2019-07-03T17:08:05+08:00*
G04 #@! TF.ProjectId,cowin-tryout,636f7769-6e2d-4747-9279-6f75742e6b69,rev?*
G04 #@! TF.SameCoordinates,Original*
G04 #@! TF.FileFunction,Paste,Top*
G04 #@! TF.FilePolarity,Positive*
%FSLAX46Y46*%
G04 Gerber Fmt 4.6, Leading zero omitted, Abs format (unit mm)*
G04 Created by KiCad (PCBNEW 5.1.2-f72e74a~84~ubuntu18.04.1) date 2019-07-03 17:08:05*
%MOMM*%
%LPD*%
G04 APERTURE LIST*
%ADD10C,0.100000*%
%ADD11R,2.500000X1.000000*%
%ADD12R,1.000000X1.800000*%
%ADD13C,1.150000*%
%ADD14C,1.090000*%
%ADD15C,0.600000*%
%ADD16R,0.900000X0.400000*%
%ADD17C,0.950000*%
%ADD18R,0.650000X1.060000*%
%ADD19R,0.900000X1.200000*%
%ADD20R,2.000000X3.800000*%
%ADD21R,2.000000X1.500000*%
%ADD22R,1.650000X1.950000*%
%ADD23R,1.900000X1.500000*%
%ADD24R,1.350000X0.400000*%
%ADD25R,0.450000X1.750000*%
%ADD26R,0.250000X0.550000*%
%ADD27R,2.000000X1.000000*%
%ADD28R,0.500000X0.500000*%
%ADD29R,0.500000X0.600000*%
%ADD30R,0.600000X0.500000*%
%ADD31R,1.500000X1.500000*%
%ADD32R,1.000000X0.600000*%
%ADD33R,1.500000X1.000000*%
G04 APERTURE END LIST*
D10*
G36*
X59200000Y-77451607D02*
G01*
X59200000Y-76550000D01*
X60802858Y-76550000D01*
X60802858Y-77451607D01*
X59200000Y-77451607D01*
G37*
D11*
X108600000Y-102500000D03*
X108600000Y-100500000D03*
X108600000Y-98500000D03*
X108600000Y-96500000D03*
X108600000Y-94500000D03*
X108600000Y-92500000D03*
X108600000Y-90500000D03*
X108600000Y-88500000D03*
D12*
X106000000Y-87000000D03*
X104000000Y-87000000D03*
X102000000Y-87000000D03*
X100000000Y-87000000D03*
X98000000Y-87000000D03*
X96000000Y-87000000D03*
D11*
X93400000Y-88500000D03*
X93400000Y-90500000D03*
X93400000Y-92500000D03*
X93400000Y-94500000D03*
X93400000Y-96500000D03*
X93400000Y-98500000D03*
X93400000Y-100500000D03*
X93400000Y-102500000D03*
D10*
G36*
X91474505Y-56026204D02*
G01*
X91498773Y-56029804D01*
X91522572Y-56035765D01*
X91545671Y-56044030D01*
X91567850Y-56054520D01*
X91588893Y-56067132D01*
X91608599Y-56081747D01*
X91626777Y-56098223D01*
X91643253Y-56116401D01*
X91657868Y-56136107D01*
X91670480Y-56157150D01*
X91680970Y-56179329D01*
X91689235Y-56202428D01*
X91695196Y-56226227D01*
X91698796Y-56250495D01*
X91700000Y-56274999D01*
X91700000Y-56925001D01*
X91698796Y-56949505D01*
X91695196Y-56973773D01*
X91689235Y-56997572D01*
X91680970Y-57020671D01*
X91670480Y-57042850D01*
X91657868Y-57063893D01*
X91643253Y-57083599D01*
X91626777Y-57101777D01*
X91608599Y-57118253D01*
X91588893Y-57132868D01*
X91567850Y-57145480D01*
X91545671Y-57155970D01*
X91522572Y-57164235D01*
X91498773Y-57170196D01*
X91474505Y-57173796D01*
X91450001Y-57175000D01*
X90549999Y-57175000D01*
X90525495Y-57173796D01*
X90501227Y-57170196D01*
X90477428Y-57164235D01*
X90454329Y-57155970D01*
X90432150Y-57145480D01*
X90411107Y-57132868D01*
X90391401Y-57118253D01*
X90373223Y-57101777D01*
X90356747Y-57083599D01*
X90342132Y-57063893D01*
X90329520Y-57042850D01*
X90319030Y-57020671D01*
X90310765Y-56997572D01*
X90304804Y-56973773D01*
X90301204Y-56949505D01*
X90300000Y-56925001D01*
X90300000Y-56274999D01*
X90301204Y-56250495D01*
X90304804Y-56226227D01*
X90310765Y-56202428D01*
X90319030Y-56179329D01*
X90329520Y-56157150D01*
X90342132Y-56136107D01*
X90356747Y-56116401D01*
X90373223Y-56098223D01*
X90391401Y-56081747D01*
X90411107Y-56067132D01*
X90432150Y-56054520D01*
X90454329Y-56044030D01*
X90477428Y-56035765D01*
X90501227Y-56029804D01*
X90525495Y-56026204D01*
X90549999Y-56025000D01*
X91450001Y-56025000D01*
X91474505Y-56026204D01*
X91474505Y-56026204D01*
G37*
D13*
X91000000Y-56600000D03*
D10*
G36*
X91474505Y-53976204D02*
G01*
X91498773Y-53979804D01*
X91522572Y-53985765D01*
X91545671Y-53994030D01*
X91567850Y-54004520D01*
X91588893Y-54017132D01*
X91608599Y-54031747D01*
X91626777Y-54048223D01*
X91643253Y-54066401D01*
X91657868Y-54086107D01*
X91670480Y-54107150D01*
X91680970Y-54129329D01*
X91689235Y-54152428D01*
X91695196Y-54176227D01*
X91698796Y-54200495D01*
X91700000Y-54224999D01*
X91700000Y-54875001D01*
X91698796Y-54899505D01*
X91695196Y-54923773D01*
X91689235Y-54947572D01*
X91680970Y-54970671D01*
X91670480Y-54992850D01*
X91657868Y-55013893D01*
X91643253Y-55033599D01*
X91626777Y-55051777D01*
X91608599Y-55068253D01*
X91588893Y-55082868D01*
X91567850Y-55095480D01*
X91545671Y-55105970D01*
X91522572Y-55114235D01*
X91498773Y-55120196D01*
X91474505Y-55123796D01*
X91450001Y-55125000D01*
X90549999Y-55125000D01*
X90525495Y-55123796D01*
X90501227Y-55120196D01*
X90477428Y-55114235D01*
X90454329Y-55105970D01*
X90432150Y-55095480D01*
X90411107Y-55082868D01*
X90391401Y-55068253D01*
X90373223Y-55051777D01*
X90356747Y-55033599D01*
X90342132Y-55013893D01*
X90329520Y-54992850D01*
X90319030Y-54970671D01*
X90310765Y-54947572D01*
X90304804Y-54923773D01*
X90301204Y-54899505D01*
X90300000Y-54875001D01*
X90300000Y-54224999D01*
X90301204Y-54200495D01*
X90304804Y-54176227D01*
X90310765Y-54152428D01*
X90319030Y-54129329D01*
X90329520Y-54107150D01*
X90342132Y-54086107D01*
X90356747Y-54066401D01*
X90373223Y-54048223D01*
X90391401Y-54031747D01*
X90411107Y-54017132D01*
X90432150Y-54004520D01*
X90454329Y-53994030D01*
X90477428Y-53985765D01*
X90501227Y-53979804D01*
X90525495Y-53976204D01*
X90549999Y-53975000D01*
X91450001Y-53975000D01*
X91474505Y-53976204D01*
X91474505Y-53976204D01*
G37*
D13*
X91000000Y-54550000D03*
D10*
G36*
X88374505Y-56026204D02*
G01*
X88398773Y-56029804D01*
X88422572Y-56035765D01*
X88445671Y-56044030D01*
X88467850Y-56054520D01*
X88488893Y-56067132D01*
X88508599Y-56081747D01*
X88526777Y-56098223D01*
X88543253Y-56116401D01*
X88557868Y-56136107D01*
X88570480Y-56157150D01*
X88580970Y-56179329D01*
X88589235Y-56202428D01*
X88595196Y-56226227D01*
X88598796Y-56250495D01*
X88600000Y-56274999D01*
X88600000Y-56925001D01*
X88598796Y-56949505D01*
X88595196Y-56973773D01*
X88589235Y-56997572D01*
X88580970Y-57020671D01*
X88570480Y-57042850D01*
X88557868Y-57063893D01*
X88543253Y-57083599D01*
X88526777Y-57101777D01*
X88508599Y-57118253D01*
X88488893Y-57132868D01*
X88467850Y-57145480D01*
X88445671Y-57155970D01*
X88422572Y-57164235D01*
X88398773Y-57170196D01*
X88374505Y-57173796D01*
X88350001Y-57175000D01*
X87449999Y-57175000D01*
X87425495Y-57173796D01*
X87401227Y-57170196D01*
X87377428Y-57164235D01*
X87354329Y-57155970D01*
X87332150Y-57145480D01*
X87311107Y-57132868D01*
X87291401Y-57118253D01*
X87273223Y-57101777D01*
X87256747Y-57083599D01*
X87242132Y-57063893D01*
X87229520Y-57042850D01*
X87219030Y-57020671D01*
X87210765Y-56997572D01*
X87204804Y-56973773D01*
X87201204Y-56949505D01*
X87200000Y-56925001D01*
X87200000Y-56274999D01*
X87201204Y-56250495D01*
X87204804Y-56226227D01*
X87210765Y-56202428D01*
X87219030Y-56179329D01*
X87229520Y-56157150D01*
X87242132Y-56136107D01*
X87256747Y-56116401D01*
X87273223Y-56098223D01*
X87291401Y-56081747D01*
X87311107Y-56067132D01*
X87332150Y-56054520D01*
X87354329Y-56044030D01*
X87377428Y-56035765D01*
X87401227Y-56029804D01*
X87425495Y-56026204D01*
X87449999Y-56025000D01*
X88350001Y-56025000D01*
X88374505Y-56026204D01*
X88374505Y-56026204D01*
G37*
D13*
X87900000Y-56600000D03*
D10*
G36*
X88374505Y-53976204D02*
G01*
X88398773Y-53979804D01*
X88422572Y-53985765D01*
X88445671Y-53994030D01*
X88467850Y-54004520D01*
X88488893Y-54017132D01*
X88508599Y-54031747D01*
X88526777Y-54048223D01*
X88543253Y-54066401D01*
X88557868Y-54086107D01*
X88570480Y-54107150D01*
X88580970Y-54129329D01*
X88589235Y-54152428D01*
X88595196Y-54176227D01*
X88598796Y-54200495D01*
X88600000Y-54224999D01*
X88600000Y-54875001D01*
X88598796Y-54899505D01*
X88595196Y-54923773D01*
X88589235Y-54947572D01*
X88580970Y-54970671D01*
X88570480Y-54992850D01*
X88557868Y-55013893D01*
X88543253Y-55033599D01*
X88526777Y-55051777D01*
X88508599Y-55068253D01*
X88488893Y-55082868D01*
X88467850Y-55095480D01*
X88445671Y-55105970D01*
X88422572Y-55114235D01*
X88398773Y-55120196D01*
X88374505Y-55123796D01*
X88350001Y-55125000D01*
X87449999Y-55125000D01*
X87425495Y-55123796D01*
X87401227Y-55120196D01*
X87377428Y-55114235D01*
X87354329Y-55105970D01*
X87332150Y-55095480D01*
X87311107Y-55082868D01*
X87291401Y-55068253D01*
X87273223Y-55051777D01*
X87256747Y-55033599D01*
X87242132Y-55013893D01*
X87229520Y-54992850D01*
X87219030Y-54970671D01*
X87210765Y-54947572D01*
X87204804Y-54923773D01*
X87201204Y-54899505D01*
X87200000Y-54875001D01*
X87200000Y-54224999D01*
X87201204Y-54200495D01*
X87204804Y-54176227D01*
X87210765Y-54152428D01*
X87219030Y-54129329D01*
X87229520Y-54107150D01*
X87242132Y-54086107D01*
X87256747Y-54066401D01*
X87273223Y-54048223D01*
X87291401Y-54031747D01*
X87311107Y-54017132D01*
X87332150Y-54004520D01*
X87354329Y-53994030D01*
X87377428Y-53985765D01*
X87401227Y-53979804D01*
X87425495Y-53976204D01*
X87449999Y-53975000D01*
X88350001Y-53975000D01*
X88374505Y-53976204D01*
X88374505Y-53976204D01*
G37*
D13*
X87900000Y-54550000D03*
D10*
G36*
X72739504Y-66466204D02*
G01*
X72763773Y-66469804D01*
X72787571Y-66475765D01*
X72810671Y-66484030D01*
X72832849Y-66494520D01*
X72853893Y-66507133D01*
X72873598Y-66521747D01*
X72891777Y-66538223D01*
X72908253Y-66556402D01*
X72922867Y-66576107D01*
X72935480Y-66597151D01*
X72945970Y-66619329D01*
X72954235Y-66642429D01*
X72960196Y-66666227D01*
X72963796Y-66690496D01*
X72965000Y-66715000D01*
X72965000Y-67585000D01*
X72963796Y-67609504D01*
X72960196Y-67633773D01*
X72954235Y-67657571D01*
X72945970Y-67680671D01*
X72935480Y-67702849D01*
X72922867Y-67723893D01*
X72908253Y-67743598D01*
X72891777Y-67761777D01*
X72873598Y-67778253D01*
X72853893Y-67792867D01*
X72832849Y-67805480D01*
X72810671Y-67815970D01*
X72787571Y-67824235D01*
X72763773Y-67830196D01*
X72739504Y-67833796D01*
X72715000Y-67835000D01*
X72125000Y-67835000D01*
X72100496Y-67833796D01*
X72076227Y-67830196D01*
X72052429Y-67824235D01*
X72029329Y-67815970D01*
X72007151Y-67805480D01*
X71986107Y-67792867D01*
X71966402Y-67778253D01*
X71948223Y-67761777D01*
X71931747Y-67743598D01*
X71917133Y-67723893D01*
X71904520Y-67702849D01*
X71894030Y-67680671D01*
X71885765Y-67657571D01*
X71879804Y-67633773D01*
X71876204Y-67609504D01*
X71875000Y-67585000D01*
X71875000Y-66715000D01*
X71876204Y-66690496D01*
X71879804Y-66666227D01*
X71885765Y-66642429D01*
X71894030Y-66619329D01*
X71904520Y-66597151D01*
X71917133Y-66576107D01*
X71931747Y-66556402D01*
X71948223Y-66538223D01*
X71966402Y-66521747D01*
X71986107Y-66507133D01*
X72007151Y-66494520D01*
X72029329Y-66484030D01*
X72052429Y-66475765D01*
X72076227Y-66469804D01*
X72100496Y-66466204D01*
X72125000Y-66465000D01*
X72715000Y-66465000D01*
X72739504Y-66466204D01*
X72739504Y-66466204D01*
G37*
D14*
X72420000Y-67150000D03*
D10*
G36*
X72739504Y-68166204D02*
G01*
X72763773Y-68169804D01*
X72787571Y-68175765D01*
X72810671Y-68184030D01*
X72832849Y-68194520D01*
X72853893Y-68207133D01*
X72873598Y-68221747D01*
X72891777Y-68238223D01*
X72908253Y-68256402D01*
X72922867Y-68276107D01*
X72935480Y-68297151D01*
X72945970Y-68319329D01*
X72954235Y-68342429D01*
X72960196Y-68366227D01*
X72963796Y-68390496D01*
X72965000Y-68415000D01*
X72965000Y-69285000D01*
X72963796Y-69309504D01*
X72960196Y-69333773D01*
X72954235Y-69357571D01*
X72945970Y-69380671D01*
X72935480Y-69402849D01*
X72922867Y-69423893D01*
X72908253Y-69443598D01*
X72891777Y-69461777D01*
X72873598Y-69478253D01*
X72853893Y-69492867D01*
X72832849Y-69505480D01*
X72810671Y-69515970D01*
X72787571Y-69524235D01*
X72763773Y-69530196D01*
X72739504Y-69533796D01*
X72715000Y-69535000D01*
X72125000Y-69535000D01*
X72100496Y-69533796D01*
X72076227Y-69530196D01*
X72052429Y-69524235D01*
X72029329Y-69515970D01*
X72007151Y-69505480D01*
X71986107Y-69492867D01*
X71966402Y-69478253D01*
X71948223Y-69461777D01*
X71931747Y-69443598D01*
X71917133Y-69423893D01*
X71904520Y-69402849D01*
X71894030Y-69380671D01*
X71885765Y-69357571D01*
X71879804Y-69333773D01*
X71876204Y-69309504D01*
X71875000Y-69285000D01*
X71875000Y-68415000D01*
X71876204Y-68390496D01*
X71879804Y-68366227D01*
X71885765Y-68342429D01*
X71894030Y-68319329D01*
X71904520Y-68297151D01*
X71917133Y-68276107D01*
X71931747Y-68256402D01*
X71948223Y-68238223D01*
X71966402Y-68221747D01*
X71986107Y-68207133D01*
X72007151Y-68194520D01*
X72029329Y-68184030D01*
X72052429Y-68175765D01*
X72076227Y-68169804D01*
X72100496Y-68166204D01*
X72125000Y-68165000D01*
X72715000Y-68165000D01*
X72739504Y-68166204D01*
X72739504Y-68166204D01*
G37*
D14*
X72420000Y-68850000D03*
D10*
G36*
X74099504Y-66466204D02*
G01*
X74123773Y-66469804D01*
X74147571Y-66475765D01*
X74170671Y-66484030D01*
X74192849Y-66494520D01*
X74213893Y-66507133D01*
X74233598Y-66521747D01*
X74251777Y-66538223D01*
X74268253Y-66556402D01*
X74282867Y-66576107D01*
X74295480Y-66597151D01*
X74305970Y-66619329D01*
X74314235Y-66642429D01*
X74320196Y-66666227D01*
X74323796Y-66690496D01*
X74325000Y-66715000D01*
X74325000Y-67585000D01*
X74323796Y-67609504D01*
X74320196Y-67633773D01*
X74314235Y-67657571D01*
X74305970Y-67680671D01*
X74295480Y-67702849D01*
X74282867Y-67723893D01*
X74268253Y-67743598D01*
X74251777Y-67761777D01*
X74233598Y-67778253D01*
X74213893Y-67792867D01*
X74192849Y-67805480D01*
X74170671Y-67815970D01*
X74147571Y-67824235D01*
X74123773Y-67830196D01*
X74099504Y-67833796D01*
X74075000Y-67835000D01*
X73485000Y-67835000D01*
X73460496Y-67833796D01*
X73436227Y-67830196D01*
X73412429Y-67824235D01*
X73389329Y-67815970D01*
X73367151Y-67805480D01*
X73346107Y-67792867D01*
X73326402Y-67778253D01*
X73308223Y-67761777D01*
X73291747Y-67743598D01*
X73277133Y-67723893D01*
X73264520Y-67702849D01*
X73254030Y-67680671D01*
X73245765Y-67657571D01*
X73239804Y-67633773D01*
X73236204Y-67609504D01*
X73235000Y-67585000D01*
X73235000Y-66715000D01*
X73236204Y-66690496D01*
X73239804Y-66666227D01*
X73245765Y-66642429D01*
X73254030Y-66619329D01*
X73264520Y-66597151D01*
X73277133Y-66576107D01*
X73291747Y-66556402D01*
X73308223Y-66538223D01*
X73326402Y-66521747D01*
X73346107Y-66507133D01*
X73367151Y-66494520D01*
X73389329Y-66484030D01*
X73412429Y-66475765D01*
X73436227Y-66469804D01*
X73460496Y-66466204D01*
X73485000Y-66465000D01*
X74075000Y-66465000D01*
X74099504Y-66466204D01*
X74099504Y-66466204D01*
G37*
D14*
X73780000Y-67150000D03*
D10*
G36*
X74099504Y-68166204D02*
G01*
X74123773Y-68169804D01*
X74147571Y-68175765D01*
X74170671Y-68184030D01*
X74192849Y-68194520D01*
X74213893Y-68207133D01*
X74233598Y-68221747D01*
X74251777Y-68238223D01*
X74268253Y-68256402D01*
X74282867Y-68276107D01*
X74295480Y-68297151D01*
X74305970Y-68319329D01*
X74314235Y-68342429D01*
X74320196Y-68366227D01*
X74323796Y-68390496D01*
X74325000Y-68415000D01*
X74325000Y-69285000D01*
X74323796Y-69309504D01*
X74320196Y-69333773D01*
X74314235Y-69357571D01*
X74305970Y-69380671D01*
X74295480Y-69402849D01*
X74282867Y-69423893D01*
X74268253Y-69443598D01*
X74251777Y-69461777D01*
X74233598Y-69478253D01*
X74213893Y-69492867D01*
X74192849Y-69505480D01*
X74170671Y-69515970D01*
X74147571Y-69524235D01*
X74123773Y-69530196D01*
X74099504Y-69533796D01*
X74075000Y-69535000D01*
X73485000Y-69535000D01*
X73460496Y-69533796D01*
X73436227Y-69530196D01*
X73412429Y-69524235D01*
X73389329Y-69515970D01*
X73367151Y-69505480D01*
X73346107Y-69492867D01*
X73326402Y-69478253D01*
X73308223Y-69461777D01*
X73291747Y-69443598D01*
X73277133Y-69423893D01*
X73264520Y-69402849D01*
X73254030Y-69380671D01*
X73245765Y-69357571D01*
X73239804Y-69333773D01*
X73236204Y-69309504D01*
X73235000Y-69285000D01*
X73235000Y-68415000D01*
X73236204Y-68390496D01*
X73239804Y-68366227D01*
X73245765Y-68342429D01*
X73254030Y-68319329D01*
X73264520Y-68297151D01*
X73277133Y-68276107D01*
X73291747Y-68256402D01*
X73308223Y-68238223D01*
X73326402Y-68221747D01*
X73346107Y-68207133D01*
X73367151Y-68194520D01*
X73389329Y-68184030D01*
X73412429Y-68175765D01*
X73436227Y-68169804D01*
X73460496Y-68166204D01*
X73485000Y-68165000D01*
X74075000Y-68165000D01*
X74099504Y-68166204D01*
X74099504Y-68166204D01*
G37*
D14*
X73780000Y-68850000D03*
D10*
G36*
X71289703Y-65795722D02*
G01*
X71304264Y-65797882D01*
X71318543Y-65801459D01*
X71332403Y-65806418D01*
X71345710Y-65812712D01*
X71358336Y-65820280D01*
X71370159Y-65829048D01*
X71381066Y-65838934D01*
X71390952Y-65849841D01*
X71399720Y-65861664D01*
X71407288Y-65874290D01*
X71413582Y-65887597D01*
X71418541Y-65901457D01*
X71422118Y-65915736D01*
X71424278Y-65930297D01*
X71425000Y-65945000D01*
X71425000Y-66245000D01*
X71424278Y-66259703D01*
X71422118Y-66274264D01*
X71418541Y-66288543D01*
X71413582Y-66302403D01*
X71407288Y-66315710D01*
X71399720Y-66328336D01*
X71390952Y-66340159D01*
X71381066Y-66351066D01*
X71370159Y-66360952D01*
X71358336Y-66369720D01*
X71345710Y-66377288D01*
X71332403Y-66383582D01*
X71318543Y-66388541D01*
X71304264Y-66392118D01*
X71289703Y-66394278D01*
X71275000Y-66395000D01*
X69800000Y-66395000D01*
X69785297Y-66394278D01*
X69770736Y-66392118D01*
X69756457Y-66388541D01*
X69742597Y-66383582D01*
X69729290Y-66377288D01*
X69716664Y-66369720D01*
X69704841Y-66360952D01*
X69693934Y-66351066D01*
X69684048Y-66340159D01*
X69675280Y-66328336D01*
X69667712Y-66315710D01*
X69661418Y-66302403D01*
X69656459Y-66288543D01*
X69652882Y-66274264D01*
X69650722Y-66259703D01*
X69650000Y-66245000D01*
X69650000Y-65945000D01*
X69650722Y-65930297D01*
X69652882Y-65915736D01*
X69656459Y-65901457D01*
X69661418Y-65887597D01*
X69667712Y-65874290D01*
X69675280Y-65861664D01*
X69684048Y-65849841D01*
X69693934Y-65838934D01*
X69704841Y-65829048D01*
X69716664Y-65820280D01*
X69729290Y-65812712D01*
X69742597Y-65806418D01*
X69756457Y-65801459D01*
X69770736Y-65797882D01*
X69785297Y-65795722D01*
X69800000Y-65795000D01*
X71275000Y-65795000D01*
X71289703Y-65795722D01*
X71289703Y-65795722D01*
G37*
D15*
X70537500Y-66095000D03*
D10*
G36*
X71289703Y-67065722D02*
G01*
X71304264Y-67067882D01*
X71318543Y-67071459D01*
X71332403Y-67076418D01*
X71345710Y-67082712D01*
X71358336Y-67090280D01*
X71370159Y-67099048D01*
X71381066Y-67108934D01*
X71390952Y-67119841D01*
X71399720Y-67131664D01*
X71407288Y-67144290D01*
X71413582Y-67157597D01*
X71418541Y-67171457D01*
X71422118Y-67185736D01*
X71424278Y-67200297D01*
X71425000Y-67215000D01*
X71425000Y-67515000D01*
X71424278Y-67529703D01*
X71422118Y-67544264D01*
X71418541Y-67558543D01*
X71413582Y-67572403D01*
X71407288Y-67585710D01*
X71399720Y-67598336D01*
X71390952Y-67610159D01*
X71381066Y-67621066D01*
X71370159Y-67630952D01*
X71358336Y-67639720D01*
X71345710Y-67647288D01*
X71332403Y-67653582D01*
X71318543Y-67658541D01*
X71304264Y-67662118D01*
X71289703Y-67664278D01*
X71275000Y-67665000D01*
X69800000Y-67665000D01*
X69785297Y-67664278D01*
X69770736Y-67662118D01*
X69756457Y-67658541D01*
X69742597Y-67653582D01*
X69729290Y-67647288D01*
X69716664Y-67639720D01*
X69704841Y-67630952D01*
X69693934Y-67621066D01*
X69684048Y-67610159D01*
X69675280Y-67598336D01*
X69667712Y-67585710D01*
X69661418Y-67572403D01*
X69656459Y-67558543D01*
X69652882Y-67544264D01*
X69650722Y-67529703D01*
X69650000Y-67515000D01*
X69650000Y-67215000D01*
X69650722Y-67200297D01*
X69652882Y-67185736D01*
X69656459Y-67171457D01*
X69661418Y-67157597D01*
X69667712Y-67144290D01*
X69675280Y-67131664D01*
X69684048Y-67119841D01*
X69693934Y-67108934D01*
X69704841Y-67099048D01*
X69716664Y-67090280D01*
X69729290Y-67082712D01*
X69742597Y-67076418D01*
X69756457Y-67071459D01*
X69770736Y-67067882D01*
X69785297Y-67065722D01*
X69800000Y-67065000D01*
X71275000Y-67065000D01*
X71289703Y-67065722D01*
X71289703Y-67065722D01*
G37*
D15*
X70537500Y-67365000D03*
D10*
G36*
X71289703Y-68335722D02*
G01*
X71304264Y-68337882D01*
X71318543Y-68341459D01*
X71332403Y-68346418D01*
X71345710Y-68352712D01*
X71358336Y-68360280D01*
X71370159Y-68369048D01*
X71381066Y-68378934D01*
X71390952Y-68389841D01*
X71399720Y-68401664D01*
X71407288Y-68414290D01*
X71413582Y-68427597D01*
X71418541Y-68441457D01*
X71422118Y-68455736D01*
X71424278Y-68470297D01*
X71425000Y-68485000D01*
X71425000Y-68785000D01*
X71424278Y-68799703D01*
X71422118Y-68814264D01*
X71418541Y-68828543D01*
X71413582Y-68842403D01*
X71407288Y-68855710D01*
X71399720Y-68868336D01*
X71390952Y-68880159D01*
X71381066Y-68891066D01*
X71370159Y-68900952D01*
X71358336Y-68909720D01*
X71345710Y-68917288D01*
X71332403Y-68923582D01*
X71318543Y-68928541D01*
X71304264Y-68932118D01*
X71289703Y-68934278D01*
X71275000Y-68935000D01*
X69800000Y-68935000D01*
X69785297Y-68934278D01*
X69770736Y-68932118D01*
X69756457Y-68928541D01*
X69742597Y-68923582D01*
X69729290Y-68917288D01*
X69716664Y-68909720D01*
X69704841Y-68900952D01*
X69693934Y-68891066D01*
X69684048Y-68880159D01*
X69675280Y-68868336D01*
X69667712Y-68855710D01*
X69661418Y-68842403D01*
X69656459Y-68828543D01*
X69652882Y-68814264D01*
X69650722Y-68799703D01*
X69650000Y-68785000D01*
X69650000Y-68485000D01*
X69650722Y-68470297D01*
X69652882Y-68455736D01*
X69656459Y-68441457D01*
X69661418Y-68427597D01*
X69667712Y-68414290D01*
X69675280Y-68401664D01*
X69684048Y-68389841D01*
X69693934Y-68378934D01*
X69704841Y-68369048D01*
X69716664Y-68360280D01*
X69729290Y-68352712D01*
X69742597Y-68346418D01*
X69756457Y-68341459D01*
X69770736Y-68337882D01*
X69785297Y-68335722D01*
X69800000Y-68335000D01*
X71275000Y-68335000D01*
X71289703Y-68335722D01*
X71289703Y-68335722D01*
G37*
D15*
X70537500Y-68635000D03*
D10*
G36*
X71289703Y-69605722D02*
G01*
X71304264Y-69607882D01*
X71318543Y-69611459D01*
X71332403Y-69616418D01*
X71345710Y-69622712D01*
X71358336Y-69630280D01*
X71370159Y-69639048D01*
X71381066Y-69648934D01*
X71390952Y-69659841D01*
X71399720Y-69671664D01*
X71407288Y-69684290D01*
X71413582Y-69697597D01*
X71418541Y-69711457D01*
X71422118Y-69725736D01*
X71424278Y-69740297D01*
X71425000Y-69755000D01*
X71425000Y-70055000D01*
X71424278Y-70069703D01*
X71422118Y-70084264D01*
X71418541Y-70098543D01*
X71413582Y-70112403D01*
X71407288Y-70125710D01*
X71399720Y-70138336D01*
X71390952Y-70150159D01*
X71381066Y-70161066D01*
X71370159Y-70170952D01*
X71358336Y-70179720D01*
X71345710Y-70187288D01*
X71332403Y-70193582D01*
X71318543Y-70198541D01*
X71304264Y-70202118D01*
X71289703Y-70204278D01*
X71275000Y-70205000D01*
X69800000Y-70205000D01*
X69785297Y-70204278D01*
X69770736Y-70202118D01*
X69756457Y-70198541D01*
X69742597Y-70193582D01*
X69729290Y-70187288D01*
X69716664Y-70179720D01*
X69704841Y-70170952D01*
X69693934Y-70161066D01*
X69684048Y-70150159D01*
X69675280Y-70138336D01*
X69667712Y-70125710D01*
X69661418Y-70112403D01*
X69656459Y-70098543D01*
X69652882Y-70084264D01*
X69650722Y-70069703D01*
X69650000Y-70055000D01*
X69650000Y-69755000D01*
X69650722Y-69740297D01*
X69652882Y-69725736D01*
X69656459Y-69711457D01*
X69661418Y-69697597D01*
X69667712Y-69684290D01*
X69675280Y-69671664D01*
X69684048Y-69659841D01*
X69693934Y-69648934D01*
X69704841Y-69639048D01*
X69716664Y-69630280D01*
X69729290Y-69622712D01*
X69742597Y-69616418D01*
X69756457Y-69611459D01*
X69770736Y-69607882D01*
X69785297Y-69605722D01*
X69800000Y-69605000D01*
X71275000Y-69605000D01*
X71289703Y-69605722D01*
X71289703Y-69605722D01*
G37*
D15*
X70537500Y-69905000D03*
D10*
G36*
X76414703Y-69605722D02*
G01*
X76429264Y-69607882D01*
X76443543Y-69611459D01*
X76457403Y-69616418D01*
X76470710Y-69622712D01*
X76483336Y-69630280D01*
X76495159Y-69639048D01*
X76506066Y-69648934D01*
X76515952Y-69659841D01*
X76524720Y-69671664D01*
X76532288Y-69684290D01*
X76538582Y-69697597D01*
X76543541Y-69711457D01*
X76547118Y-69725736D01*
X76549278Y-69740297D01*
X76550000Y-69755000D01*
X76550000Y-70055000D01*
X76549278Y-70069703D01*
X76547118Y-70084264D01*
X76543541Y-70098543D01*
X76538582Y-70112403D01*
X76532288Y-70125710D01*
X76524720Y-70138336D01*
X76515952Y-70150159D01*
X76506066Y-70161066D01*
X76495159Y-70170952D01*
X76483336Y-70179720D01*
X76470710Y-70187288D01*
X76457403Y-70193582D01*
X76443543Y-70198541D01*
X76429264Y-70202118D01*
X76414703Y-70204278D01*
X76400000Y-70205000D01*
X74925000Y-70205000D01*
X74910297Y-70204278D01*
X74895736Y-70202118D01*
X74881457Y-70198541D01*
X74867597Y-70193582D01*
X74854290Y-70187288D01*
X74841664Y-70179720D01*
X74829841Y-70170952D01*
X74818934Y-70161066D01*
X74809048Y-70150159D01*
X74800280Y-70138336D01*
X74792712Y-70125710D01*
X74786418Y-70112403D01*
X74781459Y-70098543D01*
X74777882Y-70084264D01*
X74775722Y-70069703D01*
X74775000Y-70055000D01*
X74775000Y-69755000D01*
X74775722Y-69740297D01*
X74777882Y-69725736D01*
X74781459Y-69711457D01*
X74786418Y-69697597D01*
X74792712Y-69684290D01*
X74800280Y-69671664D01*
X74809048Y-69659841D01*
X74818934Y-69648934D01*
X74829841Y-69639048D01*
X74841664Y-69630280D01*
X74854290Y-69622712D01*
X74867597Y-69616418D01*
X74881457Y-69611459D01*
X74895736Y-69607882D01*
X74910297Y-69605722D01*
X74925000Y-69605000D01*
X76400000Y-69605000D01*
X76414703Y-69605722D01*
X76414703Y-69605722D01*
G37*
D15*
X75662500Y-69905000D03*
D10*
G36*
X76414703Y-68335722D02*
G01*
X76429264Y-68337882D01*
X76443543Y-68341459D01*
X76457403Y-68346418D01*
X76470710Y-68352712D01*
X76483336Y-68360280D01*
X76495159Y-68369048D01*
X76506066Y-68378934D01*
X76515952Y-68389841D01*
X76524720Y-68401664D01*
X76532288Y-68414290D01*
X76538582Y-68427597D01*
X76543541Y-68441457D01*
X76547118Y-68455736D01*
X76549278Y-68470297D01*
X76550000Y-68485000D01*
X76550000Y-68785000D01*
X76549278Y-68799703D01*
X76547118Y-68814264D01*
X76543541Y-68828543D01*
X76538582Y-68842403D01*
X76532288Y-68855710D01*
X76524720Y-68868336D01*
X76515952Y-68880159D01*
X76506066Y-68891066D01*
X76495159Y-68900952D01*
X76483336Y-68909720D01*
X76470710Y-68917288D01*
X76457403Y-68923582D01*
X76443543Y-68928541D01*
X76429264Y-68932118D01*
X76414703Y-68934278D01*
X76400000Y-68935000D01*
X74925000Y-68935000D01*
X74910297Y-68934278D01*
X74895736Y-68932118D01*
X74881457Y-68928541D01*
X74867597Y-68923582D01*
X74854290Y-68917288D01*
X74841664Y-68909720D01*
X74829841Y-68900952D01*
X74818934Y-68891066D01*
X74809048Y-68880159D01*
X74800280Y-68868336D01*
X74792712Y-68855710D01*
X74786418Y-68842403D01*
X74781459Y-68828543D01*
X74777882Y-68814264D01*
X74775722Y-68799703D01*
X74775000Y-68785000D01*
X74775000Y-68485000D01*
X74775722Y-68470297D01*
X74777882Y-68455736D01*
X74781459Y-68441457D01*
X74786418Y-68427597D01*
X74792712Y-68414290D01*
X74800280Y-68401664D01*
X74809048Y-68389841D01*
X74818934Y-68378934D01*
X74829841Y-68369048D01*
X74841664Y-68360280D01*
X74854290Y-68352712D01*
X74867597Y-68346418D01*
X74881457Y-68341459D01*
X74895736Y-68337882D01*
X74910297Y-68335722D01*
X74925000Y-68335000D01*
X76400000Y-68335000D01*
X76414703Y-68335722D01*
X76414703Y-68335722D01*
G37*
D15*
X75662500Y-68635000D03*
D10*
G36*
X76414703Y-67065722D02*
G01*
X76429264Y-67067882D01*
X76443543Y-67071459D01*
X76457403Y-67076418D01*
X76470710Y-67082712D01*
X76483336Y-67090280D01*
X76495159Y-67099048D01*
X76506066Y-67108934D01*
X76515952Y-67119841D01*
X76524720Y-67131664D01*
X76532288Y-67144290D01*
X76538582Y-67157597D01*
X76543541Y-67171457D01*
X76547118Y-67185736D01*
X76549278Y-67200297D01*
X76550000Y-67215000D01*
X76550000Y-67515000D01*
X76549278Y-67529703D01*
X76547118Y-67544264D01*
X76543541Y-67558543D01*
X76538582Y-67572403D01*
X76532288Y-67585710D01*
X76524720Y-67598336D01*
X76515952Y-67610159D01*
X76506066Y-67621066D01*
X76495159Y-67630952D01*
X76483336Y-67639720D01*
X76470710Y-67647288D01*
X76457403Y-67653582D01*
X76443543Y-67658541D01*
X76429264Y-67662118D01*
X76414703Y-67664278D01*
X76400000Y-67665000D01*
X74925000Y-67665000D01*
X74910297Y-67664278D01*
X74895736Y-67662118D01*
X74881457Y-67658541D01*
X74867597Y-67653582D01*
X74854290Y-67647288D01*
X74841664Y-67639720D01*
X74829841Y-67630952D01*
X74818934Y-67621066D01*
X74809048Y-67610159D01*
X74800280Y-67598336D01*
X74792712Y-67585710D01*
X74786418Y-67572403D01*
X74781459Y-67558543D01*
X74777882Y-67544264D01*
X74775722Y-67529703D01*
X74775000Y-67515000D01*
X74775000Y-67215000D01*
X74775722Y-67200297D01*
X74777882Y-67185736D01*
X74781459Y-67171457D01*
X74786418Y-67157597D01*
X74792712Y-67144290D01*
X74800280Y-67131664D01*
X74809048Y-67119841D01*
X74818934Y-67108934D01*
X74829841Y-67099048D01*
X74841664Y-67090280D01*
X74854290Y-67082712D01*
X74867597Y-67076418D01*
X74881457Y-67071459D01*
X74895736Y-67067882D01*
X74910297Y-67065722D01*
X74925000Y-67065000D01*
X76400000Y-67065000D01*
X76414703Y-67065722D01*
X76414703Y-67065722D01*
G37*
D15*
X75662500Y-67365000D03*
D10*
G36*
X76414703Y-65795722D02*
G01*
X76429264Y-65797882D01*
X76443543Y-65801459D01*
X76457403Y-65806418D01*
X76470710Y-65812712D01*
X76483336Y-65820280D01*
X76495159Y-65829048D01*
X76506066Y-65838934D01*
X76515952Y-65849841D01*
X76524720Y-65861664D01*
X76532288Y-65874290D01*
X76538582Y-65887597D01*
X76543541Y-65901457D01*
X76547118Y-65915736D01*
X76549278Y-65930297D01*
X76550000Y-65945000D01*
X76550000Y-66245000D01*
X76549278Y-66259703D01*
X76547118Y-66274264D01*
X76543541Y-66288543D01*
X76538582Y-66302403D01*
X76532288Y-66315710D01*
X76524720Y-66328336D01*
X76515952Y-66340159D01*
X76506066Y-66351066D01*
X76495159Y-66360952D01*
X76483336Y-66369720D01*
X76470710Y-66377288D01*
X76457403Y-66383582D01*
X76443543Y-66388541D01*
X76429264Y-66392118D01*
X76414703Y-66394278D01*
X76400000Y-66395000D01*
X74925000Y-66395000D01*
X74910297Y-66394278D01*
X74895736Y-66392118D01*
X74881457Y-66388541D01*
X74867597Y-66383582D01*
X74854290Y-66377288D01*
X74841664Y-66369720D01*
X74829841Y-66360952D01*
X74818934Y-66351066D01*
X74809048Y-66340159D01*
X74800280Y-66328336D01*
X74792712Y-66315710D01*
X74786418Y-66302403D01*
X74781459Y-66288543D01*
X74777882Y-66274264D01*
X74775722Y-66259703D01*
X74775000Y-66245000D01*
X74775000Y-65945000D01*
X74775722Y-65930297D01*
X74777882Y-65915736D01*
X74781459Y-65901457D01*
X74786418Y-65887597D01*
X74792712Y-65874290D01*
X74800280Y-65861664D01*
X74809048Y-65849841D01*
X74818934Y-65838934D01*
X74829841Y-65829048D01*
X74841664Y-65820280D01*
X74854290Y-65812712D01*
X74867597Y-65806418D01*
X74881457Y-65801459D01*
X74895736Y-65797882D01*
X74910297Y-65795722D01*
X74925000Y-65795000D01*
X76400000Y-65795000D01*
X76414703Y-65795722D01*
X76414703Y-65795722D01*
G37*
D15*
X75662500Y-66095000D03*
D16*
X81050000Y-71400000D03*
X81050000Y-70600000D03*
X81050000Y-69800000D03*
X81050000Y-69000000D03*
X79350000Y-71400000D03*
X79350000Y-69000000D03*
X79350000Y-70600000D03*
X79350000Y-69800000D03*
D10*
G36*
X85374505Y-56026204D02*
G01*
X85398773Y-56029804D01*
X85422572Y-56035765D01*
X85445671Y-56044030D01*
X85467850Y-56054520D01*
X85488893Y-56067132D01*
X85508599Y-56081747D01*
X85526777Y-56098223D01*
X85543253Y-56116401D01*
X85557868Y-56136107D01*
X85570480Y-56157150D01*
X85580970Y-56179329D01*
X85589235Y-56202428D01*
X85595196Y-56226227D01*
X85598796Y-56250495D01*
X85600000Y-56274999D01*
X85600000Y-56925001D01*
X85598796Y-56949505D01*
X85595196Y-56973773D01*
X85589235Y-56997572D01*
X85580970Y-57020671D01*
X85570480Y-57042850D01*
X85557868Y-57063893D01*
X85543253Y-57083599D01*
X85526777Y-57101777D01*
X85508599Y-57118253D01*
X85488893Y-57132868D01*
X85467850Y-57145480D01*
X85445671Y-57155970D01*
X85422572Y-57164235D01*
X85398773Y-57170196D01*
X85374505Y-57173796D01*
X85350001Y-57175000D01*
X84449999Y-57175000D01*
X84425495Y-57173796D01*
X84401227Y-57170196D01*
X84377428Y-57164235D01*
X84354329Y-57155970D01*
X84332150Y-57145480D01*
X84311107Y-57132868D01*
X84291401Y-57118253D01*
X84273223Y-57101777D01*
X84256747Y-57083599D01*
X84242132Y-57063893D01*
X84229520Y-57042850D01*
X84219030Y-57020671D01*
X84210765Y-56997572D01*
X84204804Y-56973773D01*
X84201204Y-56949505D01*
X84200000Y-56925001D01*
X84200000Y-56274999D01*
X84201204Y-56250495D01*
X84204804Y-56226227D01*
X84210765Y-56202428D01*
X84219030Y-56179329D01*
X84229520Y-56157150D01*
X84242132Y-56136107D01*
X84256747Y-56116401D01*
X84273223Y-56098223D01*
X84291401Y-56081747D01*
X84311107Y-56067132D01*
X84332150Y-56054520D01*
X84354329Y-56044030D01*
X84377428Y-56035765D01*
X84401227Y-56029804D01*
X84425495Y-56026204D01*
X84449999Y-56025000D01*
X85350001Y-56025000D01*
X85374505Y-56026204D01*
X85374505Y-56026204D01*
G37*
D13*
X84900000Y-56600000D03*
D10*
G36*
X85374505Y-53976204D02*
G01*
X85398773Y-53979804D01*
X85422572Y-53985765D01*
X85445671Y-53994030D01*
X85467850Y-54004520D01*
X85488893Y-54017132D01*
X85508599Y-54031747D01*
X85526777Y-54048223D01*
X85543253Y-54066401D01*
X85557868Y-54086107D01*
X85570480Y-54107150D01*
X85580970Y-54129329D01*
X85589235Y-54152428D01*
X85595196Y-54176227D01*
X85598796Y-54200495D01*
X85600000Y-54224999D01*
X85600000Y-54875001D01*
X85598796Y-54899505D01*
X85595196Y-54923773D01*
X85589235Y-54947572D01*
X85580970Y-54970671D01*
X85570480Y-54992850D01*
X85557868Y-55013893D01*
X85543253Y-55033599D01*
X85526777Y-55051777D01*
X85508599Y-55068253D01*
X85488893Y-55082868D01*
X85467850Y-55095480D01*
X85445671Y-55105970D01*
X85422572Y-55114235D01*
X85398773Y-55120196D01*
X85374505Y-55123796D01*
X85350001Y-55125000D01*
X84449999Y-55125000D01*
X84425495Y-55123796D01*
X84401227Y-55120196D01*
X84377428Y-55114235D01*
X84354329Y-55105970D01*
X84332150Y-55095480D01*
X84311107Y-55082868D01*
X84291401Y-55068253D01*
X84273223Y-55051777D01*
X84256747Y-55033599D01*
X84242132Y-55013893D01*
X84229520Y-54992850D01*
X84219030Y-54970671D01*
X84210765Y-54947572D01*
X84204804Y-54923773D01*
X84201204Y-54899505D01*
X84200000Y-54875001D01*
X84200000Y-54224999D01*
X84201204Y-54200495D01*
X84204804Y-54176227D01*
X84210765Y-54152428D01*
X84219030Y-54129329D01*
X84229520Y-54107150D01*
X84242132Y-54086107D01*
X84256747Y-54066401D01*
X84273223Y-54048223D01*
X84291401Y-54031747D01*
X84311107Y-54017132D01*
X84332150Y-54004520D01*
X84354329Y-53994030D01*
X84377428Y-53985765D01*
X84401227Y-53979804D01*
X84425495Y-53976204D01*
X84449999Y-53975000D01*
X85350001Y-53975000D01*
X85374505Y-53976204D01*
X85374505Y-53976204D01*
G37*
D13*
X84900000Y-54550000D03*
D10*
G36*
X74474505Y-62951204D02*
G01*
X74498773Y-62954804D01*
X74522572Y-62960765D01*
X74545671Y-62969030D01*
X74567850Y-62979520D01*
X74588893Y-62992132D01*
X74608599Y-63006747D01*
X74626777Y-63023223D01*
X74643253Y-63041401D01*
X74657868Y-63061107D01*
X74670480Y-63082150D01*
X74680970Y-63104329D01*
X74689235Y-63127428D01*
X74695196Y-63151227D01*
X74698796Y-63175495D01*
X74700000Y-63199999D01*
X74700000Y-64100001D01*
X74698796Y-64124505D01*
X74695196Y-64148773D01*
X74689235Y-64172572D01*
X74680970Y-64195671D01*
X74670480Y-64217850D01*
X74657868Y-64238893D01*
X74643253Y-64258599D01*
X74626777Y-64276777D01*
X74608599Y-64293253D01*
X74588893Y-64307868D01*
X74567850Y-64320480D01*
X74545671Y-64330970D01*
X74522572Y-64339235D01*
X74498773Y-64345196D01*
X74474505Y-64348796D01*
X74450001Y-64350000D01*
X73799999Y-64350000D01*
X73775495Y-64348796D01*
X73751227Y-64345196D01*
X73727428Y-64339235D01*
X73704329Y-64330970D01*
X73682150Y-64320480D01*
X73661107Y-64307868D01*
X73641401Y-64293253D01*
X73623223Y-64276777D01*
X73606747Y-64258599D01*
X73592132Y-64238893D01*
X73579520Y-64217850D01*
X73569030Y-64195671D01*
X73560765Y-64172572D01*
X73554804Y-64148773D01*
X73551204Y-64124505D01*
X73550000Y-64100001D01*
X73550000Y-63199999D01*
X73551204Y-63175495D01*
X73554804Y-63151227D01*
X73560765Y-63127428D01*
X73569030Y-63104329D01*
X73579520Y-63082150D01*
X73592132Y-63061107D01*
X73606747Y-63041401D01*
X73623223Y-63023223D01*
X73641401Y-63006747D01*
X73661107Y-62992132D01*
X73682150Y-62979520D01*
X73704329Y-62969030D01*
X73727428Y-62960765D01*
X73751227Y-62954804D01*
X73775495Y-62951204D01*
X73799999Y-62950000D01*
X74450001Y-62950000D01*
X74474505Y-62951204D01*
X74474505Y-62951204D01*
G37*
D13*
X74125000Y-63650000D03*
D10*
G36*
X72424505Y-62951204D02*
G01*
X72448773Y-62954804D01*
X72472572Y-62960765D01*
X72495671Y-62969030D01*
X72517850Y-62979520D01*
X72538893Y-62992132D01*
X72558599Y-63006747D01*
X72576777Y-63023223D01*
X72593253Y-63041401D01*
X72607868Y-63061107D01*
X72620480Y-63082150D01*
X72630970Y-63104329D01*
X72639235Y-63127428D01*
X72645196Y-63151227D01*
X72648796Y-63175495D01*
X72650000Y-63199999D01*
X72650000Y-64100001D01*
X72648796Y-64124505D01*
X72645196Y-64148773D01*
X72639235Y-64172572D01*
X72630970Y-64195671D01*
X72620480Y-64217850D01*
X72607868Y-64238893D01*
X72593253Y-64258599D01*
X72576777Y-64276777D01*
X72558599Y-64293253D01*
X72538893Y-64307868D01*
X72517850Y-64320480D01*
X72495671Y-64330970D01*
X72472572Y-64339235D01*
X72448773Y-64345196D01*
X72424505Y-64348796D01*
X72400001Y-64350000D01*
X71749999Y-64350000D01*
X71725495Y-64348796D01*
X71701227Y-64345196D01*
X71677428Y-64339235D01*
X71654329Y-64330970D01*
X71632150Y-64320480D01*
X71611107Y-64307868D01*
X71591401Y-64293253D01*
X71573223Y-64276777D01*
X71556747Y-64258599D01*
X71542132Y-64238893D01*
X71529520Y-64217850D01*
X71519030Y-64195671D01*
X71510765Y-64172572D01*
X71504804Y-64148773D01*
X71501204Y-64124505D01*
X71500000Y-64100001D01*
X71500000Y-63199999D01*
X71501204Y-63175495D01*
X71504804Y-63151227D01*
X71510765Y-63127428D01*
X71519030Y-63104329D01*
X71529520Y-63082150D01*
X71542132Y-63061107D01*
X71556747Y-63041401D01*
X71573223Y-63023223D01*
X71591401Y-63006747D01*
X71611107Y-62992132D01*
X71632150Y-62979520D01*
X71654329Y-62969030D01*
X71677428Y-62960765D01*
X71701227Y-62954804D01*
X71725495Y-62951204D01*
X71749999Y-62950000D01*
X72400001Y-62950000D01*
X72424505Y-62951204D01*
X72424505Y-62951204D01*
G37*
D13*
X72075000Y-63650000D03*
D10*
G36*
X91435779Y-67526144D02*
G01*
X91458834Y-67529563D01*
X91481443Y-67535227D01*
X91503387Y-67543079D01*
X91524457Y-67553044D01*
X91544448Y-67565026D01*
X91563168Y-67578910D01*
X91580438Y-67594562D01*
X91596090Y-67611832D01*
X91609974Y-67630552D01*
X91621956Y-67650543D01*
X91631921Y-67671613D01*
X91639773Y-67693557D01*
X91645437Y-67716166D01*
X91648856Y-67739221D01*
X91650000Y-67762500D01*
X91650000Y-68237500D01*
X91648856Y-68260779D01*
X91645437Y-68283834D01*
X91639773Y-68306443D01*
X91631921Y-68328387D01*
X91621956Y-68349457D01*
X91609974Y-68369448D01*
X91596090Y-68388168D01*
X91580438Y-68405438D01*
X91563168Y-68421090D01*
X91544448Y-68434974D01*
X91524457Y-68446956D01*
X91503387Y-68456921D01*
X91481443Y-68464773D01*
X91458834Y-68470437D01*
X91435779Y-68473856D01*
X91412500Y-68475000D01*
X90837500Y-68475000D01*
X90814221Y-68473856D01*
X90791166Y-68470437D01*
X90768557Y-68464773D01*
X90746613Y-68456921D01*
X90725543Y-68446956D01*
X90705552Y-68434974D01*
X90686832Y-68421090D01*
X90669562Y-68405438D01*
X90653910Y-68388168D01*
X90640026Y-68369448D01*
X90628044Y-68349457D01*
X90618079Y-68328387D01*
X90610227Y-68306443D01*
X90604563Y-68283834D01*
X90601144Y-68260779D01*
X90600000Y-68237500D01*
X90600000Y-67762500D01*
X90601144Y-67739221D01*
X90604563Y-67716166D01*
X90610227Y-67693557D01*
X90618079Y-67671613D01*
X90628044Y-67650543D01*
X90640026Y-67630552D01*
X90653910Y-67611832D01*
X90669562Y-67594562D01*
X90686832Y-67578910D01*
X90705552Y-67565026D01*
X90725543Y-67553044D01*
X90746613Y-67543079D01*
X90768557Y-67535227D01*
X90791166Y-67529563D01*
X90814221Y-67526144D01*
X90837500Y-67525000D01*
X91412500Y-67525000D01*
X91435779Y-67526144D01*
X91435779Y-67526144D01*
G37*
D17*
X91125000Y-68000000D03*
D10*
G36*
X93185779Y-67526144D02*
G01*
X93208834Y-67529563D01*
X93231443Y-67535227D01*
X93253387Y-67543079D01*
X93274457Y-67553044D01*
X93294448Y-67565026D01*
X93313168Y-67578910D01*
X93330438Y-67594562D01*
X93346090Y-67611832D01*
X93359974Y-67630552D01*
X93371956Y-67650543D01*
X93381921Y-67671613D01*
X93389773Y-67693557D01*
X93395437Y-67716166D01*
X93398856Y-67739221D01*
X93400000Y-67762500D01*
X93400000Y-68237500D01*
X93398856Y-68260779D01*
X93395437Y-68283834D01*
X93389773Y-68306443D01*
X93381921Y-68328387D01*
X93371956Y-68349457D01*
X93359974Y-68369448D01*
X93346090Y-68388168D01*
X93330438Y-68405438D01*
X93313168Y-68421090D01*
X93294448Y-68434974D01*
X93274457Y-68446956D01*
X93253387Y-68456921D01*
X93231443Y-68464773D01*
X93208834Y-68470437D01*
X93185779Y-68473856D01*
X93162500Y-68475000D01*
X92587500Y-68475000D01*
X92564221Y-68473856D01*
X92541166Y-68470437D01*
X92518557Y-68464773D01*
X92496613Y-68456921D01*
X92475543Y-68446956D01*
X92455552Y-68434974D01*
X92436832Y-68421090D01*
X92419562Y-68405438D01*
X92403910Y-68388168D01*
X92390026Y-68369448D01*
X92378044Y-68349457D01*
X92368079Y-68328387D01*
X92360227Y-68306443D01*
X92354563Y-68283834D01*
X92351144Y-68260779D01*
X92350000Y-68237500D01*
X92350000Y-67762500D01*
X92351144Y-67739221D01*
X92354563Y-67716166D01*
X92360227Y-67693557D01*
X92368079Y-67671613D01*
X92378044Y-67650543D01*
X92390026Y-67630552D01*
X92403910Y-67611832D01*
X92419562Y-67594562D01*
X92436832Y-67578910D01*
X92455552Y-67565026D01*
X92475543Y-67553044D01*
X92496613Y-67543079D01*
X92518557Y-67535227D01*
X92541166Y-67529563D01*
X92564221Y-67526144D01*
X92587500Y-67525000D01*
X93162500Y-67525000D01*
X93185779Y-67526144D01*
X93185779Y-67526144D01*
G37*
D17*
X92875000Y-68000000D03*
D18*
X85550000Y-65600000D03*
X86500000Y-65600000D03*
X87450000Y-65600000D03*
X87450000Y-63400000D03*
X85550000Y-63400000D03*
D10*
G36*
X83260779Y-63101144D02*
G01*
X83283834Y-63104563D01*
X83306443Y-63110227D01*
X83328387Y-63118079D01*
X83349457Y-63128044D01*
X83369448Y-63140026D01*
X83388168Y-63153910D01*
X83405438Y-63169562D01*
X83421090Y-63186832D01*
X83434974Y-63205552D01*
X83446956Y-63225543D01*
X83456921Y-63246613D01*
X83464773Y-63268557D01*
X83470437Y-63291166D01*
X83473856Y-63314221D01*
X83475000Y-63337500D01*
X83475000Y-63912500D01*
X83473856Y-63935779D01*
X83470437Y-63958834D01*
X83464773Y-63981443D01*
X83456921Y-64003387D01*
X83446956Y-64024457D01*
X83434974Y-64044448D01*
X83421090Y-64063168D01*
X83405438Y-64080438D01*
X83388168Y-64096090D01*
X83369448Y-64109974D01*
X83349457Y-64121956D01*
X83328387Y-64131921D01*
X83306443Y-64139773D01*
X83283834Y-64145437D01*
X83260779Y-64148856D01*
X83237500Y-64150000D01*
X82762500Y-64150000D01*
X82739221Y-64148856D01*
X82716166Y-64145437D01*
X82693557Y-64139773D01*
X82671613Y-64131921D01*
X82650543Y-64121956D01*
X82630552Y-64109974D01*
X82611832Y-64096090D01*
X82594562Y-64080438D01*
X82578910Y-64063168D01*
X82565026Y-64044448D01*
X82553044Y-64024457D01*
X82543079Y-64003387D01*
X82535227Y-63981443D01*
X82529563Y-63958834D01*
X82526144Y-63935779D01*
X82525000Y-63912500D01*
X82525000Y-63337500D01*
X82526144Y-63314221D01*
X82529563Y-63291166D01*
X82535227Y-63268557D01*
X82543079Y-63246613D01*
X82553044Y-63225543D01*
X82565026Y-63205552D01*
X82578910Y-63186832D01*
X82594562Y-63169562D01*
X82611832Y-63153910D01*
X82630552Y-63140026D01*
X82650543Y-63128044D01*
X82671613Y-63118079D01*
X82693557Y-63110227D01*
X82716166Y-63104563D01*
X82739221Y-63101144D01*
X82762500Y-63100000D01*
X83237500Y-63100000D01*
X83260779Y-63101144D01*
X83260779Y-63101144D01*
G37*
D17*
X83000000Y-63625000D03*
D10*
G36*
X83260779Y-64851144D02*
G01*
X83283834Y-64854563D01*
X83306443Y-64860227D01*
X83328387Y-64868079D01*
X83349457Y-64878044D01*
X83369448Y-64890026D01*
X83388168Y-64903910D01*
X83405438Y-64919562D01*
X83421090Y-64936832D01*
X83434974Y-64955552D01*
X83446956Y-64975543D01*
X83456921Y-64996613D01*
X83464773Y-65018557D01*
X83470437Y-65041166D01*
X83473856Y-65064221D01*
X83475000Y-65087500D01*
X83475000Y-65662500D01*
X83473856Y-65685779D01*
X83470437Y-65708834D01*
X83464773Y-65731443D01*
X83456921Y-65753387D01*
X83446956Y-65774457D01*
X83434974Y-65794448D01*
X83421090Y-65813168D01*
X83405438Y-65830438D01*
X83388168Y-65846090D01*
X83369448Y-65859974D01*
X83349457Y-65871956D01*
X83328387Y-65881921D01*
X83306443Y-65889773D01*
X83283834Y-65895437D01*
X83260779Y-65898856D01*
X83237500Y-65900000D01*
X82762500Y-65900000D01*
X82739221Y-65898856D01*
X82716166Y-65895437D01*
X82693557Y-65889773D01*
X82671613Y-65881921D01*
X82650543Y-65871956D01*
X82630552Y-65859974D01*
X82611832Y-65846090D01*
X82594562Y-65830438D01*
X82578910Y-65813168D01*
X82565026Y-65794448D01*
X82553044Y-65774457D01*
X82543079Y-65753387D01*
X82535227Y-65731443D01*
X82529563Y-65708834D01*
X82526144Y-65685779D01*
X82525000Y-65662500D01*
X82525000Y-65087500D01*
X82526144Y-65064221D01*
X82529563Y-65041166D01*
X82535227Y-65018557D01*
X82543079Y-64996613D01*
X82553044Y-64975543D01*
X82565026Y-64955552D01*
X82578910Y-64936832D01*
X82594562Y-64919562D01*
X82611832Y-64903910D01*
X82630552Y-64890026D01*
X82650543Y-64878044D01*
X82671613Y-64868079D01*
X82693557Y-64860227D01*
X82716166Y-64854563D01*
X82739221Y-64851144D01*
X82762500Y-64850000D01*
X83237500Y-64850000D01*
X83260779Y-64851144D01*
X83260779Y-64851144D01*
G37*
D17*
X83000000Y-65375000D03*
D19*
X87900000Y-60400000D03*
X84600000Y-60400000D03*
D10*
G36*
X80760779Y-64851144D02*
G01*
X80783834Y-64854563D01*
X80806443Y-64860227D01*
X80828387Y-64868079D01*
X80849457Y-64878044D01*
X80869448Y-64890026D01*
X80888168Y-64903910D01*
X80905438Y-64919562D01*
X80921090Y-64936832D01*
X80934974Y-64955552D01*
X80946956Y-64975543D01*
X80956921Y-64996613D01*
X80964773Y-65018557D01*
X80970437Y-65041166D01*
X80973856Y-65064221D01*
X80975000Y-65087500D01*
X80975000Y-65662500D01*
X80973856Y-65685779D01*
X80970437Y-65708834D01*
X80964773Y-65731443D01*
X80956921Y-65753387D01*
X80946956Y-65774457D01*
X80934974Y-65794448D01*
X80921090Y-65813168D01*
X80905438Y-65830438D01*
X80888168Y-65846090D01*
X80869448Y-65859974D01*
X80849457Y-65871956D01*
X80828387Y-65881921D01*
X80806443Y-65889773D01*
X80783834Y-65895437D01*
X80760779Y-65898856D01*
X80737500Y-65900000D01*
X80262500Y-65900000D01*
X80239221Y-65898856D01*
X80216166Y-65895437D01*
X80193557Y-65889773D01*
X80171613Y-65881921D01*
X80150543Y-65871956D01*
X80130552Y-65859974D01*
X80111832Y-65846090D01*
X80094562Y-65830438D01*
X80078910Y-65813168D01*
X80065026Y-65794448D01*
X80053044Y-65774457D01*
X80043079Y-65753387D01*
X80035227Y-65731443D01*
X80029563Y-65708834D01*
X80026144Y-65685779D01*
X80025000Y-65662500D01*
X80025000Y-65087500D01*
X80026144Y-65064221D01*
X80029563Y-65041166D01*
X80035227Y-65018557D01*
X80043079Y-64996613D01*
X80053044Y-64975543D01*
X80065026Y-64955552D01*
X80078910Y-64936832D01*
X80094562Y-64919562D01*
X80111832Y-64903910D01*
X80130552Y-64890026D01*
X80150543Y-64878044D01*
X80171613Y-64868079D01*
X80193557Y-64860227D01*
X80216166Y-64854563D01*
X80239221Y-64851144D01*
X80262500Y-64850000D01*
X80737500Y-64850000D01*
X80760779Y-64851144D01*
X80760779Y-64851144D01*
G37*
D17*
X80500000Y-65375000D03*
D10*
G36*
X80760779Y-63101144D02*
G01*
X80783834Y-63104563D01*
X80806443Y-63110227D01*
X80828387Y-63118079D01*
X80849457Y-63128044D01*
X80869448Y-63140026D01*
X80888168Y-63153910D01*
X80905438Y-63169562D01*
X80921090Y-63186832D01*
X80934974Y-63205552D01*
X80946956Y-63225543D01*
X80956921Y-63246613D01*
X80964773Y-63268557D01*
X80970437Y-63291166D01*
X80973856Y-63314221D01*
X80975000Y-63337500D01*
X80975000Y-63912500D01*
X80973856Y-63935779D01*
X80970437Y-63958834D01*
X80964773Y-63981443D01*
X80956921Y-64003387D01*
X80946956Y-64024457D01*
X80934974Y-64044448D01*
X80921090Y-64063168D01*
X80905438Y-64080438D01*
X80888168Y-64096090D01*
X80869448Y-64109974D01*
X80849457Y-64121956D01*
X80828387Y-64131921D01*
X80806443Y-64139773D01*
X80783834Y-64145437D01*
X80760779Y-64148856D01*
X80737500Y-64150000D01*
X80262500Y-64150000D01*
X80239221Y-64148856D01*
X80216166Y-64145437D01*
X80193557Y-64139773D01*
X80171613Y-64131921D01*
X80150543Y-64121956D01*
X80130552Y-64109974D01*
X80111832Y-64096090D01*
X80094562Y-64080438D01*
X80078910Y-64063168D01*
X80065026Y-64044448D01*
X80053044Y-64024457D01*
X80043079Y-64003387D01*
X80035227Y-63981443D01*
X80029563Y-63958834D01*
X80026144Y-63935779D01*
X80025000Y-63912500D01*
X80025000Y-63337500D01*
X80026144Y-63314221D01*
X80029563Y-63291166D01*
X80035227Y-63268557D01*
X80043079Y-63246613D01*
X80053044Y-63225543D01*
X80065026Y-63205552D01*
X80078910Y-63186832D01*
X80094562Y-63169562D01*
X80111832Y-63153910D01*
X80130552Y-63140026D01*
X80150543Y-63128044D01*
X80171613Y-63118079D01*
X80193557Y-63110227D01*
X80216166Y-63104563D01*
X80239221Y-63101144D01*
X80262500Y-63100000D01*
X80737500Y-63100000D01*
X80760779Y-63101144D01*
X80760779Y-63101144D01*
G37*
D17*
X80500000Y-63625000D03*
D16*
X106700000Y-57200000D03*
X106700000Y-56400000D03*
X106700000Y-55600000D03*
X106700000Y-54800000D03*
X105000000Y-57200000D03*
X105000000Y-54800000D03*
X105000000Y-56400000D03*
X105000000Y-55600000D03*
X106700000Y-61900000D03*
X106700000Y-61100000D03*
X106700000Y-60300000D03*
X106700000Y-59500000D03*
X105000000Y-61900000D03*
X105000000Y-59500000D03*
X105000000Y-61100000D03*
X105000000Y-60300000D03*
D10*
G36*
X57010779Y-62601144D02*
G01*
X57033834Y-62604563D01*
X57056443Y-62610227D01*
X57078387Y-62618079D01*
X57099457Y-62628044D01*
X57119448Y-62640026D01*
X57138168Y-62653910D01*
X57155438Y-62669562D01*
X57171090Y-62686832D01*
X57184974Y-62705552D01*
X57196956Y-62725543D01*
X57206921Y-62746613D01*
X57214773Y-62768557D01*
X57220437Y-62791166D01*
X57223856Y-62814221D01*
X57225000Y-62837500D01*
X57225000Y-63412500D01*
X57223856Y-63435779D01*
X57220437Y-63458834D01*
X57214773Y-63481443D01*
X57206921Y-63503387D01*
X57196956Y-63524457D01*
X57184974Y-63544448D01*
X57171090Y-63563168D01*
X57155438Y-63580438D01*
X57138168Y-63596090D01*
X57119448Y-63609974D01*
X57099457Y-63621956D01*
X57078387Y-63631921D01*
X57056443Y-63639773D01*
X57033834Y-63645437D01*
X57010779Y-63648856D01*
X56987500Y-63650000D01*
X56512500Y-63650000D01*
X56489221Y-63648856D01*
X56466166Y-63645437D01*
X56443557Y-63639773D01*
X56421613Y-63631921D01*
X56400543Y-63621956D01*
X56380552Y-63609974D01*
X56361832Y-63596090D01*
X56344562Y-63580438D01*
X56328910Y-63563168D01*
X56315026Y-63544448D01*
X56303044Y-63524457D01*
X56293079Y-63503387D01*
X56285227Y-63481443D01*
X56279563Y-63458834D01*
X56276144Y-63435779D01*
X56275000Y-63412500D01*
X56275000Y-62837500D01*
X56276144Y-62814221D01*
X56279563Y-62791166D01*
X56285227Y-62768557D01*
X56293079Y-62746613D01*
X56303044Y-62725543D01*
X56315026Y-62705552D01*
X56328910Y-62686832D01*
X56344562Y-62669562D01*
X56361832Y-62653910D01*
X56380552Y-62640026D01*
X56400543Y-62628044D01*
X56421613Y-62618079D01*
X56443557Y-62610227D01*
X56466166Y-62604563D01*
X56489221Y-62601144D01*
X56512500Y-62600000D01*
X56987500Y-62600000D01*
X57010779Y-62601144D01*
X57010779Y-62601144D01*
G37*
D17*
X56750000Y-63125000D03*
D10*
G36*
X57010779Y-64351144D02*
G01*
X57033834Y-64354563D01*
X57056443Y-64360227D01*
X57078387Y-64368079D01*
X57099457Y-64378044D01*
X57119448Y-64390026D01*
X57138168Y-64403910D01*
X57155438Y-64419562D01*
X57171090Y-64436832D01*
X57184974Y-64455552D01*
X57196956Y-64475543D01*
X57206921Y-64496613D01*
X57214773Y-64518557D01*
X57220437Y-64541166D01*
X57223856Y-64564221D01*
X57225000Y-64587500D01*
X57225000Y-65162500D01*
X57223856Y-65185779D01*
X57220437Y-65208834D01*
X57214773Y-65231443D01*
X57206921Y-65253387D01*
X57196956Y-65274457D01*
X57184974Y-65294448D01*
X57171090Y-65313168D01*
X57155438Y-65330438D01*
X57138168Y-65346090D01*
X57119448Y-65359974D01*
X57099457Y-65371956D01*
X57078387Y-65381921D01*
X57056443Y-65389773D01*
X57033834Y-65395437D01*
X57010779Y-65398856D01*
X56987500Y-65400000D01*
X56512500Y-65400000D01*
X56489221Y-65398856D01*
X56466166Y-65395437D01*
X56443557Y-65389773D01*
X56421613Y-65381921D01*
X56400543Y-65371956D01*
X56380552Y-65359974D01*
X56361832Y-65346090D01*
X56344562Y-65330438D01*
X56328910Y-65313168D01*
X56315026Y-65294448D01*
X56303044Y-65274457D01*
X56293079Y-65253387D01*
X56285227Y-65231443D01*
X56279563Y-65208834D01*
X56276144Y-65185779D01*
X56275000Y-65162500D01*
X56275000Y-64587500D01*
X56276144Y-64564221D01*
X56279563Y-64541166D01*
X56285227Y-64518557D01*
X56293079Y-64496613D01*
X56303044Y-64475543D01*
X56315026Y-64455552D01*
X56328910Y-64436832D01*
X56344562Y-64419562D01*
X56361832Y-64403910D01*
X56380552Y-64390026D01*
X56400543Y-64378044D01*
X56421613Y-64368079D01*
X56443557Y-64360227D01*
X56466166Y-64354563D01*
X56489221Y-64351144D01*
X56512500Y-64350000D01*
X56987500Y-64350000D01*
X57010779Y-64351144D01*
X57010779Y-64351144D01*
G37*
D17*
X56750000Y-64875000D03*
D20*
X76850000Y-78000000D03*
D21*
X83150000Y-78000000D03*
X83150000Y-75700000D03*
X83150000Y-80300000D03*
D10*
G36*
X90760779Y-74101144D02*
G01*
X90783834Y-74104563D01*
X90806443Y-74110227D01*
X90828387Y-74118079D01*
X90849457Y-74128044D01*
X90869448Y-74140026D01*
X90888168Y-74153910D01*
X90905438Y-74169562D01*
X90921090Y-74186832D01*
X90934974Y-74205552D01*
X90946956Y-74225543D01*
X90956921Y-74246613D01*
X90964773Y-74268557D01*
X90970437Y-74291166D01*
X90973856Y-74314221D01*
X90975000Y-74337500D01*
X90975000Y-74912500D01*
X90973856Y-74935779D01*
X90970437Y-74958834D01*
X90964773Y-74981443D01*
X90956921Y-75003387D01*
X90946956Y-75024457D01*
X90934974Y-75044448D01*
X90921090Y-75063168D01*
X90905438Y-75080438D01*
X90888168Y-75096090D01*
X90869448Y-75109974D01*
X90849457Y-75121956D01*
X90828387Y-75131921D01*
X90806443Y-75139773D01*
X90783834Y-75145437D01*
X90760779Y-75148856D01*
X90737500Y-75150000D01*
X90262500Y-75150000D01*
X90239221Y-75148856D01*
X90216166Y-75145437D01*
X90193557Y-75139773D01*
X90171613Y-75131921D01*
X90150543Y-75121956D01*
X90130552Y-75109974D01*
X90111832Y-75096090D01*
X90094562Y-75080438D01*
X90078910Y-75063168D01*
X90065026Y-75044448D01*
X90053044Y-75024457D01*
X90043079Y-75003387D01*
X90035227Y-74981443D01*
X90029563Y-74958834D01*
X90026144Y-74935779D01*
X90025000Y-74912500D01*
X90025000Y-74337500D01*
X90026144Y-74314221D01*
X90029563Y-74291166D01*
X90035227Y-74268557D01*
X90043079Y-74246613D01*
X90053044Y-74225543D01*
X90065026Y-74205552D01*
X90078910Y-74186832D01*
X90094562Y-74169562D01*
X90111832Y-74153910D01*
X90130552Y-74140026D01*
X90150543Y-74128044D01*
X90171613Y-74118079D01*
X90193557Y-74110227D01*
X90216166Y-74104563D01*
X90239221Y-74101144D01*
X90262500Y-74100000D01*
X90737500Y-74100000D01*
X90760779Y-74101144D01*
X90760779Y-74101144D01*
G37*
D17*
X90500000Y-74625000D03*
D10*
G36*
X90760779Y-75851144D02*
G01*
X90783834Y-75854563D01*
X90806443Y-75860227D01*
X90828387Y-75868079D01*
X90849457Y-75878044D01*
X90869448Y-75890026D01*
X90888168Y-75903910D01*
X90905438Y-75919562D01*
X90921090Y-75936832D01*
X90934974Y-75955552D01*
X90946956Y-75975543D01*
X90956921Y-75996613D01*
X90964773Y-76018557D01*
X90970437Y-76041166D01*
X90973856Y-76064221D01*
X90975000Y-76087500D01*
X90975000Y-76662500D01*
X90973856Y-76685779D01*
X90970437Y-76708834D01*
X90964773Y-76731443D01*
X90956921Y-76753387D01*
X90946956Y-76774457D01*
X90934974Y-76794448D01*
X90921090Y-76813168D01*
X90905438Y-76830438D01*
X90888168Y-76846090D01*
X90869448Y-76859974D01*
X90849457Y-76871956D01*
X90828387Y-76881921D01*
X90806443Y-76889773D01*
X90783834Y-76895437D01*
X90760779Y-76898856D01*
X90737500Y-76900000D01*
X90262500Y-76900000D01*
X90239221Y-76898856D01*
X90216166Y-76895437D01*
X90193557Y-76889773D01*
X90171613Y-76881921D01*
X90150543Y-76871956D01*
X90130552Y-76859974D01*
X90111832Y-76846090D01*
X90094562Y-76830438D01*
X90078910Y-76813168D01*
X90065026Y-76794448D01*
X90053044Y-76774457D01*
X90043079Y-76753387D01*
X90035227Y-76731443D01*
X90029563Y-76708834D01*
X90026144Y-76685779D01*
X90025000Y-76662500D01*
X90025000Y-76087500D01*
X90026144Y-76064221D01*
X90029563Y-76041166D01*
X90035227Y-76018557D01*
X90043079Y-75996613D01*
X90053044Y-75975543D01*
X90065026Y-75955552D01*
X90078910Y-75936832D01*
X90094562Y-75919562D01*
X90111832Y-75903910D01*
X90130552Y-75890026D01*
X90150543Y-75878044D01*
X90171613Y-75868079D01*
X90193557Y-75860227D01*
X90216166Y-75854563D01*
X90239221Y-75851144D01*
X90262500Y-75850000D01*
X90737500Y-75850000D01*
X90760779Y-75851144D01*
X90760779Y-75851144D01*
G37*
D17*
X90500000Y-76375000D03*
D10*
G36*
X87810779Y-74101144D02*
G01*
X87833834Y-74104563D01*
X87856443Y-74110227D01*
X87878387Y-74118079D01*
X87899457Y-74128044D01*
X87919448Y-74140026D01*
X87938168Y-74153910D01*
X87955438Y-74169562D01*
X87971090Y-74186832D01*
X87984974Y-74205552D01*
X87996956Y-74225543D01*
X88006921Y-74246613D01*
X88014773Y-74268557D01*
X88020437Y-74291166D01*
X88023856Y-74314221D01*
X88025000Y-74337500D01*
X88025000Y-74912500D01*
X88023856Y-74935779D01*
X88020437Y-74958834D01*
X88014773Y-74981443D01*
X88006921Y-75003387D01*
X87996956Y-75024457D01*
X87984974Y-75044448D01*
X87971090Y-75063168D01*
X87955438Y-75080438D01*
X87938168Y-75096090D01*
X87919448Y-75109974D01*
X87899457Y-75121956D01*
X87878387Y-75131921D01*
X87856443Y-75139773D01*
X87833834Y-75145437D01*
X87810779Y-75148856D01*
X87787500Y-75150000D01*
X87312500Y-75150000D01*
X87289221Y-75148856D01*
X87266166Y-75145437D01*
X87243557Y-75139773D01*
X87221613Y-75131921D01*
X87200543Y-75121956D01*
X87180552Y-75109974D01*
X87161832Y-75096090D01*
X87144562Y-75080438D01*
X87128910Y-75063168D01*
X87115026Y-75044448D01*
X87103044Y-75024457D01*
X87093079Y-75003387D01*
X87085227Y-74981443D01*
X87079563Y-74958834D01*
X87076144Y-74935779D01*
X87075000Y-74912500D01*
X87075000Y-74337500D01*
X87076144Y-74314221D01*
X87079563Y-74291166D01*
X87085227Y-74268557D01*
X87093079Y-74246613D01*
X87103044Y-74225543D01*
X87115026Y-74205552D01*
X87128910Y-74186832D01*
X87144562Y-74169562D01*
X87161832Y-74153910D01*
X87180552Y-74140026D01*
X87200543Y-74128044D01*
X87221613Y-74118079D01*
X87243557Y-74110227D01*
X87266166Y-74104563D01*
X87289221Y-74101144D01*
X87312500Y-74100000D01*
X87787500Y-74100000D01*
X87810779Y-74101144D01*
X87810779Y-74101144D01*
G37*
D17*
X87550000Y-74625000D03*
D10*
G36*
X87810779Y-75851144D02*
G01*
X87833834Y-75854563D01*
X87856443Y-75860227D01*
X87878387Y-75868079D01*
X87899457Y-75878044D01*
X87919448Y-75890026D01*
X87938168Y-75903910D01*
X87955438Y-75919562D01*
X87971090Y-75936832D01*
X87984974Y-75955552D01*
X87996956Y-75975543D01*
X88006921Y-75996613D01*
X88014773Y-76018557D01*
X88020437Y-76041166D01*
X88023856Y-76064221D01*
X88025000Y-76087500D01*
X88025000Y-76662500D01*
X88023856Y-76685779D01*
X88020437Y-76708834D01*
X88014773Y-76731443D01*
X88006921Y-76753387D01*
X87996956Y-76774457D01*
X87984974Y-76794448D01*
X87971090Y-76813168D01*
X87955438Y-76830438D01*
X87938168Y-76846090D01*
X87919448Y-76859974D01*
X87899457Y-76871956D01*
X87878387Y-76881921D01*
X87856443Y-76889773D01*
X87833834Y-76895437D01*
X87810779Y-76898856D01*
X87787500Y-76900000D01*
X87312500Y-76900000D01*
X87289221Y-76898856D01*
X87266166Y-76895437D01*
X87243557Y-76889773D01*
X87221613Y-76881921D01*
X87200543Y-76871956D01*
X87180552Y-76859974D01*
X87161832Y-76846090D01*
X87144562Y-76830438D01*
X87128910Y-76813168D01*
X87115026Y-76794448D01*
X87103044Y-76774457D01*
X87093079Y-76753387D01*
X87085227Y-76731443D01*
X87079563Y-76708834D01*
X87076144Y-76685779D01*
X87075000Y-76662500D01*
X87075000Y-76087500D01*
X87076144Y-76064221D01*
X87079563Y-76041166D01*
X87085227Y-76018557D01*
X87093079Y-75996613D01*
X87103044Y-75975543D01*
X87115026Y-75955552D01*
X87128910Y-75936832D01*
X87144562Y-75919562D01*
X87161832Y-75903910D01*
X87180552Y-75890026D01*
X87200543Y-75878044D01*
X87221613Y-75868079D01*
X87243557Y-75860227D01*
X87266166Y-75854563D01*
X87289221Y-75851144D01*
X87312500Y-75850000D01*
X87787500Y-75850000D01*
X87810779Y-75851144D01*
X87810779Y-75851144D01*
G37*
D17*
X87550000Y-76375000D03*
D22*
X95700000Y-70125000D03*
X95700000Y-72875000D03*
X97900000Y-72875000D03*
X97900000Y-70125000D03*
D23*
X116037500Y-65900000D03*
D24*
X113337500Y-64900000D03*
X113337500Y-64250000D03*
X113337500Y-63600000D03*
X113337500Y-66200000D03*
X113337500Y-65550000D03*
D23*
X116037500Y-63900000D03*
D25*
X106625000Y-75600000D03*
X105975000Y-75600000D03*
X105325000Y-75600000D03*
X104675000Y-75600000D03*
X104025000Y-75600000D03*
X103375000Y-75600000D03*
X102725000Y-75600000D03*
X102075000Y-75600000D03*
X101425000Y-75600000D03*
X100775000Y-75600000D03*
X100775000Y-68400000D03*
X101425000Y-68400000D03*
X102075000Y-68400000D03*
X102725000Y-68400000D03*
X103375000Y-68400000D03*
X104025000Y-68400000D03*
X104675000Y-68400000D03*
X105325000Y-68400000D03*
X105975000Y-68400000D03*
X106625000Y-68400000D03*
D26*
X59250000Y-78175000D03*
X59750000Y-78175000D03*
X60250000Y-78175000D03*
X60750000Y-78175000D03*
X59250000Y-75825000D03*
X59750000Y-75825000D03*
X60250000Y-75825000D03*
X60750000Y-75825000D03*
D27*
X60000000Y-77000000D03*
D28*
X60810000Y-99500000D03*
X60830000Y-98500000D03*
X60810000Y-97500000D03*
X60810000Y-96500000D03*
X59810000Y-96500000D03*
X58810000Y-96500000D03*
X57810000Y-96500000D03*
X57810000Y-97500000D03*
X57810000Y-98500000D03*
X57810000Y-99500000D03*
X58810000Y-99500000D03*
X59810000Y-99500000D03*
D29*
X59750000Y-67600000D03*
X59750000Y-69100000D03*
X59750000Y-70600000D03*
X62650000Y-70600000D03*
X62650000Y-69100000D03*
X62650000Y-67600000D03*
D30*
X61200000Y-67600000D03*
D31*
X74800000Y-89920000D03*
X74800000Y-97720000D03*
X67710000Y-89920000D03*
X67710000Y-97720000D03*
D16*
X67050000Y-77400000D03*
X67050000Y-76600000D03*
X67050000Y-78200000D03*
X67050000Y-75800000D03*
X65350000Y-78200000D03*
X65350000Y-77400000D03*
X65350000Y-76600000D03*
X65350000Y-75800000D03*
X62150000Y-64650000D03*
X62150000Y-63850000D03*
X62150000Y-65450000D03*
X62150000Y-63050000D03*
X60450000Y-65450000D03*
X60450000Y-64650000D03*
X60450000Y-63850000D03*
X60450000Y-63050000D03*
D10*
G36*
X111460779Y-82101144D02*
G01*
X111483834Y-82104563D01*
X111506443Y-82110227D01*
X111528387Y-82118079D01*
X111549457Y-82128044D01*
X111569448Y-82140026D01*
X111588168Y-82153910D01*
X111605438Y-82169562D01*
X111621090Y-82186832D01*
X111634974Y-82205552D01*
X111646956Y-82225543D01*
X111656921Y-82246613D01*
X111664773Y-82268557D01*
X111670437Y-82291166D01*
X111673856Y-82314221D01*
X111675000Y-82337500D01*
X111675000Y-82912500D01*
X111673856Y-82935779D01*
X111670437Y-82958834D01*
X111664773Y-82981443D01*
X111656921Y-83003387D01*
X111646956Y-83024457D01*
X111634974Y-83044448D01*
X111621090Y-83063168D01*
X111605438Y-83080438D01*
X111588168Y-83096090D01*
X111569448Y-83109974D01*
X111549457Y-83121956D01*
X111528387Y-83131921D01*
X111506443Y-83139773D01*
X111483834Y-83145437D01*
X111460779Y-83148856D01*
X111437500Y-83150000D01*
X110962500Y-83150000D01*
X110939221Y-83148856D01*
X110916166Y-83145437D01*
X110893557Y-83139773D01*
X110871613Y-83131921D01*
X110850543Y-83121956D01*
X110830552Y-83109974D01*
X110811832Y-83096090D01*
X110794562Y-83080438D01*
X110778910Y-83063168D01*
X110765026Y-83044448D01*
X110753044Y-83024457D01*
X110743079Y-83003387D01*
X110735227Y-82981443D01*
X110729563Y-82958834D01*
X110726144Y-82935779D01*
X110725000Y-82912500D01*
X110725000Y-82337500D01*
X110726144Y-82314221D01*
X110729563Y-82291166D01*
X110735227Y-82268557D01*
X110743079Y-82246613D01*
X110753044Y-82225543D01*
X110765026Y-82205552D01*
X110778910Y-82186832D01*
X110794562Y-82169562D01*
X110811832Y-82153910D01*
X110830552Y-82140026D01*
X110850543Y-82128044D01*
X110871613Y-82118079D01*
X110893557Y-82110227D01*
X110916166Y-82104563D01*
X110939221Y-82101144D01*
X110962500Y-82100000D01*
X111437500Y-82100000D01*
X111460779Y-82101144D01*
X111460779Y-82101144D01*
G37*
D17*
X111200000Y-82625000D03*
D10*
G36*
X111460779Y-83851144D02*
G01*
X111483834Y-83854563D01*
X111506443Y-83860227D01*
X111528387Y-83868079D01*
X111549457Y-83878044D01*
X111569448Y-83890026D01*
X111588168Y-83903910D01*
X111605438Y-83919562D01*
X111621090Y-83936832D01*
X111634974Y-83955552D01*
X111646956Y-83975543D01*
X111656921Y-83996613D01*
X111664773Y-84018557D01*
X111670437Y-84041166D01*
X111673856Y-84064221D01*
X111675000Y-84087500D01*
X111675000Y-84662500D01*
X111673856Y-84685779D01*
X111670437Y-84708834D01*
X111664773Y-84731443D01*
X111656921Y-84753387D01*
X111646956Y-84774457D01*
X111634974Y-84794448D01*
X111621090Y-84813168D01*
X111605438Y-84830438D01*
X111588168Y-84846090D01*
X111569448Y-84859974D01*
X111549457Y-84871956D01*
X111528387Y-84881921D01*
X111506443Y-84889773D01*
X111483834Y-84895437D01*
X111460779Y-84898856D01*
X111437500Y-84900000D01*
X110962500Y-84900000D01*
X110939221Y-84898856D01*
X110916166Y-84895437D01*
X110893557Y-84889773D01*
X110871613Y-84881921D01*
X110850543Y-84871956D01*
X110830552Y-84859974D01*
X110811832Y-84846090D01*
X110794562Y-84830438D01*
X110778910Y-84813168D01*
X110765026Y-84794448D01*
X110753044Y-84774457D01*
X110743079Y-84753387D01*
X110735227Y-84731443D01*
X110729563Y-84708834D01*
X110726144Y-84685779D01*
X110725000Y-84662500D01*
X110725000Y-84087500D01*
X110726144Y-84064221D01*
X110729563Y-84041166D01*
X110735227Y-84018557D01*
X110743079Y-83996613D01*
X110753044Y-83975543D01*
X110765026Y-83955552D01*
X110778910Y-83936832D01*
X110794562Y-83919562D01*
X110811832Y-83903910D01*
X110830552Y-83890026D01*
X110850543Y-83878044D01*
X110871613Y-83868079D01*
X110893557Y-83860227D01*
X110916166Y-83854563D01*
X110939221Y-83851144D01*
X110962500Y-83850000D01*
X111437500Y-83850000D01*
X111460779Y-83851144D01*
X111460779Y-83851144D01*
G37*
D17*
X111200000Y-84375000D03*
D10*
G36*
X78260779Y-92401144D02*
G01*
X78283834Y-92404563D01*
X78306443Y-92410227D01*
X78328387Y-92418079D01*
X78349457Y-92428044D01*
X78369448Y-92440026D01*
X78388168Y-92453910D01*
X78405438Y-92469562D01*
X78421090Y-92486832D01*
X78434974Y-92505552D01*
X78446956Y-92525543D01*
X78456921Y-92546613D01*
X78464773Y-92568557D01*
X78470437Y-92591166D01*
X78473856Y-92614221D01*
X78475000Y-92637500D01*
X78475000Y-93212500D01*
X78473856Y-93235779D01*
X78470437Y-93258834D01*
X78464773Y-93281443D01*
X78456921Y-93303387D01*
X78446956Y-93324457D01*
X78434974Y-93344448D01*
X78421090Y-93363168D01*
X78405438Y-93380438D01*
X78388168Y-93396090D01*
X78369448Y-93409974D01*
X78349457Y-93421956D01*
X78328387Y-93431921D01*
X78306443Y-93439773D01*
X78283834Y-93445437D01*
X78260779Y-93448856D01*
X78237500Y-93450000D01*
X77762500Y-93450000D01*
X77739221Y-93448856D01*
X77716166Y-93445437D01*
X77693557Y-93439773D01*
X77671613Y-93431921D01*
X77650543Y-93421956D01*
X77630552Y-93409974D01*
X77611832Y-93396090D01*
X77594562Y-93380438D01*
X77578910Y-93363168D01*
X77565026Y-93344448D01*
X77553044Y-93324457D01*
X77543079Y-93303387D01*
X77535227Y-93281443D01*
X77529563Y-93258834D01*
X77526144Y-93235779D01*
X77525000Y-93212500D01*
X77525000Y-92637500D01*
X77526144Y-92614221D01*
X77529563Y-92591166D01*
X77535227Y-92568557D01*
X77543079Y-92546613D01*
X77553044Y-92525543D01*
X77565026Y-92505552D01*
X77578910Y-92486832D01*
X77594562Y-92469562D01*
X77611832Y-92453910D01*
X77630552Y-92440026D01*
X77650543Y-92428044D01*
X77671613Y-92418079D01*
X77693557Y-92410227D01*
X77716166Y-92404563D01*
X77739221Y-92401144D01*
X77762500Y-92400000D01*
X78237500Y-92400000D01*
X78260779Y-92401144D01*
X78260779Y-92401144D01*
G37*
D17*
X78000000Y-92925000D03*
D10*
G36*
X78260779Y-94151144D02*
G01*
X78283834Y-94154563D01*
X78306443Y-94160227D01*
X78328387Y-94168079D01*
X78349457Y-94178044D01*
X78369448Y-94190026D01*
X78388168Y-94203910D01*
X78405438Y-94219562D01*
X78421090Y-94236832D01*
X78434974Y-94255552D01*
X78446956Y-94275543D01*
X78456921Y-94296613D01*
X78464773Y-94318557D01*
X78470437Y-94341166D01*
X78473856Y-94364221D01*
X78475000Y-94387500D01*
X78475000Y-94962500D01*
X78473856Y-94985779D01*
X78470437Y-95008834D01*
X78464773Y-95031443D01*
X78456921Y-95053387D01*
X78446956Y-95074457D01*
X78434974Y-95094448D01*
X78421090Y-95113168D01*
X78405438Y-95130438D01*
X78388168Y-95146090D01*
X78369448Y-95159974D01*
X78349457Y-95171956D01*
X78328387Y-95181921D01*
X78306443Y-95189773D01*
X78283834Y-95195437D01*
X78260779Y-95198856D01*
X78237500Y-95200000D01*
X77762500Y-95200000D01*
X77739221Y-95198856D01*
X77716166Y-95195437D01*
X77693557Y-95189773D01*
X77671613Y-95181921D01*
X77650543Y-95171956D01*
X77630552Y-95159974D01*
X77611832Y-95146090D01*
X77594562Y-95130438D01*
X77578910Y-95113168D01*
X77565026Y-95094448D01*
X77553044Y-95074457D01*
X77543079Y-95053387D01*
X77535227Y-95031443D01*
X77529563Y-95008834D01*
X77526144Y-94985779D01*
X77525000Y-94962500D01*
X77525000Y-94387500D01*
X77526144Y-94364221D01*
X77529563Y-94341166D01*
X77535227Y-94318557D01*
X77543079Y-94296613D01*
X77553044Y-94275543D01*
X77565026Y-94255552D01*
X77578910Y-94236832D01*
X77594562Y-94219562D01*
X77611832Y-94203910D01*
X77630552Y-94190026D01*
X77650543Y-94178044D01*
X77671613Y-94168079D01*
X77693557Y-94160227D01*
X77716166Y-94154563D01*
X77739221Y-94151144D01*
X77762500Y-94150000D01*
X78237500Y-94150000D01*
X78260779Y-94151144D01*
X78260779Y-94151144D01*
G37*
D17*
X78000000Y-94675000D03*
D10*
G36*
X112460779Y-89076144D02*
G01*
X112483834Y-89079563D01*
X112506443Y-89085227D01*
X112528387Y-89093079D01*
X112549457Y-89103044D01*
X112569448Y-89115026D01*
X112588168Y-89128910D01*
X112605438Y-89144562D01*
X112621090Y-89161832D01*
X112634974Y-89180552D01*
X112646956Y-89200543D01*
X112656921Y-89221613D01*
X112664773Y-89243557D01*
X112670437Y-89266166D01*
X112673856Y-89289221D01*
X112675000Y-89312500D01*
X112675000Y-89887500D01*
X112673856Y-89910779D01*
X112670437Y-89933834D01*
X112664773Y-89956443D01*
X112656921Y-89978387D01*
X112646956Y-89999457D01*
X112634974Y-90019448D01*
X112621090Y-90038168D01*
X112605438Y-90055438D01*
X112588168Y-90071090D01*
X112569448Y-90084974D01*
X112549457Y-90096956D01*
X112528387Y-90106921D01*
X112506443Y-90114773D01*
X112483834Y-90120437D01*
X112460779Y-90123856D01*
X112437500Y-90125000D01*
X111962500Y-90125000D01*
X111939221Y-90123856D01*
X111916166Y-90120437D01*
X111893557Y-90114773D01*
X111871613Y-90106921D01*
X111850543Y-90096956D01*
X111830552Y-90084974D01*
X111811832Y-90071090D01*
X111794562Y-90055438D01*
X111778910Y-90038168D01*
X111765026Y-90019448D01*
X111753044Y-89999457D01*
X111743079Y-89978387D01*
X111735227Y-89956443D01*
X111729563Y-89933834D01*
X111726144Y-89910779D01*
X111725000Y-89887500D01*
X111725000Y-89312500D01*
X111726144Y-89289221D01*
X111729563Y-89266166D01*
X111735227Y-89243557D01*
X111743079Y-89221613D01*
X111753044Y-89200543D01*
X111765026Y-89180552D01*
X111778910Y-89161832D01*
X111794562Y-89144562D01*
X111811832Y-89128910D01*
X111830552Y-89115026D01*
X111850543Y-89103044D01*
X111871613Y-89093079D01*
X111893557Y-89085227D01*
X111916166Y-89079563D01*
X111939221Y-89076144D01*
X111962500Y-89075000D01*
X112437500Y-89075000D01*
X112460779Y-89076144D01*
X112460779Y-89076144D01*
G37*
D17*
X112200000Y-89600000D03*
D10*
G36*
X112460779Y-87326144D02*
G01*
X112483834Y-87329563D01*
X112506443Y-87335227D01*
X112528387Y-87343079D01*
X112549457Y-87353044D01*
X112569448Y-87365026D01*
X112588168Y-87378910D01*
X112605438Y-87394562D01*
X112621090Y-87411832D01*
X112634974Y-87430552D01*
X112646956Y-87450543D01*
X112656921Y-87471613D01*
X112664773Y-87493557D01*
X112670437Y-87516166D01*
X112673856Y-87539221D01*
X112675000Y-87562500D01*
X112675000Y-88137500D01*
X112673856Y-88160779D01*
X112670437Y-88183834D01*
X112664773Y-88206443D01*
X112656921Y-88228387D01*
X112646956Y-88249457D01*
X112634974Y-88269448D01*
X112621090Y-88288168D01*
X112605438Y-88305438D01*
X112588168Y-88321090D01*
X112569448Y-88334974D01*
X112549457Y-88346956D01*
X112528387Y-88356921D01*
X112506443Y-88364773D01*
X112483834Y-88370437D01*
X112460779Y-88373856D01*
X112437500Y-88375000D01*
X111962500Y-88375000D01*
X111939221Y-88373856D01*
X111916166Y-88370437D01*
X111893557Y-88364773D01*
X111871613Y-88356921D01*
X111850543Y-88346956D01*
X111830552Y-88334974D01*
X111811832Y-88321090D01*
X111794562Y-88305438D01*
X111778910Y-88288168D01*
X111765026Y-88269448D01*
X111753044Y-88249457D01*
X111743079Y-88228387D01*
X111735227Y-88206443D01*
X111729563Y-88183834D01*
X111726144Y-88160779D01*
X111725000Y-88137500D01*
X111725000Y-87562500D01*
X111726144Y-87539221D01*
X111729563Y-87516166D01*
X111735227Y-87493557D01*
X111743079Y-87471613D01*
X111753044Y-87450543D01*
X111765026Y-87430552D01*
X111778910Y-87411832D01*
X111794562Y-87394562D01*
X111811832Y-87378910D01*
X111830552Y-87365026D01*
X111850543Y-87353044D01*
X111871613Y-87343079D01*
X111893557Y-87335227D01*
X111916166Y-87329563D01*
X111939221Y-87326144D01*
X111962500Y-87325000D01*
X112437500Y-87325000D01*
X112460779Y-87326144D01*
X112460779Y-87326144D01*
G37*
D17*
X112200000Y-87850000D03*
D10*
G36*
X71260779Y-94151144D02*
G01*
X71283834Y-94154563D01*
X71306443Y-94160227D01*
X71328387Y-94168079D01*
X71349457Y-94178044D01*
X71369448Y-94190026D01*
X71388168Y-94203910D01*
X71405438Y-94219562D01*
X71421090Y-94236832D01*
X71434974Y-94255552D01*
X71446956Y-94275543D01*
X71456921Y-94296613D01*
X71464773Y-94318557D01*
X71470437Y-94341166D01*
X71473856Y-94364221D01*
X71475000Y-94387500D01*
X71475000Y-94962500D01*
X71473856Y-94985779D01*
X71470437Y-95008834D01*
X71464773Y-95031443D01*
X71456921Y-95053387D01*
X71446956Y-95074457D01*
X71434974Y-95094448D01*
X71421090Y-95113168D01*
X71405438Y-95130438D01*
X71388168Y-95146090D01*
X71369448Y-95159974D01*
X71349457Y-95171956D01*
X71328387Y-95181921D01*
X71306443Y-95189773D01*
X71283834Y-95195437D01*
X71260779Y-95198856D01*
X71237500Y-95200000D01*
X70762500Y-95200000D01*
X70739221Y-95198856D01*
X70716166Y-95195437D01*
X70693557Y-95189773D01*
X70671613Y-95181921D01*
X70650543Y-95171956D01*
X70630552Y-95159974D01*
X70611832Y-95146090D01*
X70594562Y-95130438D01*
X70578910Y-95113168D01*
X70565026Y-95094448D01*
X70553044Y-95074457D01*
X70543079Y-95053387D01*
X70535227Y-95031443D01*
X70529563Y-95008834D01*
X70526144Y-94985779D01*
X70525000Y-94962500D01*
X70525000Y-94387500D01*
X70526144Y-94364221D01*
X70529563Y-94341166D01*
X70535227Y-94318557D01*
X70543079Y-94296613D01*
X70553044Y-94275543D01*
X70565026Y-94255552D01*
X70578910Y-94236832D01*
X70594562Y-94219562D01*
X70611832Y-94203910D01*
X70630552Y-94190026D01*
X70650543Y-94178044D01*
X70671613Y-94168079D01*
X70693557Y-94160227D01*
X70716166Y-94154563D01*
X70739221Y-94151144D01*
X70762500Y-94150000D01*
X71237500Y-94150000D01*
X71260779Y-94151144D01*
X71260779Y-94151144D01*
G37*
D17*
X71000000Y-94675000D03*
D10*
G36*
X71260779Y-92401144D02*
G01*
X71283834Y-92404563D01*
X71306443Y-92410227D01*
X71328387Y-92418079D01*
X71349457Y-92428044D01*
X71369448Y-92440026D01*
X71388168Y-92453910D01*
X71405438Y-92469562D01*
X71421090Y-92486832D01*
X71434974Y-92505552D01*
X71446956Y-92525543D01*
X71456921Y-92546613D01*
X71464773Y-92568557D01*
X71470437Y-92591166D01*
X71473856Y-92614221D01*
X71475000Y-92637500D01*
X71475000Y-93212500D01*
X71473856Y-93235779D01*
X71470437Y-93258834D01*
X71464773Y-93281443D01*
X71456921Y-93303387D01*
X71446956Y-93324457D01*
X71434974Y-93344448D01*
X71421090Y-93363168D01*
X71405438Y-93380438D01*
X71388168Y-93396090D01*
X71369448Y-93409974D01*
X71349457Y-93421956D01*
X71328387Y-93431921D01*
X71306443Y-93439773D01*
X71283834Y-93445437D01*
X71260779Y-93448856D01*
X71237500Y-93450000D01*
X70762500Y-93450000D01*
X70739221Y-93448856D01*
X70716166Y-93445437D01*
X70693557Y-93439773D01*
X70671613Y-93431921D01*
X70650543Y-93421956D01*
X70630552Y-93409974D01*
X70611832Y-93396090D01*
X70594562Y-93380438D01*
X70578910Y-93363168D01*
X70565026Y-93344448D01*
X70553044Y-93324457D01*
X70543079Y-93303387D01*
X70535227Y-93281443D01*
X70529563Y-93258834D01*
X70526144Y-93235779D01*
X70525000Y-93212500D01*
X70525000Y-92637500D01*
X70526144Y-92614221D01*
X70529563Y-92591166D01*
X70535227Y-92568557D01*
X70543079Y-92546613D01*
X70553044Y-92525543D01*
X70565026Y-92505552D01*
X70578910Y-92486832D01*
X70594562Y-92469562D01*
X70611832Y-92453910D01*
X70630552Y-92440026D01*
X70650543Y-92428044D01*
X70671613Y-92418079D01*
X70693557Y-92410227D01*
X70716166Y-92404563D01*
X70739221Y-92401144D01*
X70762500Y-92400000D01*
X71237500Y-92400000D01*
X71260779Y-92401144D01*
X71260779Y-92401144D01*
G37*
D17*
X71000000Y-92925000D03*
D10*
G36*
X115960779Y-89051144D02*
G01*
X115983834Y-89054563D01*
X116006443Y-89060227D01*
X116028387Y-89068079D01*
X116049457Y-89078044D01*
X116069448Y-89090026D01*
X116088168Y-89103910D01*
X116105438Y-89119562D01*
X116121090Y-89136832D01*
X116134974Y-89155552D01*
X116146956Y-89175543D01*
X116156921Y-89196613D01*
X116164773Y-89218557D01*
X116170437Y-89241166D01*
X116173856Y-89264221D01*
X116175000Y-89287500D01*
X116175000Y-89862500D01*
X116173856Y-89885779D01*
X116170437Y-89908834D01*
X116164773Y-89931443D01*
X116156921Y-89953387D01*
X116146956Y-89974457D01*
X116134974Y-89994448D01*
X116121090Y-90013168D01*
X116105438Y-90030438D01*
X116088168Y-90046090D01*
X116069448Y-90059974D01*
X116049457Y-90071956D01*
X116028387Y-90081921D01*
X116006443Y-90089773D01*
X115983834Y-90095437D01*
X115960779Y-90098856D01*
X115937500Y-90100000D01*
X115462500Y-90100000D01*
X115439221Y-90098856D01*
X115416166Y-90095437D01*
X115393557Y-90089773D01*
X115371613Y-90081921D01*
X115350543Y-90071956D01*
X115330552Y-90059974D01*
X115311832Y-90046090D01*
X115294562Y-90030438D01*
X115278910Y-90013168D01*
X115265026Y-89994448D01*
X115253044Y-89974457D01*
X115243079Y-89953387D01*
X115235227Y-89931443D01*
X115229563Y-89908834D01*
X115226144Y-89885779D01*
X115225000Y-89862500D01*
X115225000Y-89287500D01*
X115226144Y-89264221D01*
X115229563Y-89241166D01*
X115235227Y-89218557D01*
X115243079Y-89196613D01*
X115253044Y-89175543D01*
X115265026Y-89155552D01*
X115278910Y-89136832D01*
X115294562Y-89119562D01*
X115311832Y-89103910D01*
X115330552Y-89090026D01*
X115350543Y-89078044D01*
X115371613Y-89068079D01*
X115393557Y-89060227D01*
X115416166Y-89054563D01*
X115439221Y-89051144D01*
X115462500Y-89050000D01*
X115937500Y-89050000D01*
X115960779Y-89051144D01*
X115960779Y-89051144D01*
G37*
D17*
X115700000Y-89575000D03*
D10*
G36*
X115960779Y-87301144D02*
G01*
X115983834Y-87304563D01*
X116006443Y-87310227D01*
X116028387Y-87318079D01*
X116049457Y-87328044D01*
X116069448Y-87340026D01*
X116088168Y-87353910D01*
X116105438Y-87369562D01*
X116121090Y-87386832D01*
X116134974Y-87405552D01*
X116146956Y-87425543D01*
X116156921Y-87446613D01*
X116164773Y-87468557D01*
X116170437Y-87491166D01*
X116173856Y-87514221D01*
X116175000Y-87537500D01*
X116175000Y-88112500D01*
X116173856Y-88135779D01*
X116170437Y-88158834D01*
X116164773Y-88181443D01*
X116156921Y-88203387D01*
X116146956Y-88224457D01*
X116134974Y-88244448D01*
X116121090Y-88263168D01*
X116105438Y-88280438D01*
X116088168Y-88296090D01*
X116069448Y-88309974D01*
X116049457Y-88321956D01*
X116028387Y-88331921D01*
X116006443Y-88339773D01*
X115983834Y-88345437D01*
X115960779Y-88348856D01*
X115937500Y-88350000D01*
X115462500Y-88350000D01*
X115439221Y-88348856D01*
X115416166Y-88345437D01*
X115393557Y-88339773D01*
X115371613Y-88331921D01*
X115350543Y-88321956D01*
X115330552Y-88309974D01*
X115311832Y-88296090D01*
X115294562Y-88280438D01*
X115278910Y-88263168D01*
X115265026Y-88244448D01*
X115253044Y-88224457D01*
X115243079Y-88203387D01*
X115235227Y-88181443D01*
X115229563Y-88158834D01*
X115226144Y-88135779D01*
X115225000Y-88112500D01*
X115225000Y-87537500D01*
X115226144Y-87514221D01*
X115229563Y-87491166D01*
X115235227Y-87468557D01*
X115243079Y-87446613D01*
X115253044Y-87425543D01*
X115265026Y-87405552D01*
X115278910Y-87386832D01*
X115294562Y-87369562D01*
X115311832Y-87353910D01*
X115330552Y-87340026D01*
X115350543Y-87328044D01*
X115371613Y-87318079D01*
X115393557Y-87310227D01*
X115416166Y-87304563D01*
X115439221Y-87301144D01*
X115462500Y-87300000D01*
X115937500Y-87300000D01*
X115960779Y-87301144D01*
X115960779Y-87301144D01*
G37*
D17*
X115700000Y-87825000D03*
D10*
G36*
X84935779Y-102526144D02*
G01*
X84958834Y-102529563D01*
X84981443Y-102535227D01*
X85003387Y-102543079D01*
X85024457Y-102553044D01*
X85044448Y-102565026D01*
X85063168Y-102578910D01*
X85080438Y-102594562D01*
X85096090Y-102611832D01*
X85109974Y-102630552D01*
X85121956Y-102650543D01*
X85131921Y-102671613D01*
X85139773Y-102693557D01*
X85145437Y-102716166D01*
X85148856Y-102739221D01*
X85150000Y-102762500D01*
X85150000Y-103237500D01*
X85148856Y-103260779D01*
X85145437Y-103283834D01*
X85139773Y-103306443D01*
X85131921Y-103328387D01*
X85121956Y-103349457D01*
X85109974Y-103369448D01*
X85096090Y-103388168D01*
X85080438Y-103405438D01*
X85063168Y-103421090D01*
X85044448Y-103434974D01*
X85024457Y-103446956D01*
X85003387Y-103456921D01*
X84981443Y-103464773D01*
X84958834Y-103470437D01*
X84935779Y-103473856D01*
X84912500Y-103475000D01*
X84337500Y-103475000D01*
X84314221Y-103473856D01*
X84291166Y-103470437D01*
X84268557Y-103464773D01*
X84246613Y-103456921D01*
X84225543Y-103446956D01*
X84205552Y-103434974D01*
X84186832Y-103421090D01*
X84169562Y-103405438D01*
X84153910Y-103388168D01*
X84140026Y-103369448D01*
X84128044Y-103349457D01*
X84118079Y-103328387D01*
X84110227Y-103306443D01*
X84104563Y-103283834D01*
X84101144Y-103260779D01*
X84100000Y-103237500D01*
X84100000Y-102762500D01*
X84101144Y-102739221D01*
X84104563Y-102716166D01*
X84110227Y-102693557D01*
X84118079Y-102671613D01*
X84128044Y-102650543D01*
X84140026Y-102630552D01*
X84153910Y-102611832D01*
X84169562Y-102594562D01*
X84186832Y-102578910D01*
X84205552Y-102565026D01*
X84225543Y-102553044D01*
X84246613Y-102543079D01*
X84268557Y-102535227D01*
X84291166Y-102529563D01*
X84314221Y-102526144D01*
X84337500Y-102525000D01*
X84912500Y-102525000D01*
X84935779Y-102526144D01*
X84935779Y-102526144D01*
G37*
D17*
X84625000Y-103000000D03*
D10*
G36*
X86685779Y-102526144D02*
G01*
X86708834Y-102529563D01*
X86731443Y-102535227D01*
X86753387Y-102543079D01*
X86774457Y-102553044D01*
X86794448Y-102565026D01*
X86813168Y-102578910D01*
X86830438Y-102594562D01*
X86846090Y-102611832D01*
X86859974Y-102630552D01*
X86871956Y-102650543D01*
X86881921Y-102671613D01*
X86889773Y-102693557D01*
X86895437Y-102716166D01*
X86898856Y-102739221D01*
X86900000Y-102762500D01*
X86900000Y-103237500D01*
X86898856Y-103260779D01*
X86895437Y-103283834D01*
X86889773Y-103306443D01*
X86881921Y-103328387D01*
X86871956Y-103349457D01*
X86859974Y-103369448D01*
X86846090Y-103388168D01*
X86830438Y-103405438D01*
X86813168Y-103421090D01*
X86794448Y-103434974D01*
X86774457Y-103446956D01*
X86753387Y-103456921D01*
X86731443Y-103464773D01*
X86708834Y-103470437D01*
X86685779Y-103473856D01*
X86662500Y-103475000D01*
X86087500Y-103475000D01*
X86064221Y-103473856D01*
X86041166Y-103470437D01*
X86018557Y-103464773D01*
X85996613Y-103456921D01*
X85975543Y-103446956D01*
X85955552Y-103434974D01*
X85936832Y-103421090D01*
X85919562Y-103405438D01*
X85903910Y-103388168D01*
X85890026Y-103369448D01*
X85878044Y-103349457D01*
X85868079Y-103328387D01*
X85860227Y-103306443D01*
X85854563Y-103283834D01*
X85851144Y-103260779D01*
X85850000Y-103237500D01*
X85850000Y-102762500D01*
X85851144Y-102739221D01*
X85854563Y-102716166D01*
X85860227Y-102693557D01*
X85868079Y-102671613D01*
X85878044Y-102650543D01*
X85890026Y-102630552D01*
X85903910Y-102611832D01*
X85919562Y-102594562D01*
X85936832Y-102578910D01*
X85955552Y-102565026D01*
X85975543Y-102553044D01*
X85996613Y-102543079D01*
X86018557Y-102535227D01*
X86041166Y-102529563D01*
X86064221Y-102526144D01*
X86087500Y-102525000D01*
X86662500Y-102525000D01*
X86685779Y-102526144D01*
X86685779Y-102526144D01*
G37*
D17*
X86375000Y-103000000D03*
D10*
G36*
X88860779Y-78501144D02*
G01*
X88883834Y-78504563D01*
X88906443Y-78510227D01*
X88928387Y-78518079D01*
X88949457Y-78528044D01*
X88969448Y-78540026D01*
X88988168Y-78553910D01*
X89005438Y-78569562D01*
X89021090Y-78586832D01*
X89034974Y-78605552D01*
X89046956Y-78625543D01*
X89056921Y-78646613D01*
X89064773Y-78668557D01*
X89070437Y-78691166D01*
X89073856Y-78714221D01*
X89075000Y-78737500D01*
X89075000Y-79312500D01*
X89073856Y-79335779D01*
X89070437Y-79358834D01*
X89064773Y-79381443D01*
X89056921Y-79403387D01*
X89046956Y-79424457D01*
X89034974Y-79444448D01*
X89021090Y-79463168D01*
X89005438Y-79480438D01*
X88988168Y-79496090D01*
X88969448Y-79509974D01*
X88949457Y-79521956D01*
X88928387Y-79531921D01*
X88906443Y-79539773D01*
X88883834Y-79545437D01*
X88860779Y-79548856D01*
X88837500Y-79550000D01*
X88362500Y-79550000D01*
X88339221Y-79548856D01*
X88316166Y-79545437D01*
X88293557Y-79539773D01*
X88271613Y-79531921D01*
X88250543Y-79521956D01*
X88230552Y-79509974D01*
X88211832Y-79496090D01*
X88194562Y-79480438D01*
X88178910Y-79463168D01*
X88165026Y-79444448D01*
X88153044Y-79424457D01*
X88143079Y-79403387D01*
X88135227Y-79381443D01*
X88129563Y-79358834D01*
X88126144Y-79335779D01*
X88125000Y-79312500D01*
X88125000Y-78737500D01*
X88126144Y-78714221D01*
X88129563Y-78691166D01*
X88135227Y-78668557D01*
X88143079Y-78646613D01*
X88153044Y-78625543D01*
X88165026Y-78605552D01*
X88178910Y-78586832D01*
X88194562Y-78569562D01*
X88211832Y-78553910D01*
X88230552Y-78540026D01*
X88250543Y-78528044D01*
X88271613Y-78518079D01*
X88293557Y-78510227D01*
X88316166Y-78504563D01*
X88339221Y-78501144D01*
X88362500Y-78500000D01*
X88837500Y-78500000D01*
X88860779Y-78501144D01*
X88860779Y-78501144D01*
G37*
D17*
X88600000Y-79025000D03*
D10*
G36*
X88860779Y-80251144D02*
G01*
X88883834Y-80254563D01*
X88906443Y-80260227D01*
X88928387Y-80268079D01*
X88949457Y-80278044D01*
X88969448Y-80290026D01*
X88988168Y-80303910D01*
X89005438Y-80319562D01*
X89021090Y-80336832D01*
X89034974Y-80355552D01*
X89046956Y-80375543D01*
X89056921Y-80396613D01*
X89064773Y-80418557D01*
X89070437Y-80441166D01*
X89073856Y-80464221D01*
X89075000Y-80487500D01*
X89075000Y-81062500D01*
X89073856Y-81085779D01*
X89070437Y-81108834D01*
X89064773Y-81131443D01*
X89056921Y-81153387D01*
X89046956Y-81174457D01*
X89034974Y-81194448D01*
X89021090Y-81213168D01*
X89005438Y-81230438D01*
X88988168Y-81246090D01*
X88969448Y-81259974D01*
X88949457Y-81271956D01*
X88928387Y-81281921D01*
X88906443Y-81289773D01*
X88883834Y-81295437D01*
X88860779Y-81298856D01*
X88837500Y-81300000D01*
X88362500Y-81300000D01*
X88339221Y-81298856D01*
X88316166Y-81295437D01*
X88293557Y-81289773D01*
X88271613Y-81281921D01*
X88250543Y-81271956D01*
X88230552Y-81259974D01*
X88211832Y-81246090D01*
X88194562Y-81230438D01*
X88178910Y-81213168D01*
X88165026Y-81194448D01*
X88153044Y-81174457D01*
X88143079Y-81153387D01*
X88135227Y-81131443D01*
X88129563Y-81108834D01*
X88126144Y-81085779D01*
X88125000Y-81062500D01*
X88125000Y-80487500D01*
X88126144Y-80464221D01*
X88129563Y-80441166D01*
X88135227Y-80418557D01*
X88143079Y-80396613D01*
X88153044Y-80375543D01*
X88165026Y-80355552D01*
X88178910Y-80336832D01*
X88194562Y-80319562D01*
X88211832Y-80303910D01*
X88230552Y-80290026D01*
X88250543Y-80278044D01*
X88271613Y-80268079D01*
X88293557Y-80260227D01*
X88316166Y-80254563D01*
X88339221Y-80251144D01*
X88362500Y-80250000D01*
X88837500Y-80250000D01*
X88860779Y-80251144D01*
X88860779Y-80251144D01*
G37*
D17*
X88600000Y-80775000D03*
D10*
G36*
X82060779Y-92401144D02*
G01*
X82083834Y-92404563D01*
X82106443Y-92410227D01*
X82128387Y-92418079D01*
X82149457Y-92428044D01*
X82169448Y-92440026D01*
X82188168Y-92453910D01*
X82205438Y-92469562D01*
X82221090Y-92486832D01*
X82234974Y-92505552D01*
X82246956Y-92525543D01*
X82256921Y-92546613D01*
X82264773Y-92568557D01*
X82270437Y-92591166D01*
X82273856Y-92614221D01*
X82275000Y-92637500D01*
X82275000Y-93212500D01*
X82273856Y-93235779D01*
X82270437Y-93258834D01*
X82264773Y-93281443D01*
X82256921Y-93303387D01*
X82246956Y-93324457D01*
X82234974Y-93344448D01*
X82221090Y-93363168D01*
X82205438Y-93380438D01*
X82188168Y-93396090D01*
X82169448Y-93409974D01*
X82149457Y-93421956D01*
X82128387Y-93431921D01*
X82106443Y-93439773D01*
X82083834Y-93445437D01*
X82060779Y-93448856D01*
X82037500Y-93450000D01*
X81562500Y-93450000D01*
X81539221Y-93448856D01*
X81516166Y-93445437D01*
X81493557Y-93439773D01*
X81471613Y-93431921D01*
X81450543Y-93421956D01*
X81430552Y-93409974D01*
X81411832Y-93396090D01*
X81394562Y-93380438D01*
X81378910Y-93363168D01*
X81365026Y-93344448D01*
X81353044Y-93324457D01*
X81343079Y-93303387D01*
X81335227Y-93281443D01*
X81329563Y-93258834D01*
X81326144Y-93235779D01*
X81325000Y-93212500D01*
X81325000Y-92637500D01*
X81326144Y-92614221D01*
X81329563Y-92591166D01*
X81335227Y-92568557D01*
X81343079Y-92546613D01*
X81353044Y-92525543D01*
X81365026Y-92505552D01*
X81378910Y-92486832D01*
X81394562Y-92469562D01*
X81411832Y-92453910D01*
X81430552Y-92440026D01*
X81450543Y-92428044D01*
X81471613Y-92418079D01*
X81493557Y-92410227D01*
X81516166Y-92404563D01*
X81539221Y-92401144D01*
X81562500Y-92400000D01*
X82037500Y-92400000D01*
X82060779Y-92401144D01*
X82060779Y-92401144D01*
G37*
D17*
X81800000Y-92925000D03*
D10*
G36*
X82060779Y-94151144D02*
G01*
X82083834Y-94154563D01*
X82106443Y-94160227D01*
X82128387Y-94168079D01*
X82149457Y-94178044D01*
X82169448Y-94190026D01*
X82188168Y-94203910D01*
X82205438Y-94219562D01*
X82221090Y-94236832D01*
X82234974Y-94255552D01*
X82246956Y-94275543D01*
X82256921Y-94296613D01*
X82264773Y-94318557D01*
X82270437Y-94341166D01*
X82273856Y-94364221D01*
X82275000Y-94387500D01*
X82275000Y-94962500D01*
X82273856Y-94985779D01*
X82270437Y-95008834D01*
X82264773Y-95031443D01*
X82256921Y-95053387D01*
X82246956Y-95074457D01*
X82234974Y-95094448D01*
X82221090Y-95113168D01*
X82205438Y-95130438D01*
X82188168Y-95146090D01*
X82169448Y-95159974D01*
X82149457Y-95171956D01*
X82128387Y-95181921D01*
X82106443Y-95189773D01*
X82083834Y-95195437D01*
X82060779Y-95198856D01*
X82037500Y-95200000D01*
X81562500Y-95200000D01*
X81539221Y-95198856D01*
X81516166Y-95195437D01*
X81493557Y-95189773D01*
X81471613Y-95181921D01*
X81450543Y-95171956D01*
X81430552Y-95159974D01*
X81411832Y-95146090D01*
X81394562Y-95130438D01*
X81378910Y-95113168D01*
X81365026Y-95094448D01*
X81353044Y-95074457D01*
X81343079Y-95053387D01*
X81335227Y-95031443D01*
X81329563Y-95008834D01*
X81326144Y-94985779D01*
X81325000Y-94962500D01*
X81325000Y-94387500D01*
X81326144Y-94364221D01*
X81329563Y-94341166D01*
X81335227Y-94318557D01*
X81343079Y-94296613D01*
X81353044Y-94275543D01*
X81365026Y-94255552D01*
X81378910Y-94236832D01*
X81394562Y-94219562D01*
X81411832Y-94203910D01*
X81430552Y-94190026D01*
X81450543Y-94178044D01*
X81471613Y-94168079D01*
X81493557Y-94160227D01*
X81516166Y-94154563D01*
X81539221Y-94151144D01*
X81562500Y-94150000D01*
X82037500Y-94150000D01*
X82060779Y-94151144D01*
X82060779Y-94151144D01*
G37*
D17*
X81800000Y-94675000D03*
D10*
G36*
X112260779Y-91001144D02*
G01*
X112283834Y-91004563D01*
X112306443Y-91010227D01*
X112328387Y-91018079D01*
X112349457Y-91028044D01*
X112369448Y-91040026D01*
X112388168Y-91053910D01*
X112405438Y-91069562D01*
X112421090Y-91086832D01*
X112434974Y-91105552D01*
X112446956Y-91125543D01*
X112456921Y-91146613D01*
X112464773Y-91168557D01*
X112470437Y-91191166D01*
X112473856Y-91214221D01*
X112475000Y-91237500D01*
X112475000Y-91812500D01*
X112473856Y-91835779D01*
X112470437Y-91858834D01*
X112464773Y-91881443D01*
X112456921Y-91903387D01*
X112446956Y-91924457D01*
X112434974Y-91944448D01*
X112421090Y-91963168D01*
X112405438Y-91980438D01*
X112388168Y-91996090D01*
X112369448Y-92009974D01*
X112349457Y-92021956D01*
X112328387Y-92031921D01*
X112306443Y-92039773D01*
X112283834Y-92045437D01*
X112260779Y-92048856D01*
X112237500Y-92050000D01*
X111762500Y-92050000D01*
X111739221Y-92048856D01*
X111716166Y-92045437D01*
X111693557Y-92039773D01*
X111671613Y-92031921D01*
X111650543Y-92021956D01*
X111630552Y-92009974D01*
X111611832Y-91996090D01*
X111594562Y-91980438D01*
X111578910Y-91963168D01*
X111565026Y-91944448D01*
X111553044Y-91924457D01*
X111543079Y-91903387D01*
X111535227Y-91881443D01*
X111529563Y-91858834D01*
X111526144Y-91835779D01*
X111525000Y-91812500D01*
X111525000Y-91237500D01*
X111526144Y-91214221D01*
X111529563Y-91191166D01*
X111535227Y-91168557D01*
X111543079Y-91146613D01*
X111553044Y-91125543D01*
X111565026Y-91105552D01*
X111578910Y-91086832D01*
X111594562Y-91069562D01*
X111611832Y-91053910D01*
X111630552Y-91040026D01*
X111650543Y-91028044D01*
X111671613Y-91018079D01*
X111693557Y-91010227D01*
X111716166Y-91004563D01*
X111739221Y-91001144D01*
X111762500Y-91000000D01*
X112237500Y-91000000D01*
X112260779Y-91001144D01*
X112260779Y-91001144D01*
G37*
D17*
X112000000Y-91525000D03*
D10*
G36*
X112260779Y-92751144D02*
G01*
X112283834Y-92754563D01*
X112306443Y-92760227D01*
X112328387Y-92768079D01*
X112349457Y-92778044D01*
X112369448Y-92790026D01*
X112388168Y-92803910D01*
X112405438Y-92819562D01*
X112421090Y-92836832D01*
X112434974Y-92855552D01*
X112446956Y-92875543D01*
X112456921Y-92896613D01*
X112464773Y-92918557D01*
X112470437Y-92941166D01*
X112473856Y-92964221D01*
X112475000Y-92987500D01*
X112475000Y-93562500D01*
X112473856Y-93585779D01*
X112470437Y-93608834D01*
X112464773Y-93631443D01*
X112456921Y-93653387D01*
X112446956Y-93674457D01*
X112434974Y-93694448D01*
X112421090Y-93713168D01*
X112405438Y-93730438D01*
X112388168Y-93746090D01*
X112369448Y-93759974D01*
X112349457Y-93771956D01*
X112328387Y-93781921D01*
X112306443Y-93789773D01*
X112283834Y-93795437D01*
X112260779Y-93798856D01*
X112237500Y-93800000D01*
X111762500Y-93800000D01*
X111739221Y-93798856D01*
X111716166Y-93795437D01*
X111693557Y-93789773D01*
X111671613Y-93781921D01*
X111650543Y-93771956D01*
X111630552Y-93759974D01*
X111611832Y-93746090D01*
X111594562Y-93730438D01*
X111578910Y-93713168D01*
X111565026Y-93694448D01*
X111553044Y-93674457D01*
X111543079Y-93653387D01*
X111535227Y-93631443D01*
X111529563Y-93608834D01*
X111526144Y-93585779D01*
X111525000Y-93562500D01*
X111525000Y-92987500D01*
X111526144Y-92964221D01*
X111529563Y-92941166D01*
X111535227Y-92918557D01*
X111543079Y-92896613D01*
X111553044Y-92875543D01*
X111565026Y-92855552D01*
X111578910Y-92836832D01*
X111594562Y-92819562D01*
X111611832Y-92803910D01*
X111630552Y-92790026D01*
X111650543Y-92778044D01*
X111671613Y-92768079D01*
X111693557Y-92760227D01*
X111716166Y-92754563D01*
X111739221Y-92751144D01*
X111762500Y-92750000D01*
X112237500Y-92750000D01*
X112260779Y-92751144D01*
X112260779Y-92751144D01*
G37*
D17*
X112000000Y-93275000D03*
D10*
G36*
X87985779Y-84526144D02*
G01*
X88008834Y-84529563D01*
X88031443Y-84535227D01*
X88053387Y-84543079D01*
X88074457Y-84553044D01*
X88094448Y-84565026D01*
X88113168Y-84578910D01*
X88130438Y-84594562D01*
X88146090Y-84611832D01*
X88159974Y-84630552D01*
X88171956Y-84650543D01*
X88181921Y-84671613D01*
X88189773Y-84693557D01*
X88195437Y-84716166D01*
X88198856Y-84739221D01*
X88200000Y-84762500D01*
X88200000Y-85237500D01*
X88198856Y-85260779D01*
X88195437Y-85283834D01*
X88189773Y-85306443D01*
X88181921Y-85328387D01*
X88171956Y-85349457D01*
X88159974Y-85369448D01*
X88146090Y-85388168D01*
X88130438Y-85405438D01*
X88113168Y-85421090D01*
X88094448Y-85434974D01*
X88074457Y-85446956D01*
X88053387Y-85456921D01*
X88031443Y-85464773D01*
X88008834Y-85470437D01*
X87985779Y-85473856D01*
X87962500Y-85475000D01*
X87387500Y-85475000D01*
X87364221Y-85473856D01*
X87341166Y-85470437D01*
X87318557Y-85464773D01*
X87296613Y-85456921D01*
X87275543Y-85446956D01*
X87255552Y-85434974D01*
X87236832Y-85421090D01*
X87219562Y-85405438D01*
X87203910Y-85388168D01*
X87190026Y-85369448D01*
X87178044Y-85349457D01*
X87168079Y-85328387D01*
X87160227Y-85306443D01*
X87154563Y-85283834D01*
X87151144Y-85260779D01*
X87150000Y-85237500D01*
X87150000Y-84762500D01*
X87151144Y-84739221D01*
X87154563Y-84716166D01*
X87160227Y-84693557D01*
X87168079Y-84671613D01*
X87178044Y-84650543D01*
X87190026Y-84630552D01*
X87203910Y-84611832D01*
X87219562Y-84594562D01*
X87236832Y-84578910D01*
X87255552Y-84565026D01*
X87275543Y-84553044D01*
X87296613Y-84543079D01*
X87318557Y-84535227D01*
X87341166Y-84529563D01*
X87364221Y-84526144D01*
X87387500Y-84525000D01*
X87962500Y-84525000D01*
X87985779Y-84526144D01*
X87985779Y-84526144D01*
G37*
D17*
X87675000Y-85000000D03*
D10*
G36*
X86235779Y-84526144D02*
G01*
X86258834Y-84529563D01*
X86281443Y-84535227D01*
X86303387Y-84543079D01*
X86324457Y-84553044D01*
X86344448Y-84565026D01*
X86363168Y-84578910D01*
X86380438Y-84594562D01*
X86396090Y-84611832D01*
X86409974Y-84630552D01*
X86421956Y-84650543D01*
X86431921Y-84671613D01*
X86439773Y-84693557D01*
X86445437Y-84716166D01*
X86448856Y-84739221D01*
X86450000Y-84762500D01*
X86450000Y-85237500D01*
X86448856Y-85260779D01*
X86445437Y-85283834D01*
X86439773Y-85306443D01*
X86431921Y-85328387D01*
X86421956Y-85349457D01*
X86409974Y-85369448D01*
X86396090Y-85388168D01*
X86380438Y-85405438D01*
X86363168Y-85421090D01*
X86344448Y-85434974D01*
X86324457Y-85446956D01*
X86303387Y-85456921D01*
X86281443Y-85464773D01*
X86258834Y-85470437D01*
X86235779Y-85473856D01*
X86212500Y-85475000D01*
X85637500Y-85475000D01*
X85614221Y-85473856D01*
X85591166Y-85470437D01*
X85568557Y-85464773D01*
X85546613Y-85456921D01*
X85525543Y-85446956D01*
X85505552Y-85434974D01*
X85486832Y-85421090D01*
X85469562Y-85405438D01*
X85453910Y-85388168D01*
X85440026Y-85369448D01*
X85428044Y-85349457D01*
X85418079Y-85328387D01*
X85410227Y-85306443D01*
X85404563Y-85283834D01*
X85401144Y-85260779D01*
X85400000Y-85237500D01*
X85400000Y-84762500D01*
X85401144Y-84739221D01*
X85404563Y-84716166D01*
X85410227Y-84693557D01*
X85418079Y-84671613D01*
X85428044Y-84650543D01*
X85440026Y-84630552D01*
X85453910Y-84611832D01*
X85469562Y-84594562D01*
X85486832Y-84578910D01*
X85505552Y-84565026D01*
X85525543Y-84553044D01*
X85546613Y-84543079D01*
X85568557Y-84535227D01*
X85591166Y-84529563D01*
X85614221Y-84526144D01*
X85637500Y-84525000D01*
X86212500Y-84525000D01*
X86235779Y-84526144D01*
X86235779Y-84526144D01*
G37*
D17*
X85925000Y-85000000D03*
D10*
G36*
X87985779Y-86726144D02*
G01*
X88008834Y-86729563D01*
X88031443Y-86735227D01*
X88053387Y-86743079D01*
X88074457Y-86753044D01*
X88094448Y-86765026D01*
X88113168Y-86778910D01*
X88130438Y-86794562D01*
X88146090Y-86811832D01*
X88159974Y-86830552D01*
X88171956Y-86850543D01*
X88181921Y-86871613D01*
X88189773Y-86893557D01*
X88195437Y-86916166D01*
X88198856Y-86939221D01*
X88200000Y-86962500D01*
X88200000Y-87437500D01*
X88198856Y-87460779D01*
X88195437Y-87483834D01*
X88189773Y-87506443D01*
X88181921Y-87528387D01*
X88171956Y-87549457D01*
X88159974Y-87569448D01*
X88146090Y-87588168D01*
X88130438Y-87605438D01*
X88113168Y-87621090D01*
X88094448Y-87634974D01*
X88074457Y-87646956D01*
X88053387Y-87656921D01*
X88031443Y-87664773D01*
X88008834Y-87670437D01*
X87985779Y-87673856D01*
X87962500Y-87675000D01*
X87387500Y-87675000D01*
X87364221Y-87673856D01*
X87341166Y-87670437D01*
X87318557Y-87664773D01*
X87296613Y-87656921D01*
X87275543Y-87646956D01*
X87255552Y-87634974D01*
X87236832Y-87621090D01*
X87219562Y-87605438D01*
X87203910Y-87588168D01*
X87190026Y-87569448D01*
X87178044Y-87549457D01*
X87168079Y-87528387D01*
X87160227Y-87506443D01*
X87154563Y-87483834D01*
X87151144Y-87460779D01*
X87150000Y-87437500D01*
X87150000Y-86962500D01*
X87151144Y-86939221D01*
X87154563Y-86916166D01*
X87160227Y-86893557D01*
X87168079Y-86871613D01*
X87178044Y-86850543D01*
X87190026Y-86830552D01*
X87203910Y-86811832D01*
X87219562Y-86794562D01*
X87236832Y-86778910D01*
X87255552Y-86765026D01*
X87275543Y-86753044D01*
X87296613Y-86743079D01*
X87318557Y-86735227D01*
X87341166Y-86729563D01*
X87364221Y-86726144D01*
X87387500Y-86725000D01*
X87962500Y-86725000D01*
X87985779Y-86726144D01*
X87985779Y-86726144D01*
G37*
D17*
X87675000Y-87200000D03*
D10*
G36*
X86235779Y-86726144D02*
G01*
X86258834Y-86729563D01*
X86281443Y-86735227D01*
X86303387Y-86743079D01*
X86324457Y-86753044D01*
X86344448Y-86765026D01*
X86363168Y-86778910D01*
X86380438Y-86794562D01*
X86396090Y-86811832D01*
X86409974Y-86830552D01*
X86421956Y-86850543D01*
X86431921Y-86871613D01*
X86439773Y-86893557D01*
X86445437Y-86916166D01*
X86448856Y-86939221D01*
X86450000Y-86962500D01*
X86450000Y-87437500D01*
X86448856Y-87460779D01*
X86445437Y-87483834D01*
X86439773Y-87506443D01*
X86431921Y-87528387D01*
X86421956Y-87549457D01*
X86409974Y-87569448D01*
X86396090Y-87588168D01*
X86380438Y-87605438D01*
X86363168Y-87621090D01*
X86344448Y-87634974D01*
X86324457Y-87646956D01*
X86303387Y-87656921D01*
X86281443Y-87664773D01*
X86258834Y-87670437D01*
X86235779Y-87673856D01*
X86212500Y-87675000D01*
X85637500Y-87675000D01*
X85614221Y-87673856D01*
X85591166Y-87670437D01*
X85568557Y-87664773D01*
X85546613Y-87656921D01*
X85525543Y-87646956D01*
X85505552Y-87634974D01*
X85486832Y-87621090D01*
X85469562Y-87605438D01*
X85453910Y-87588168D01*
X85440026Y-87569448D01*
X85428044Y-87549457D01*
X85418079Y-87528387D01*
X85410227Y-87506443D01*
X85404563Y-87483834D01*
X85401144Y-87460779D01*
X85400000Y-87437500D01*
X85400000Y-86962500D01*
X85401144Y-86939221D01*
X85404563Y-86916166D01*
X85410227Y-86893557D01*
X85418079Y-86871613D01*
X85428044Y-86850543D01*
X85440026Y-86830552D01*
X85453910Y-86811832D01*
X85469562Y-86794562D01*
X85486832Y-86778910D01*
X85505552Y-86765026D01*
X85525543Y-86753044D01*
X85546613Y-86743079D01*
X85568557Y-86735227D01*
X85591166Y-86729563D01*
X85614221Y-86726144D01*
X85637500Y-86725000D01*
X86212500Y-86725000D01*
X86235779Y-86726144D01*
X86235779Y-86726144D01*
G37*
D17*
X85925000Y-87200000D03*
D10*
G36*
X68800505Y-57837204D02*
G01*
X68824773Y-57840804D01*
X68848572Y-57846765D01*
X68871671Y-57855030D01*
X68893850Y-57865520D01*
X68914893Y-57878132D01*
X68934599Y-57892747D01*
X68952777Y-57909223D01*
X68969253Y-57927401D01*
X68983868Y-57947107D01*
X68996480Y-57968150D01*
X69006970Y-57990329D01*
X69015235Y-58013428D01*
X69021196Y-58037227D01*
X69024796Y-58061495D01*
X69026000Y-58085999D01*
X69026000Y-58736001D01*
X69024796Y-58760505D01*
X69021196Y-58784773D01*
X69015235Y-58808572D01*
X69006970Y-58831671D01*
X68996480Y-58853850D01*
X68983868Y-58874893D01*
X68969253Y-58894599D01*
X68952777Y-58912777D01*
X68934599Y-58929253D01*
X68914893Y-58943868D01*
X68893850Y-58956480D01*
X68871671Y-58966970D01*
X68848572Y-58975235D01*
X68824773Y-58981196D01*
X68800505Y-58984796D01*
X68776001Y-58986000D01*
X67875999Y-58986000D01*
X67851495Y-58984796D01*
X67827227Y-58981196D01*
X67803428Y-58975235D01*
X67780329Y-58966970D01*
X67758150Y-58956480D01*
X67737107Y-58943868D01*
X67717401Y-58929253D01*
X67699223Y-58912777D01*
X67682747Y-58894599D01*
X67668132Y-58874893D01*
X67655520Y-58853850D01*
X67645030Y-58831671D01*
X67636765Y-58808572D01*
X67630804Y-58784773D01*
X67627204Y-58760505D01*
X67626000Y-58736001D01*
X67626000Y-58085999D01*
X67627204Y-58061495D01*
X67630804Y-58037227D01*
X67636765Y-58013428D01*
X67645030Y-57990329D01*
X67655520Y-57968150D01*
X67668132Y-57947107D01*
X67682747Y-57927401D01*
X67699223Y-57909223D01*
X67717401Y-57892747D01*
X67737107Y-57878132D01*
X67758150Y-57865520D01*
X67780329Y-57855030D01*
X67803428Y-57846765D01*
X67827227Y-57840804D01*
X67851495Y-57837204D01*
X67875999Y-57836000D01*
X68776001Y-57836000D01*
X68800505Y-57837204D01*
X68800505Y-57837204D01*
G37*
D13*
X68326000Y-58411000D03*
D10*
G36*
X68800505Y-59887204D02*
G01*
X68824773Y-59890804D01*
X68848572Y-59896765D01*
X68871671Y-59905030D01*
X68893850Y-59915520D01*
X68914893Y-59928132D01*
X68934599Y-59942747D01*
X68952777Y-59959223D01*
X68969253Y-59977401D01*
X68983868Y-59997107D01*
X68996480Y-60018150D01*
X69006970Y-60040329D01*
X69015235Y-60063428D01*
X69021196Y-60087227D01*
X69024796Y-60111495D01*
X69026000Y-60135999D01*
X69026000Y-60786001D01*
X69024796Y-60810505D01*
X69021196Y-60834773D01*
X69015235Y-60858572D01*
X69006970Y-60881671D01*
X68996480Y-60903850D01*
X68983868Y-60924893D01*
X68969253Y-60944599D01*
X68952777Y-60962777D01*
X68934599Y-60979253D01*
X68914893Y-60993868D01*
X68893850Y-61006480D01*
X68871671Y-61016970D01*
X68848572Y-61025235D01*
X68824773Y-61031196D01*
X68800505Y-61034796D01*
X68776001Y-61036000D01*
X67875999Y-61036000D01*
X67851495Y-61034796D01*
X67827227Y-61031196D01*
X67803428Y-61025235D01*
X67780329Y-61016970D01*
X67758150Y-61006480D01*
X67737107Y-60993868D01*
X67717401Y-60979253D01*
X67699223Y-60962777D01*
X67682747Y-60944599D01*
X67668132Y-60924893D01*
X67655520Y-60903850D01*
X67645030Y-60881671D01*
X67636765Y-60858572D01*
X67630804Y-60834773D01*
X67627204Y-60810505D01*
X67626000Y-60786001D01*
X67626000Y-60135999D01*
X67627204Y-60111495D01*
X67630804Y-60087227D01*
X67636765Y-60063428D01*
X67645030Y-60040329D01*
X67655520Y-60018150D01*
X67668132Y-59997107D01*
X67682747Y-59977401D01*
X67699223Y-59959223D01*
X67717401Y-59942747D01*
X67737107Y-59928132D01*
X67758150Y-59915520D01*
X67780329Y-59905030D01*
X67803428Y-59896765D01*
X67827227Y-59890804D01*
X67851495Y-59887204D01*
X67875999Y-59886000D01*
X68776001Y-59886000D01*
X68800505Y-59887204D01*
X68800505Y-59887204D01*
G37*
D13*
X68326000Y-60461000D03*
D10*
G36*
X76420505Y-57837204D02*
G01*
X76444773Y-57840804D01*
X76468572Y-57846765D01*
X76491671Y-57855030D01*
X76513850Y-57865520D01*
X76534893Y-57878132D01*
X76554599Y-57892747D01*
X76572777Y-57909223D01*
X76589253Y-57927401D01*
X76603868Y-57947107D01*
X76616480Y-57968150D01*
X76626970Y-57990329D01*
X76635235Y-58013428D01*
X76641196Y-58037227D01*
X76644796Y-58061495D01*
X76646000Y-58085999D01*
X76646000Y-58736001D01*
X76644796Y-58760505D01*
X76641196Y-58784773D01*
X76635235Y-58808572D01*
X76626970Y-58831671D01*
X76616480Y-58853850D01*
X76603868Y-58874893D01*
X76589253Y-58894599D01*
X76572777Y-58912777D01*
X76554599Y-58929253D01*
X76534893Y-58943868D01*
X76513850Y-58956480D01*
X76491671Y-58966970D01*
X76468572Y-58975235D01*
X76444773Y-58981196D01*
X76420505Y-58984796D01*
X76396001Y-58986000D01*
X75495999Y-58986000D01*
X75471495Y-58984796D01*
X75447227Y-58981196D01*
X75423428Y-58975235D01*
X75400329Y-58966970D01*
X75378150Y-58956480D01*
X75357107Y-58943868D01*
X75337401Y-58929253D01*
X75319223Y-58912777D01*
X75302747Y-58894599D01*
X75288132Y-58874893D01*
X75275520Y-58853850D01*
X75265030Y-58831671D01*
X75256765Y-58808572D01*
X75250804Y-58784773D01*
X75247204Y-58760505D01*
X75246000Y-58736001D01*
X75246000Y-58085999D01*
X75247204Y-58061495D01*
X75250804Y-58037227D01*
X75256765Y-58013428D01*
X75265030Y-57990329D01*
X75275520Y-57968150D01*
X75288132Y-57947107D01*
X75302747Y-57927401D01*
X75319223Y-57909223D01*
X75337401Y-57892747D01*
X75357107Y-57878132D01*
X75378150Y-57865520D01*
X75400329Y-57855030D01*
X75423428Y-57846765D01*
X75447227Y-57840804D01*
X75471495Y-57837204D01*
X75495999Y-57836000D01*
X76396001Y-57836000D01*
X76420505Y-57837204D01*
X76420505Y-57837204D01*
G37*
D13*
X75946000Y-58411000D03*
D10*
G36*
X76420505Y-59887204D02*
G01*
X76444773Y-59890804D01*
X76468572Y-59896765D01*
X76491671Y-59905030D01*
X76513850Y-59915520D01*
X76534893Y-59928132D01*
X76554599Y-59942747D01*
X76572777Y-59959223D01*
X76589253Y-59977401D01*
X76603868Y-59997107D01*
X76616480Y-60018150D01*
X76626970Y-60040329D01*
X76635235Y-60063428D01*
X76641196Y-60087227D01*
X76644796Y-60111495D01*
X76646000Y-60135999D01*
X76646000Y-60786001D01*
X76644796Y-60810505D01*
X76641196Y-60834773D01*
X76635235Y-60858572D01*
X76626970Y-60881671D01*
X76616480Y-60903850D01*
X76603868Y-60924893D01*
X76589253Y-60944599D01*
X76572777Y-60962777D01*
X76554599Y-60979253D01*
X76534893Y-60993868D01*
X76513850Y-61006480D01*
X76491671Y-61016970D01*
X76468572Y-61025235D01*
X76444773Y-61031196D01*
X76420505Y-61034796D01*
X76396001Y-61036000D01*
X75495999Y-61036000D01*
X75471495Y-61034796D01*
X75447227Y-61031196D01*
X75423428Y-61025235D01*
X75400329Y-61016970D01*
X75378150Y-61006480D01*
X75357107Y-60993868D01*
X75337401Y-60979253D01*
X75319223Y-60962777D01*
X75302747Y-60944599D01*
X75288132Y-60924893D01*
X75275520Y-60903850D01*
X75265030Y-60881671D01*
X75256765Y-60858572D01*
X75250804Y-60834773D01*
X75247204Y-60810505D01*
X75246000Y-60786001D01*
X75246000Y-60135999D01*
X75247204Y-60111495D01*
X75250804Y-60087227D01*
X75256765Y-60063428D01*
X75265030Y-60040329D01*
X75275520Y-60018150D01*
X75288132Y-59997107D01*
X75302747Y-59977401D01*
X75319223Y-59959223D01*
X75337401Y-59942747D01*
X75357107Y-59928132D01*
X75378150Y-59915520D01*
X75400329Y-59905030D01*
X75423428Y-59896765D01*
X75447227Y-59890804D01*
X75471495Y-59887204D01*
X75495999Y-59886000D01*
X76396001Y-59886000D01*
X76420505Y-59887204D01*
X76420505Y-59887204D01*
G37*
D13*
X75946000Y-60461000D03*
D10*
G36*
X62035779Y-94526144D02*
G01*
X62058834Y-94529563D01*
X62081443Y-94535227D01*
X62103387Y-94543079D01*
X62124457Y-94553044D01*
X62144448Y-94565026D01*
X62163168Y-94578910D01*
X62180438Y-94594562D01*
X62196090Y-94611832D01*
X62209974Y-94630552D01*
X62221956Y-94650543D01*
X62231921Y-94671613D01*
X62239773Y-94693557D01*
X62245437Y-94716166D01*
X62248856Y-94739221D01*
X62250000Y-94762500D01*
X62250000Y-95237500D01*
X62248856Y-95260779D01*
X62245437Y-95283834D01*
X62239773Y-95306443D01*
X62231921Y-95328387D01*
X62221956Y-95349457D01*
X62209974Y-95369448D01*
X62196090Y-95388168D01*
X62180438Y-95405438D01*
X62163168Y-95421090D01*
X62144448Y-95434974D01*
X62124457Y-95446956D01*
X62103387Y-95456921D01*
X62081443Y-95464773D01*
X62058834Y-95470437D01*
X62035779Y-95473856D01*
X62012500Y-95475000D01*
X61437500Y-95475000D01*
X61414221Y-95473856D01*
X61391166Y-95470437D01*
X61368557Y-95464773D01*
X61346613Y-95456921D01*
X61325543Y-95446956D01*
X61305552Y-95434974D01*
X61286832Y-95421090D01*
X61269562Y-95405438D01*
X61253910Y-95388168D01*
X61240026Y-95369448D01*
X61228044Y-95349457D01*
X61218079Y-95328387D01*
X61210227Y-95306443D01*
X61204563Y-95283834D01*
X61201144Y-95260779D01*
X61200000Y-95237500D01*
X61200000Y-94762500D01*
X61201144Y-94739221D01*
X61204563Y-94716166D01*
X61210227Y-94693557D01*
X61218079Y-94671613D01*
X61228044Y-94650543D01*
X61240026Y-94630552D01*
X61253910Y-94611832D01*
X61269562Y-94594562D01*
X61286832Y-94578910D01*
X61305552Y-94565026D01*
X61325543Y-94553044D01*
X61346613Y-94543079D01*
X61368557Y-94535227D01*
X61391166Y-94529563D01*
X61414221Y-94526144D01*
X61437500Y-94525000D01*
X62012500Y-94525000D01*
X62035779Y-94526144D01*
X62035779Y-94526144D01*
G37*
D17*
X61725000Y-95000000D03*
D10*
G36*
X63785779Y-94526144D02*
G01*
X63808834Y-94529563D01*
X63831443Y-94535227D01*
X63853387Y-94543079D01*
X63874457Y-94553044D01*
X63894448Y-94565026D01*
X63913168Y-94578910D01*
X63930438Y-94594562D01*
X63946090Y-94611832D01*
X63959974Y-94630552D01*
X63971956Y-94650543D01*
X63981921Y-94671613D01*
X63989773Y-94693557D01*
X63995437Y-94716166D01*
X63998856Y-94739221D01*
X64000000Y-94762500D01*
X64000000Y-95237500D01*
X63998856Y-95260779D01*
X63995437Y-95283834D01*
X63989773Y-95306443D01*
X63981921Y-95328387D01*
X63971956Y-95349457D01*
X63959974Y-95369448D01*
X63946090Y-95388168D01*
X63930438Y-95405438D01*
X63913168Y-95421090D01*
X63894448Y-95434974D01*
X63874457Y-95446956D01*
X63853387Y-95456921D01*
X63831443Y-95464773D01*
X63808834Y-95470437D01*
X63785779Y-95473856D01*
X63762500Y-95475000D01*
X63187500Y-95475000D01*
X63164221Y-95473856D01*
X63141166Y-95470437D01*
X63118557Y-95464773D01*
X63096613Y-95456921D01*
X63075543Y-95446956D01*
X63055552Y-95434974D01*
X63036832Y-95421090D01*
X63019562Y-95405438D01*
X63003910Y-95388168D01*
X62990026Y-95369448D01*
X62978044Y-95349457D01*
X62968079Y-95328387D01*
X62960227Y-95306443D01*
X62954563Y-95283834D01*
X62951144Y-95260779D01*
X62950000Y-95237500D01*
X62950000Y-94762500D01*
X62951144Y-94739221D01*
X62954563Y-94716166D01*
X62960227Y-94693557D01*
X62968079Y-94671613D01*
X62978044Y-94650543D01*
X62990026Y-94630552D01*
X63003910Y-94611832D01*
X63019562Y-94594562D01*
X63036832Y-94578910D01*
X63055552Y-94565026D01*
X63075543Y-94553044D01*
X63096613Y-94543079D01*
X63118557Y-94535227D01*
X63141166Y-94529563D01*
X63164221Y-94526144D01*
X63187500Y-94525000D01*
X63762500Y-94525000D01*
X63785779Y-94526144D01*
X63785779Y-94526144D01*
G37*
D17*
X63475000Y-95000000D03*
D32*
X112840000Y-82550000D03*
X114960000Y-83500000D03*
X112840000Y-84450000D03*
D10*
G36*
X114260779Y-87301144D02*
G01*
X114283834Y-87304563D01*
X114306443Y-87310227D01*
X114328387Y-87318079D01*
X114349457Y-87328044D01*
X114369448Y-87340026D01*
X114388168Y-87353910D01*
X114405438Y-87369562D01*
X114421090Y-87386832D01*
X114434974Y-87405552D01*
X114446956Y-87425543D01*
X114456921Y-87446613D01*
X114464773Y-87468557D01*
X114470437Y-87491166D01*
X114473856Y-87514221D01*
X114475000Y-87537500D01*
X114475000Y-88112500D01*
X114473856Y-88135779D01*
X114470437Y-88158834D01*
X114464773Y-88181443D01*
X114456921Y-88203387D01*
X114446956Y-88224457D01*
X114434974Y-88244448D01*
X114421090Y-88263168D01*
X114405438Y-88280438D01*
X114388168Y-88296090D01*
X114369448Y-88309974D01*
X114349457Y-88321956D01*
X114328387Y-88331921D01*
X114306443Y-88339773D01*
X114283834Y-88345437D01*
X114260779Y-88348856D01*
X114237500Y-88350000D01*
X113762500Y-88350000D01*
X113739221Y-88348856D01*
X113716166Y-88345437D01*
X113693557Y-88339773D01*
X113671613Y-88331921D01*
X113650543Y-88321956D01*
X113630552Y-88309974D01*
X113611832Y-88296090D01*
X113594562Y-88280438D01*
X113578910Y-88263168D01*
X113565026Y-88244448D01*
X113553044Y-88224457D01*
X113543079Y-88203387D01*
X113535227Y-88181443D01*
X113529563Y-88158834D01*
X113526144Y-88135779D01*
X113525000Y-88112500D01*
X113525000Y-87537500D01*
X113526144Y-87514221D01*
X113529563Y-87491166D01*
X113535227Y-87468557D01*
X113543079Y-87446613D01*
X113553044Y-87425543D01*
X113565026Y-87405552D01*
X113578910Y-87386832D01*
X113594562Y-87369562D01*
X113611832Y-87353910D01*
X113630552Y-87340026D01*
X113650543Y-87328044D01*
X113671613Y-87318079D01*
X113693557Y-87310227D01*
X113716166Y-87304563D01*
X113739221Y-87301144D01*
X113762500Y-87300000D01*
X114237500Y-87300000D01*
X114260779Y-87301144D01*
X114260779Y-87301144D01*
G37*
D17*
X114000000Y-87825000D03*
D10*
G36*
X114260779Y-89051144D02*
G01*
X114283834Y-89054563D01*
X114306443Y-89060227D01*
X114328387Y-89068079D01*
X114349457Y-89078044D01*
X114369448Y-89090026D01*
X114388168Y-89103910D01*
X114405438Y-89119562D01*
X114421090Y-89136832D01*
X114434974Y-89155552D01*
X114446956Y-89175543D01*
X114456921Y-89196613D01*
X114464773Y-89218557D01*
X114470437Y-89241166D01*
X114473856Y-89264221D01*
X114475000Y-89287500D01*
X114475000Y-89862500D01*
X114473856Y-89885779D01*
X114470437Y-89908834D01*
X114464773Y-89931443D01*
X114456921Y-89953387D01*
X114446956Y-89974457D01*
X114434974Y-89994448D01*
X114421090Y-90013168D01*
X114405438Y-90030438D01*
X114388168Y-90046090D01*
X114369448Y-90059974D01*
X114349457Y-90071956D01*
X114328387Y-90081921D01*
X114306443Y-90089773D01*
X114283834Y-90095437D01*
X114260779Y-90098856D01*
X114237500Y-90100000D01*
X113762500Y-90100000D01*
X113739221Y-90098856D01*
X113716166Y-90095437D01*
X113693557Y-90089773D01*
X113671613Y-90081921D01*
X113650543Y-90071956D01*
X113630552Y-90059974D01*
X113611832Y-90046090D01*
X113594562Y-90030438D01*
X113578910Y-90013168D01*
X113565026Y-89994448D01*
X113553044Y-89974457D01*
X113543079Y-89953387D01*
X113535227Y-89931443D01*
X113529563Y-89908834D01*
X113526144Y-89885779D01*
X113525000Y-89862500D01*
X113525000Y-89287500D01*
X113526144Y-89264221D01*
X113529563Y-89241166D01*
X113535227Y-89218557D01*
X113543079Y-89196613D01*
X113553044Y-89175543D01*
X113565026Y-89155552D01*
X113578910Y-89136832D01*
X113594562Y-89119562D01*
X113611832Y-89103910D01*
X113630552Y-89090026D01*
X113650543Y-89078044D01*
X113671613Y-89068079D01*
X113693557Y-89060227D01*
X113716166Y-89054563D01*
X113739221Y-89051144D01*
X113762500Y-89050000D01*
X114237500Y-89050000D01*
X114260779Y-89051144D01*
X114260779Y-89051144D01*
G37*
D17*
X114000000Y-89575000D03*
D33*
X67450000Y-108775000D03*
X67450000Y-105575000D03*
X62550000Y-108775000D03*
X62550000Y-105575000D03*
X76000000Y-108775000D03*
X76000000Y-105575000D03*
X71100000Y-108775000D03*
X71100000Y-105575000D03*
X84450000Y-108775000D03*
X84450000Y-105575000D03*
X79550000Y-108775000D03*
X79550000Y-105575000D03*
D10*
G36*
X96235779Y-74626144D02*
G01*
X96258834Y-74629563D01*
X96281443Y-74635227D01*
X96303387Y-74643079D01*
X96324457Y-74653044D01*
X96344448Y-74665026D01*
X96363168Y-74678910D01*
X96380438Y-74694562D01*
X96396090Y-74711832D01*
X96409974Y-74730552D01*
X96421956Y-74750543D01*
X96431921Y-74771613D01*
X96439773Y-74793557D01*
X96445437Y-74816166D01*
X96448856Y-74839221D01*
X96450000Y-74862500D01*
X96450000Y-75337500D01*
X96448856Y-75360779D01*
X96445437Y-75383834D01*
X96439773Y-75406443D01*
X96431921Y-75428387D01*
X96421956Y-75449457D01*
X96409974Y-75469448D01*
X96396090Y-75488168D01*
X96380438Y-75505438D01*
X96363168Y-75521090D01*
X96344448Y-75534974D01*
X96324457Y-75546956D01*
X96303387Y-75556921D01*
X96281443Y-75564773D01*
X96258834Y-75570437D01*
X96235779Y-75573856D01*
X96212500Y-75575000D01*
X95637500Y-75575000D01*
X95614221Y-75573856D01*
X95591166Y-75570437D01*
X95568557Y-75564773D01*
X95546613Y-75556921D01*
X95525543Y-75546956D01*
X95505552Y-75534974D01*
X95486832Y-75521090D01*
X95469562Y-75505438D01*
X95453910Y-75488168D01*
X95440026Y-75469448D01*
X95428044Y-75449457D01*
X95418079Y-75428387D01*
X95410227Y-75406443D01*
X95404563Y-75383834D01*
X95401144Y-75360779D01*
X95400000Y-75337500D01*
X95400000Y-74862500D01*
X95401144Y-74839221D01*
X95404563Y-74816166D01*
X95410227Y-74793557D01*
X95418079Y-74771613D01*
X95428044Y-74750543D01*
X95440026Y-74730552D01*
X95453910Y-74711832D01*
X95469562Y-74694562D01*
X95486832Y-74678910D01*
X95505552Y-74665026D01*
X95525543Y-74653044D01*
X95546613Y-74643079D01*
X95568557Y-74635227D01*
X95591166Y-74629563D01*
X95614221Y-74626144D01*
X95637500Y-74625000D01*
X96212500Y-74625000D01*
X96235779Y-74626144D01*
X96235779Y-74626144D01*
G37*
D17*
X95925000Y-75100000D03*
D10*
G36*
X97985779Y-74626144D02*
G01*
X98008834Y-74629563D01*
X98031443Y-74635227D01*
X98053387Y-74643079D01*
X98074457Y-74653044D01*
X98094448Y-74665026D01*
X98113168Y-74678910D01*
X98130438Y-74694562D01*
X98146090Y-74711832D01*
X98159974Y-74730552D01*
X98171956Y-74750543D01*
X98181921Y-74771613D01*
X98189773Y-74793557D01*
X98195437Y-74816166D01*
X98198856Y-74839221D01*
X98200000Y-74862500D01*
X98200000Y-75337500D01*
X98198856Y-75360779D01*
X98195437Y-75383834D01*
X98189773Y-75406443D01*
X98181921Y-75428387D01*
X98171956Y-75449457D01*
X98159974Y-75469448D01*
X98146090Y-75488168D01*
X98130438Y-75505438D01*
X98113168Y-75521090D01*
X98094448Y-75534974D01*
X98074457Y-75546956D01*
X98053387Y-75556921D01*
X98031443Y-75564773D01*
X98008834Y-75570437D01*
X97985779Y-75573856D01*
X97962500Y-75575000D01*
X97387500Y-75575000D01*
X97364221Y-75573856D01*
X97341166Y-75570437D01*
X97318557Y-75564773D01*
X97296613Y-75556921D01*
X97275543Y-75546956D01*
X97255552Y-75534974D01*
X97236832Y-75521090D01*
X97219562Y-75505438D01*
X97203910Y-75488168D01*
X97190026Y-75469448D01*
X97178044Y-75449457D01*
X97168079Y-75428387D01*
X97160227Y-75406443D01*
X97154563Y-75383834D01*
X97151144Y-75360779D01*
X97150000Y-75337500D01*
X97150000Y-74862500D01*
X97151144Y-74839221D01*
X97154563Y-74816166D01*
X97160227Y-74793557D01*
X97168079Y-74771613D01*
X97178044Y-74750543D01*
X97190026Y-74730552D01*
X97203910Y-74711832D01*
X97219562Y-74694562D01*
X97236832Y-74678910D01*
X97255552Y-74665026D01*
X97275543Y-74653044D01*
X97296613Y-74643079D01*
X97318557Y-74635227D01*
X97341166Y-74629563D01*
X97364221Y-74626144D01*
X97387500Y-74625000D01*
X97962500Y-74625000D01*
X97985779Y-74626144D01*
X97985779Y-74626144D01*
G37*
D17*
X97675000Y-75100000D03*
D10*
G36*
X97985779Y-67426144D02*
G01*
X98008834Y-67429563D01*
X98031443Y-67435227D01*
X98053387Y-67443079D01*
X98074457Y-67453044D01*
X98094448Y-67465026D01*
X98113168Y-67478910D01*
X98130438Y-67494562D01*
X98146090Y-67511832D01*
X98159974Y-67530552D01*
X98171956Y-67550543D01*
X98181921Y-67571613D01*
X98189773Y-67593557D01*
X98195437Y-67616166D01*
X98198856Y-67639221D01*
X98200000Y-67662500D01*
X98200000Y-68137500D01*
X98198856Y-68160779D01*
X98195437Y-68183834D01*
X98189773Y-68206443D01*
X98181921Y-68228387D01*
X98171956Y-68249457D01*
X98159974Y-68269448D01*
X98146090Y-68288168D01*
X98130438Y-68305438D01*
X98113168Y-68321090D01*
X98094448Y-68334974D01*
X98074457Y-68346956D01*
X98053387Y-68356921D01*
X98031443Y-68364773D01*
X98008834Y-68370437D01*
X97985779Y-68373856D01*
X97962500Y-68375000D01*
X97387500Y-68375000D01*
X97364221Y-68373856D01*
X97341166Y-68370437D01*
X97318557Y-68364773D01*
X97296613Y-68356921D01*
X97275543Y-68346956D01*
X97255552Y-68334974D01*
X97236832Y-68321090D01*
X97219562Y-68305438D01*
X97203910Y-68288168D01*
X97190026Y-68269448D01*
X97178044Y-68249457D01*
X97168079Y-68228387D01*
X97160227Y-68206443D01*
X97154563Y-68183834D01*
X97151144Y-68160779D01*
X97150000Y-68137500D01*
X97150000Y-67662500D01*
X97151144Y-67639221D01*
X97154563Y-67616166D01*
X97160227Y-67593557D01*
X97168079Y-67571613D01*
X97178044Y-67550543D01*
X97190026Y-67530552D01*
X97203910Y-67511832D01*
X97219562Y-67494562D01*
X97236832Y-67478910D01*
X97255552Y-67465026D01*
X97275543Y-67453044D01*
X97296613Y-67443079D01*
X97318557Y-67435227D01*
X97341166Y-67429563D01*
X97364221Y-67426144D01*
X97387500Y-67425000D01*
X97962500Y-67425000D01*
X97985779Y-67426144D01*
X97985779Y-67426144D01*
G37*
D17*
X97675000Y-67900000D03*
D10*
G36*
X96235779Y-67426144D02*
G01*
X96258834Y-67429563D01*
X96281443Y-67435227D01*
X96303387Y-67443079D01*
X96324457Y-67453044D01*
X96344448Y-67465026D01*
X96363168Y-67478910D01*
X96380438Y-67494562D01*
X96396090Y-67511832D01*
X96409974Y-67530552D01*
X96421956Y-67550543D01*
X96431921Y-67571613D01*
X96439773Y-67593557D01*
X96445437Y-67616166D01*
X96448856Y-67639221D01*
X96450000Y-67662500D01*
X96450000Y-68137500D01*
X96448856Y-68160779D01*
X96445437Y-68183834D01*
X96439773Y-68206443D01*
X96431921Y-68228387D01*
X96421956Y-68249457D01*
X96409974Y-68269448D01*
X96396090Y-68288168D01*
X96380438Y-68305438D01*
X96363168Y-68321090D01*
X96344448Y-68334974D01*
X96324457Y-68346956D01*
X96303387Y-68356921D01*
X96281443Y-68364773D01*
X96258834Y-68370437D01*
X96235779Y-68373856D01*
X96212500Y-68375000D01*
X95637500Y-68375000D01*
X95614221Y-68373856D01*
X95591166Y-68370437D01*
X95568557Y-68364773D01*
X95546613Y-68356921D01*
X95525543Y-68346956D01*
X95505552Y-68334974D01*
X95486832Y-68321090D01*
X95469562Y-68305438D01*
X95453910Y-68288168D01*
X95440026Y-68269448D01*
X95428044Y-68249457D01*
X95418079Y-68228387D01*
X95410227Y-68206443D01*
X95404563Y-68183834D01*
X95401144Y-68160779D01*
X95400000Y-68137500D01*
X95400000Y-67662500D01*
X95401144Y-67639221D01*
X95404563Y-67616166D01*
X95410227Y-67593557D01*
X95418079Y-67571613D01*
X95428044Y-67550543D01*
X95440026Y-67530552D01*
X95453910Y-67511832D01*
X95469562Y-67494562D01*
X95486832Y-67478910D01*
X95505552Y-67465026D01*
X95525543Y-67453044D01*
X95546613Y-67443079D01*
X95568557Y-67435227D01*
X95591166Y-67429563D01*
X95614221Y-67426144D01*
X95637500Y-67425000D01*
X96212500Y-67425000D01*
X96235779Y-67426144D01*
X96235779Y-67426144D01*
G37*
D17*
X95925000Y-67900000D03*
D10*
G36*
X80260779Y-92401144D02*
G01*
X80283834Y-92404563D01*
X80306443Y-92410227D01*
X80328387Y-92418079D01*
X80349457Y-92428044D01*
X80369448Y-92440026D01*
X80388168Y-92453910D01*
X80405438Y-92469562D01*
X80421090Y-92486832D01*
X80434974Y-92505552D01*
X80446956Y-92525543D01*
X80456921Y-92546613D01*
X80464773Y-92568557D01*
X80470437Y-92591166D01*
X80473856Y-92614221D01*
X80475000Y-92637500D01*
X80475000Y-93212500D01*
X80473856Y-93235779D01*
X80470437Y-93258834D01*
X80464773Y-93281443D01*
X80456921Y-93303387D01*
X80446956Y-93324457D01*
X80434974Y-93344448D01*
X80421090Y-93363168D01*
X80405438Y-93380438D01*
X80388168Y-93396090D01*
X80369448Y-93409974D01*
X80349457Y-93421956D01*
X80328387Y-93431921D01*
X80306443Y-93439773D01*
X80283834Y-93445437D01*
X80260779Y-93448856D01*
X80237500Y-93450000D01*
X79762500Y-93450000D01*
X79739221Y-93448856D01*
X79716166Y-93445437D01*
X79693557Y-93439773D01*
X79671613Y-93431921D01*
X79650543Y-93421956D01*
X79630552Y-93409974D01*
X79611832Y-93396090D01*
X79594562Y-93380438D01*
X79578910Y-93363168D01*
X79565026Y-93344448D01*
X79553044Y-93324457D01*
X79543079Y-93303387D01*
X79535227Y-93281443D01*
X79529563Y-93258834D01*
X79526144Y-93235779D01*
X79525000Y-93212500D01*
X79525000Y-92637500D01*
X79526144Y-92614221D01*
X79529563Y-92591166D01*
X79535227Y-92568557D01*
X79543079Y-92546613D01*
X79553044Y-92525543D01*
X79565026Y-92505552D01*
X79578910Y-92486832D01*
X79594562Y-92469562D01*
X79611832Y-92453910D01*
X79630552Y-92440026D01*
X79650543Y-92428044D01*
X79671613Y-92418079D01*
X79693557Y-92410227D01*
X79716166Y-92404563D01*
X79739221Y-92401144D01*
X79762500Y-92400000D01*
X80237500Y-92400000D01*
X80260779Y-92401144D01*
X80260779Y-92401144D01*
G37*
D17*
X80000000Y-92925000D03*
D10*
G36*
X80260779Y-94151144D02*
G01*
X80283834Y-94154563D01*
X80306443Y-94160227D01*
X80328387Y-94168079D01*
X80349457Y-94178044D01*
X80369448Y-94190026D01*
X80388168Y-94203910D01*
X80405438Y-94219562D01*
X80421090Y-94236832D01*
X80434974Y-94255552D01*
X80446956Y-94275543D01*
X80456921Y-94296613D01*
X80464773Y-94318557D01*
X80470437Y-94341166D01*
X80473856Y-94364221D01*
X80475000Y-94387500D01*
X80475000Y-94962500D01*
X80473856Y-94985779D01*
X80470437Y-95008834D01*
X80464773Y-95031443D01*
X80456921Y-95053387D01*
X80446956Y-95074457D01*
X80434974Y-95094448D01*
X80421090Y-95113168D01*
X80405438Y-95130438D01*
X80388168Y-95146090D01*
X80369448Y-95159974D01*
X80349457Y-95171956D01*
X80328387Y-95181921D01*
X80306443Y-95189773D01*
X80283834Y-95195437D01*
X80260779Y-95198856D01*
X80237500Y-95200000D01*
X79762500Y-95200000D01*
X79739221Y-95198856D01*
X79716166Y-95195437D01*
X79693557Y-95189773D01*
X79671613Y-95181921D01*
X79650543Y-95171956D01*
X79630552Y-95159974D01*
X79611832Y-95146090D01*
X79594562Y-95130438D01*
X79578910Y-95113168D01*
X79565026Y-95094448D01*
X79553044Y-95074457D01*
X79543079Y-95053387D01*
X79535227Y-95031443D01*
X79529563Y-95008834D01*
X79526144Y-94985779D01*
X79525000Y-94962500D01*
X79525000Y-94387500D01*
X79526144Y-94364221D01*
X79529563Y-94341166D01*
X79535227Y-94318557D01*
X79543079Y-94296613D01*
X79553044Y-94275543D01*
X79565026Y-94255552D01*
X79578910Y-94236832D01*
X79594562Y-94219562D01*
X79611832Y-94203910D01*
X79630552Y-94190026D01*
X79650543Y-94178044D01*
X79671613Y-94168079D01*
X79693557Y-94160227D01*
X79716166Y-94154563D01*
X79739221Y-94151144D01*
X79762500Y-94150000D01*
X80237500Y-94150000D01*
X80260779Y-94151144D01*
X80260779Y-94151144D01*
G37*
D17*
X80000000Y-94675000D03*
D10*
G36*
X66724505Y-102301204D02*
G01*
X66748773Y-102304804D01*
X66772572Y-102310765D01*
X66795671Y-102319030D01*
X66817850Y-102329520D01*
X66838893Y-102342132D01*
X66858599Y-102356747D01*
X66876777Y-102373223D01*
X66893253Y-102391401D01*
X66907868Y-102411107D01*
X66920480Y-102432150D01*
X66930970Y-102454329D01*
X66939235Y-102477428D01*
X66945196Y-102501227D01*
X66948796Y-102525495D01*
X66950000Y-102549999D01*
X66950000Y-103450001D01*
X66948796Y-103474505D01*
X66945196Y-103498773D01*
X66939235Y-103522572D01*
X66930970Y-103545671D01*
X66920480Y-103567850D01*
X66907868Y-103588893D01*
X66893253Y-103608599D01*
X66876777Y-103626777D01*
X66858599Y-103643253D01*
X66838893Y-103657868D01*
X66817850Y-103670480D01*
X66795671Y-103680970D01*
X66772572Y-103689235D01*
X66748773Y-103695196D01*
X66724505Y-103698796D01*
X66700001Y-103700000D01*
X66049999Y-103700000D01*
X66025495Y-103698796D01*
X66001227Y-103695196D01*
X65977428Y-103689235D01*
X65954329Y-103680970D01*
X65932150Y-103670480D01*
X65911107Y-103657868D01*
X65891401Y-103643253D01*
X65873223Y-103626777D01*
X65856747Y-103608599D01*
X65842132Y-103588893D01*
X65829520Y-103567850D01*
X65819030Y-103545671D01*
X65810765Y-103522572D01*
X65804804Y-103498773D01*
X65801204Y-103474505D01*
X65800000Y-103450001D01*
X65800000Y-102549999D01*
X65801204Y-102525495D01*
X65804804Y-102501227D01*
X65810765Y-102477428D01*
X65819030Y-102454329D01*
X65829520Y-102432150D01*
X65842132Y-102411107D01*
X65856747Y-102391401D01*
X65873223Y-102373223D01*
X65891401Y-102356747D01*
X65911107Y-102342132D01*
X65932150Y-102329520D01*
X65954329Y-102319030D01*
X65977428Y-102310765D01*
X66001227Y-102304804D01*
X66025495Y-102301204D01*
X66049999Y-102300000D01*
X66700001Y-102300000D01*
X66724505Y-102301204D01*
X66724505Y-102301204D01*
G37*
D13*
X66375000Y-103000000D03*
D10*
G36*
X64674505Y-102301204D02*
G01*
X64698773Y-102304804D01*
X64722572Y-102310765D01*
X64745671Y-102319030D01*
X64767850Y-102329520D01*
X64788893Y-102342132D01*
X64808599Y-102356747D01*
X64826777Y-102373223D01*
X64843253Y-102391401D01*
X64857868Y-102411107D01*
X64870480Y-102432150D01*
X64880970Y-102454329D01*
X64889235Y-102477428D01*
X64895196Y-102501227D01*
X64898796Y-102525495D01*
X64900000Y-102549999D01*
X64900000Y-103450001D01*
X64898796Y-103474505D01*
X64895196Y-103498773D01*
X64889235Y-103522572D01*
X64880970Y-103545671D01*
X64870480Y-103567850D01*
X64857868Y-103588893D01*
X64843253Y-103608599D01*
X64826777Y-103626777D01*
X64808599Y-103643253D01*
X64788893Y-103657868D01*
X64767850Y-103670480D01*
X64745671Y-103680970D01*
X64722572Y-103689235D01*
X64698773Y-103695196D01*
X64674505Y-103698796D01*
X64650001Y-103700000D01*
X63999999Y-103700000D01*
X63975495Y-103698796D01*
X63951227Y-103695196D01*
X63927428Y-103689235D01*
X63904329Y-103680970D01*
X63882150Y-103670480D01*
X63861107Y-103657868D01*
X63841401Y-103643253D01*
X63823223Y-103626777D01*
X63806747Y-103608599D01*
X63792132Y-103588893D01*
X63779520Y-103567850D01*
X63769030Y-103545671D01*
X63760765Y-103522572D01*
X63754804Y-103498773D01*
X63751204Y-103474505D01*
X63750000Y-103450001D01*
X63750000Y-102549999D01*
X63751204Y-102525495D01*
X63754804Y-102501227D01*
X63760765Y-102477428D01*
X63769030Y-102454329D01*
X63779520Y-102432150D01*
X63792132Y-102411107D01*
X63806747Y-102391401D01*
X63823223Y-102373223D01*
X63841401Y-102356747D01*
X63861107Y-102342132D01*
X63882150Y-102329520D01*
X63904329Y-102319030D01*
X63927428Y-102310765D01*
X63951227Y-102304804D01*
X63975495Y-102301204D01*
X63999999Y-102300000D01*
X64650001Y-102300000D01*
X64674505Y-102301204D01*
X64674505Y-102301204D01*
G37*
D13*
X64325000Y-103000000D03*
D10*
G36*
X74924505Y-102301204D02*
G01*
X74948773Y-102304804D01*
X74972572Y-102310765D01*
X74995671Y-102319030D01*
X75017850Y-102329520D01*
X75038893Y-102342132D01*
X75058599Y-102356747D01*
X75076777Y-102373223D01*
X75093253Y-102391401D01*
X75107868Y-102411107D01*
X75120480Y-102432150D01*
X75130970Y-102454329D01*
X75139235Y-102477428D01*
X75145196Y-102501227D01*
X75148796Y-102525495D01*
X75150000Y-102549999D01*
X75150000Y-103450001D01*
X75148796Y-103474505D01*
X75145196Y-103498773D01*
X75139235Y-103522572D01*
X75130970Y-103545671D01*
X75120480Y-103567850D01*
X75107868Y-103588893D01*
X75093253Y-103608599D01*
X75076777Y-103626777D01*
X75058599Y-103643253D01*
X75038893Y-103657868D01*
X75017850Y-103670480D01*
X74995671Y-103680970D01*
X74972572Y-103689235D01*
X74948773Y-103695196D01*
X74924505Y-103698796D01*
X74900001Y-103700000D01*
X74249999Y-103700000D01*
X74225495Y-103698796D01*
X74201227Y-103695196D01*
X74177428Y-103689235D01*
X74154329Y-103680970D01*
X74132150Y-103670480D01*
X74111107Y-103657868D01*
X74091401Y-103643253D01*
X74073223Y-103626777D01*
X74056747Y-103608599D01*
X74042132Y-103588893D01*
X74029520Y-103567850D01*
X74019030Y-103545671D01*
X74010765Y-103522572D01*
X74004804Y-103498773D01*
X74001204Y-103474505D01*
X74000000Y-103450001D01*
X74000000Y-102549999D01*
X74001204Y-102525495D01*
X74004804Y-102501227D01*
X74010765Y-102477428D01*
X74019030Y-102454329D01*
X74029520Y-102432150D01*
X74042132Y-102411107D01*
X74056747Y-102391401D01*
X74073223Y-102373223D01*
X74091401Y-102356747D01*
X74111107Y-102342132D01*
X74132150Y-102329520D01*
X74154329Y-102319030D01*
X74177428Y-102310765D01*
X74201227Y-102304804D01*
X74225495Y-102301204D01*
X74249999Y-102300000D01*
X74900001Y-102300000D01*
X74924505Y-102301204D01*
X74924505Y-102301204D01*
G37*
D13*
X74575000Y-103000000D03*
D10*
G36*
X72874505Y-102301204D02*
G01*
X72898773Y-102304804D01*
X72922572Y-102310765D01*
X72945671Y-102319030D01*
X72967850Y-102329520D01*
X72988893Y-102342132D01*
X73008599Y-102356747D01*
X73026777Y-102373223D01*
X73043253Y-102391401D01*
X73057868Y-102411107D01*
X73070480Y-102432150D01*
X73080970Y-102454329D01*
X73089235Y-102477428D01*
X73095196Y-102501227D01*
X73098796Y-102525495D01*
X73100000Y-102549999D01*
X73100000Y-103450001D01*
X73098796Y-103474505D01*
X73095196Y-103498773D01*
X73089235Y-103522572D01*
X73080970Y-103545671D01*
X73070480Y-103567850D01*
X73057868Y-103588893D01*
X73043253Y-103608599D01*
X73026777Y-103626777D01*
X73008599Y-103643253D01*
X72988893Y-103657868D01*
X72967850Y-103670480D01*
X72945671Y-103680970D01*
X72922572Y-103689235D01*
X72898773Y-103695196D01*
X72874505Y-103698796D01*
X72850001Y-103700000D01*
X72199999Y-103700000D01*
X72175495Y-103698796D01*
X72151227Y-103695196D01*
X72127428Y-103689235D01*
X72104329Y-103680970D01*
X72082150Y-103670480D01*
X72061107Y-103657868D01*
X72041401Y-103643253D01*
X72023223Y-103626777D01*
X72006747Y-103608599D01*
X71992132Y-103588893D01*
X71979520Y-103567850D01*
X71969030Y-103545671D01*
X71960765Y-103522572D01*
X71954804Y-103498773D01*
X71951204Y-103474505D01*
X71950000Y-103450001D01*
X71950000Y-102549999D01*
X71951204Y-102525495D01*
X71954804Y-102501227D01*
X71960765Y-102477428D01*
X71969030Y-102454329D01*
X71979520Y-102432150D01*
X71992132Y-102411107D01*
X72006747Y-102391401D01*
X72023223Y-102373223D01*
X72041401Y-102356747D01*
X72061107Y-102342132D01*
X72082150Y-102329520D01*
X72104329Y-102319030D01*
X72127428Y-102310765D01*
X72151227Y-102304804D01*
X72175495Y-102301204D01*
X72199999Y-102300000D01*
X72850001Y-102300000D01*
X72874505Y-102301204D01*
X72874505Y-102301204D01*
G37*
D13*
X72525000Y-103000000D03*
D10*
G36*
X81374505Y-102301204D02*
G01*
X81398773Y-102304804D01*
X81422572Y-102310765D01*
X81445671Y-102319030D01*
X81467850Y-102329520D01*
X81488893Y-102342132D01*
X81508599Y-102356747D01*
X81526777Y-102373223D01*
X81543253Y-102391401D01*
X81557868Y-102411107D01*
X81570480Y-102432150D01*
X81580970Y-102454329D01*
X81589235Y-102477428D01*
X81595196Y-102501227D01*
X81598796Y-102525495D01*
X81600000Y-102549999D01*
X81600000Y-103450001D01*
X81598796Y-103474505D01*
X81595196Y-103498773D01*
X81589235Y-103522572D01*
X81580970Y-103545671D01*
X81570480Y-103567850D01*
X81557868Y-103588893D01*
X81543253Y-103608599D01*
X81526777Y-103626777D01*
X81508599Y-103643253D01*
X81488893Y-103657868D01*
X81467850Y-103670480D01*
X81445671Y-103680970D01*
X81422572Y-103689235D01*
X81398773Y-103695196D01*
X81374505Y-103698796D01*
X81350001Y-103700000D01*
X80699999Y-103700000D01*
X80675495Y-103698796D01*
X80651227Y-103695196D01*
X80627428Y-103689235D01*
X80604329Y-103680970D01*
X80582150Y-103670480D01*
X80561107Y-103657868D01*
X80541401Y-103643253D01*
X80523223Y-103626777D01*
X80506747Y-103608599D01*
X80492132Y-103588893D01*
X80479520Y-103567850D01*
X80469030Y-103545671D01*
X80460765Y-103522572D01*
X80454804Y-103498773D01*
X80451204Y-103474505D01*
X80450000Y-103450001D01*
X80450000Y-102549999D01*
X80451204Y-102525495D01*
X80454804Y-102501227D01*
X80460765Y-102477428D01*
X80469030Y-102454329D01*
X80479520Y-102432150D01*
X80492132Y-102411107D01*
X80506747Y-102391401D01*
X80523223Y-102373223D01*
X80541401Y-102356747D01*
X80561107Y-102342132D01*
X80582150Y-102329520D01*
X80604329Y-102319030D01*
X80627428Y-102310765D01*
X80651227Y-102304804D01*
X80675495Y-102301204D01*
X80699999Y-102300000D01*
X81350001Y-102300000D01*
X81374505Y-102301204D01*
X81374505Y-102301204D01*
G37*
D13*
X81025000Y-103000000D03*
D10*
G36*
X79324505Y-102301204D02*
G01*
X79348773Y-102304804D01*
X79372572Y-102310765D01*
X79395671Y-102319030D01*
X79417850Y-102329520D01*
X79438893Y-102342132D01*
X79458599Y-102356747D01*
X79476777Y-102373223D01*
X79493253Y-102391401D01*
X79507868Y-102411107D01*
X79520480Y-102432150D01*
X79530970Y-102454329D01*
X79539235Y-102477428D01*
X79545196Y-102501227D01*
X79548796Y-102525495D01*
X79550000Y-102549999D01*
X79550000Y-103450001D01*
X79548796Y-103474505D01*
X79545196Y-103498773D01*
X79539235Y-103522572D01*
X79530970Y-103545671D01*
X79520480Y-103567850D01*
X79507868Y-103588893D01*
X79493253Y-103608599D01*
X79476777Y-103626777D01*
X79458599Y-103643253D01*
X79438893Y-103657868D01*
X79417850Y-103670480D01*
X79395671Y-103680970D01*
X79372572Y-103689235D01*
X79348773Y-103695196D01*
X79324505Y-103698796D01*
X79300001Y-103700000D01*
X78649999Y-103700000D01*
X78625495Y-103698796D01*
X78601227Y-103695196D01*
X78577428Y-103689235D01*
X78554329Y-103680970D01*
X78532150Y-103670480D01*
X78511107Y-103657868D01*
X78491401Y-103643253D01*
X78473223Y-103626777D01*
X78456747Y-103608599D01*
X78442132Y-103588893D01*
X78429520Y-103567850D01*
X78419030Y-103545671D01*
X78410765Y-103522572D01*
X78404804Y-103498773D01*
X78401204Y-103474505D01*
X78400000Y-103450001D01*
X78400000Y-102549999D01*
X78401204Y-102525495D01*
X78404804Y-102501227D01*
X78410765Y-102477428D01*
X78419030Y-102454329D01*
X78429520Y-102432150D01*
X78442132Y-102411107D01*
X78456747Y-102391401D01*
X78473223Y-102373223D01*
X78491401Y-102356747D01*
X78511107Y-102342132D01*
X78532150Y-102329520D01*
X78554329Y-102319030D01*
X78577428Y-102310765D01*
X78601227Y-102304804D01*
X78625495Y-102301204D01*
X78649999Y-102300000D01*
X79300001Y-102300000D01*
X79324505Y-102301204D01*
X79324505Y-102301204D01*
G37*
D13*
X78975000Y-103000000D03*
D10*
G36*
X64174505Y-92301204D02*
G01*
X64198773Y-92304804D01*
X64222572Y-92310765D01*
X64245671Y-92319030D01*
X64267850Y-92329520D01*
X64288893Y-92342132D01*
X64308599Y-92356747D01*
X64326777Y-92373223D01*
X64343253Y-92391401D01*
X64357868Y-92411107D01*
X64370480Y-92432150D01*
X64380970Y-92454329D01*
X64389235Y-92477428D01*
X64395196Y-92501227D01*
X64398796Y-92525495D01*
X64400000Y-92549999D01*
X64400000Y-93450001D01*
X64398796Y-93474505D01*
X64395196Y-93498773D01*
X64389235Y-93522572D01*
X64380970Y-93545671D01*
X64370480Y-93567850D01*
X64357868Y-93588893D01*
X64343253Y-93608599D01*
X64326777Y-93626777D01*
X64308599Y-93643253D01*
X64288893Y-93657868D01*
X64267850Y-93670480D01*
X64245671Y-93680970D01*
X64222572Y-93689235D01*
X64198773Y-93695196D01*
X64174505Y-93698796D01*
X64150001Y-93700000D01*
X63499999Y-93700000D01*
X63475495Y-93698796D01*
X63451227Y-93695196D01*
X63427428Y-93689235D01*
X63404329Y-93680970D01*
X63382150Y-93670480D01*
X63361107Y-93657868D01*
X63341401Y-93643253D01*
X63323223Y-93626777D01*
X63306747Y-93608599D01*
X63292132Y-93588893D01*
X63279520Y-93567850D01*
X63269030Y-93545671D01*
X63260765Y-93522572D01*
X63254804Y-93498773D01*
X63251204Y-93474505D01*
X63250000Y-93450001D01*
X63250000Y-92549999D01*
X63251204Y-92525495D01*
X63254804Y-92501227D01*
X63260765Y-92477428D01*
X63269030Y-92454329D01*
X63279520Y-92432150D01*
X63292132Y-92411107D01*
X63306747Y-92391401D01*
X63323223Y-92373223D01*
X63341401Y-92356747D01*
X63361107Y-92342132D01*
X63382150Y-92329520D01*
X63404329Y-92319030D01*
X63427428Y-92310765D01*
X63451227Y-92304804D01*
X63475495Y-92301204D01*
X63499999Y-92300000D01*
X64150001Y-92300000D01*
X64174505Y-92301204D01*
X64174505Y-92301204D01*
G37*
D13*
X63825000Y-93000000D03*
D10*
G36*
X62124505Y-92301204D02*
G01*
X62148773Y-92304804D01*
X62172572Y-92310765D01*
X62195671Y-92319030D01*
X62217850Y-92329520D01*
X62238893Y-92342132D01*
X62258599Y-92356747D01*
X62276777Y-92373223D01*
X62293253Y-92391401D01*
X62307868Y-92411107D01*
X62320480Y-92432150D01*
X62330970Y-92454329D01*
X62339235Y-92477428D01*
X62345196Y-92501227D01*
X62348796Y-92525495D01*
X62350000Y-92549999D01*
X62350000Y-93450001D01*
X62348796Y-93474505D01*
X62345196Y-93498773D01*
X62339235Y-93522572D01*
X62330970Y-93545671D01*
X62320480Y-93567850D01*
X62307868Y-93588893D01*
X62293253Y-93608599D01*
X62276777Y-93626777D01*
X62258599Y-93643253D01*
X62238893Y-93657868D01*
X62217850Y-93670480D01*
X62195671Y-93680970D01*
X62172572Y-93689235D01*
X62148773Y-93695196D01*
X62124505Y-93698796D01*
X62100001Y-93700000D01*
X61449999Y-93700000D01*
X61425495Y-93698796D01*
X61401227Y-93695196D01*
X61377428Y-93689235D01*
X61354329Y-93680970D01*
X61332150Y-93670480D01*
X61311107Y-93657868D01*
X61291401Y-93643253D01*
X61273223Y-93626777D01*
X61256747Y-93608599D01*
X61242132Y-93588893D01*
X61229520Y-93567850D01*
X61219030Y-93545671D01*
X61210765Y-93522572D01*
X61204804Y-93498773D01*
X61201204Y-93474505D01*
X61200000Y-93450001D01*
X61200000Y-92549999D01*
X61201204Y-92525495D01*
X61204804Y-92501227D01*
X61210765Y-92477428D01*
X61219030Y-92454329D01*
X61229520Y-92432150D01*
X61242132Y-92411107D01*
X61256747Y-92391401D01*
X61273223Y-92373223D01*
X61291401Y-92356747D01*
X61311107Y-92342132D01*
X61332150Y-92329520D01*
X61354329Y-92319030D01*
X61377428Y-92310765D01*
X61401227Y-92304804D01*
X61425495Y-92301204D01*
X61449999Y-92300000D01*
X62100001Y-92300000D01*
X62124505Y-92301204D01*
X62124505Y-92301204D01*
G37*
D13*
X61775000Y-93000000D03*
D10*
G36*
X78960505Y-57837204D02*
G01*
X78984773Y-57840804D01*
X79008572Y-57846765D01*
X79031671Y-57855030D01*
X79053850Y-57865520D01*
X79074893Y-57878132D01*
X79094599Y-57892747D01*
X79112777Y-57909223D01*
X79129253Y-57927401D01*
X79143868Y-57947107D01*
X79156480Y-57968150D01*
X79166970Y-57990329D01*
X79175235Y-58013428D01*
X79181196Y-58037227D01*
X79184796Y-58061495D01*
X79186000Y-58085999D01*
X79186000Y-58736001D01*
X79184796Y-58760505D01*
X79181196Y-58784773D01*
X79175235Y-58808572D01*
X79166970Y-58831671D01*
X79156480Y-58853850D01*
X79143868Y-58874893D01*
X79129253Y-58894599D01*
X79112777Y-58912777D01*
X79094599Y-58929253D01*
X79074893Y-58943868D01*
X79053850Y-58956480D01*
X79031671Y-58966970D01*
X79008572Y-58975235D01*
X78984773Y-58981196D01*
X78960505Y-58984796D01*
X78936001Y-58986000D01*
X78035999Y-58986000D01*
X78011495Y-58984796D01*
X77987227Y-58981196D01*
X77963428Y-58975235D01*
X77940329Y-58966970D01*
X77918150Y-58956480D01*
X77897107Y-58943868D01*
X77877401Y-58929253D01*
X77859223Y-58912777D01*
X77842747Y-58894599D01*
X77828132Y-58874893D01*
X77815520Y-58853850D01*
X77805030Y-58831671D01*
X77796765Y-58808572D01*
X77790804Y-58784773D01*
X77787204Y-58760505D01*
X77786000Y-58736001D01*
X77786000Y-58085999D01*
X77787204Y-58061495D01*
X77790804Y-58037227D01*
X77796765Y-58013428D01*
X77805030Y-57990329D01*
X77815520Y-57968150D01*
X77828132Y-57947107D01*
X77842747Y-57927401D01*
X77859223Y-57909223D01*
X77877401Y-57892747D01*
X77897107Y-57878132D01*
X77918150Y-57865520D01*
X77940329Y-57855030D01*
X77963428Y-57846765D01*
X77987227Y-57840804D01*
X78011495Y-57837204D01*
X78035999Y-57836000D01*
X78936001Y-57836000D01*
X78960505Y-57837204D01*
X78960505Y-57837204D01*
G37*
D13*
X78486000Y-58411000D03*
D10*
G36*
X78960505Y-59887204D02*
G01*
X78984773Y-59890804D01*
X79008572Y-59896765D01*
X79031671Y-59905030D01*
X79053850Y-59915520D01*
X79074893Y-59928132D01*
X79094599Y-59942747D01*
X79112777Y-59959223D01*
X79129253Y-59977401D01*
X79143868Y-59997107D01*
X79156480Y-60018150D01*
X79166970Y-60040329D01*
X79175235Y-60063428D01*
X79181196Y-60087227D01*
X79184796Y-60111495D01*
X79186000Y-60135999D01*
X79186000Y-60786001D01*
X79184796Y-60810505D01*
X79181196Y-60834773D01*
X79175235Y-60858572D01*
X79166970Y-60881671D01*
X79156480Y-60903850D01*
X79143868Y-60924893D01*
X79129253Y-60944599D01*
X79112777Y-60962777D01*
X79094599Y-60979253D01*
X79074893Y-60993868D01*
X79053850Y-61006480D01*
X79031671Y-61016970D01*
X79008572Y-61025235D01*
X78984773Y-61031196D01*
X78960505Y-61034796D01*
X78936001Y-61036000D01*
X78035999Y-61036000D01*
X78011495Y-61034796D01*
X77987227Y-61031196D01*
X77963428Y-61025235D01*
X77940329Y-61016970D01*
X77918150Y-61006480D01*
X77897107Y-60993868D01*
X77877401Y-60979253D01*
X77859223Y-60962777D01*
X77842747Y-60944599D01*
X77828132Y-60924893D01*
X77815520Y-60903850D01*
X77805030Y-60881671D01*
X77796765Y-60858572D01*
X77790804Y-60834773D01*
X77787204Y-60810505D01*
X77786000Y-60786001D01*
X77786000Y-60135999D01*
X77787204Y-60111495D01*
X77790804Y-60087227D01*
X77796765Y-60063428D01*
X77805030Y-60040329D01*
X77815520Y-60018150D01*
X77828132Y-59997107D01*
X77842747Y-59977401D01*
X77859223Y-59959223D01*
X77877401Y-59942747D01*
X77897107Y-59928132D01*
X77918150Y-59915520D01*
X77940329Y-59905030D01*
X77963428Y-59896765D01*
X77987227Y-59890804D01*
X78011495Y-59887204D01*
X78035999Y-59886000D01*
X78936001Y-59886000D01*
X78960505Y-59887204D01*
X78960505Y-59887204D01*
G37*
D13*
X78486000Y-60461000D03*
D10*
G36*
X59985779Y-91426144D02*
G01*
X60008834Y-91429563D01*
X60031443Y-91435227D01*
X60053387Y-91443079D01*
X60074457Y-91453044D01*
X60094448Y-91465026D01*
X60113168Y-91478910D01*
X60130438Y-91494562D01*
X60146090Y-91511832D01*
X60159974Y-91530552D01*
X60171956Y-91550543D01*
X60181921Y-91571613D01*
X60189773Y-91593557D01*
X60195437Y-91616166D01*
X60198856Y-91639221D01*
X60200000Y-91662500D01*
X60200000Y-92137500D01*
X60198856Y-92160779D01*
X60195437Y-92183834D01*
X60189773Y-92206443D01*
X60181921Y-92228387D01*
X60171956Y-92249457D01*
X60159974Y-92269448D01*
X60146090Y-92288168D01*
X60130438Y-92305438D01*
X60113168Y-92321090D01*
X60094448Y-92334974D01*
X60074457Y-92346956D01*
X60053387Y-92356921D01*
X60031443Y-92364773D01*
X60008834Y-92370437D01*
X59985779Y-92373856D01*
X59962500Y-92375000D01*
X59387500Y-92375000D01*
X59364221Y-92373856D01*
X59341166Y-92370437D01*
X59318557Y-92364773D01*
X59296613Y-92356921D01*
X59275543Y-92346956D01*
X59255552Y-92334974D01*
X59236832Y-92321090D01*
X59219562Y-92305438D01*
X59203910Y-92288168D01*
X59190026Y-92269448D01*
X59178044Y-92249457D01*
X59168079Y-92228387D01*
X59160227Y-92206443D01*
X59154563Y-92183834D01*
X59151144Y-92160779D01*
X59150000Y-92137500D01*
X59150000Y-91662500D01*
X59151144Y-91639221D01*
X59154563Y-91616166D01*
X59160227Y-91593557D01*
X59168079Y-91571613D01*
X59178044Y-91550543D01*
X59190026Y-91530552D01*
X59203910Y-91511832D01*
X59219562Y-91494562D01*
X59236832Y-91478910D01*
X59255552Y-91465026D01*
X59275543Y-91453044D01*
X59296613Y-91443079D01*
X59318557Y-91435227D01*
X59341166Y-91429563D01*
X59364221Y-91426144D01*
X59387500Y-91425000D01*
X59962500Y-91425000D01*
X59985779Y-91426144D01*
X59985779Y-91426144D01*
G37*
D17*
X59675000Y-91900000D03*
D10*
G36*
X58235779Y-91426144D02*
G01*
X58258834Y-91429563D01*
X58281443Y-91435227D01*
X58303387Y-91443079D01*
X58324457Y-91453044D01*
X58344448Y-91465026D01*
X58363168Y-91478910D01*
X58380438Y-91494562D01*
X58396090Y-91511832D01*
X58409974Y-91530552D01*
X58421956Y-91550543D01*
X58431921Y-91571613D01*
X58439773Y-91593557D01*
X58445437Y-91616166D01*
X58448856Y-91639221D01*
X58450000Y-91662500D01*
X58450000Y-92137500D01*
X58448856Y-92160779D01*
X58445437Y-92183834D01*
X58439773Y-92206443D01*
X58431921Y-92228387D01*
X58421956Y-92249457D01*
X58409974Y-92269448D01*
X58396090Y-92288168D01*
X58380438Y-92305438D01*
X58363168Y-92321090D01*
X58344448Y-92334974D01*
X58324457Y-92346956D01*
X58303387Y-92356921D01*
X58281443Y-92364773D01*
X58258834Y-92370437D01*
X58235779Y-92373856D01*
X58212500Y-92375000D01*
X57637500Y-92375000D01*
X57614221Y-92373856D01*
X57591166Y-92370437D01*
X57568557Y-92364773D01*
X57546613Y-92356921D01*
X57525543Y-92346956D01*
X57505552Y-92334974D01*
X57486832Y-92321090D01*
X57469562Y-92305438D01*
X57453910Y-92288168D01*
X57440026Y-92269448D01*
X57428044Y-92249457D01*
X57418079Y-92228387D01*
X57410227Y-92206443D01*
X57404563Y-92183834D01*
X57401144Y-92160779D01*
X57400000Y-92137500D01*
X57400000Y-91662500D01*
X57401144Y-91639221D01*
X57404563Y-91616166D01*
X57410227Y-91593557D01*
X57418079Y-91571613D01*
X57428044Y-91550543D01*
X57440026Y-91530552D01*
X57453910Y-91511832D01*
X57469562Y-91494562D01*
X57486832Y-91478910D01*
X57505552Y-91465026D01*
X57525543Y-91453044D01*
X57546613Y-91443079D01*
X57568557Y-91435227D01*
X57591166Y-91429563D01*
X57614221Y-91426144D01*
X57637500Y-91425000D01*
X58212500Y-91425000D01*
X58235779Y-91426144D01*
X58235779Y-91426144D01*
G37*
D17*
X57925000Y-91900000D03*
D10*
G36*
X59985779Y-93226144D02*
G01*
X60008834Y-93229563D01*
X60031443Y-93235227D01*
X60053387Y-93243079D01*
X60074457Y-93253044D01*
X60094448Y-93265026D01*
X60113168Y-93278910D01*
X60130438Y-93294562D01*
X60146090Y-93311832D01*
X60159974Y-93330552D01*
X60171956Y-93350543D01*
X60181921Y-93371613D01*
X60189773Y-93393557D01*
X60195437Y-93416166D01*
X60198856Y-93439221D01*
X60200000Y-93462500D01*
X60200000Y-93937500D01*
X60198856Y-93960779D01*
X60195437Y-93983834D01*
X60189773Y-94006443D01*
X60181921Y-94028387D01*
X60171956Y-94049457D01*
X60159974Y-94069448D01*
X60146090Y-94088168D01*
X60130438Y-94105438D01*
X60113168Y-94121090D01*
X60094448Y-94134974D01*
X60074457Y-94146956D01*
X60053387Y-94156921D01*
X60031443Y-94164773D01*
X60008834Y-94170437D01*
X59985779Y-94173856D01*
X59962500Y-94175000D01*
X59387500Y-94175000D01*
X59364221Y-94173856D01*
X59341166Y-94170437D01*
X59318557Y-94164773D01*
X59296613Y-94156921D01*
X59275543Y-94146956D01*
X59255552Y-94134974D01*
X59236832Y-94121090D01*
X59219562Y-94105438D01*
X59203910Y-94088168D01*
X59190026Y-94069448D01*
X59178044Y-94049457D01*
X59168079Y-94028387D01*
X59160227Y-94006443D01*
X59154563Y-93983834D01*
X59151144Y-93960779D01*
X59150000Y-93937500D01*
X59150000Y-93462500D01*
X59151144Y-93439221D01*
X59154563Y-93416166D01*
X59160227Y-93393557D01*
X59168079Y-93371613D01*
X59178044Y-93350543D01*
X59190026Y-93330552D01*
X59203910Y-93311832D01*
X59219562Y-93294562D01*
X59236832Y-93278910D01*
X59255552Y-93265026D01*
X59275543Y-93253044D01*
X59296613Y-93243079D01*
X59318557Y-93235227D01*
X59341166Y-93229563D01*
X59364221Y-93226144D01*
X59387500Y-93225000D01*
X59962500Y-93225000D01*
X59985779Y-93226144D01*
X59985779Y-93226144D01*
G37*
D17*
X59675000Y-93700000D03*
D10*
G36*
X58235779Y-93226144D02*
G01*
X58258834Y-93229563D01*
X58281443Y-93235227D01*
X58303387Y-93243079D01*
X58324457Y-93253044D01*
X58344448Y-93265026D01*
X58363168Y-93278910D01*
X58380438Y-93294562D01*
X58396090Y-93311832D01*
X58409974Y-93330552D01*
X58421956Y-93350543D01*
X58431921Y-93371613D01*
X58439773Y-93393557D01*
X58445437Y-93416166D01*
X58448856Y-93439221D01*
X58450000Y-93462500D01*
X58450000Y-93937500D01*
X58448856Y-93960779D01*
X58445437Y-93983834D01*
X58439773Y-94006443D01*
X58431921Y-94028387D01*
X58421956Y-94049457D01*
X58409974Y-94069448D01*
X58396090Y-94088168D01*
X58380438Y-94105438D01*
X58363168Y-94121090D01*
X58344448Y-94134974D01*
X58324457Y-94146956D01*
X58303387Y-94156921D01*
X58281443Y-94164773D01*
X58258834Y-94170437D01*
X58235779Y-94173856D01*
X58212500Y-94175000D01*
X57637500Y-94175000D01*
X57614221Y-94173856D01*
X57591166Y-94170437D01*
X57568557Y-94164773D01*
X57546613Y-94156921D01*
X57525543Y-94146956D01*
X57505552Y-94134974D01*
X57486832Y-94121090D01*
X57469562Y-94105438D01*
X57453910Y-94088168D01*
X57440026Y-94069448D01*
X57428044Y-94049457D01*
X57418079Y-94028387D01*
X57410227Y-94006443D01*
X57404563Y-93983834D01*
X57401144Y-93960779D01*
X57400000Y-93937500D01*
X57400000Y-93462500D01*
X57401144Y-93439221D01*
X57404563Y-93416166D01*
X57410227Y-93393557D01*
X57418079Y-93371613D01*
X57428044Y-93350543D01*
X57440026Y-93330552D01*
X57453910Y-93311832D01*
X57469562Y-93294562D01*
X57486832Y-93278910D01*
X57505552Y-93265026D01*
X57525543Y-93253044D01*
X57546613Y-93243079D01*
X57568557Y-93235227D01*
X57591166Y-93229563D01*
X57614221Y-93226144D01*
X57637500Y-93225000D01*
X58212500Y-93225000D01*
X58235779Y-93226144D01*
X58235779Y-93226144D01*
G37*
D17*
X57925000Y-93700000D03*
D10*
G36*
X62145779Y-71662144D02*
G01*
X62168834Y-71665563D01*
X62191443Y-71671227D01*
X62213387Y-71679079D01*
X62234457Y-71689044D01*
X62254448Y-71701026D01*
X62273168Y-71714910D01*
X62290438Y-71730562D01*
X62306090Y-71747832D01*
X62319974Y-71766552D01*
X62331956Y-71786543D01*
X62341921Y-71807613D01*
X62349773Y-71829557D01*
X62355437Y-71852166D01*
X62358856Y-71875221D01*
X62360000Y-71898500D01*
X62360000Y-72373500D01*
X62358856Y-72396779D01*
X62355437Y-72419834D01*
X62349773Y-72442443D01*
X62341921Y-72464387D01*
X62331956Y-72485457D01*
X62319974Y-72505448D01*
X62306090Y-72524168D01*
X62290438Y-72541438D01*
X62273168Y-72557090D01*
X62254448Y-72570974D01*
X62234457Y-72582956D01*
X62213387Y-72592921D01*
X62191443Y-72600773D01*
X62168834Y-72606437D01*
X62145779Y-72609856D01*
X62122500Y-72611000D01*
X61547500Y-72611000D01*
X61524221Y-72609856D01*
X61501166Y-72606437D01*
X61478557Y-72600773D01*
X61456613Y-72592921D01*
X61435543Y-72582956D01*
X61415552Y-72570974D01*
X61396832Y-72557090D01*
X61379562Y-72541438D01*
X61363910Y-72524168D01*
X61350026Y-72505448D01*
X61338044Y-72485457D01*
X61328079Y-72464387D01*
X61320227Y-72442443D01*
X61314563Y-72419834D01*
X61311144Y-72396779D01*
X61310000Y-72373500D01*
X61310000Y-71898500D01*
X61311144Y-71875221D01*
X61314563Y-71852166D01*
X61320227Y-71829557D01*
X61328079Y-71807613D01*
X61338044Y-71786543D01*
X61350026Y-71766552D01*
X61363910Y-71747832D01*
X61379562Y-71730562D01*
X61396832Y-71714910D01*
X61415552Y-71701026D01*
X61435543Y-71689044D01*
X61456613Y-71679079D01*
X61478557Y-71671227D01*
X61501166Y-71665563D01*
X61524221Y-71662144D01*
X61547500Y-71661000D01*
X62122500Y-71661000D01*
X62145779Y-71662144D01*
X62145779Y-71662144D01*
G37*
D17*
X61835000Y-72136000D03*
D10*
G36*
X60395779Y-71662144D02*
G01*
X60418834Y-71665563D01*
X60441443Y-71671227D01*
X60463387Y-71679079D01*
X60484457Y-71689044D01*
X60504448Y-71701026D01*
X60523168Y-71714910D01*
X60540438Y-71730562D01*
X60556090Y-71747832D01*
X60569974Y-71766552D01*
X60581956Y-71786543D01*
X60591921Y-71807613D01*
X60599773Y-71829557D01*
X60605437Y-71852166D01*
X60608856Y-71875221D01*
X60610000Y-71898500D01*
X60610000Y-72373500D01*
X60608856Y-72396779D01*
X60605437Y-72419834D01*
X60599773Y-72442443D01*
X60591921Y-72464387D01*
X60581956Y-72485457D01*
X60569974Y-72505448D01*
X60556090Y-72524168D01*
X60540438Y-72541438D01*
X60523168Y-72557090D01*
X60504448Y-72570974D01*
X60484457Y-72582956D01*
X60463387Y-72592921D01*
X60441443Y-72600773D01*
X60418834Y-72606437D01*
X60395779Y-72609856D01*
X60372500Y-72611000D01*
X59797500Y-72611000D01*
X59774221Y-72609856D01*
X59751166Y-72606437D01*
X59728557Y-72600773D01*
X59706613Y-72592921D01*
X59685543Y-72582956D01*
X59665552Y-72570974D01*
X59646832Y-72557090D01*
X59629562Y-72541438D01*
X59613910Y-72524168D01*
X59600026Y-72505448D01*
X59588044Y-72485457D01*
X59578079Y-72464387D01*
X59570227Y-72442443D01*
X59564563Y-72419834D01*
X59561144Y-72396779D01*
X59560000Y-72373500D01*
X59560000Y-71898500D01*
X59561144Y-71875221D01*
X59564563Y-71852166D01*
X59570227Y-71829557D01*
X59578079Y-71807613D01*
X59588044Y-71786543D01*
X59600026Y-71766552D01*
X59613910Y-71747832D01*
X59629562Y-71730562D01*
X59646832Y-71714910D01*
X59665552Y-71701026D01*
X59685543Y-71689044D01*
X59706613Y-71679079D01*
X59728557Y-71671227D01*
X59751166Y-71665563D01*
X59774221Y-71662144D01*
X59797500Y-71661000D01*
X60372500Y-71661000D01*
X60395779Y-71662144D01*
X60395779Y-71662144D01*
G37*
D17*
X60085000Y-72136000D03*
M02*
