%FSLAX45Y45*%
G04 Gerber Fmt 4.5, Leading zero omitted, Abs format (unit mm)*
G04 Created by KiCad (PCBNEW 5.1.2-f72e74a~84~ubuntu18.04.1) date 2019-07-03 17:08:01*
%MOMM*%
%LPD*%
G04 APERTURE LIST*
%ADD10C,0.050000*%
%ADD11C,0.200000*%
%ADD12C,0.300000*%
G04 APERTURE END LIST*
D10*
X11800000Y-7000000D02*
X11800000Y-10800000D01*
X11800000Y-6000000D02*
X11800000Y-5600000D01*
X11750000Y-6950000D02*
X11800000Y-7000000D01*
X11750000Y-6050000D02*
X11750000Y-6950000D01*
X11750000Y-6050000D02*
X11800000Y-6000000D01*
X11800000Y-10800000D02*
G75*
G02X11500000Y-11100000I-300000J0D01*
G01*
X5800000Y-11100000D02*
G75*
G02X5500000Y-10800000I0J300000D01*
G01*
X5500000Y-5600000D02*
G75*
G02X5800000Y-5300000I300000J0D01*
G01*
X11500000Y-5300000D02*
G75*
G02X11800000Y-5600000I0J-300000D01*
G01*
X11500000Y-5300000D02*
X5800000Y-5300000D01*
X5800000Y-11100000D02*
X11500000Y-11100000D01*
X5500000Y-5600000D02*
X5500000Y-10800000D01*
D11*
X5665000Y-10665000D02*
X5935000Y-10935000D01*
X5935000Y-10665000D02*
X5665000Y-10935000D01*
X11365000Y-5465000D02*
X11635000Y-5735000D01*
X11635000Y-5465000D02*
X11365000Y-5735000D01*
X11365000Y-10665000D02*
X11635000Y-10935000D01*
X11635000Y-10665000D02*
X11365000Y-10935000D01*
X5665000Y-5465000D02*
X5935000Y-5735000D01*
X5935000Y-5465000D02*
X5665000Y-5735000D01*
D12*
X5783928Y-11568214D02*
X5783928Y-11268214D01*
X5855357Y-11268214D01*
X5898214Y-11282500D01*
X5926786Y-11311071D01*
X5941071Y-11339643D01*
X5955357Y-11396786D01*
X5955357Y-11439643D01*
X5941071Y-11496786D01*
X5926786Y-11525357D01*
X5898214Y-11553929D01*
X5855357Y-11568214D01*
X5783928Y-11568214D01*
X6083928Y-11568214D02*
X6083928Y-11368214D01*
X6083928Y-11425357D02*
X6098214Y-11396786D01*
X6112500Y-11382500D01*
X6141071Y-11368214D01*
X6169643Y-11368214D01*
X6269643Y-11568214D02*
X6269643Y-11368214D01*
X6269643Y-11268214D02*
X6255357Y-11282500D01*
X6269643Y-11296786D01*
X6283928Y-11282500D01*
X6269643Y-11268214D01*
X6269643Y-11296786D01*
X6455357Y-11568214D02*
X6426786Y-11553929D01*
X6412500Y-11525357D01*
X6412500Y-11268214D01*
X6612500Y-11568214D02*
X6583928Y-11553929D01*
X6569643Y-11525357D01*
X6569643Y-11268214D01*
X6955357Y-11568214D02*
X6955357Y-11268214D01*
X7055357Y-11482500D01*
X7155357Y-11268214D01*
X7155357Y-11568214D01*
X7426786Y-11568214D02*
X7426786Y-11411071D01*
X7412500Y-11382500D01*
X7383928Y-11368214D01*
X7326786Y-11368214D01*
X7298214Y-11382500D01*
X7426786Y-11553929D02*
X7398214Y-11568214D01*
X7326786Y-11568214D01*
X7298214Y-11553929D01*
X7283928Y-11525357D01*
X7283928Y-11496786D01*
X7298214Y-11468214D01*
X7326786Y-11453929D01*
X7398214Y-11453929D01*
X7426786Y-11439643D01*
X7569643Y-11368214D02*
X7569643Y-11668214D01*
X7569643Y-11382500D02*
X7598214Y-11368214D01*
X7655357Y-11368214D01*
X7683928Y-11382500D01*
X7698214Y-11396786D01*
X7712500Y-11425357D01*
X7712500Y-11511071D01*
X7698214Y-11539643D01*
X7683928Y-11553929D01*
X7655357Y-11568214D01*
X7598214Y-11568214D01*
X7569643Y-11553929D01*
X7841071Y-11539643D02*
X7855357Y-11553929D01*
X7841071Y-11568214D01*
X7826786Y-11553929D01*
X7841071Y-11539643D01*
X7841071Y-11568214D01*
X7841071Y-11382500D02*
X7855357Y-11396786D01*
X7841071Y-11411071D01*
X7826786Y-11396786D01*
X7841071Y-11382500D01*
X7841071Y-11411071D01*
X5227500Y-11927500D02*
X5497500Y-12197500D01*
X5497500Y-11927500D02*
X5227500Y-12197500D01*
X5769643Y-11926786D02*
X5783928Y-11912500D01*
X5812500Y-11898214D01*
X5883928Y-11898214D01*
X5912500Y-11912500D01*
X5926786Y-11926786D01*
X5941071Y-11955357D01*
X5941071Y-11983929D01*
X5926786Y-12026786D01*
X5755357Y-12198214D01*
X5941071Y-12198214D01*
X6069643Y-12169643D02*
X6083928Y-12183929D01*
X6069643Y-12198214D01*
X6055357Y-12183929D01*
X6069643Y-12169643D01*
X6069643Y-12198214D01*
X6183928Y-11898214D02*
X6383928Y-11898214D01*
X6255357Y-12198214D01*
X6555357Y-11898214D02*
X6583928Y-11898214D01*
X6612500Y-11912500D01*
X6626786Y-11926786D01*
X6641071Y-11955357D01*
X6655357Y-12012500D01*
X6655357Y-12083929D01*
X6641071Y-12141071D01*
X6626786Y-12169643D01*
X6612500Y-12183929D01*
X6583928Y-12198214D01*
X6555357Y-12198214D01*
X6526786Y-12183929D01*
X6512500Y-12169643D01*
X6498214Y-12141071D01*
X6483928Y-12083929D01*
X6483928Y-12012500D01*
X6498214Y-11955357D01*
X6512500Y-11926786D01*
X6526786Y-11912500D01*
X6555357Y-11898214D01*
X6783928Y-12198214D02*
X6783928Y-11998214D01*
X6783928Y-12026786D02*
X6798214Y-12012500D01*
X6826786Y-11998214D01*
X6869643Y-11998214D01*
X6898214Y-12012500D01*
X6912500Y-12041071D01*
X6912500Y-12198214D01*
X6912500Y-12041071D02*
X6926786Y-12012500D01*
X6955357Y-11998214D01*
X6998214Y-11998214D01*
X7026786Y-12012500D01*
X7041071Y-12041071D01*
X7041071Y-12198214D01*
X7183928Y-12198214D02*
X7183928Y-11998214D01*
X7183928Y-12026786D02*
X7198214Y-12012500D01*
X7226786Y-11998214D01*
X7269643Y-11998214D01*
X7298214Y-12012500D01*
X7312500Y-12041071D01*
X7312500Y-12198214D01*
X7312500Y-12041071D02*
X7326786Y-12012500D01*
X7355357Y-11998214D01*
X7398214Y-11998214D01*
X7426786Y-12012500D01*
X7441071Y-12041071D01*
X7441071Y-12198214D01*
X8026786Y-11883929D02*
X7769643Y-12269643D01*
X8412500Y-11898214D02*
X8441071Y-11898214D01*
X8469643Y-11912500D01*
X8483928Y-11926786D01*
X8498214Y-11955357D01*
X8512500Y-12012500D01*
X8512500Y-12083929D01*
X8498214Y-12141071D01*
X8483928Y-12169643D01*
X8469643Y-12183929D01*
X8441071Y-12198214D01*
X8412500Y-12198214D01*
X8383928Y-12183929D01*
X8369643Y-12169643D01*
X8355357Y-12141071D01*
X8341071Y-12083929D01*
X8341071Y-12012500D01*
X8355357Y-11955357D01*
X8369643Y-11926786D01*
X8383928Y-11912500D01*
X8412500Y-11898214D01*
X8641071Y-12169643D02*
X8655357Y-12183929D01*
X8641071Y-12198214D01*
X8626786Y-12183929D01*
X8641071Y-12169643D01*
X8641071Y-12198214D01*
X8941071Y-12198214D02*
X8769643Y-12198214D01*
X8855357Y-12198214D02*
X8855357Y-11898214D01*
X8826786Y-11941071D01*
X8798214Y-11969643D01*
X8769643Y-11983929D01*
X9126786Y-11898214D02*
X9155357Y-11898214D01*
X9183928Y-11912500D01*
X9198214Y-11926786D01*
X9212500Y-11955357D01*
X9226786Y-12012500D01*
X9226786Y-12083929D01*
X9212500Y-12141071D01*
X9198214Y-12169643D01*
X9183928Y-12183929D01*
X9155357Y-12198214D01*
X9126786Y-12198214D01*
X9098214Y-12183929D01*
X9083928Y-12169643D01*
X9069643Y-12141071D01*
X9055357Y-12083929D01*
X9055357Y-12012500D01*
X9069643Y-11955357D01*
X9083928Y-11926786D01*
X9098214Y-11912500D01*
X9126786Y-11898214D01*
X9483928Y-11898214D02*
X9426786Y-11898214D01*
X9398214Y-11912500D01*
X9383928Y-11926786D01*
X9355357Y-11969643D01*
X9341071Y-12026786D01*
X9341071Y-12141071D01*
X9355357Y-12169643D01*
X9369643Y-12183929D01*
X9398214Y-12198214D01*
X9455357Y-12198214D01*
X9483928Y-12183929D01*
X9498214Y-12169643D01*
X9512500Y-12141071D01*
X9512500Y-12069643D01*
X9498214Y-12041071D01*
X9483928Y-12026786D01*
X9455357Y-12012500D01*
X9398214Y-12012500D01*
X9369643Y-12026786D01*
X9355357Y-12041071D01*
X9341071Y-12069643D01*
X9626786Y-11898214D02*
X9626786Y-11955357D01*
X9741071Y-11898214D02*
X9741071Y-11955357D01*
X10183928Y-12312500D02*
X10169643Y-12298214D01*
X10141071Y-12255357D01*
X10126786Y-12226786D01*
X10112500Y-12183929D01*
X10098214Y-12112500D01*
X10098214Y-12055357D01*
X10112500Y-11983929D01*
X10126786Y-11941071D01*
X10141071Y-11912500D01*
X10169643Y-11869643D01*
X10183928Y-11855357D01*
X10426786Y-11998214D02*
X10426786Y-12198214D01*
X10355357Y-11883929D02*
X10283928Y-12098214D01*
X10469643Y-12098214D01*
X10812500Y-12198214D02*
X10812500Y-11898214D01*
X10941071Y-12198214D02*
X10941071Y-12041071D01*
X10926786Y-12012500D01*
X10898214Y-11998214D01*
X10855357Y-11998214D01*
X10826786Y-12012500D01*
X10812500Y-12026786D01*
X11126786Y-12198214D02*
X11098214Y-12183929D01*
X11083928Y-12169643D01*
X11069643Y-12141071D01*
X11069643Y-12055357D01*
X11083928Y-12026786D01*
X11098214Y-12012500D01*
X11126786Y-11998214D01*
X11169643Y-11998214D01*
X11198214Y-12012500D01*
X11212500Y-12026786D01*
X11226786Y-12055357D01*
X11226786Y-12141071D01*
X11212500Y-12169643D01*
X11198214Y-12183929D01*
X11169643Y-12198214D01*
X11126786Y-12198214D01*
X11398214Y-12198214D02*
X11369643Y-12183929D01*
X11355357Y-12155357D01*
X11355357Y-11898214D01*
X11626786Y-12183929D02*
X11598214Y-12198214D01*
X11541071Y-12198214D01*
X11512500Y-12183929D01*
X11498214Y-12155357D01*
X11498214Y-12041071D01*
X11512500Y-12012500D01*
X11541071Y-11998214D01*
X11598214Y-11998214D01*
X11626786Y-12012500D01*
X11641071Y-12041071D01*
X11641071Y-12069643D01*
X11498214Y-12098214D01*
X11755357Y-12183929D02*
X11783928Y-12198214D01*
X11841071Y-12198214D01*
X11869643Y-12183929D01*
X11883928Y-12155357D01*
X11883928Y-12141071D01*
X11869643Y-12112500D01*
X11841071Y-12098214D01*
X11798214Y-12098214D01*
X11769643Y-12083929D01*
X11755357Y-12055357D01*
X11755357Y-12041071D01*
X11769643Y-12012500D01*
X11798214Y-11998214D01*
X11841071Y-11998214D01*
X11869643Y-12012500D01*
X11983928Y-12312500D02*
X11998214Y-12298214D01*
X12026786Y-12255357D01*
X12041071Y-12226786D01*
X12055357Y-12183929D01*
X12069643Y-12112500D01*
X12069643Y-12055357D01*
X12055357Y-11983929D01*
X12041071Y-11941071D01*
X12026786Y-11912500D01*
X11998214Y-11869643D01*
X11983928Y-11855357D01*
X12526786Y-12312500D02*
X12512500Y-12298214D01*
X12483928Y-12255357D01*
X12469643Y-12226786D01*
X12455357Y-12183929D01*
X12441071Y-12112500D01*
X12441071Y-12055357D01*
X12455357Y-11983929D01*
X12469643Y-11941071D01*
X12483928Y-11912500D01*
X12512500Y-11869643D01*
X12526786Y-11855357D01*
X12641071Y-11998214D02*
X12641071Y-12198214D01*
X12641071Y-12026786D02*
X12655357Y-12012500D01*
X12683928Y-11998214D01*
X12726786Y-11998214D01*
X12755357Y-12012500D01*
X12769643Y-12041071D01*
X12769643Y-12198214D01*
X12955357Y-12198214D02*
X12926786Y-12183929D01*
X12912500Y-12169643D01*
X12898214Y-12141071D01*
X12898214Y-12055357D01*
X12912500Y-12026786D01*
X12926786Y-12012500D01*
X12955357Y-11998214D01*
X12998214Y-11998214D01*
X13026786Y-12012500D01*
X13041071Y-12026786D01*
X13055357Y-12055357D01*
X13055357Y-12141071D01*
X13041071Y-12169643D01*
X13026786Y-12183929D01*
X12998214Y-12198214D01*
X12955357Y-12198214D01*
X13141071Y-11998214D02*
X13255357Y-11998214D01*
X13183928Y-11898214D02*
X13183928Y-12155357D01*
X13198214Y-12183929D01*
X13226786Y-12198214D01*
X13255357Y-12198214D01*
X13583928Y-11998214D02*
X13583928Y-12298214D01*
X13583928Y-12012500D02*
X13612500Y-11998214D01*
X13669643Y-11998214D01*
X13698214Y-12012500D01*
X13712500Y-12026786D01*
X13726786Y-12055357D01*
X13726786Y-12141071D01*
X13712500Y-12169643D01*
X13698214Y-12183929D01*
X13669643Y-12198214D01*
X13612500Y-12198214D01*
X13583928Y-12183929D01*
X13898214Y-12198214D02*
X13869643Y-12183929D01*
X13855357Y-12155357D01*
X13855357Y-11898214D01*
X14141071Y-12198214D02*
X14141071Y-12041071D01*
X14126786Y-12012500D01*
X14098214Y-11998214D01*
X14041071Y-11998214D01*
X14012500Y-12012500D01*
X14141071Y-12183929D02*
X14112500Y-12198214D01*
X14041071Y-12198214D01*
X14012500Y-12183929D01*
X13998214Y-12155357D01*
X13998214Y-12126786D01*
X14012500Y-12098214D01*
X14041071Y-12083929D01*
X14112500Y-12083929D01*
X14141071Y-12069643D01*
X14241071Y-11998214D02*
X14355357Y-11998214D01*
X14283928Y-11898214D02*
X14283928Y-12155357D01*
X14298214Y-12183929D01*
X14326786Y-12198214D01*
X14355357Y-12198214D01*
X14569643Y-12183929D02*
X14541071Y-12198214D01*
X14483928Y-12198214D01*
X14455357Y-12183929D01*
X14441071Y-12155357D01*
X14441071Y-12041071D01*
X14455357Y-12012500D01*
X14483928Y-11998214D01*
X14541071Y-11998214D01*
X14569643Y-12012500D01*
X14583928Y-12041071D01*
X14583928Y-12069643D01*
X14441071Y-12098214D01*
X14841071Y-12198214D02*
X14841071Y-11898214D01*
X14841071Y-12183929D02*
X14812500Y-12198214D01*
X14755357Y-12198214D01*
X14726786Y-12183929D01*
X14712500Y-12169643D01*
X14698214Y-12141071D01*
X14698214Y-12055357D01*
X14712500Y-12026786D01*
X14726786Y-12012500D01*
X14755357Y-11998214D01*
X14812500Y-11998214D01*
X14841071Y-12012500D01*
X14955357Y-12312500D02*
X14969643Y-12298214D01*
X14998214Y-12255357D01*
X15012500Y-12226786D01*
X15026786Y-12183929D01*
X15041071Y-12112500D01*
X15041071Y-12055357D01*
X15026786Y-11983929D01*
X15012500Y-11941071D01*
X14998214Y-11912500D01*
X14969643Y-11869643D01*
X14955357Y-11855357D01*
M02*
