M48
; DRILL file {KiCad 5.1.2-f72e74a~84~ubuntu18.04.1} date Wednesday, July 03, 2019 PM05:08:01 HKT
; FORMAT={-:-/ absolute / inch / decimal}
; #@! TF.CreationDate,2019-07-03T17:08:01+08:00
; #@! TF.GenerationSoftware,Kicad,Pcbnew,5.1.2-f72e74a~84~ubuntu18.04.1
; #@! TF.FileFunction,Plated,1,2,PTH
FMAT,2
INCH
T1C0.0157
T2C0.0236
T3C0.0256
T4C0.0335
T5C0.0394
T6C0.0551
%
G90
G05
T1
X2.25Y-2.39
X2.2658Y-3.7634
X2.2776Y-3.5
X2.3Y-3.14
X2.3081Y-3.2963
X2.34Y-3.86
X2.35Y-3.5949
X2.35Y-2.91
X2.3547Y-3.7567
X2.3622Y-3.0315
X2.3919Y-3.202
X2.4023Y-3.1119
X2.42Y-3.17
X2.4321Y-3.6614
X2.4417Y-3.8453
X2.4665Y-2.7205
X2.4907Y-3.2081
X2.5026Y-3.8036
X2.504Y-3.5236
X2.5098Y-2.6673
X2.51Y-2.29
X2.5591Y-3.249
X2.5651Y-3.1336
X2.5738Y-3.0
X2.6132Y-4.0551
X2.6481Y-2.3377
X2.6555Y-4.2825
X2.6657Y-3.8472
X2.6683Y-3.6998
X2.6929Y-3.0472
X2.6969Y-3.0906
X2.7215Y-2.935
X2.735Y-3.0138
X2.7354Y-2.437
X2.748Y-2.3307
X2.8118Y-2.3449
X2.86Y-2.32
X2.9173Y-2.5087
X2.9262Y-2.8888
X2.9291Y-3.0281
X2.936Y-4.0551
X2.9921Y-4.2825
X2.9996Y-2.5138
X3.0095Y-2.5631
X3.05Y-4.11
X3.0512Y-2.7067
X3.0512Y-2.7559
X3.0709Y-3.7274
X3.0732Y-2.4512
X3.1004Y-3.3268
X3.1047Y-4.2189
X3.1112Y-2.9557
X3.115Y-2.487
X3.1394Y-3.1587
X3.1704Y-2.3196
X3.19Y-4.0551
X3.2109Y-2.4377
X3.2208Y-2.617
X3.2634Y-3.7202
X3.2709Y-2.6267
X3.2736Y-3.0709
X3.3075Y-2.289
X3.3264Y-2.9146
X3.3272Y-2.7457
X3.3317Y-4.0551
X3.3425Y-2.2283
X3.3425Y-2.4425
X3.3559Y-4.1524
X3.3674Y-4.2409
X3.3681Y-2.5819
X3.3829Y-3.3898
X3.3839Y-3.2195
X3.3976Y-3.5974
X3.4Y-3.75
X3.46Y-4.12
X3.4606Y-2.228
X3.4606Y-2.378
X3.4684Y-3.6367
X3.4969Y-3.8186
X3.5047Y-2.739
X3.5059Y-2.3177
X3.51Y-3.53
X3.51Y-3.73
X3.5115Y-2.4496
X3.5118Y-2.5579
X3.5177Y-2.878
X3.5428Y-2.6941
X3.56Y-3.89
X3.563Y-2.938
X3.5748Y-2.3425
X3.5768Y-2.565
X3.5835Y-2.1492
X3.5846Y-2.8209
X3.5874Y-3.1586
X3.5874Y-3.6745
X3.59Y-3.35
X3.6417Y-2.8543
X3.6614Y-2.7067
X3.6772Y-3.878
X3.6772Y-4.0354
X3.7244Y-2.2933
X3.7792Y-3.8526
X3.7854Y-3.8996
X3.7884Y-3.2746
X3.7963Y-3.0906
X3.8071Y-2.5236
X3.8337Y-3.5482
X3.84Y-3.74
X3.8543Y-2.7608
X3.8563Y-2.4957
X3.87Y-3.94
X3.876Y-2.2953
X3.8789Y-3.8455
X3.9492Y-2.5508
X3.96Y-4.03
X3.9606Y-2.5965
X3.9665Y-2.8642
X3.9764Y-2.313
X3.9892Y-3.3161
X4.0071Y-3.5819
X4.0183Y-3.2047
X4.024Y-3.5169
X4.0265Y-3.2719
X4.0315Y-2.8484
X4.0433Y-2.4724
X4.0535Y-3.9461
X4.0543Y-3.8693
X4.0598Y-3.5831
X4.06Y-3.64
X4.063Y-3.7726
X4.065Y-3.3309
X4.0728Y-2.6122
X4.0728Y-2.8524
X4.0846Y-2.2657
X4.0886Y-2.4429
X4.124Y-3.9272
X4.128Y-2.2963
X4.139Y-3.213
X4.1427Y-2.6344
X4.1648Y-3.6141
X4.1722Y-3.0367
X4.1783Y-3.7803
X4.1807Y-3.5217
X4.1949Y-2.6161
X4.2402Y-3.0984
X4.2575Y-2.4409
X4.2756Y-4.0354
X4.2756Y-3.7205
X4.2756Y-3.878
X4.2756Y-3.4843
X4.2843Y-3.3184
X4.3213Y-3.2276
X4.3465Y-3.0906
X4.3602Y-3.563
X4.4055Y-3.81
X4.4425Y-3.2864
X4.4882Y-3.6432
X4.5591Y-3.3819
X4.5669Y-3.2165
X4.5684Y-2.5546
T3
X2.622Y-2.585
X2.622Y-2.635
X2.622Y-2.685
X2.622Y-2.735
X2.8346Y-3.0177
X2.8346Y-3.0677
X2.8346Y-3.1177
X2.8346Y-3.1677
X2.8346Y-3.2177
X2.8346Y-3.2677
X3.4449Y-4.1913
X3.4449Y-4.2413
X3.4449Y-4.2913
T4
X4.4621Y-2.4567
X4.4621Y-2.6535
T5
X2.489Y-2.185
X2.589Y-2.185
X2.689Y-2.185
X2.789Y-2.185
X2.889Y-2.185
X2.989Y-2.185
X3.089Y-2.185
X3.189Y-2.185
X4.311Y-2.2909
X4.311Y-2.3909
X4.311Y-2.4909
X4.311Y-2.5909
X4.311Y-2.6909
X3.7244Y-2.3819
X3.8244Y-2.3819
X3.9244Y-2.3819
X4.0244Y-2.3819
X4.4685Y-2.8071
X4.5685Y-2.8071
X4.5472Y-3.7992
X4.5472Y-3.8992
X4.5472Y-3.9992
X3.7244Y-2.2047
X3.8244Y-2.2047
X3.9244Y-2.2047
X4.0244Y-2.2047
T6
X4.4882Y-2.9984
X4.4882Y-3.0984
T2
G00X4.5546Y-2.4173
M15
G01X4.5822Y-2.4173
M16
G05
G00X4.5822Y-2.6929
M15
G01X4.5546Y-2.6929
M16
G05
T0
M30
