G04 #@! TF.GenerationSoftware,KiCad,Pcbnew,5.1.2-f72e74a~84~ubuntu18.04.1*
G04 #@! TF.CreationDate,2019-07-03T17:08:05+08:00*
G04 #@! TF.ProjectId,cowin-tryout,636f7769-6e2d-4747-9279-6f75742e6b69,rev?*
G04 #@! TF.SameCoordinates,Original*
G04 #@! TF.FileFunction,Legend,Top*
G04 #@! TF.FilePolarity,Positive*
%FSLAX46Y46*%
G04 Gerber Fmt 4.6, Leading zero omitted, Abs format (unit mm)*
G04 Created by KiCad (PCBNEW 5.1.2-f72e74a~84~ubuntu18.04.1) date 2019-07-03 17:08:05*
%MOMM*%
%LPD*%
G04 APERTURE LIST*
%ADD10C,0.300000*%
%ADD11C,0.150000*%
%ADD12C,0.120000*%
%ADD13C,0.127000*%
%ADD14C,0.100000*%
%ADD15C,0.500000*%
%ADD16C,0.609600*%
G04 APERTURE END LIST*
D10*
X113250000Y-96571428D02*
X113321428Y-96428571D01*
X113321428Y-96214285D01*
X113250000Y-96000000D01*
X113107142Y-95857142D01*
X112964285Y-95785714D01*
X112678571Y-95714285D01*
X112464285Y-95714285D01*
X112178571Y-95785714D01*
X112035714Y-95857142D01*
X111892857Y-96000000D01*
X111821428Y-96214285D01*
X111821428Y-96357142D01*
X111892857Y-96571428D01*
X111964285Y-96642857D01*
X112464285Y-96642857D01*
X112464285Y-96357142D01*
X112392857Y-98428571D02*
X112392857Y-99571428D01*
X111821428Y-99000000D02*
X112964285Y-99000000D01*
X111821428Y-101428571D02*
X113321428Y-101428571D01*
X113321428Y-101785714D01*
X113250000Y-102000000D01*
X113107142Y-102142857D01*
X112964285Y-102214285D01*
X112678571Y-102285714D01*
X112464285Y-102285714D01*
X112178571Y-102214285D01*
X112035714Y-102142857D01*
X111892857Y-102000000D01*
X111821428Y-101785714D01*
X111821428Y-101428571D01*
D11*
X44277619Y-78380952D02*
X44277619Y-77904761D01*
X43801428Y-77857142D01*
X43849047Y-77904761D01*
X43896666Y-78000000D01*
X43896666Y-78238095D01*
X43849047Y-78333333D01*
X43801428Y-78380952D01*
X43706190Y-78428571D01*
X43468095Y-78428571D01*
X43372857Y-78380952D01*
X43325238Y-78333333D01*
X43277619Y-78238095D01*
X43277619Y-78000000D01*
X43325238Y-77904761D01*
X43372857Y-77857142D01*
X43849047Y-79000000D02*
X43896666Y-78904761D01*
X43944285Y-78857142D01*
X44039523Y-78809523D01*
X44087142Y-78809523D01*
X44182380Y-78857142D01*
X44230000Y-78904761D01*
X44277619Y-79000000D01*
X44277619Y-79190476D01*
X44230000Y-79285714D01*
X44182380Y-79333333D01*
X44087142Y-79380952D01*
X44039523Y-79380952D01*
X43944285Y-79333333D01*
X43896666Y-79285714D01*
X43849047Y-79190476D01*
X43849047Y-79000000D01*
X43801428Y-78904761D01*
X43753809Y-78857142D01*
X43658571Y-78809523D01*
X43468095Y-78809523D01*
X43372857Y-78857142D01*
X43325238Y-78904761D01*
X43277619Y-79000000D01*
X43277619Y-79190476D01*
X43325238Y-79285714D01*
X43372857Y-79333333D01*
X43468095Y-79380952D01*
X43658571Y-79380952D01*
X43753809Y-79333333D01*
X43801428Y-79285714D01*
X43849047Y-79190476D01*
X43372857Y-79809523D02*
X43325238Y-79857142D01*
X43277619Y-79809523D01*
X43325238Y-79761904D01*
X43372857Y-79809523D01*
X43277619Y-79809523D01*
X44277619Y-80476190D02*
X44277619Y-80571428D01*
X44230000Y-80666666D01*
X44182380Y-80714285D01*
X44087142Y-80761904D01*
X43896666Y-80809523D01*
X43658571Y-80809523D01*
X43468095Y-80761904D01*
X43372857Y-80714285D01*
X43325238Y-80666666D01*
X43277619Y-80571428D01*
X43277619Y-80476190D01*
X43325238Y-80380952D01*
X43372857Y-80333333D01*
X43468095Y-80285714D01*
X43658571Y-80238095D01*
X43896666Y-80238095D01*
X44087142Y-80285714D01*
X44182380Y-80333333D01*
X44230000Y-80380952D01*
X44277619Y-80476190D01*
X44277619Y-81428571D02*
X44277619Y-81523809D01*
X44230000Y-81619047D01*
X44182380Y-81666666D01*
X44087142Y-81714285D01*
X43896666Y-81761904D01*
X43658571Y-81761904D01*
X43468095Y-81714285D01*
X43372857Y-81666666D01*
X43325238Y-81619047D01*
X43277619Y-81523809D01*
X43277619Y-81428571D01*
X43325238Y-81333333D01*
X43372857Y-81285714D01*
X43468095Y-81238095D01*
X43658571Y-81190476D01*
X43896666Y-81190476D01*
X44087142Y-81238095D01*
X44182380Y-81285714D01*
X44230000Y-81333333D01*
X44277619Y-81428571D01*
X44277619Y-82380952D02*
X44277619Y-82476190D01*
X44230000Y-82571428D01*
X44182380Y-82619047D01*
X44087142Y-82666666D01*
X43896666Y-82714285D01*
X43658571Y-82714285D01*
X43468095Y-82666666D01*
X43372857Y-82619047D01*
X43325238Y-82571428D01*
X43277619Y-82476190D01*
X43277619Y-82380952D01*
X43325238Y-82285714D01*
X43372857Y-82238095D01*
X43468095Y-82190476D01*
X43658571Y-82142857D01*
X43896666Y-82142857D01*
X44087142Y-82190476D01*
X44182380Y-82238095D01*
X44230000Y-82285714D01*
X44277619Y-82380952D01*
X43277619Y-83904761D02*
X43944285Y-83904761D01*
X43849047Y-83904761D02*
X43896666Y-83952380D01*
X43944285Y-84047619D01*
X43944285Y-84190476D01*
X43896666Y-84285714D01*
X43801428Y-84333333D01*
X43277619Y-84333333D01*
X43801428Y-84333333D02*
X43896666Y-84380952D01*
X43944285Y-84476190D01*
X43944285Y-84619047D01*
X43896666Y-84714285D01*
X43801428Y-84761904D01*
X43277619Y-84761904D01*
X43277619Y-85238095D02*
X43944285Y-85238095D01*
X43849047Y-85238095D02*
X43896666Y-85285714D01*
X43944285Y-85380952D01*
X43944285Y-85523809D01*
X43896666Y-85619047D01*
X43801428Y-85666666D01*
X43277619Y-85666666D01*
X43801428Y-85666666D02*
X43896666Y-85714285D01*
X43944285Y-85809523D01*
X43944285Y-85952380D01*
X43896666Y-86047619D01*
X43801428Y-86095238D01*
X43277619Y-86095238D01*
D12*
X45000000Y-53000000D02*
X45000000Y-111000000D01*
X50000000Y-53000000D02*
X44413579Y-53000000D01*
X50000000Y-111000000D02*
X44413579Y-111000000D01*
X45000000Y-111000000D02*
X44413579Y-109873496D01*
X45000000Y-111000000D02*
X45586421Y-109873496D01*
X45000000Y-53000000D02*
X44413579Y-54126504D01*
X45000000Y-53000000D02*
X45586421Y-54126504D01*
D11*
X82833333Y-43182380D02*
X82642857Y-43182380D01*
X82547619Y-43230000D01*
X82500000Y-43277619D01*
X82404761Y-43420476D01*
X82357142Y-43610952D01*
X82357142Y-43991904D01*
X82404761Y-44087142D01*
X82452380Y-44134761D01*
X82547619Y-44182380D01*
X82738095Y-44182380D01*
X82833333Y-44134761D01*
X82880952Y-44087142D01*
X82928571Y-43991904D01*
X82928571Y-43753809D01*
X82880952Y-43658571D01*
X82833333Y-43610952D01*
X82738095Y-43563333D01*
X82547619Y-43563333D01*
X82452380Y-43610952D01*
X82404761Y-43658571D01*
X82357142Y-43753809D01*
X83261904Y-43182380D02*
X83880952Y-43182380D01*
X83547619Y-43563333D01*
X83690476Y-43563333D01*
X83785714Y-43610952D01*
X83833333Y-43658571D01*
X83880952Y-43753809D01*
X83880952Y-43991904D01*
X83833333Y-44087142D01*
X83785714Y-44134761D01*
X83690476Y-44182380D01*
X83404761Y-44182380D01*
X83309523Y-44134761D01*
X83261904Y-44087142D01*
X84309523Y-44087142D02*
X84357142Y-44134761D01*
X84309523Y-44182380D01*
X84261904Y-44134761D01*
X84309523Y-44087142D01*
X84309523Y-44182380D01*
X84976190Y-43182380D02*
X85071428Y-43182380D01*
X85166666Y-43230000D01*
X85214285Y-43277619D01*
X85261904Y-43372857D01*
X85309523Y-43563333D01*
X85309523Y-43801428D01*
X85261904Y-43991904D01*
X85214285Y-44087142D01*
X85166666Y-44134761D01*
X85071428Y-44182380D01*
X84976190Y-44182380D01*
X84880952Y-44134761D01*
X84833333Y-44087142D01*
X84785714Y-43991904D01*
X84738095Y-43801428D01*
X84738095Y-43563333D01*
X84785714Y-43372857D01*
X84833333Y-43277619D01*
X84880952Y-43230000D01*
X84976190Y-43182380D01*
X85928571Y-43182380D02*
X86023809Y-43182380D01*
X86119047Y-43230000D01*
X86166666Y-43277619D01*
X86214285Y-43372857D01*
X86261904Y-43563333D01*
X86261904Y-43801428D01*
X86214285Y-43991904D01*
X86166666Y-44087142D01*
X86119047Y-44134761D01*
X86023809Y-44182380D01*
X85928571Y-44182380D01*
X85833333Y-44134761D01*
X85785714Y-44087142D01*
X85738095Y-43991904D01*
X85690476Y-43801428D01*
X85690476Y-43563333D01*
X85738095Y-43372857D01*
X85785714Y-43277619D01*
X85833333Y-43230000D01*
X85928571Y-43182380D01*
X86880952Y-43182380D02*
X86976190Y-43182380D01*
X87071428Y-43230000D01*
X87119047Y-43277619D01*
X87166666Y-43372857D01*
X87214285Y-43563333D01*
X87214285Y-43801428D01*
X87166666Y-43991904D01*
X87119047Y-44087142D01*
X87071428Y-44134761D01*
X86976190Y-44182380D01*
X86880952Y-44182380D01*
X86785714Y-44134761D01*
X86738095Y-44087142D01*
X86690476Y-43991904D01*
X86642857Y-43801428D01*
X86642857Y-43563333D01*
X86690476Y-43372857D01*
X86738095Y-43277619D01*
X86785714Y-43230000D01*
X86880952Y-43182380D01*
X88404761Y-44182380D02*
X88404761Y-43515714D01*
X88404761Y-43610952D02*
X88452380Y-43563333D01*
X88547619Y-43515714D01*
X88690476Y-43515714D01*
X88785714Y-43563333D01*
X88833333Y-43658571D01*
X88833333Y-44182380D01*
X88833333Y-43658571D02*
X88880952Y-43563333D01*
X88976190Y-43515714D01*
X89119047Y-43515714D01*
X89214285Y-43563333D01*
X89261904Y-43658571D01*
X89261904Y-44182380D01*
X89738095Y-44182380D02*
X89738095Y-43515714D01*
X89738095Y-43610952D02*
X89785714Y-43563333D01*
X89880952Y-43515714D01*
X90023809Y-43515714D01*
X90119047Y-43563333D01*
X90166666Y-43658571D01*
X90166666Y-44182380D01*
X90166666Y-43658571D02*
X90214285Y-43563333D01*
X90309523Y-43515714D01*
X90452380Y-43515714D01*
X90547619Y-43563333D01*
X90595238Y-43658571D01*
X90595238Y-44182380D01*
D12*
X55000000Y-45000000D02*
X118000000Y-45000000D01*
X55000000Y-48000000D02*
X55000000Y-44413579D01*
X118000000Y-48000000D02*
X118000000Y-44413579D01*
X118000000Y-45000000D02*
X116873496Y-45586421D01*
X118000000Y-45000000D02*
X116873496Y-44413579D01*
X55000000Y-45000000D02*
X56126504Y-45586421D01*
X55000000Y-45000000D02*
X56126504Y-44413579D01*
X92880000Y-87500000D02*
X92880000Y-86880000D01*
X92880000Y-86880000D02*
X95000000Y-86880000D01*
X107000000Y-86880000D02*
X109120000Y-86880000D01*
X109120000Y-86880000D02*
X109120000Y-87500000D01*
X95870000Y-57330000D02*
X95870000Y-54670000D01*
X95870000Y-57330000D02*
X103550000Y-57330000D01*
X103550000Y-57330000D02*
X103550000Y-54670000D01*
X95870000Y-54670000D02*
X103550000Y-54670000D01*
X93270000Y-54670000D02*
X94600000Y-54670000D01*
X93270000Y-56000000D02*
X93270000Y-54670000D01*
X95870000Y-61830000D02*
X95870000Y-59170000D01*
X95870000Y-61830000D02*
X103550000Y-61830000D01*
X103550000Y-61830000D02*
X103550000Y-59170000D01*
X95870000Y-59170000D02*
X103550000Y-59170000D01*
X93270000Y-59170000D02*
X94600000Y-59170000D01*
X93270000Y-60500000D02*
X93270000Y-59170000D01*
X110830000Y-69680000D02*
X109500000Y-69680000D01*
X110830000Y-68350000D02*
X110830000Y-69680000D01*
X110830000Y-67080000D02*
X108170000Y-67080000D01*
X108170000Y-67080000D02*
X108170000Y-56860000D01*
X110830000Y-67080000D02*
X110830000Y-56860000D01*
X110830000Y-56860000D02*
X108170000Y-56860000D01*
X90040000Y-53715000D02*
X90040000Y-56575000D01*
X91960000Y-53715000D02*
X90040000Y-53715000D01*
X91960000Y-56575000D02*
X91960000Y-53715000D01*
X86940000Y-53715000D02*
X86940000Y-56575000D01*
X88860000Y-53715000D02*
X86940000Y-53715000D01*
X88860000Y-56575000D02*
X88860000Y-53715000D01*
X114170000Y-95170000D02*
X115500000Y-95170000D01*
X114170000Y-96500000D02*
X114170000Y-95170000D01*
X114170000Y-97770000D02*
X116830000Y-97770000D01*
X116830000Y-97770000D02*
X116830000Y-102910000D01*
X114170000Y-97770000D02*
X114170000Y-102910000D01*
X114170000Y-102910000D02*
X116830000Y-102910000D01*
X74686248Y-70560000D02*
X75050000Y-70560000D01*
X71513752Y-70560000D02*
X71150000Y-70560000D01*
X74686248Y-65440000D02*
X75050000Y-65440000D01*
X71513752Y-65440000D02*
X69650000Y-65440000D01*
X80600000Y-68480000D02*
X79800000Y-68480000D01*
X80600000Y-71920000D02*
X79800000Y-71920000D01*
X83940000Y-53715000D02*
X83940000Y-56575000D01*
X85860000Y-53715000D02*
X83940000Y-53715000D01*
X85860000Y-56575000D02*
X85860000Y-53715000D01*
X72838748Y-64360000D02*
X73361252Y-64360000D01*
X72838748Y-62940000D02*
X73361252Y-62940000D01*
X92171267Y-67490000D02*
X91828733Y-67490000D01*
X92171267Y-68510000D02*
X91828733Y-68510000D01*
X88110000Y-65400000D02*
X88110000Y-63600000D01*
X84890000Y-63600000D02*
X84890000Y-66050000D01*
X88610000Y-109760000D02*
X87500000Y-109760000D01*
X88610000Y-109000000D02*
X88610000Y-109760000D01*
X86936529Y-108240000D02*
X86390000Y-108240000D01*
X88610000Y-108240000D02*
X88063471Y-108240000D01*
X86390000Y-108240000D02*
X86390000Y-105765000D01*
X88610000Y-108240000D02*
X88610000Y-105765000D01*
X87192470Y-105765000D02*
X86390000Y-105765000D01*
X88610000Y-105765000D02*
X87807530Y-105765000D01*
X83510000Y-64671267D02*
X83510000Y-64328733D01*
X82490000Y-64671267D02*
X82490000Y-64328733D01*
X91850000Y-63800000D02*
X91850000Y-65200000D01*
X91150000Y-65900000D02*
X90550000Y-65900000D01*
X89850000Y-65200000D02*
X89850000Y-63800000D01*
X90550000Y-63100000D02*
X91150000Y-63100000D01*
X91150000Y-63100000D02*
G75*
G02X91850000Y-63800000I0J-700000D01*
G01*
X89850000Y-63800000D02*
G75*
G02X90550000Y-63100000I700000J0D01*
G01*
X90550000Y-65900000D02*
G75*
G02X89850000Y-65200000I0J700000D01*
G01*
X91850000Y-65200000D02*
G75*
G02X91150000Y-65900000I-700000J0D01*
G01*
X91800000Y-59450000D02*
X91800000Y-60850000D01*
X91100000Y-61550000D02*
X90500000Y-61550000D01*
X89800000Y-60850000D02*
X89800000Y-59450000D01*
X90500000Y-58750000D02*
X91100000Y-58750000D01*
X91100000Y-58750000D02*
G75*
G02X91800000Y-59450000I0J-700000D01*
G01*
X89800000Y-59450000D02*
G75*
G02X90500000Y-58750000I700000J0D01*
G01*
X90500000Y-61550000D02*
G75*
G02X89800000Y-60850000I0J700000D01*
G01*
X91800000Y-60850000D02*
G75*
G02X91100000Y-61550000I-700000J0D01*
G01*
X84000000Y-59400000D02*
X87900000Y-59400000D01*
X84000000Y-61400000D02*
X87900000Y-61400000D01*
X84000000Y-59400000D02*
X84000000Y-61400000D01*
X79990000Y-64328733D02*
X79990000Y-64671267D01*
X81010000Y-64328733D02*
X81010000Y-64671267D01*
X106250000Y-54280000D02*
X105450000Y-54280000D01*
X106250000Y-57720000D02*
X105450000Y-57720000D01*
X106250000Y-58980000D02*
X105450000Y-58980000D01*
X106250000Y-62420000D02*
X105450000Y-62420000D01*
X57260000Y-63828733D02*
X57260000Y-64171267D01*
X56240000Y-63828733D02*
X56240000Y-64171267D01*
X78090000Y-74590000D02*
X78090000Y-75850000D01*
X78090000Y-81410000D02*
X78090000Y-80150000D01*
X81850000Y-74590000D02*
X78090000Y-74590000D01*
X84100000Y-81410000D02*
X78090000Y-81410000D01*
X86000000Y-70300000D02*
G75*
G02X86700000Y-69600000I700000J0D01*
G01*
X87300000Y-69600000D02*
G75*
G02X88000000Y-70300000I0J-700000D01*
G01*
X88000000Y-71700000D02*
G75*
G02X87300000Y-72400000I-700000J0D01*
G01*
X86700000Y-72400000D02*
G75*
G02X86000000Y-71700000I0J700000D01*
G01*
X87300000Y-72400000D02*
X86700000Y-72400000D01*
X88000000Y-70300000D02*
X88000000Y-71700000D01*
X86700000Y-69600000D02*
X87300000Y-69600000D01*
X86000000Y-71700000D02*
X86000000Y-70300000D01*
X90050000Y-70300000D02*
G75*
G02X90750000Y-69600000I700000J0D01*
G01*
X91350000Y-69600000D02*
G75*
G02X92050000Y-70300000I0J-700000D01*
G01*
X92050000Y-71700000D02*
G75*
G02X91350000Y-72400000I-700000J0D01*
G01*
X90750000Y-72400000D02*
G75*
G02X90050000Y-71700000I0J700000D01*
G01*
X91350000Y-72400000D02*
X90750000Y-72400000D01*
X92050000Y-70300000D02*
X92050000Y-71700000D01*
X90750000Y-69600000D02*
X91350000Y-69600000D01*
X90050000Y-71700000D02*
X90050000Y-70300000D01*
X91010000Y-75328733D02*
X91010000Y-75671267D01*
X89990000Y-75328733D02*
X89990000Y-75671267D01*
X88060000Y-75328733D02*
X88060000Y-75671267D01*
X87040000Y-75328733D02*
X87040000Y-75671267D01*
X98925000Y-68950000D02*
X94675000Y-68950000D01*
X94675000Y-68950000D02*
X94675000Y-74050000D01*
X112487500Y-66600000D02*
X112937500Y-66600000D01*
X112487500Y-66600000D02*
X112487500Y-66150000D01*
X113037500Y-61000000D02*
X113037500Y-61450000D01*
X114887500Y-61000000D02*
X113037500Y-61000000D01*
X117437500Y-68800000D02*
X117187500Y-68800000D01*
X117437500Y-61000000D02*
X117187500Y-61000000D01*
X114887500Y-68800000D02*
X113037500Y-68800000D01*
X113037500Y-68800000D02*
X113037500Y-68350000D01*
D11*
X107175000Y-69125000D02*
X107175000Y-67525000D01*
X99875000Y-69125000D02*
X99875000Y-74875000D01*
X107525000Y-69125000D02*
X107525000Y-74875000D01*
X99875000Y-69125000D02*
X100325000Y-69125000D01*
X99875000Y-74875000D02*
X100325000Y-74875000D01*
X107525000Y-74875000D02*
X107075000Y-74875000D01*
X107525000Y-69125000D02*
X107175000Y-69125000D01*
D13*
X61250000Y-78250000D02*
X61250000Y-75750000D01*
X58750000Y-75750000D02*
X58750000Y-78250000D01*
D14*
X58900000Y-78500000D02*
G75*
G03X58900000Y-78500000I-100000J0D01*
G01*
D15*
X62358000Y-99651000D02*
G75*
G03X62358000Y-99651000I-254000J0D01*
G01*
D16*
X60575000Y-68350000D02*
G75*
G03X60575000Y-68350000I-125000J0D01*
G01*
D13*
X59325000Y-71100000D02*
X63075000Y-71100000D01*
X63075000Y-71100000D02*
X63075000Y-67100000D01*
X63075000Y-67100000D02*
X59325000Y-67100000D01*
X59325000Y-67100000D02*
X59325000Y-71100000D01*
D16*
X60575000Y-68350000D02*
G75*
G03X60575000Y-68350000I-125000J0D01*
G01*
D12*
X76650000Y-90760000D02*
X76650000Y-96880000D01*
X76650000Y-96880000D02*
X72950000Y-96880000D01*
X72950000Y-96880000D02*
X72950000Y-90760000D01*
X72950000Y-90760000D02*
X76650000Y-90760000D01*
X69560000Y-90760000D02*
X69560000Y-96880000D01*
X69560000Y-96880000D02*
X65860000Y-96880000D01*
X65860000Y-96880000D02*
X65860000Y-90760000D01*
X65860000Y-90760000D02*
X69560000Y-90760000D01*
X65800000Y-75280000D02*
X66600000Y-75280000D01*
X65800000Y-78720000D02*
X66600000Y-78720000D01*
X60900000Y-62530000D02*
X61700000Y-62530000D01*
X60900000Y-65970000D02*
X61700000Y-65970000D01*
X111710000Y-83671267D02*
X111710000Y-83328733D01*
X110690000Y-83671267D02*
X110690000Y-83328733D01*
X78510000Y-93628733D02*
X78510000Y-93971267D01*
X77490000Y-93628733D02*
X77490000Y-93971267D01*
X111690000Y-88896267D02*
X111690000Y-88553733D01*
X112710000Y-88896267D02*
X112710000Y-88553733D01*
X70490000Y-93971267D02*
X70490000Y-93628733D01*
X71510000Y-93971267D02*
X71510000Y-93628733D01*
X115190000Y-88871267D02*
X115190000Y-88528733D01*
X116210000Y-88871267D02*
X116210000Y-88528733D01*
X85328733Y-102490000D02*
X85671267Y-102490000D01*
X85328733Y-103510000D02*
X85671267Y-103510000D01*
X89110000Y-79728733D02*
X89110000Y-80071267D01*
X88090000Y-79728733D02*
X88090000Y-80071267D01*
X82310000Y-93628733D02*
X82310000Y-93971267D01*
X81290000Y-93628733D02*
X81290000Y-93971267D01*
X112510000Y-92228733D02*
X112510000Y-92571267D01*
X111490000Y-92228733D02*
X111490000Y-92571267D01*
X86971267Y-85510000D02*
X86628733Y-85510000D01*
X86971267Y-84490000D02*
X86628733Y-84490000D01*
X86971267Y-87710000D02*
X86628733Y-87710000D01*
X86971267Y-86690000D02*
X86628733Y-86690000D01*
X69036000Y-59697252D02*
X69036000Y-59174748D01*
X67616000Y-59697252D02*
X67616000Y-59174748D01*
X76656000Y-59697252D02*
X76656000Y-59174748D01*
X75236000Y-59697252D02*
X75236000Y-59174748D01*
X62428733Y-94490000D02*
X62771267Y-94490000D01*
X62428733Y-95510000D02*
X62771267Y-95510000D01*
D13*
X113201500Y-84452500D02*
X112541100Y-84452500D01*
X113201500Y-82547500D02*
X112541100Y-82547500D01*
X114598500Y-83500000D02*
X115258900Y-83500000D01*
X114598500Y-82001400D02*
X114598500Y-84998600D01*
X114598500Y-84998600D02*
X113201500Y-84998600D01*
X113201500Y-84998600D02*
X113201500Y-82001400D01*
X113201500Y-82001400D02*
X114598500Y-82001400D01*
D12*
X63650500Y-88500000D02*
G75*
G02X64350500Y-89200000I0J-700000D01*
G01*
X64350500Y-89800000D02*
G75*
G02X63650500Y-90500000I-700000J0D01*
G01*
X62250500Y-90500000D02*
G75*
G02X61550500Y-89800000I0J700000D01*
G01*
X61550500Y-89200000D02*
G75*
G02X62250500Y-88500000I700000J0D01*
G01*
X61550500Y-89800000D02*
X61550500Y-89200000D01*
X63650500Y-90500000D02*
X62250500Y-90500000D01*
X64350500Y-89200000D02*
X64350500Y-89800000D01*
X62250500Y-88500000D02*
X63650500Y-88500000D01*
X59200000Y-87900000D02*
G75*
G02X59900000Y-88600000I0J-700000D01*
G01*
X59900000Y-89200000D02*
G75*
G02X59200000Y-89900000I-700000J0D01*
G01*
X57800000Y-89900000D02*
G75*
G02X57100000Y-89200000I0J700000D01*
G01*
X57100000Y-88600000D02*
G75*
G02X57800000Y-87900000I700000J0D01*
G01*
X57100000Y-89200000D02*
X57100000Y-88600000D01*
X59200000Y-89900000D02*
X57800000Y-89900000D01*
X59900000Y-88600000D02*
X59900000Y-89200000D01*
X57800000Y-87900000D02*
X59200000Y-87900000D01*
X112170000Y-72630000D02*
X112170000Y-71300000D01*
X113500000Y-72630000D02*
X112170000Y-72630000D01*
X114770000Y-72630000D02*
X114770000Y-69970000D01*
X114770000Y-69970000D02*
X117370000Y-69970000D01*
X114770000Y-72630000D02*
X117370000Y-72630000D01*
X117370000Y-72630000D02*
X117370000Y-69970000D01*
X73110000Y-75955000D02*
X72307530Y-75955000D01*
X71692470Y-75955000D02*
X70890000Y-75955000D01*
X73110000Y-82240000D02*
X73110000Y-75955000D01*
X70890000Y-82240000D02*
X70890000Y-75955000D01*
X73110000Y-82240000D02*
X72563471Y-82240000D01*
X71436529Y-82240000D02*
X70890000Y-82240000D01*
X73110000Y-83000000D02*
X73110000Y-83760000D01*
X73110000Y-83760000D02*
X72000000Y-83760000D01*
X65490000Y-70165000D02*
X66292470Y-70165000D01*
X66907530Y-70165000D02*
X67710000Y-70165000D01*
X65490000Y-66420000D02*
X65490000Y-70165000D01*
X67710000Y-66420000D02*
X67710000Y-70165000D01*
X65490000Y-66420000D02*
X66036529Y-66420000D01*
X67163471Y-66420000D02*
X67710000Y-66420000D01*
X65490000Y-65660000D02*
X65490000Y-64900000D01*
X65490000Y-64900000D02*
X66600000Y-64900000D01*
X114735000Y-89500000D02*
X114735000Y-87040000D01*
X114735000Y-87040000D02*
X113265000Y-87040000D01*
X113265000Y-87040000D02*
X113265000Y-89500000D01*
X61350000Y-104425000D02*
X68650000Y-104425000D01*
X61350000Y-109925000D02*
X68650000Y-109925000D01*
X68650000Y-109925000D02*
X68650000Y-108775000D01*
X69900000Y-104425000D02*
X77200000Y-104425000D01*
X69900000Y-109925000D02*
X77200000Y-109925000D01*
X77200000Y-109925000D02*
X77200000Y-108775000D01*
X78350000Y-104425000D02*
X85650000Y-104425000D01*
X78350000Y-109925000D02*
X85650000Y-109925000D01*
X85650000Y-109925000D02*
X85650000Y-108775000D01*
X96971267Y-74590000D02*
X96628733Y-74590000D01*
X96971267Y-75610000D02*
X96628733Y-75610000D01*
X96628733Y-68410000D02*
X96971267Y-68410000D01*
X96628733Y-67390000D02*
X96971267Y-67390000D01*
X80510000Y-93628733D02*
X80510000Y-93971267D01*
X79490000Y-93628733D02*
X79490000Y-93971267D01*
X65611252Y-103710000D02*
X65088748Y-103710000D01*
X65611252Y-102290000D02*
X65088748Y-102290000D01*
X73811252Y-103710000D02*
X73288748Y-103710000D01*
X73811252Y-102290000D02*
X73288748Y-102290000D01*
X80261252Y-103710000D02*
X79738748Y-103710000D01*
X80261252Y-102290000D02*
X79738748Y-102290000D01*
X63061252Y-93710000D02*
X62538748Y-93710000D01*
X63061252Y-92290000D02*
X62538748Y-92290000D01*
X79196000Y-59697252D02*
X79196000Y-59174748D01*
X77776000Y-59697252D02*
X77776000Y-59174748D01*
X58971267Y-92410000D02*
X58628733Y-92410000D01*
X58971267Y-91390000D02*
X58628733Y-91390000D01*
X58971267Y-94210000D02*
X58628733Y-94210000D01*
X58971267Y-93190000D02*
X58628733Y-93190000D01*
X61131267Y-72646000D02*
X60788733Y-72646000D01*
X61131267Y-71626000D02*
X60788733Y-71626000D01*
D11*
X106842095Y-104040380D02*
X106842095Y-104849904D01*
X106889714Y-104945142D01*
X106937333Y-104992761D01*
X107032571Y-105040380D01*
X107223047Y-105040380D01*
X107318285Y-104992761D01*
X107365904Y-104945142D01*
X107413523Y-104849904D01*
X107413523Y-104040380D01*
X108318285Y-104040380D02*
X108127809Y-104040380D01*
X108032571Y-104088000D01*
X107984952Y-104135619D01*
X107889714Y-104278476D01*
X107842095Y-104468952D01*
X107842095Y-104849904D01*
X107889714Y-104945142D01*
X107937333Y-104992761D01*
X108032571Y-105040380D01*
X108223047Y-105040380D01*
X108318285Y-104992761D01*
X108365904Y-104945142D01*
X108413523Y-104849904D01*
X108413523Y-104611809D01*
X108365904Y-104516571D01*
X108318285Y-104468952D01*
X108223047Y-104421333D01*
X108032571Y-104421333D01*
X107937333Y-104468952D01*
X107889714Y-104516571D01*
X107842095Y-104611809D01*
X98392857Y-66202380D02*
X98392857Y-65202380D01*
X98821428Y-65297619D02*
X98869047Y-65250000D01*
X98964285Y-65202380D01*
X99202380Y-65202380D01*
X99297619Y-65250000D01*
X99345238Y-65297619D01*
X99392857Y-65392857D01*
X99392857Y-65488095D01*
X99345238Y-65630952D01*
X98773809Y-66202380D01*
X99392857Y-66202380D01*
X100392857Y-66107142D02*
X100345238Y-66154761D01*
X100202380Y-66202380D01*
X100107142Y-66202380D01*
X99964285Y-66154761D01*
X99869047Y-66059523D01*
X99821428Y-65964285D01*
X99773809Y-65773809D01*
X99773809Y-65630952D01*
X99821428Y-65440476D01*
X99869047Y-65345238D01*
X99964285Y-65250000D01*
X100107142Y-65202380D01*
X100202380Y-65202380D01*
X100345238Y-65250000D01*
X100392857Y-65297619D01*
X100583333Y-66297619D02*
X101345238Y-66297619D01*
X101583333Y-66202380D02*
X101583333Y-65202380D01*
X101821428Y-65202380D01*
X101964285Y-65250000D01*
X102059523Y-65345238D01*
X102107142Y-65440476D01*
X102154761Y-65630952D01*
X102154761Y-65773809D01*
X102107142Y-65964285D01*
X102059523Y-66059523D01*
X101964285Y-66154761D01*
X101821428Y-66202380D01*
X101583333Y-66202380D01*
X102916666Y-65678571D02*
X103059523Y-65726190D01*
X103107142Y-65773809D01*
X103154761Y-65869047D01*
X103154761Y-66011904D01*
X103107142Y-66107142D01*
X103059523Y-66154761D01*
X102964285Y-66202380D01*
X102583333Y-66202380D01*
X102583333Y-65202380D01*
X102916666Y-65202380D01*
X103011904Y-65250000D01*
X103059523Y-65297619D01*
X103107142Y-65392857D01*
X103107142Y-65488095D01*
X103059523Y-65583333D01*
X103011904Y-65630952D01*
X102916666Y-65678571D01*
X102583333Y-65678571D01*
X104107142Y-65250000D02*
X104011904Y-65202380D01*
X103869047Y-65202380D01*
X103726190Y-65250000D01*
X103630952Y-65345238D01*
X103583333Y-65440476D01*
X103535714Y-65630952D01*
X103535714Y-65773809D01*
X103583333Y-65964285D01*
X103630952Y-66059523D01*
X103726190Y-66154761D01*
X103869047Y-66202380D01*
X103964285Y-66202380D01*
X104107142Y-66154761D01*
X104154761Y-66107142D01*
X104154761Y-65773809D01*
X103964285Y-65773809D01*
X102654761Y-64714285D02*
X102702380Y-64571428D01*
X102702380Y-64333333D01*
X102654761Y-64238095D01*
X102607142Y-64190476D01*
X102511904Y-64142857D01*
X102416666Y-64142857D01*
X102321428Y-64190476D01*
X102273809Y-64238095D01*
X102226190Y-64333333D01*
X102178571Y-64523809D01*
X102130952Y-64619047D01*
X102083333Y-64666666D01*
X101988095Y-64714285D01*
X101892857Y-64714285D01*
X101797619Y-64666666D01*
X101750000Y-64619047D01*
X101702380Y-64523809D01*
X101702380Y-64285714D01*
X101750000Y-64142857D01*
X102702380Y-63714285D02*
X101702380Y-63714285D01*
X101702380Y-63476190D01*
X101750000Y-63333333D01*
X101845238Y-63238095D01*
X101940476Y-63190476D01*
X102130952Y-63142857D01*
X102273809Y-63142857D01*
X102464285Y-63190476D01*
X102559523Y-63238095D01*
X102654761Y-63333333D01*
X102702380Y-63476190D01*
X102702380Y-63714285D01*
X102416666Y-62761904D02*
X102416666Y-62285714D01*
X102702380Y-62857142D02*
X101702380Y-62523809D01*
X102702380Y-62190476D01*
X100154761Y-64690476D02*
X100202380Y-64547619D01*
X100202380Y-64309523D01*
X100154761Y-64214285D01*
X100107142Y-64166666D01*
X100011904Y-64119047D01*
X99916666Y-64119047D01*
X99821428Y-64166666D01*
X99773809Y-64214285D01*
X99726190Y-64309523D01*
X99678571Y-64500000D01*
X99630952Y-64595238D01*
X99583333Y-64642857D01*
X99488095Y-64690476D01*
X99392857Y-64690476D01*
X99297619Y-64642857D01*
X99250000Y-64595238D01*
X99202380Y-64500000D01*
X99202380Y-64261904D01*
X99250000Y-64119047D01*
X100107142Y-63119047D02*
X100154761Y-63166666D01*
X100202380Y-63309523D01*
X100202380Y-63404761D01*
X100154761Y-63547619D01*
X100059523Y-63642857D01*
X99964285Y-63690476D01*
X99773809Y-63738095D01*
X99630952Y-63738095D01*
X99440476Y-63690476D01*
X99345238Y-63642857D01*
X99250000Y-63547619D01*
X99202380Y-63404761D01*
X99202380Y-63309523D01*
X99250000Y-63166666D01*
X99297619Y-63119047D01*
X100202380Y-62214285D02*
X100202380Y-62690476D01*
X99202380Y-62690476D01*
X94000000Y-64511904D02*
X93952380Y-64607142D01*
X93952380Y-64750000D01*
X94000000Y-64892857D01*
X94095238Y-64988095D01*
X94190476Y-65035714D01*
X94380952Y-65083333D01*
X94523809Y-65083333D01*
X94714285Y-65035714D01*
X94809523Y-64988095D01*
X94904761Y-64892857D01*
X94952380Y-64750000D01*
X94952380Y-64654761D01*
X94904761Y-64511904D01*
X94857142Y-64464285D01*
X94523809Y-64464285D01*
X94523809Y-64654761D01*
X94952380Y-64035714D02*
X93952380Y-64035714D01*
X94952380Y-63464285D01*
X93952380Y-63464285D01*
X94952380Y-62988095D02*
X93952380Y-62988095D01*
X93952380Y-62750000D01*
X94000000Y-62607142D01*
X94095238Y-62511904D01*
X94190476Y-62464285D01*
X94380952Y-62416666D01*
X94523809Y-62416666D01*
X94714285Y-62464285D01*
X94809523Y-62511904D01*
X94904761Y-62607142D01*
X94952380Y-62750000D01*
X94952380Y-62988095D01*
X96702380Y-64833333D02*
X97702380Y-64500000D01*
X96702380Y-64166666D01*
X97607142Y-63261904D02*
X97654761Y-63309523D01*
X97702380Y-63452380D01*
X97702380Y-63547619D01*
X97654761Y-63690476D01*
X97559523Y-63785714D01*
X97464285Y-63833333D01*
X97273809Y-63880952D01*
X97130952Y-63880952D01*
X96940476Y-63833333D01*
X96845238Y-63785714D01*
X96750000Y-63690476D01*
X96702380Y-63547619D01*
X96702380Y-63452380D01*
X96750000Y-63309523D01*
X96797619Y-63261904D01*
X97607142Y-62261904D02*
X97654761Y-62309523D01*
X97702380Y-62452380D01*
X97702380Y-62547619D01*
X97654761Y-62690476D01*
X97559523Y-62785714D01*
X97464285Y-62833333D01*
X97273809Y-62880952D01*
X97130952Y-62880952D01*
X96940476Y-62833333D01*
X96845238Y-62785714D01*
X96750000Y-62690476D01*
X96702380Y-62547619D01*
X96702380Y-62452380D01*
X96750000Y-62309523D01*
X96797619Y-62261904D01*
X90285714Y-58357142D02*
X90238095Y-58404761D01*
X90095238Y-58452380D01*
X90000000Y-58452380D01*
X89857142Y-58404761D01*
X89761904Y-58309523D01*
X89714285Y-58214285D01*
X89666666Y-58023809D01*
X89666666Y-57880952D01*
X89714285Y-57690476D01*
X89761904Y-57595238D01*
X89857142Y-57500000D01*
X90000000Y-57452380D01*
X90095238Y-57452380D01*
X90238095Y-57500000D01*
X90285714Y-57547619D01*
X90714285Y-58452380D02*
X90714285Y-57452380D01*
X90714285Y-57928571D02*
X91285714Y-57928571D01*
X91285714Y-58452380D02*
X91285714Y-57452380D01*
X92285714Y-57500000D02*
X92190476Y-57452380D01*
X92047619Y-57452380D01*
X91904761Y-57500000D01*
X91809523Y-57595238D01*
X91761904Y-57690476D01*
X91714285Y-57880952D01*
X91714285Y-58023809D01*
X91761904Y-58214285D01*
X91809523Y-58309523D01*
X91904761Y-58404761D01*
X92047619Y-58452380D01*
X92142857Y-58452380D01*
X92285714Y-58404761D01*
X92333333Y-58357142D01*
X92333333Y-58023809D01*
X92142857Y-58023809D01*
X87238095Y-57702380D02*
X87857142Y-57702380D01*
X87523809Y-58083333D01*
X87666666Y-58083333D01*
X87761904Y-58130952D01*
X87809523Y-58178571D01*
X87857142Y-58273809D01*
X87857142Y-58511904D01*
X87809523Y-58607142D01*
X87761904Y-58654761D01*
X87666666Y-58702380D01*
X87380952Y-58702380D01*
X87285714Y-58654761D01*
X87238095Y-58607142D01*
X88142857Y-57702380D02*
X88476190Y-58702380D01*
X88809523Y-57702380D01*
X115166666Y-93622380D02*
X115166666Y-94336666D01*
X115119047Y-94479523D01*
X115023809Y-94574761D01*
X114880952Y-94622380D01*
X114785714Y-94622380D01*
X115690476Y-94622380D02*
X115880952Y-94622380D01*
X115976190Y-94574761D01*
X116023809Y-94527142D01*
X116119047Y-94384285D01*
X116166666Y-94193809D01*
X116166666Y-93812857D01*
X116119047Y-93717619D01*
X116071428Y-93670000D01*
X115976190Y-93622380D01*
X115785714Y-93622380D01*
X115690476Y-93670000D01*
X115642857Y-93717619D01*
X115595238Y-93812857D01*
X115595238Y-94050952D01*
X115642857Y-94146190D01*
X115690476Y-94193809D01*
X115785714Y-94241428D01*
X115976190Y-94241428D01*
X116071428Y-94193809D01*
X116119047Y-94146190D01*
X116166666Y-94050952D01*
X72702380Y-68988095D02*
X73511904Y-68988095D01*
X73607142Y-68940476D01*
X73654761Y-68892857D01*
X73702380Y-68797619D01*
X73702380Y-68607142D01*
X73654761Y-68511904D01*
X73607142Y-68464285D01*
X73511904Y-68416666D01*
X72702380Y-68416666D01*
X73702380Y-67416666D02*
X73702380Y-67988095D01*
X73702380Y-67702380D02*
X72702380Y-67702380D01*
X72845238Y-67797619D01*
X72940476Y-67892857D01*
X72988095Y-67988095D01*
X72702380Y-67083333D02*
X72702380Y-66416666D01*
X73702380Y-66845238D01*
X79509523Y-68052380D02*
X79176190Y-67576190D01*
X78938095Y-68052380D02*
X78938095Y-67052380D01*
X79319047Y-67052380D01*
X79414285Y-67100000D01*
X79461904Y-67147619D01*
X79509523Y-67242857D01*
X79509523Y-67385714D01*
X79461904Y-67480952D01*
X79414285Y-67528571D01*
X79319047Y-67576190D01*
X78938095Y-67576190D01*
X79938095Y-68052380D02*
X79938095Y-67052380D01*
X80509523Y-68052380D01*
X80509523Y-67052380D01*
X80890476Y-67052380D02*
X81509523Y-67052380D01*
X81176190Y-67433333D01*
X81319047Y-67433333D01*
X81414285Y-67480952D01*
X81461904Y-67528571D01*
X81509523Y-67623809D01*
X81509523Y-67861904D01*
X81461904Y-67957142D01*
X81414285Y-68004761D01*
X81319047Y-68052380D01*
X81033333Y-68052380D01*
X80938095Y-68004761D01*
X80890476Y-67957142D01*
X84809523Y-57702380D02*
X84333333Y-57702380D01*
X84285714Y-58178571D01*
X84333333Y-58130952D01*
X84428571Y-58083333D01*
X84666666Y-58083333D01*
X84761904Y-58130952D01*
X84809523Y-58178571D01*
X84857142Y-58273809D01*
X84857142Y-58511904D01*
X84809523Y-58607142D01*
X84761904Y-58654761D01*
X84666666Y-58702380D01*
X84428571Y-58702380D01*
X84333333Y-58654761D01*
X84285714Y-58607142D01*
X85142857Y-57702380D02*
X85476190Y-58702380D01*
X85809523Y-57702380D01*
X72457142Y-62357142D02*
X72409523Y-62404761D01*
X72266666Y-62452380D01*
X72171428Y-62452380D01*
X72028571Y-62404761D01*
X71933333Y-62309523D01*
X71885714Y-62214285D01*
X71838095Y-62023809D01*
X71838095Y-61880952D01*
X71885714Y-61690476D01*
X71933333Y-61595238D01*
X72028571Y-61500000D01*
X72171428Y-61452380D01*
X72266666Y-61452380D01*
X72409523Y-61500000D01*
X72457142Y-61547619D01*
X72838095Y-61547619D02*
X72885714Y-61500000D01*
X72980952Y-61452380D01*
X73219047Y-61452380D01*
X73314285Y-61500000D01*
X73361904Y-61547619D01*
X73409523Y-61642857D01*
X73409523Y-61738095D01*
X73361904Y-61880952D01*
X72790476Y-62452380D01*
X73409523Y-62452380D01*
X73790476Y-61547619D02*
X73838095Y-61500000D01*
X73933333Y-61452380D01*
X74171428Y-61452380D01*
X74266666Y-61500000D01*
X74314285Y-61547619D01*
X74361904Y-61642857D01*
X74361904Y-61738095D01*
X74314285Y-61880952D01*
X73742857Y-62452380D01*
X74361904Y-62452380D01*
X88107142Y-68357142D02*
X88059523Y-68404761D01*
X87916666Y-68452380D01*
X87821428Y-68452380D01*
X87678571Y-68404761D01*
X87583333Y-68309523D01*
X87535714Y-68214285D01*
X87488095Y-68023809D01*
X87488095Y-67880952D01*
X87535714Y-67690476D01*
X87583333Y-67595238D01*
X87678571Y-67500000D01*
X87821428Y-67452380D01*
X87916666Y-67452380D01*
X88059523Y-67500000D01*
X88107142Y-67547619D01*
X88488095Y-67547619D02*
X88535714Y-67500000D01*
X88630952Y-67452380D01*
X88869047Y-67452380D01*
X88964285Y-67500000D01*
X89011904Y-67547619D01*
X89059523Y-67642857D01*
X89059523Y-67738095D01*
X89011904Y-67880952D01*
X88440476Y-68452380D01*
X89059523Y-68452380D01*
X90011904Y-68452380D02*
X89440476Y-68452380D01*
X89726190Y-68452380D02*
X89726190Y-67452380D01*
X89630952Y-67595238D01*
X89535714Y-67690476D01*
X89440476Y-67738095D01*
X84761904Y-66702380D02*
X84761904Y-67511904D01*
X84809523Y-67607142D01*
X84857142Y-67654761D01*
X84952380Y-67702380D01*
X85142857Y-67702380D01*
X85238095Y-67654761D01*
X85285714Y-67607142D01*
X85333333Y-67511904D01*
X85333333Y-66702380D01*
X86333333Y-67702380D02*
X85761904Y-67702380D01*
X86047619Y-67702380D02*
X86047619Y-66702380D01*
X85952380Y-66845238D01*
X85857142Y-66940476D01*
X85761904Y-66988095D01*
X87190476Y-66702380D02*
X87000000Y-66702380D01*
X86904761Y-66750000D01*
X86857142Y-66797619D01*
X86761904Y-66940476D01*
X86714285Y-67130952D01*
X86714285Y-67511904D01*
X86761904Y-67607142D01*
X86809523Y-67654761D01*
X86904761Y-67702380D01*
X87095238Y-67702380D01*
X87190476Y-67654761D01*
X87238095Y-67607142D01*
X87285714Y-67511904D01*
X87285714Y-67273809D01*
X87238095Y-67178571D01*
X87190476Y-67130952D01*
X87095238Y-67083333D01*
X86904761Y-67083333D01*
X86809523Y-67130952D01*
X86761904Y-67178571D01*
X86714285Y-67273809D01*
X89452380Y-108738095D02*
X90261904Y-108738095D01*
X90357142Y-108690476D01*
X90404761Y-108642857D01*
X90452380Y-108547619D01*
X90452380Y-108357142D01*
X90404761Y-108261904D01*
X90357142Y-108214285D01*
X90261904Y-108166666D01*
X89452380Y-108166666D01*
X90452380Y-107166666D02*
X90452380Y-107738095D01*
X90452380Y-107452380D02*
X89452380Y-107452380D01*
X89595238Y-107547619D01*
X89690476Y-107642857D01*
X89738095Y-107738095D01*
X89785714Y-106309523D02*
X90452380Y-106309523D01*
X89404761Y-106547619D02*
X90119047Y-106785714D01*
X90119047Y-106166666D01*
X83452380Y-61892857D02*
X82976190Y-62226190D01*
X83452380Y-62464285D02*
X82452380Y-62464285D01*
X82452380Y-62083333D01*
X82500000Y-61988095D01*
X82547619Y-61940476D01*
X82642857Y-61892857D01*
X82785714Y-61892857D01*
X82880952Y-61940476D01*
X82928571Y-61988095D01*
X82976190Y-62083333D01*
X82976190Y-62464285D01*
X82547619Y-61511904D02*
X82500000Y-61464285D01*
X82452380Y-61369047D01*
X82452380Y-61130952D01*
X82500000Y-61035714D01*
X82547619Y-60988095D01*
X82642857Y-60940476D01*
X82738095Y-60940476D01*
X82880952Y-60988095D01*
X83452380Y-61559523D01*
X83452380Y-60940476D01*
X82452380Y-60321428D02*
X82452380Y-60226190D01*
X82500000Y-60130952D01*
X82547619Y-60083333D01*
X82642857Y-60035714D01*
X82833333Y-59988095D01*
X83071428Y-59988095D01*
X83261904Y-60035714D01*
X83357142Y-60083333D01*
X83404761Y-60130952D01*
X83452380Y-60226190D01*
X83452380Y-60321428D01*
X83404761Y-60416666D01*
X83357142Y-60464285D01*
X83261904Y-60511904D01*
X83071428Y-60559523D01*
X82833333Y-60559523D01*
X82642857Y-60511904D01*
X82547619Y-60464285D01*
X82500000Y-60416666D01*
X82452380Y-60321428D01*
X92102380Y-65333333D02*
X92816666Y-65333333D01*
X92959523Y-65380952D01*
X93054761Y-65476190D01*
X93102380Y-65619047D01*
X93102380Y-65714285D01*
X93102380Y-64857142D02*
X92102380Y-64857142D01*
X92102380Y-64476190D01*
X92150000Y-64380952D01*
X92197619Y-64333333D01*
X92292857Y-64285714D01*
X92435714Y-64285714D01*
X92530952Y-64333333D01*
X92578571Y-64380952D01*
X92626190Y-64476190D01*
X92626190Y-64857142D01*
X92102380Y-63428571D02*
X92102380Y-63619047D01*
X92150000Y-63714285D01*
X92197619Y-63761904D01*
X92340476Y-63857142D01*
X92530952Y-63904761D01*
X92911904Y-63904761D01*
X93007142Y-63857142D01*
X93054761Y-63809523D01*
X93102380Y-63714285D01*
X93102380Y-63523809D01*
X93054761Y-63428571D01*
X93007142Y-63380952D01*
X92911904Y-63333333D01*
X92673809Y-63333333D01*
X92578571Y-63380952D01*
X92530952Y-63428571D01*
X92483333Y-63523809D01*
X92483333Y-63714285D01*
X92530952Y-63809523D01*
X92578571Y-63857142D01*
X92673809Y-63904761D01*
X92052380Y-60983333D02*
X92766666Y-60983333D01*
X92909523Y-61030952D01*
X93004761Y-61126190D01*
X93052380Y-61269047D01*
X93052380Y-61364285D01*
X93052380Y-60507142D02*
X92052380Y-60507142D01*
X92052380Y-60126190D01*
X92100000Y-60030952D01*
X92147619Y-59983333D01*
X92242857Y-59935714D01*
X92385714Y-59935714D01*
X92480952Y-59983333D01*
X92528571Y-60030952D01*
X92576190Y-60126190D01*
X92576190Y-60507142D01*
X92385714Y-59078571D02*
X93052380Y-59078571D01*
X92004761Y-59316666D02*
X92719047Y-59554761D01*
X92719047Y-58935714D01*
X82011904Y-59452380D02*
X82011904Y-58452380D01*
X82250000Y-58452380D01*
X82392857Y-58500000D01*
X82488095Y-58595238D01*
X82535714Y-58690476D01*
X82583333Y-58880952D01*
X82583333Y-59023809D01*
X82535714Y-59214285D01*
X82488095Y-59309523D01*
X82392857Y-59404761D01*
X82250000Y-59452380D01*
X82011904Y-59452380D01*
X83440476Y-58452380D02*
X83250000Y-58452380D01*
X83154761Y-58500000D01*
X83107142Y-58547619D01*
X83011904Y-58690476D01*
X82964285Y-58880952D01*
X82964285Y-59261904D01*
X83011904Y-59357142D01*
X83059523Y-59404761D01*
X83154761Y-59452380D01*
X83345238Y-59452380D01*
X83440476Y-59404761D01*
X83488095Y-59357142D01*
X83535714Y-59261904D01*
X83535714Y-59023809D01*
X83488095Y-58928571D01*
X83440476Y-58880952D01*
X83345238Y-58833333D01*
X83154761Y-58833333D01*
X83059523Y-58880952D01*
X83011904Y-58928571D01*
X82964285Y-59023809D01*
X80857142Y-61892857D02*
X80904761Y-61940476D01*
X80952380Y-62083333D01*
X80952380Y-62178571D01*
X80904761Y-62321428D01*
X80809523Y-62416666D01*
X80714285Y-62464285D01*
X80523809Y-62511904D01*
X80380952Y-62511904D01*
X80190476Y-62464285D01*
X80095238Y-62416666D01*
X80000000Y-62321428D01*
X79952380Y-62178571D01*
X79952380Y-62083333D01*
X80000000Y-61940476D01*
X80047619Y-61892857D01*
X80047619Y-61511904D02*
X80000000Y-61464285D01*
X79952380Y-61369047D01*
X79952380Y-61130952D01*
X80000000Y-61035714D01*
X80047619Y-60988095D01*
X80142857Y-60940476D01*
X80238095Y-60940476D01*
X80380952Y-60988095D01*
X80952380Y-61559523D01*
X80952380Y-60940476D01*
X79952380Y-60321428D02*
X79952380Y-60226190D01*
X80000000Y-60130952D01*
X80047619Y-60083333D01*
X80142857Y-60035714D01*
X80333333Y-59988095D01*
X80571428Y-59988095D01*
X80761904Y-60035714D01*
X80857142Y-60083333D01*
X80904761Y-60130952D01*
X80952380Y-60226190D01*
X80952380Y-60321428D01*
X80904761Y-60416666D01*
X80857142Y-60464285D01*
X80761904Y-60511904D01*
X80571428Y-60559523D01*
X80333333Y-60559523D01*
X80142857Y-60511904D01*
X80047619Y-60464285D01*
X80000000Y-60416666D01*
X79952380Y-60321428D01*
X105059523Y-63952380D02*
X104726190Y-63476190D01*
X104488095Y-63952380D02*
X104488095Y-62952380D01*
X104869047Y-62952380D01*
X104964285Y-63000000D01*
X105011904Y-63047619D01*
X105059523Y-63142857D01*
X105059523Y-63285714D01*
X105011904Y-63380952D01*
X104964285Y-63428571D01*
X104869047Y-63476190D01*
X104488095Y-63476190D01*
X105488095Y-63952380D02*
X105488095Y-62952380D01*
X106059523Y-63952380D01*
X106059523Y-62952380D01*
X107011904Y-62952380D02*
X106535714Y-62952380D01*
X106488095Y-63428571D01*
X106535714Y-63380952D01*
X106630952Y-63333333D01*
X106869047Y-63333333D01*
X106964285Y-63380952D01*
X107011904Y-63428571D01*
X107059523Y-63523809D01*
X107059523Y-63761904D01*
X107011904Y-63857142D01*
X106964285Y-63904761D01*
X106869047Y-63952380D01*
X106630952Y-63952380D01*
X106535714Y-63904761D01*
X106488095Y-63857142D01*
X105059523Y-65202380D02*
X104726190Y-64726190D01*
X104488095Y-65202380D02*
X104488095Y-64202380D01*
X104869047Y-64202380D01*
X104964285Y-64250000D01*
X105011904Y-64297619D01*
X105059523Y-64392857D01*
X105059523Y-64535714D01*
X105011904Y-64630952D01*
X104964285Y-64678571D01*
X104869047Y-64726190D01*
X104488095Y-64726190D01*
X105488095Y-65202380D02*
X105488095Y-64202380D01*
X106059523Y-65202380D01*
X106059523Y-64202380D01*
X106964285Y-64535714D02*
X106964285Y-65202380D01*
X106726190Y-64154761D02*
X106488095Y-64869047D01*
X107107142Y-64869047D01*
X58537142Y-64642857D02*
X58584761Y-64690476D01*
X58632380Y-64833333D01*
X58632380Y-64928571D01*
X58584761Y-65071428D01*
X58489523Y-65166666D01*
X58394285Y-65214285D01*
X58203809Y-65261904D01*
X58060952Y-65261904D01*
X57870476Y-65214285D01*
X57775238Y-65166666D01*
X57680000Y-65071428D01*
X57632380Y-64928571D01*
X57632380Y-64833333D01*
X57680000Y-64690476D01*
X57727619Y-64642857D01*
X58632380Y-63690476D02*
X58632380Y-64261904D01*
X58632380Y-63976190D02*
X57632380Y-63976190D01*
X57775238Y-64071428D01*
X57870476Y-64166666D01*
X57918095Y-64261904D01*
X58632380Y-63214285D02*
X58632380Y-63023809D01*
X58584761Y-62928571D01*
X58537142Y-62880952D01*
X58394285Y-62785714D01*
X58203809Y-62738095D01*
X57822857Y-62738095D01*
X57727619Y-62785714D01*
X57680000Y-62833333D01*
X57632380Y-62928571D01*
X57632380Y-63119047D01*
X57680000Y-63214285D01*
X57727619Y-63261904D01*
X57822857Y-63309523D01*
X58060952Y-63309523D01*
X58156190Y-63261904D01*
X58203809Y-63214285D01*
X58251428Y-63119047D01*
X58251428Y-62928571D01*
X58203809Y-62833333D01*
X58156190Y-62785714D01*
X58060952Y-62738095D01*
X79452380Y-79238095D02*
X80261904Y-79238095D01*
X80357142Y-79190476D01*
X80404761Y-79142857D01*
X80452380Y-79047619D01*
X80452380Y-78857142D01*
X80404761Y-78761904D01*
X80357142Y-78714285D01*
X80261904Y-78666666D01*
X79452380Y-78666666D01*
X80452380Y-77666666D02*
X80452380Y-78238095D01*
X80452380Y-77952380D02*
X79452380Y-77952380D01*
X79595238Y-78047619D01*
X79690476Y-78142857D01*
X79738095Y-78238095D01*
X80452380Y-76714285D02*
X80452380Y-77285714D01*
X80452380Y-77000000D02*
X79452380Y-77000000D01*
X79595238Y-77095238D01*
X79690476Y-77190476D01*
X79738095Y-77285714D01*
X84652380Y-71833333D02*
X85366666Y-71833333D01*
X85509523Y-71880952D01*
X85604761Y-71976190D01*
X85652380Y-72119047D01*
X85652380Y-72214285D01*
X85652380Y-71357142D02*
X84652380Y-71357142D01*
X84652380Y-70976190D01*
X84700000Y-70880952D01*
X84747619Y-70833333D01*
X84842857Y-70785714D01*
X84985714Y-70785714D01*
X85080952Y-70833333D01*
X85128571Y-70880952D01*
X85176190Y-70976190D01*
X85176190Y-71357142D01*
X84652380Y-69880952D02*
X84652380Y-70357142D01*
X85128571Y-70404761D01*
X85080952Y-70357142D01*
X85033333Y-70261904D01*
X85033333Y-70023809D01*
X85080952Y-69928571D01*
X85128571Y-69880952D01*
X85223809Y-69833333D01*
X85461904Y-69833333D01*
X85557142Y-69880952D01*
X85604761Y-69928571D01*
X85652380Y-70023809D01*
X85652380Y-70261904D01*
X85604761Y-70357142D01*
X85557142Y-70404761D01*
X88702380Y-71833333D02*
X89416666Y-71833333D01*
X89559523Y-71880952D01*
X89654761Y-71976190D01*
X89702380Y-72119047D01*
X89702380Y-72214285D01*
X89702380Y-71357142D02*
X88702380Y-71357142D01*
X88702380Y-70976190D01*
X88750000Y-70880952D01*
X88797619Y-70833333D01*
X88892857Y-70785714D01*
X89035714Y-70785714D01*
X89130952Y-70833333D01*
X89178571Y-70880952D01*
X89226190Y-70976190D01*
X89226190Y-71357142D01*
X88702380Y-70452380D02*
X88702380Y-69833333D01*
X89083333Y-70166666D01*
X89083333Y-70023809D01*
X89130952Y-69928571D01*
X89178571Y-69880952D01*
X89273809Y-69833333D01*
X89511904Y-69833333D01*
X89607142Y-69880952D01*
X89654761Y-69928571D01*
X89702380Y-70023809D01*
X89702380Y-70309523D01*
X89654761Y-70404761D01*
X89607142Y-70452380D01*
X92287142Y-76142857D02*
X92334761Y-76190476D01*
X92382380Y-76333333D01*
X92382380Y-76428571D01*
X92334761Y-76571428D01*
X92239523Y-76666666D01*
X92144285Y-76714285D01*
X91953809Y-76761904D01*
X91810952Y-76761904D01*
X91620476Y-76714285D01*
X91525238Y-76666666D01*
X91430000Y-76571428D01*
X91382380Y-76428571D01*
X91382380Y-76333333D01*
X91430000Y-76190476D01*
X91477619Y-76142857D01*
X92382380Y-75190476D02*
X92382380Y-75761904D01*
X92382380Y-75476190D02*
X91382380Y-75476190D01*
X91525238Y-75571428D01*
X91620476Y-75666666D01*
X91668095Y-75761904D01*
X91810952Y-74619047D02*
X91763333Y-74714285D01*
X91715714Y-74761904D01*
X91620476Y-74809523D01*
X91572857Y-74809523D01*
X91477619Y-74761904D01*
X91430000Y-74714285D01*
X91382380Y-74619047D01*
X91382380Y-74428571D01*
X91430000Y-74333333D01*
X91477619Y-74285714D01*
X91572857Y-74238095D01*
X91620476Y-74238095D01*
X91715714Y-74285714D01*
X91763333Y-74333333D01*
X91810952Y-74428571D01*
X91810952Y-74619047D01*
X91858571Y-74714285D01*
X91906190Y-74761904D01*
X92001428Y-74809523D01*
X92191904Y-74809523D01*
X92287142Y-74761904D01*
X92334761Y-74714285D01*
X92382380Y-74619047D01*
X92382380Y-74428571D01*
X92334761Y-74333333D01*
X92287142Y-74285714D01*
X92191904Y-74238095D01*
X92001428Y-74238095D01*
X91906190Y-74285714D01*
X91858571Y-74333333D01*
X91810952Y-74428571D01*
X89337142Y-76142857D02*
X89384761Y-76190476D01*
X89432380Y-76333333D01*
X89432380Y-76428571D01*
X89384761Y-76571428D01*
X89289523Y-76666666D01*
X89194285Y-76714285D01*
X89003809Y-76761904D01*
X88860952Y-76761904D01*
X88670476Y-76714285D01*
X88575238Y-76666666D01*
X88480000Y-76571428D01*
X88432380Y-76428571D01*
X88432380Y-76333333D01*
X88480000Y-76190476D01*
X88527619Y-76142857D01*
X89432380Y-75190476D02*
X89432380Y-75761904D01*
X89432380Y-75476190D02*
X88432380Y-75476190D01*
X88575238Y-75571428D01*
X88670476Y-75666666D01*
X88718095Y-75761904D01*
X88432380Y-74857142D02*
X88432380Y-74190476D01*
X89432380Y-74619047D01*
X101476190Y-72476190D02*
X101952380Y-72476190D01*
X100952380Y-72809523D02*
X101476190Y-72476190D01*
X100952380Y-72142857D01*
X101952380Y-71285714D02*
X101952380Y-71857142D01*
X101952380Y-71571428D02*
X100952380Y-71571428D01*
X101095238Y-71666666D01*
X101190476Y-71761904D01*
X101238095Y-71857142D01*
X104702380Y-72761904D02*
X105511904Y-72761904D01*
X105607142Y-72714285D01*
X105654761Y-72666666D01*
X105702380Y-72571428D01*
X105702380Y-72380952D01*
X105654761Y-72285714D01*
X105607142Y-72238095D01*
X105511904Y-72190476D01*
X104702380Y-72190476D01*
X104702380Y-71809523D02*
X104702380Y-71142857D01*
X105702380Y-71571428D01*
X61702380Y-77761904D02*
X62511904Y-77761904D01*
X62607142Y-77714285D01*
X62654761Y-77666666D01*
X62702380Y-77571428D01*
X62702380Y-77380952D01*
X62654761Y-77285714D01*
X62607142Y-77238095D01*
X62511904Y-77190476D01*
X61702380Y-77190476D01*
X62035714Y-76285714D02*
X62702380Y-76285714D01*
X61654761Y-76523809D02*
X62369047Y-76761904D01*
X62369047Y-76142857D01*
X58488095Y-97452380D02*
X58488095Y-98261904D01*
X58535714Y-98357142D01*
X58583333Y-98404761D01*
X58678571Y-98452380D01*
X58869047Y-98452380D01*
X58964285Y-98404761D01*
X59011904Y-98357142D01*
X59059523Y-98261904D01*
X59059523Y-97452380D01*
X59488095Y-97547619D02*
X59535714Y-97500000D01*
X59630952Y-97452380D01*
X59869047Y-97452380D01*
X59964285Y-97500000D01*
X60011904Y-97547619D01*
X60059523Y-97642857D01*
X60059523Y-97738095D01*
X60011904Y-97880952D01*
X59440476Y-98452380D01*
X60059523Y-98452380D01*
X60702380Y-69761904D02*
X61511904Y-69761904D01*
X61607142Y-69714285D01*
X61654761Y-69666666D01*
X61702380Y-69571428D01*
X61702380Y-69380952D01*
X61654761Y-69285714D01*
X61607142Y-69238095D01*
X61511904Y-69190476D01*
X60702380Y-69190476D01*
X61702380Y-68190476D02*
X61702380Y-68761904D01*
X61702380Y-68476190D02*
X60702380Y-68476190D01*
X60845238Y-68571428D01*
X60940476Y-68666666D01*
X60988095Y-68761904D01*
X75154761Y-94833333D02*
X75202380Y-94690476D01*
X75202380Y-94452380D01*
X75154761Y-94357142D01*
X75107142Y-94309523D01*
X75011904Y-94261904D01*
X74916666Y-94261904D01*
X74821428Y-94309523D01*
X74773809Y-94357142D01*
X74726190Y-94452380D01*
X74678571Y-94642857D01*
X74630952Y-94738095D01*
X74583333Y-94785714D01*
X74488095Y-94833333D01*
X74392857Y-94833333D01*
X74297619Y-94785714D01*
X74250000Y-94738095D01*
X74202380Y-94642857D01*
X74202380Y-94404761D01*
X74250000Y-94261904D01*
X74202380Y-93928571D02*
X75202380Y-93690476D01*
X74488095Y-93500000D01*
X75202380Y-93309523D01*
X74202380Y-93071428D01*
X74297619Y-92738095D02*
X74250000Y-92690476D01*
X74202380Y-92595238D01*
X74202380Y-92357142D01*
X74250000Y-92261904D01*
X74297619Y-92214285D01*
X74392857Y-92166666D01*
X74488095Y-92166666D01*
X74630952Y-92214285D01*
X75202380Y-92785714D01*
X75202380Y-92166666D01*
X68154761Y-94833333D02*
X68202380Y-94690476D01*
X68202380Y-94452380D01*
X68154761Y-94357142D01*
X68107142Y-94309523D01*
X68011904Y-94261904D01*
X67916666Y-94261904D01*
X67821428Y-94309523D01*
X67773809Y-94357142D01*
X67726190Y-94452380D01*
X67678571Y-94642857D01*
X67630952Y-94738095D01*
X67583333Y-94785714D01*
X67488095Y-94833333D01*
X67392857Y-94833333D01*
X67297619Y-94785714D01*
X67250000Y-94738095D01*
X67202380Y-94642857D01*
X67202380Y-94404761D01*
X67250000Y-94261904D01*
X67202380Y-93928571D02*
X68202380Y-93690476D01*
X67488095Y-93500000D01*
X68202380Y-93309523D01*
X67202380Y-93071428D01*
X68202380Y-92166666D02*
X68202380Y-92738095D01*
X68202380Y-92452380D02*
X67202380Y-92452380D01*
X67345238Y-92547619D01*
X67440476Y-92642857D01*
X67488095Y-92738095D01*
X65509523Y-80052380D02*
X65176190Y-79576190D01*
X64938095Y-80052380D02*
X64938095Y-79052380D01*
X65319047Y-79052380D01*
X65414285Y-79100000D01*
X65461904Y-79147619D01*
X65509523Y-79242857D01*
X65509523Y-79385714D01*
X65461904Y-79480952D01*
X65414285Y-79528571D01*
X65319047Y-79576190D01*
X64938095Y-79576190D01*
X65938095Y-80052380D02*
X65938095Y-79052380D01*
X66509523Y-80052380D01*
X66509523Y-79052380D01*
X66938095Y-79147619D02*
X66985714Y-79100000D01*
X67080952Y-79052380D01*
X67319047Y-79052380D01*
X67414285Y-79100000D01*
X67461904Y-79147619D01*
X67509523Y-79242857D01*
X67509523Y-79338095D01*
X67461904Y-79480952D01*
X66890476Y-80052380D01*
X67509523Y-80052380D01*
X64202380Y-64440476D02*
X63726190Y-64773809D01*
X64202380Y-65011904D02*
X63202380Y-65011904D01*
X63202380Y-64630952D01*
X63250000Y-64535714D01*
X63297619Y-64488095D01*
X63392857Y-64440476D01*
X63535714Y-64440476D01*
X63630952Y-64488095D01*
X63678571Y-64535714D01*
X63726190Y-64630952D01*
X63726190Y-65011904D01*
X64202380Y-64011904D02*
X63202380Y-64011904D01*
X64202380Y-63440476D01*
X63202380Y-63440476D01*
X64202380Y-62440476D02*
X64202380Y-63011904D01*
X64202380Y-62726190D02*
X63202380Y-62726190D01*
X63345238Y-62821428D01*
X63440476Y-62916666D01*
X63488095Y-63011904D01*
X110222380Y-84142857D02*
X109746190Y-84476190D01*
X110222380Y-84714285D02*
X109222380Y-84714285D01*
X109222380Y-84333333D01*
X109270000Y-84238095D01*
X109317619Y-84190476D01*
X109412857Y-84142857D01*
X109555714Y-84142857D01*
X109650952Y-84190476D01*
X109698571Y-84238095D01*
X109746190Y-84333333D01*
X109746190Y-84714285D01*
X110222380Y-83190476D02*
X110222380Y-83761904D01*
X110222380Y-83476190D02*
X109222380Y-83476190D01*
X109365238Y-83571428D01*
X109460476Y-83666666D01*
X109508095Y-83761904D01*
X109650952Y-82619047D02*
X109603333Y-82714285D01*
X109555714Y-82761904D01*
X109460476Y-82809523D01*
X109412857Y-82809523D01*
X109317619Y-82761904D01*
X109270000Y-82714285D01*
X109222380Y-82619047D01*
X109222380Y-82428571D01*
X109270000Y-82333333D01*
X109317619Y-82285714D01*
X109412857Y-82238095D01*
X109460476Y-82238095D01*
X109555714Y-82285714D01*
X109603333Y-82333333D01*
X109650952Y-82428571D01*
X109650952Y-82619047D01*
X109698571Y-82714285D01*
X109746190Y-82761904D01*
X109841428Y-82809523D01*
X110031904Y-82809523D01*
X110127142Y-82761904D01*
X110174761Y-82714285D01*
X110222380Y-82619047D01*
X110222380Y-82428571D01*
X110174761Y-82333333D01*
X110127142Y-82285714D01*
X110031904Y-82238095D01*
X109841428Y-82238095D01*
X109746190Y-82285714D01*
X109698571Y-82333333D01*
X109650952Y-82428571D01*
X78452380Y-91142857D02*
X77976190Y-91476190D01*
X78452380Y-91714285D02*
X77452380Y-91714285D01*
X77452380Y-91333333D01*
X77500000Y-91238095D01*
X77547619Y-91190476D01*
X77642857Y-91142857D01*
X77785714Y-91142857D01*
X77880952Y-91190476D01*
X77928571Y-91238095D01*
X77976190Y-91333333D01*
X77976190Y-91714285D01*
X78452380Y-90190476D02*
X78452380Y-90761904D01*
X78452380Y-90476190D02*
X77452380Y-90476190D01*
X77595238Y-90571428D01*
X77690476Y-90666666D01*
X77738095Y-90761904D01*
X77452380Y-89333333D02*
X77452380Y-89523809D01*
X77500000Y-89619047D01*
X77547619Y-89666666D01*
X77690476Y-89761904D01*
X77880952Y-89809523D01*
X78261904Y-89809523D01*
X78357142Y-89761904D01*
X78404761Y-89714285D01*
X78452380Y-89619047D01*
X78452380Y-89428571D01*
X78404761Y-89333333D01*
X78357142Y-89285714D01*
X78261904Y-89238095D01*
X78023809Y-89238095D01*
X77928571Y-89285714D01*
X77880952Y-89333333D01*
X77833333Y-89428571D01*
X77833333Y-89619047D01*
X77880952Y-89714285D01*
X77928571Y-89761904D01*
X78023809Y-89809523D01*
X111222380Y-89367857D02*
X110746190Y-89701190D01*
X111222380Y-89939285D02*
X110222380Y-89939285D01*
X110222380Y-89558333D01*
X110270000Y-89463095D01*
X110317619Y-89415476D01*
X110412857Y-89367857D01*
X110555714Y-89367857D01*
X110650952Y-89415476D01*
X110698571Y-89463095D01*
X110746190Y-89558333D01*
X110746190Y-89939285D01*
X111222380Y-88415476D02*
X111222380Y-88986904D01*
X111222380Y-88701190D02*
X110222380Y-88701190D01*
X110365238Y-88796428D01*
X110460476Y-88891666D01*
X110508095Y-88986904D01*
X110222380Y-87510714D02*
X110222380Y-87986904D01*
X110698571Y-88034523D01*
X110650952Y-87986904D01*
X110603333Y-87891666D01*
X110603333Y-87653571D01*
X110650952Y-87558333D01*
X110698571Y-87510714D01*
X110793809Y-87463095D01*
X111031904Y-87463095D01*
X111127142Y-87510714D01*
X111174761Y-87558333D01*
X111222380Y-87653571D01*
X111222380Y-87891666D01*
X111174761Y-87986904D01*
X111127142Y-88034523D01*
X71452380Y-91142857D02*
X70976190Y-91476190D01*
X71452380Y-91714285D02*
X70452380Y-91714285D01*
X70452380Y-91333333D01*
X70500000Y-91238095D01*
X70547619Y-91190476D01*
X70642857Y-91142857D01*
X70785714Y-91142857D01*
X70880952Y-91190476D01*
X70928571Y-91238095D01*
X70976190Y-91333333D01*
X70976190Y-91714285D01*
X71452380Y-90190476D02*
X71452380Y-90761904D01*
X71452380Y-90476190D02*
X70452380Y-90476190D01*
X70595238Y-90571428D01*
X70690476Y-90666666D01*
X70738095Y-90761904D01*
X70785714Y-89333333D02*
X71452380Y-89333333D01*
X70404761Y-89571428D02*
X71119047Y-89809523D01*
X71119047Y-89190476D01*
X115952380Y-92642857D02*
X115476190Y-92976190D01*
X115952380Y-93214285D02*
X114952380Y-93214285D01*
X114952380Y-92833333D01*
X115000000Y-92738095D01*
X115047619Y-92690476D01*
X115142857Y-92642857D01*
X115285714Y-92642857D01*
X115380952Y-92690476D01*
X115428571Y-92738095D01*
X115476190Y-92833333D01*
X115476190Y-93214285D01*
X115952380Y-91690476D02*
X115952380Y-92261904D01*
X115952380Y-91976190D02*
X114952380Y-91976190D01*
X115095238Y-92071428D01*
X115190476Y-92166666D01*
X115238095Y-92261904D01*
X114952380Y-91357142D02*
X114952380Y-90738095D01*
X115333333Y-91071428D01*
X115333333Y-90928571D01*
X115380952Y-90833333D01*
X115428571Y-90785714D01*
X115523809Y-90738095D01*
X115761904Y-90738095D01*
X115857142Y-90785714D01*
X115904761Y-90833333D01*
X115952380Y-90928571D01*
X115952380Y-91214285D01*
X115904761Y-91309523D01*
X115857142Y-91357142D01*
X84857142Y-102022380D02*
X84523809Y-101546190D01*
X84285714Y-102022380D02*
X84285714Y-101022380D01*
X84666666Y-101022380D01*
X84761904Y-101070000D01*
X84809523Y-101117619D01*
X84857142Y-101212857D01*
X84857142Y-101355714D01*
X84809523Y-101450952D01*
X84761904Y-101498571D01*
X84666666Y-101546190D01*
X84285714Y-101546190D01*
X85809523Y-102022380D02*
X85238095Y-102022380D01*
X85523809Y-102022380D02*
X85523809Y-101022380D01*
X85428571Y-101165238D01*
X85333333Y-101260476D01*
X85238095Y-101308095D01*
X86190476Y-101117619D02*
X86238095Y-101070000D01*
X86333333Y-101022380D01*
X86571428Y-101022380D01*
X86666666Y-101070000D01*
X86714285Y-101117619D01*
X86761904Y-101212857D01*
X86761904Y-101308095D01*
X86714285Y-101450952D01*
X86142857Y-102022380D01*
X86761904Y-102022380D01*
X90482380Y-80542857D02*
X90006190Y-80876190D01*
X90482380Y-81114285D02*
X89482380Y-81114285D01*
X89482380Y-80733333D01*
X89530000Y-80638095D01*
X89577619Y-80590476D01*
X89672857Y-80542857D01*
X89815714Y-80542857D01*
X89910952Y-80590476D01*
X89958571Y-80638095D01*
X90006190Y-80733333D01*
X90006190Y-81114285D01*
X90482380Y-79590476D02*
X90482380Y-80161904D01*
X90482380Y-79876190D02*
X89482380Y-79876190D01*
X89625238Y-79971428D01*
X89720476Y-80066666D01*
X89768095Y-80161904D01*
X89482380Y-78971428D02*
X89482380Y-78876190D01*
X89530000Y-78780952D01*
X89577619Y-78733333D01*
X89672857Y-78685714D01*
X89863333Y-78638095D01*
X90101428Y-78638095D01*
X90291904Y-78685714D01*
X90387142Y-78733333D01*
X90434761Y-78780952D01*
X90482380Y-78876190D01*
X90482380Y-78971428D01*
X90434761Y-79066666D01*
X90387142Y-79114285D01*
X90291904Y-79161904D01*
X90101428Y-79209523D01*
X89863333Y-79209523D01*
X89672857Y-79161904D01*
X89577619Y-79114285D01*
X89530000Y-79066666D01*
X89482380Y-78971428D01*
X82202380Y-91166666D02*
X81726190Y-91500000D01*
X82202380Y-91738095D02*
X81202380Y-91738095D01*
X81202380Y-91357142D01*
X81250000Y-91261904D01*
X81297619Y-91214285D01*
X81392857Y-91166666D01*
X81535714Y-91166666D01*
X81630952Y-91214285D01*
X81678571Y-91261904D01*
X81726190Y-91357142D01*
X81726190Y-91738095D01*
X82202380Y-90690476D02*
X82202380Y-90500000D01*
X82154761Y-90404761D01*
X82107142Y-90357142D01*
X81964285Y-90261904D01*
X81773809Y-90214285D01*
X81392857Y-90214285D01*
X81297619Y-90261904D01*
X81250000Y-90309523D01*
X81202380Y-90404761D01*
X81202380Y-90595238D01*
X81250000Y-90690476D01*
X81297619Y-90738095D01*
X81392857Y-90785714D01*
X81630952Y-90785714D01*
X81726190Y-90738095D01*
X81773809Y-90690476D01*
X81821428Y-90595238D01*
X81821428Y-90404761D01*
X81773809Y-90309523D01*
X81726190Y-90261904D01*
X81630952Y-90214285D01*
X110952380Y-92666666D02*
X110476190Y-93000000D01*
X110952380Y-93238095D02*
X109952380Y-93238095D01*
X109952380Y-92857142D01*
X110000000Y-92761904D01*
X110047619Y-92714285D01*
X110142857Y-92666666D01*
X110285714Y-92666666D01*
X110380952Y-92714285D01*
X110428571Y-92761904D01*
X110476190Y-92857142D01*
X110476190Y-93238095D01*
X110380952Y-92095238D02*
X110333333Y-92190476D01*
X110285714Y-92238095D01*
X110190476Y-92285714D01*
X110142857Y-92285714D01*
X110047619Y-92238095D01*
X110000000Y-92190476D01*
X109952380Y-92095238D01*
X109952380Y-91904761D01*
X110000000Y-91809523D01*
X110047619Y-91761904D01*
X110142857Y-91714285D01*
X110190476Y-91714285D01*
X110285714Y-91761904D01*
X110333333Y-91809523D01*
X110380952Y-91904761D01*
X110380952Y-92095238D01*
X110428571Y-92190476D01*
X110476190Y-92238095D01*
X110571428Y-92285714D01*
X110761904Y-92285714D01*
X110857142Y-92238095D01*
X110904761Y-92190476D01*
X110952380Y-92095238D01*
X110952380Y-91904761D01*
X110904761Y-91809523D01*
X110857142Y-91761904D01*
X110761904Y-91714285D01*
X110571428Y-91714285D01*
X110476190Y-91761904D01*
X110428571Y-91809523D01*
X110380952Y-91904761D01*
X89333333Y-85452380D02*
X89000000Y-84976190D01*
X88761904Y-85452380D02*
X88761904Y-84452380D01*
X89142857Y-84452380D01*
X89238095Y-84500000D01*
X89285714Y-84547619D01*
X89333333Y-84642857D01*
X89333333Y-84785714D01*
X89285714Y-84880952D01*
X89238095Y-84928571D01*
X89142857Y-84976190D01*
X88761904Y-84976190D01*
X89666666Y-84452380D02*
X90333333Y-84452380D01*
X89904761Y-85452380D01*
X89333333Y-87702380D02*
X89000000Y-87226190D01*
X88761904Y-87702380D02*
X88761904Y-86702380D01*
X89142857Y-86702380D01*
X89238095Y-86750000D01*
X89285714Y-86797619D01*
X89333333Y-86892857D01*
X89333333Y-87035714D01*
X89285714Y-87130952D01*
X89238095Y-87178571D01*
X89142857Y-87226190D01*
X88761904Y-87226190D01*
X90190476Y-86702380D02*
X90000000Y-86702380D01*
X89904761Y-86750000D01*
X89857142Y-86797619D01*
X89761904Y-86940476D01*
X89714285Y-87130952D01*
X89714285Y-87511904D01*
X89761904Y-87607142D01*
X89809523Y-87654761D01*
X89904761Y-87702380D01*
X90095238Y-87702380D01*
X90190476Y-87654761D01*
X90238095Y-87607142D01*
X90285714Y-87511904D01*
X90285714Y-87273809D01*
X90238095Y-87178571D01*
X90190476Y-87130952D01*
X90095238Y-87083333D01*
X89904761Y-87083333D01*
X89809523Y-87130952D01*
X89761904Y-87178571D01*
X89714285Y-87273809D01*
X67128380Y-59602666D02*
X66652190Y-59936000D01*
X67128380Y-60174095D02*
X66128380Y-60174095D01*
X66128380Y-59793142D01*
X66176000Y-59697904D01*
X66223619Y-59650285D01*
X66318857Y-59602666D01*
X66461714Y-59602666D01*
X66556952Y-59650285D01*
X66604571Y-59697904D01*
X66652190Y-59793142D01*
X66652190Y-60174095D01*
X66128380Y-59269333D02*
X66128380Y-58650285D01*
X66509333Y-58983619D01*
X66509333Y-58840761D01*
X66556952Y-58745523D01*
X66604571Y-58697904D01*
X66699809Y-58650285D01*
X66937904Y-58650285D01*
X67033142Y-58697904D01*
X67080761Y-58745523D01*
X67128380Y-58840761D01*
X67128380Y-59126476D01*
X67080761Y-59221714D01*
X67033142Y-59269333D01*
X73202380Y-59666666D02*
X72726190Y-60000000D01*
X73202380Y-60238095D02*
X72202380Y-60238095D01*
X72202380Y-59857142D01*
X72250000Y-59761904D01*
X72297619Y-59714285D01*
X72392857Y-59666666D01*
X72535714Y-59666666D01*
X72630952Y-59714285D01*
X72678571Y-59761904D01*
X72726190Y-59857142D01*
X72726190Y-60238095D01*
X72297619Y-59285714D02*
X72250000Y-59238095D01*
X72202380Y-59142857D01*
X72202380Y-58904761D01*
X72250000Y-58809523D01*
X72297619Y-58761904D01*
X72392857Y-58714285D01*
X72488095Y-58714285D01*
X72630952Y-58761904D01*
X73202380Y-59333333D01*
X73202380Y-58714285D01*
X64083333Y-98702380D02*
X63750000Y-98226190D01*
X63511904Y-98702380D02*
X63511904Y-97702380D01*
X63892857Y-97702380D01*
X63988095Y-97750000D01*
X64035714Y-97797619D01*
X64083333Y-97892857D01*
X64083333Y-98035714D01*
X64035714Y-98130952D01*
X63988095Y-98178571D01*
X63892857Y-98226190D01*
X63511904Y-98226190D01*
X65035714Y-98702380D02*
X64464285Y-98702380D01*
X64750000Y-98702380D02*
X64750000Y-97702380D01*
X64654761Y-97845238D01*
X64559523Y-97940476D01*
X64464285Y-97988095D01*
X116547619Y-83595238D02*
X116500000Y-83690476D01*
X116404761Y-83785714D01*
X116261904Y-83928571D01*
X116214285Y-84023809D01*
X116214285Y-84119047D01*
X116452380Y-84071428D02*
X116404761Y-84166666D01*
X116309523Y-84261904D01*
X116119047Y-84309523D01*
X115785714Y-84309523D01*
X115595238Y-84261904D01*
X115500000Y-84166666D01*
X115452380Y-84071428D01*
X115452380Y-83880952D01*
X115500000Y-83785714D01*
X115595238Y-83690476D01*
X115785714Y-83642857D01*
X116119047Y-83642857D01*
X116309523Y-83690476D01*
X116404761Y-83785714D01*
X116452380Y-83880952D01*
X116452380Y-84071428D01*
X116452380Y-82690476D02*
X116452380Y-83261904D01*
X116452380Y-82976190D02*
X115452380Y-82976190D01*
X115595238Y-83071428D01*
X115690476Y-83166666D01*
X115738095Y-83261904D01*
X62117166Y-87152380D02*
X62117166Y-87866666D01*
X62069547Y-88009523D01*
X61974309Y-88104761D01*
X61831452Y-88152380D01*
X61736214Y-88152380D01*
X62593357Y-88152380D02*
X62593357Y-87152380D01*
X62974309Y-87152380D01*
X63069547Y-87200000D01*
X63117166Y-87247619D01*
X63164785Y-87342857D01*
X63164785Y-87485714D01*
X63117166Y-87580952D01*
X63069547Y-87628571D01*
X62974309Y-87676190D01*
X62593357Y-87676190D01*
X63545738Y-87247619D02*
X63593357Y-87200000D01*
X63688595Y-87152380D01*
X63926690Y-87152380D01*
X64021928Y-87200000D01*
X64069547Y-87247619D01*
X64117166Y-87342857D01*
X64117166Y-87438095D01*
X64069547Y-87580952D01*
X63498119Y-88152380D01*
X64117166Y-88152380D01*
X57666666Y-86552380D02*
X57666666Y-87266666D01*
X57619047Y-87409523D01*
X57523809Y-87504761D01*
X57380952Y-87552380D01*
X57285714Y-87552380D01*
X58142857Y-87552380D02*
X58142857Y-86552380D01*
X58523809Y-86552380D01*
X58619047Y-86600000D01*
X58666666Y-86647619D01*
X58714285Y-86742857D01*
X58714285Y-86885714D01*
X58666666Y-86980952D01*
X58619047Y-87028571D01*
X58523809Y-87076190D01*
X58142857Y-87076190D01*
X59666666Y-87552380D02*
X59095238Y-87552380D01*
X59380952Y-87552380D02*
X59380952Y-86552380D01*
X59285714Y-86695238D01*
X59190476Y-86790476D01*
X59095238Y-86838095D01*
X71666666Y-84452380D02*
X71666666Y-85166666D01*
X71619047Y-85309523D01*
X71523809Y-85404761D01*
X71380952Y-85452380D01*
X71285714Y-85452380D01*
X72047619Y-84452380D02*
X72666666Y-84452380D01*
X72333333Y-84833333D01*
X72476190Y-84833333D01*
X72571428Y-84880952D01*
X72619047Y-84928571D01*
X72666666Y-85023809D01*
X72666666Y-85261904D01*
X72619047Y-85357142D01*
X72571428Y-85404761D01*
X72476190Y-85452380D01*
X72190476Y-85452380D01*
X72095238Y-85404761D01*
X72047619Y-85357142D01*
X66266666Y-63417380D02*
X66266666Y-64131666D01*
X66219047Y-64274523D01*
X66123809Y-64369761D01*
X65980952Y-64417380D01*
X65885714Y-64417380D01*
X67266666Y-64417380D02*
X66695238Y-64417380D01*
X66980952Y-64417380D02*
X66980952Y-63417380D01*
X66885714Y-63560238D01*
X66790476Y-63655476D01*
X66695238Y-63703095D01*
X114452380Y-92238095D02*
X113452380Y-92238095D01*
X113452380Y-92000000D01*
X113500000Y-91857142D01*
X113595238Y-91761904D01*
X113690476Y-91714285D01*
X113880952Y-91666666D01*
X114023809Y-91666666D01*
X114214285Y-91714285D01*
X114309523Y-91761904D01*
X114404761Y-91857142D01*
X114452380Y-92000000D01*
X114452380Y-92238095D01*
X113452380Y-91333333D02*
X113452380Y-90666666D01*
X114452380Y-91095238D01*
X64261904Y-107952380D02*
X64261904Y-106952380D01*
X64500000Y-106952380D01*
X64642857Y-107000000D01*
X64738095Y-107095238D01*
X64785714Y-107190476D01*
X64833333Y-107380952D01*
X64833333Y-107523809D01*
X64785714Y-107714285D01*
X64738095Y-107809523D01*
X64642857Y-107904761D01*
X64500000Y-107952380D01*
X64261904Y-107952380D01*
X65738095Y-106952380D02*
X65261904Y-106952380D01*
X65214285Y-107428571D01*
X65261904Y-107380952D01*
X65357142Y-107333333D01*
X65595238Y-107333333D01*
X65690476Y-107380952D01*
X65738095Y-107428571D01*
X65785714Y-107523809D01*
X65785714Y-107761904D01*
X65738095Y-107857142D01*
X65690476Y-107904761D01*
X65595238Y-107952380D01*
X65357142Y-107952380D01*
X65261904Y-107904761D01*
X65214285Y-107857142D01*
X61135714Y-106027380D02*
X60564285Y-106027380D01*
X60850000Y-106027380D02*
X60850000Y-105027380D01*
X60754761Y-105170238D01*
X60659523Y-105265476D01*
X60564285Y-105313095D01*
X72761904Y-107952380D02*
X72761904Y-106952380D01*
X73000000Y-106952380D01*
X73142857Y-107000000D01*
X73238095Y-107095238D01*
X73285714Y-107190476D01*
X73333333Y-107380952D01*
X73333333Y-107523809D01*
X73285714Y-107714285D01*
X73238095Y-107809523D01*
X73142857Y-107904761D01*
X73000000Y-107952380D01*
X72761904Y-107952380D01*
X74190476Y-107285714D02*
X74190476Y-107952380D01*
X73952380Y-106904761D02*
X73714285Y-107619047D01*
X74333333Y-107619047D01*
X69685714Y-106027380D02*
X69114285Y-106027380D01*
X69400000Y-106027380D02*
X69400000Y-105027380D01*
X69304761Y-105170238D01*
X69209523Y-105265476D01*
X69114285Y-105313095D01*
X81261904Y-107952380D02*
X81261904Y-106952380D01*
X81500000Y-106952380D01*
X81642857Y-107000000D01*
X81738095Y-107095238D01*
X81785714Y-107190476D01*
X81833333Y-107380952D01*
X81833333Y-107523809D01*
X81785714Y-107714285D01*
X81738095Y-107809523D01*
X81642857Y-107904761D01*
X81500000Y-107952380D01*
X81261904Y-107952380D01*
X82166666Y-106952380D02*
X82785714Y-106952380D01*
X82452380Y-107333333D01*
X82595238Y-107333333D01*
X82690476Y-107380952D01*
X82738095Y-107428571D01*
X82785714Y-107523809D01*
X82785714Y-107761904D01*
X82738095Y-107857142D01*
X82690476Y-107904761D01*
X82595238Y-107952380D01*
X82309523Y-107952380D01*
X82214285Y-107904761D01*
X82166666Y-107857142D01*
X78135714Y-106027380D02*
X77564285Y-106027380D01*
X77850000Y-106027380D02*
X77850000Y-105027380D01*
X77754761Y-105170238D01*
X77659523Y-105265476D01*
X77564285Y-105313095D01*
X96157142Y-76887142D02*
X96109523Y-76934761D01*
X95966666Y-76982380D01*
X95871428Y-76982380D01*
X95728571Y-76934761D01*
X95633333Y-76839523D01*
X95585714Y-76744285D01*
X95538095Y-76553809D01*
X95538095Y-76410952D01*
X95585714Y-76220476D01*
X95633333Y-76125238D01*
X95728571Y-76030000D01*
X95871428Y-75982380D01*
X95966666Y-75982380D01*
X96109523Y-76030000D01*
X96157142Y-76077619D01*
X97109523Y-76982380D02*
X96538095Y-76982380D01*
X96823809Y-76982380D02*
X96823809Y-75982380D01*
X96728571Y-76125238D01*
X96633333Y-76220476D01*
X96538095Y-76268095D01*
X97966666Y-75982380D02*
X97776190Y-75982380D01*
X97680952Y-76030000D01*
X97633333Y-76077619D01*
X97538095Y-76220476D01*
X97490476Y-76410952D01*
X97490476Y-76791904D01*
X97538095Y-76887142D01*
X97585714Y-76934761D01*
X97680952Y-76982380D01*
X97871428Y-76982380D01*
X97966666Y-76934761D01*
X98014285Y-76887142D01*
X98061904Y-76791904D01*
X98061904Y-76553809D01*
X98014285Y-76458571D01*
X97966666Y-76410952D01*
X97871428Y-76363333D01*
X97680952Y-76363333D01*
X97585714Y-76410952D01*
X97538095Y-76458571D01*
X97490476Y-76553809D01*
X96157142Y-66827142D02*
X96109523Y-66874761D01*
X95966666Y-66922380D01*
X95871428Y-66922380D01*
X95728571Y-66874761D01*
X95633333Y-66779523D01*
X95585714Y-66684285D01*
X95538095Y-66493809D01*
X95538095Y-66350952D01*
X95585714Y-66160476D01*
X95633333Y-66065238D01*
X95728571Y-65970000D01*
X95871428Y-65922380D01*
X95966666Y-65922380D01*
X96109523Y-65970000D01*
X96157142Y-66017619D01*
X97109523Y-66922380D02*
X96538095Y-66922380D01*
X96823809Y-66922380D02*
X96823809Y-65922380D01*
X96728571Y-66065238D01*
X96633333Y-66160476D01*
X96538095Y-66208095D01*
X98014285Y-65922380D02*
X97538095Y-65922380D01*
X97490476Y-66398571D01*
X97538095Y-66350952D01*
X97633333Y-66303333D01*
X97871428Y-66303333D01*
X97966666Y-66350952D01*
X98014285Y-66398571D01*
X98061904Y-66493809D01*
X98061904Y-66731904D01*
X98014285Y-66827142D01*
X97966666Y-66874761D01*
X97871428Y-66922380D01*
X97633333Y-66922380D01*
X97538095Y-66874761D01*
X97490476Y-66827142D01*
X80357142Y-91166666D02*
X80404761Y-91214285D01*
X80452380Y-91357142D01*
X80452380Y-91452380D01*
X80404761Y-91595238D01*
X80309523Y-91690476D01*
X80214285Y-91738095D01*
X80023809Y-91785714D01*
X79880952Y-91785714D01*
X79690476Y-91738095D01*
X79595238Y-91690476D01*
X79500000Y-91595238D01*
X79452380Y-91452380D01*
X79452380Y-91357142D01*
X79500000Y-91214285D01*
X79547619Y-91166666D01*
X80452380Y-90690476D02*
X80452380Y-90500000D01*
X80404761Y-90404761D01*
X80357142Y-90357142D01*
X80214285Y-90261904D01*
X80023809Y-90214285D01*
X79642857Y-90214285D01*
X79547619Y-90261904D01*
X79500000Y-90309523D01*
X79452380Y-90404761D01*
X79452380Y-90595238D01*
X79500000Y-90690476D01*
X79547619Y-90738095D01*
X79642857Y-90785714D01*
X79880952Y-90785714D01*
X79976190Y-90738095D01*
X80023809Y-90690476D01*
X80071428Y-90595238D01*
X80071428Y-90404761D01*
X80023809Y-90309523D01*
X79976190Y-90261904D01*
X79880952Y-90214285D01*
X64833333Y-106357142D02*
X64785714Y-106404761D01*
X64642857Y-106452380D01*
X64547619Y-106452380D01*
X64404761Y-106404761D01*
X64309523Y-106309523D01*
X64261904Y-106214285D01*
X64214285Y-106023809D01*
X64214285Y-105880952D01*
X64261904Y-105690476D01*
X64309523Y-105595238D01*
X64404761Y-105500000D01*
X64547619Y-105452380D01*
X64642857Y-105452380D01*
X64785714Y-105500000D01*
X64833333Y-105547619D01*
X65404761Y-105880952D02*
X65309523Y-105833333D01*
X65261904Y-105785714D01*
X65214285Y-105690476D01*
X65214285Y-105642857D01*
X65261904Y-105547619D01*
X65309523Y-105500000D01*
X65404761Y-105452380D01*
X65595238Y-105452380D01*
X65690476Y-105500000D01*
X65738095Y-105547619D01*
X65785714Y-105642857D01*
X65785714Y-105690476D01*
X65738095Y-105785714D01*
X65690476Y-105833333D01*
X65595238Y-105880952D01*
X65404761Y-105880952D01*
X65309523Y-105928571D01*
X65261904Y-105976190D01*
X65214285Y-106071428D01*
X65214285Y-106261904D01*
X65261904Y-106357142D01*
X65309523Y-106404761D01*
X65404761Y-106452380D01*
X65595238Y-106452380D01*
X65690476Y-106404761D01*
X65738095Y-106357142D01*
X65785714Y-106261904D01*
X65785714Y-106071428D01*
X65738095Y-105976190D01*
X65690476Y-105928571D01*
X65595238Y-105880952D01*
X73333333Y-106357142D02*
X73285714Y-106404761D01*
X73142857Y-106452380D01*
X73047619Y-106452380D01*
X72904761Y-106404761D01*
X72809523Y-106309523D01*
X72761904Y-106214285D01*
X72714285Y-106023809D01*
X72714285Y-105880952D01*
X72761904Y-105690476D01*
X72809523Y-105595238D01*
X72904761Y-105500000D01*
X73047619Y-105452380D01*
X73142857Y-105452380D01*
X73285714Y-105500000D01*
X73333333Y-105547619D01*
X73666666Y-105452380D02*
X74333333Y-105452380D01*
X73904761Y-106452380D01*
X81833333Y-106357142D02*
X81785714Y-106404761D01*
X81642857Y-106452380D01*
X81547619Y-106452380D01*
X81404761Y-106404761D01*
X81309523Y-106309523D01*
X81261904Y-106214285D01*
X81214285Y-106023809D01*
X81214285Y-105880952D01*
X81261904Y-105690476D01*
X81309523Y-105595238D01*
X81404761Y-105500000D01*
X81547619Y-105452380D01*
X81642857Y-105452380D01*
X81785714Y-105500000D01*
X81833333Y-105547619D01*
X82690476Y-105452380D02*
X82500000Y-105452380D01*
X82404761Y-105500000D01*
X82357142Y-105547619D01*
X82261904Y-105690476D01*
X82214285Y-105880952D01*
X82214285Y-106261904D01*
X82261904Y-106357142D01*
X82309523Y-106404761D01*
X82404761Y-106452380D01*
X82595238Y-106452380D01*
X82690476Y-106404761D01*
X82738095Y-106357142D01*
X82785714Y-106261904D01*
X82785714Y-106023809D01*
X82738095Y-105928571D01*
X82690476Y-105880952D01*
X82595238Y-105833333D01*
X82404761Y-105833333D01*
X82309523Y-105880952D01*
X82261904Y-105928571D01*
X82214285Y-106023809D01*
X64083333Y-97107142D02*
X64035714Y-97154761D01*
X63892857Y-97202380D01*
X63797619Y-97202380D01*
X63654761Y-97154761D01*
X63559523Y-97059523D01*
X63511904Y-96964285D01*
X63464285Y-96773809D01*
X63464285Y-96630952D01*
X63511904Y-96440476D01*
X63559523Y-96345238D01*
X63654761Y-96250000D01*
X63797619Y-96202380D01*
X63892857Y-96202380D01*
X64035714Y-96250000D01*
X64083333Y-96297619D01*
X64988095Y-96202380D02*
X64511904Y-96202380D01*
X64464285Y-96678571D01*
X64511904Y-96630952D01*
X64607142Y-96583333D01*
X64845238Y-96583333D01*
X64940476Y-96630952D01*
X64988095Y-96678571D01*
X65035714Y-96773809D01*
X65035714Y-97011904D01*
X64988095Y-97107142D01*
X64940476Y-97154761D01*
X64845238Y-97202380D01*
X64607142Y-97202380D01*
X64511904Y-97154761D01*
X64464285Y-97107142D01*
X74607142Y-59666666D02*
X74654761Y-59714285D01*
X74702380Y-59857142D01*
X74702380Y-59952380D01*
X74654761Y-60095238D01*
X74559523Y-60190476D01*
X74464285Y-60238095D01*
X74273809Y-60285714D01*
X74130952Y-60285714D01*
X73940476Y-60238095D01*
X73845238Y-60190476D01*
X73750000Y-60095238D01*
X73702380Y-59952380D01*
X73702380Y-59857142D01*
X73750000Y-59714285D01*
X73797619Y-59666666D01*
X74035714Y-58809523D02*
X74702380Y-58809523D01*
X73654761Y-59047619D02*
X74369047Y-59285714D01*
X74369047Y-58666666D01*
X62083333Y-97107142D02*
X62035714Y-97154761D01*
X61892857Y-97202380D01*
X61797619Y-97202380D01*
X61654761Y-97154761D01*
X61559523Y-97059523D01*
X61511904Y-96964285D01*
X61464285Y-96773809D01*
X61464285Y-96630952D01*
X61511904Y-96440476D01*
X61559523Y-96345238D01*
X61654761Y-96250000D01*
X61797619Y-96202380D01*
X61892857Y-96202380D01*
X62035714Y-96250000D01*
X62083333Y-96297619D01*
X62416666Y-96202380D02*
X63035714Y-96202380D01*
X62702380Y-96583333D01*
X62845238Y-96583333D01*
X62940476Y-96630952D01*
X62988095Y-96678571D01*
X63035714Y-96773809D01*
X63035714Y-97011904D01*
X62988095Y-97107142D01*
X62940476Y-97154761D01*
X62845238Y-97202380D01*
X62559523Y-97202380D01*
X62464285Y-97154761D01*
X62416666Y-97107142D01*
X62083333Y-98607142D02*
X62035714Y-98654761D01*
X61892857Y-98702380D01*
X61797619Y-98702380D01*
X61654761Y-98654761D01*
X61559523Y-98559523D01*
X61511904Y-98464285D01*
X61464285Y-98273809D01*
X61464285Y-98130952D01*
X61511904Y-97940476D01*
X61559523Y-97845238D01*
X61654761Y-97750000D01*
X61797619Y-97702380D01*
X61892857Y-97702380D01*
X62035714Y-97750000D01*
X62083333Y-97797619D01*
X62464285Y-97797619D02*
X62511904Y-97750000D01*
X62607142Y-97702380D01*
X62845238Y-97702380D01*
X62940476Y-97750000D01*
X62988095Y-97797619D01*
X63035714Y-97892857D01*
X63035714Y-97988095D01*
X62988095Y-98130952D01*
X62416666Y-98702380D01*
X63035714Y-98702380D01*
X60793333Y-73923142D02*
X60745714Y-73970761D01*
X60602857Y-74018380D01*
X60507619Y-74018380D01*
X60364761Y-73970761D01*
X60269523Y-73875523D01*
X60221904Y-73780285D01*
X60174285Y-73589809D01*
X60174285Y-73446952D01*
X60221904Y-73256476D01*
X60269523Y-73161238D01*
X60364761Y-73066000D01*
X60507619Y-73018380D01*
X60602857Y-73018380D01*
X60745714Y-73066000D01*
X60793333Y-73113619D01*
X61745714Y-74018380D02*
X61174285Y-74018380D01*
X61460000Y-74018380D02*
X61460000Y-73018380D01*
X61364761Y-73161238D01*
X61269523Y-73256476D01*
X61174285Y-73304095D01*
M02*
