G04 #@! TF.GenerationSoftware,KiCad,Pcbnew,5.1.2-f72e74a~84~ubuntu18.04.1*
G04 #@! TF.CreationDate,2019-07-03T17:04:03+08:00*
G04 #@! TF.ProjectId,cowin-tryout,636f7769-6e2d-4747-9279-6f75742e6b69,rev?*
G04 #@! TF.SameCoordinates,Original*
G04 #@! TF.FileFunction,Paste,Bot*
G04 #@! TF.FilePolarity,Positive*
%FSLAX46Y46*%
G04 Gerber Fmt 4.6, Leading zero omitted, Abs format (unit mm)*
G04 Created by KiCad (PCBNEW 5.1.2-f72e74a~84~ubuntu18.04.1) date 2019-07-03 17:04:03*
%MOMM*%
%LPD*%
G04 APERTURE LIST*
%ADD10C,0.100000*%
%ADD11C,0.950000*%
%ADD12R,1.560000X0.650000*%
%ADD13R,1.000000X0.600000*%
%ADD14C,1.600000*%
G04 APERTURE END LIST*
D10*
G36*
X85160779Y-55851144D02*
G01*
X85183834Y-55854563D01*
X85206443Y-55860227D01*
X85228387Y-55868079D01*
X85249457Y-55878044D01*
X85269448Y-55890026D01*
X85288168Y-55903910D01*
X85305438Y-55919562D01*
X85321090Y-55936832D01*
X85334974Y-55955552D01*
X85346956Y-55975543D01*
X85356921Y-55996613D01*
X85364773Y-56018557D01*
X85370437Y-56041166D01*
X85373856Y-56064221D01*
X85375000Y-56087500D01*
X85375000Y-56662500D01*
X85373856Y-56685779D01*
X85370437Y-56708834D01*
X85364773Y-56731443D01*
X85356921Y-56753387D01*
X85346956Y-56774457D01*
X85334974Y-56794448D01*
X85321090Y-56813168D01*
X85305438Y-56830438D01*
X85288168Y-56846090D01*
X85269448Y-56859974D01*
X85249457Y-56871956D01*
X85228387Y-56881921D01*
X85206443Y-56889773D01*
X85183834Y-56895437D01*
X85160779Y-56898856D01*
X85137500Y-56900000D01*
X84662500Y-56900000D01*
X84639221Y-56898856D01*
X84616166Y-56895437D01*
X84593557Y-56889773D01*
X84571613Y-56881921D01*
X84550543Y-56871956D01*
X84530552Y-56859974D01*
X84511832Y-56846090D01*
X84494562Y-56830438D01*
X84478910Y-56813168D01*
X84465026Y-56794448D01*
X84453044Y-56774457D01*
X84443079Y-56753387D01*
X84435227Y-56731443D01*
X84429563Y-56708834D01*
X84426144Y-56685779D01*
X84425000Y-56662500D01*
X84425000Y-56087500D01*
X84426144Y-56064221D01*
X84429563Y-56041166D01*
X84435227Y-56018557D01*
X84443079Y-55996613D01*
X84453044Y-55975543D01*
X84465026Y-55955552D01*
X84478910Y-55936832D01*
X84494562Y-55919562D01*
X84511832Y-55903910D01*
X84530552Y-55890026D01*
X84550543Y-55878044D01*
X84571613Y-55868079D01*
X84593557Y-55860227D01*
X84616166Y-55854563D01*
X84639221Y-55851144D01*
X84662500Y-55850000D01*
X85137500Y-55850000D01*
X85160779Y-55851144D01*
X85160779Y-55851144D01*
G37*
D11*
X84900000Y-56375000D03*
D10*
G36*
X85160779Y-54101144D02*
G01*
X85183834Y-54104563D01*
X85206443Y-54110227D01*
X85228387Y-54118079D01*
X85249457Y-54128044D01*
X85269448Y-54140026D01*
X85288168Y-54153910D01*
X85305438Y-54169562D01*
X85321090Y-54186832D01*
X85334974Y-54205552D01*
X85346956Y-54225543D01*
X85356921Y-54246613D01*
X85364773Y-54268557D01*
X85370437Y-54291166D01*
X85373856Y-54314221D01*
X85375000Y-54337500D01*
X85375000Y-54912500D01*
X85373856Y-54935779D01*
X85370437Y-54958834D01*
X85364773Y-54981443D01*
X85356921Y-55003387D01*
X85346956Y-55024457D01*
X85334974Y-55044448D01*
X85321090Y-55063168D01*
X85305438Y-55080438D01*
X85288168Y-55096090D01*
X85269448Y-55109974D01*
X85249457Y-55121956D01*
X85228387Y-55131921D01*
X85206443Y-55139773D01*
X85183834Y-55145437D01*
X85160779Y-55148856D01*
X85137500Y-55150000D01*
X84662500Y-55150000D01*
X84639221Y-55148856D01*
X84616166Y-55145437D01*
X84593557Y-55139773D01*
X84571613Y-55131921D01*
X84550543Y-55121956D01*
X84530552Y-55109974D01*
X84511832Y-55096090D01*
X84494562Y-55080438D01*
X84478910Y-55063168D01*
X84465026Y-55044448D01*
X84453044Y-55024457D01*
X84443079Y-55003387D01*
X84435227Y-54981443D01*
X84429563Y-54958834D01*
X84426144Y-54935779D01*
X84425000Y-54912500D01*
X84425000Y-54337500D01*
X84426144Y-54314221D01*
X84429563Y-54291166D01*
X84435227Y-54268557D01*
X84443079Y-54246613D01*
X84453044Y-54225543D01*
X84465026Y-54205552D01*
X84478910Y-54186832D01*
X84494562Y-54169562D01*
X84511832Y-54153910D01*
X84530552Y-54140026D01*
X84550543Y-54128044D01*
X84571613Y-54118079D01*
X84593557Y-54110227D01*
X84616166Y-54104563D01*
X84639221Y-54101144D01*
X84662500Y-54100000D01*
X85137500Y-54100000D01*
X85160779Y-54101144D01*
X85160779Y-54101144D01*
G37*
D11*
X84900000Y-54625000D03*
D10*
G36*
X112260779Y-100351144D02*
G01*
X112283834Y-100354563D01*
X112306443Y-100360227D01*
X112328387Y-100368079D01*
X112349457Y-100378044D01*
X112369448Y-100390026D01*
X112388168Y-100403910D01*
X112405438Y-100419562D01*
X112421090Y-100436832D01*
X112434974Y-100455552D01*
X112446956Y-100475543D01*
X112456921Y-100496613D01*
X112464773Y-100518557D01*
X112470437Y-100541166D01*
X112473856Y-100564221D01*
X112475000Y-100587500D01*
X112475000Y-101162500D01*
X112473856Y-101185779D01*
X112470437Y-101208834D01*
X112464773Y-101231443D01*
X112456921Y-101253387D01*
X112446956Y-101274457D01*
X112434974Y-101294448D01*
X112421090Y-101313168D01*
X112405438Y-101330438D01*
X112388168Y-101346090D01*
X112369448Y-101359974D01*
X112349457Y-101371956D01*
X112328387Y-101381921D01*
X112306443Y-101389773D01*
X112283834Y-101395437D01*
X112260779Y-101398856D01*
X112237500Y-101400000D01*
X111762500Y-101400000D01*
X111739221Y-101398856D01*
X111716166Y-101395437D01*
X111693557Y-101389773D01*
X111671613Y-101381921D01*
X111650543Y-101371956D01*
X111630552Y-101359974D01*
X111611832Y-101346090D01*
X111594562Y-101330438D01*
X111578910Y-101313168D01*
X111565026Y-101294448D01*
X111553044Y-101274457D01*
X111543079Y-101253387D01*
X111535227Y-101231443D01*
X111529563Y-101208834D01*
X111526144Y-101185779D01*
X111525000Y-101162500D01*
X111525000Y-100587500D01*
X111526144Y-100564221D01*
X111529563Y-100541166D01*
X111535227Y-100518557D01*
X111543079Y-100496613D01*
X111553044Y-100475543D01*
X111565026Y-100455552D01*
X111578910Y-100436832D01*
X111594562Y-100419562D01*
X111611832Y-100403910D01*
X111630552Y-100390026D01*
X111650543Y-100378044D01*
X111671613Y-100368079D01*
X111693557Y-100360227D01*
X111716166Y-100354563D01*
X111739221Y-100351144D01*
X111762500Y-100350000D01*
X112237500Y-100350000D01*
X112260779Y-100351144D01*
X112260779Y-100351144D01*
G37*
D11*
X112000000Y-100875000D03*
D10*
G36*
X112260779Y-98601144D02*
G01*
X112283834Y-98604563D01*
X112306443Y-98610227D01*
X112328387Y-98618079D01*
X112349457Y-98628044D01*
X112369448Y-98640026D01*
X112388168Y-98653910D01*
X112405438Y-98669562D01*
X112421090Y-98686832D01*
X112434974Y-98705552D01*
X112446956Y-98725543D01*
X112456921Y-98746613D01*
X112464773Y-98768557D01*
X112470437Y-98791166D01*
X112473856Y-98814221D01*
X112475000Y-98837500D01*
X112475000Y-99412500D01*
X112473856Y-99435779D01*
X112470437Y-99458834D01*
X112464773Y-99481443D01*
X112456921Y-99503387D01*
X112446956Y-99524457D01*
X112434974Y-99544448D01*
X112421090Y-99563168D01*
X112405438Y-99580438D01*
X112388168Y-99596090D01*
X112369448Y-99609974D01*
X112349457Y-99621956D01*
X112328387Y-99631921D01*
X112306443Y-99639773D01*
X112283834Y-99645437D01*
X112260779Y-99648856D01*
X112237500Y-99650000D01*
X111762500Y-99650000D01*
X111739221Y-99648856D01*
X111716166Y-99645437D01*
X111693557Y-99639773D01*
X111671613Y-99631921D01*
X111650543Y-99621956D01*
X111630552Y-99609974D01*
X111611832Y-99596090D01*
X111594562Y-99580438D01*
X111578910Y-99563168D01*
X111565026Y-99544448D01*
X111553044Y-99524457D01*
X111543079Y-99503387D01*
X111535227Y-99481443D01*
X111529563Y-99458834D01*
X111526144Y-99435779D01*
X111525000Y-99412500D01*
X111525000Y-98837500D01*
X111526144Y-98814221D01*
X111529563Y-98791166D01*
X111535227Y-98768557D01*
X111543079Y-98746613D01*
X111553044Y-98725543D01*
X111565026Y-98705552D01*
X111578910Y-98686832D01*
X111594562Y-98669562D01*
X111611832Y-98653910D01*
X111630552Y-98640026D01*
X111650543Y-98628044D01*
X111671613Y-98618079D01*
X111693557Y-98610227D01*
X111716166Y-98604563D01*
X111739221Y-98601144D01*
X111762500Y-98600000D01*
X112237500Y-98600000D01*
X112260779Y-98601144D01*
X112260779Y-98601144D01*
G37*
D11*
X112000000Y-99125000D03*
D10*
G36*
X91260779Y-54101144D02*
G01*
X91283834Y-54104563D01*
X91306443Y-54110227D01*
X91328387Y-54118079D01*
X91349457Y-54128044D01*
X91369448Y-54140026D01*
X91388168Y-54153910D01*
X91405438Y-54169562D01*
X91421090Y-54186832D01*
X91434974Y-54205552D01*
X91446956Y-54225543D01*
X91456921Y-54246613D01*
X91464773Y-54268557D01*
X91470437Y-54291166D01*
X91473856Y-54314221D01*
X91475000Y-54337500D01*
X91475000Y-54912500D01*
X91473856Y-54935779D01*
X91470437Y-54958834D01*
X91464773Y-54981443D01*
X91456921Y-55003387D01*
X91446956Y-55024457D01*
X91434974Y-55044448D01*
X91421090Y-55063168D01*
X91405438Y-55080438D01*
X91388168Y-55096090D01*
X91369448Y-55109974D01*
X91349457Y-55121956D01*
X91328387Y-55131921D01*
X91306443Y-55139773D01*
X91283834Y-55145437D01*
X91260779Y-55148856D01*
X91237500Y-55150000D01*
X90762500Y-55150000D01*
X90739221Y-55148856D01*
X90716166Y-55145437D01*
X90693557Y-55139773D01*
X90671613Y-55131921D01*
X90650543Y-55121956D01*
X90630552Y-55109974D01*
X90611832Y-55096090D01*
X90594562Y-55080438D01*
X90578910Y-55063168D01*
X90565026Y-55044448D01*
X90553044Y-55024457D01*
X90543079Y-55003387D01*
X90535227Y-54981443D01*
X90529563Y-54958834D01*
X90526144Y-54935779D01*
X90525000Y-54912500D01*
X90525000Y-54337500D01*
X90526144Y-54314221D01*
X90529563Y-54291166D01*
X90535227Y-54268557D01*
X90543079Y-54246613D01*
X90553044Y-54225543D01*
X90565026Y-54205552D01*
X90578910Y-54186832D01*
X90594562Y-54169562D01*
X90611832Y-54153910D01*
X90630552Y-54140026D01*
X90650543Y-54128044D01*
X90671613Y-54118079D01*
X90693557Y-54110227D01*
X90716166Y-54104563D01*
X90739221Y-54101144D01*
X90762500Y-54100000D01*
X91237500Y-54100000D01*
X91260779Y-54101144D01*
X91260779Y-54101144D01*
G37*
D11*
X91000000Y-54625000D03*
D10*
G36*
X91260779Y-55851144D02*
G01*
X91283834Y-55854563D01*
X91306443Y-55860227D01*
X91328387Y-55868079D01*
X91349457Y-55878044D01*
X91369448Y-55890026D01*
X91388168Y-55903910D01*
X91405438Y-55919562D01*
X91421090Y-55936832D01*
X91434974Y-55955552D01*
X91446956Y-55975543D01*
X91456921Y-55996613D01*
X91464773Y-56018557D01*
X91470437Y-56041166D01*
X91473856Y-56064221D01*
X91475000Y-56087500D01*
X91475000Y-56662500D01*
X91473856Y-56685779D01*
X91470437Y-56708834D01*
X91464773Y-56731443D01*
X91456921Y-56753387D01*
X91446956Y-56774457D01*
X91434974Y-56794448D01*
X91421090Y-56813168D01*
X91405438Y-56830438D01*
X91388168Y-56846090D01*
X91369448Y-56859974D01*
X91349457Y-56871956D01*
X91328387Y-56881921D01*
X91306443Y-56889773D01*
X91283834Y-56895437D01*
X91260779Y-56898856D01*
X91237500Y-56900000D01*
X90762500Y-56900000D01*
X90739221Y-56898856D01*
X90716166Y-56895437D01*
X90693557Y-56889773D01*
X90671613Y-56881921D01*
X90650543Y-56871956D01*
X90630552Y-56859974D01*
X90611832Y-56846090D01*
X90594562Y-56830438D01*
X90578910Y-56813168D01*
X90565026Y-56794448D01*
X90553044Y-56774457D01*
X90543079Y-56753387D01*
X90535227Y-56731443D01*
X90529563Y-56708834D01*
X90526144Y-56685779D01*
X90525000Y-56662500D01*
X90525000Y-56087500D01*
X90526144Y-56064221D01*
X90529563Y-56041166D01*
X90535227Y-56018557D01*
X90543079Y-55996613D01*
X90553044Y-55975543D01*
X90565026Y-55955552D01*
X90578910Y-55936832D01*
X90594562Y-55919562D01*
X90611832Y-55903910D01*
X90630552Y-55890026D01*
X90650543Y-55878044D01*
X90671613Y-55868079D01*
X90693557Y-55860227D01*
X90716166Y-55854563D01*
X90739221Y-55851144D01*
X90762500Y-55850000D01*
X91237500Y-55850000D01*
X91260779Y-55851144D01*
X91260779Y-55851144D01*
G37*
D11*
X91000000Y-56375000D03*
D10*
G36*
X88160779Y-55851144D02*
G01*
X88183834Y-55854563D01*
X88206443Y-55860227D01*
X88228387Y-55868079D01*
X88249457Y-55878044D01*
X88269448Y-55890026D01*
X88288168Y-55903910D01*
X88305438Y-55919562D01*
X88321090Y-55936832D01*
X88334974Y-55955552D01*
X88346956Y-55975543D01*
X88356921Y-55996613D01*
X88364773Y-56018557D01*
X88370437Y-56041166D01*
X88373856Y-56064221D01*
X88375000Y-56087500D01*
X88375000Y-56662500D01*
X88373856Y-56685779D01*
X88370437Y-56708834D01*
X88364773Y-56731443D01*
X88356921Y-56753387D01*
X88346956Y-56774457D01*
X88334974Y-56794448D01*
X88321090Y-56813168D01*
X88305438Y-56830438D01*
X88288168Y-56846090D01*
X88269448Y-56859974D01*
X88249457Y-56871956D01*
X88228387Y-56881921D01*
X88206443Y-56889773D01*
X88183834Y-56895437D01*
X88160779Y-56898856D01*
X88137500Y-56900000D01*
X87662500Y-56900000D01*
X87639221Y-56898856D01*
X87616166Y-56895437D01*
X87593557Y-56889773D01*
X87571613Y-56881921D01*
X87550543Y-56871956D01*
X87530552Y-56859974D01*
X87511832Y-56846090D01*
X87494562Y-56830438D01*
X87478910Y-56813168D01*
X87465026Y-56794448D01*
X87453044Y-56774457D01*
X87443079Y-56753387D01*
X87435227Y-56731443D01*
X87429563Y-56708834D01*
X87426144Y-56685779D01*
X87425000Y-56662500D01*
X87425000Y-56087500D01*
X87426144Y-56064221D01*
X87429563Y-56041166D01*
X87435227Y-56018557D01*
X87443079Y-55996613D01*
X87453044Y-55975543D01*
X87465026Y-55955552D01*
X87478910Y-55936832D01*
X87494562Y-55919562D01*
X87511832Y-55903910D01*
X87530552Y-55890026D01*
X87550543Y-55878044D01*
X87571613Y-55868079D01*
X87593557Y-55860227D01*
X87616166Y-55854563D01*
X87639221Y-55851144D01*
X87662500Y-55850000D01*
X88137500Y-55850000D01*
X88160779Y-55851144D01*
X88160779Y-55851144D01*
G37*
D11*
X87900000Y-56375000D03*
D10*
G36*
X88160779Y-54101144D02*
G01*
X88183834Y-54104563D01*
X88206443Y-54110227D01*
X88228387Y-54118079D01*
X88249457Y-54128044D01*
X88269448Y-54140026D01*
X88288168Y-54153910D01*
X88305438Y-54169562D01*
X88321090Y-54186832D01*
X88334974Y-54205552D01*
X88346956Y-54225543D01*
X88356921Y-54246613D01*
X88364773Y-54268557D01*
X88370437Y-54291166D01*
X88373856Y-54314221D01*
X88375000Y-54337500D01*
X88375000Y-54912500D01*
X88373856Y-54935779D01*
X88370437Y-54958834D01*
X88364773Y-54981443D01*
X88356921Y-55003387D01*
X88346956Y-55024457D01*
X88334974Y-55044448D01*
X88321090Y-55063168D01*
X88305438Y-55080438D01*
X88288168Y-55096090D01*
X88269448Y-55109974D01*
X88249457Y-55121956D01*
X88228387Y-55131921D01*
X88206443Y-55139773D01*
X88183834Y-55145437D01*
X88160779Y-55148856D01*
X88137500Y-55150000D01*
X87662500Y-55150000D01*
X87639221Y-55148856D01*
X87616166Y-55145437D01*
X87593557Y-55139773D01*
X87571613Y-55131921D01*
X87550543Y-55121956D01*
X87530552Y-55109974D01*
X87511832Y-55096090D01*
X87494562Y-55080438D01*
X87478910Y-55063168D01*
X87465026Y-55044448D01*
X87453044Y-55024457D01*
X87443079Y-55003387D01*
X87435227Y-54981443D01*
X87429563Y-54958834D01*
X87426144Y-54935779D01*
X87425000Y-54912500D01*
X87425000Y-54337500D01*
X87426144Y-54314221D01*
X87429563Y-54291166D01*
X87435227Y-54268557D01*
X87443079Y-54246613D01*
X87453044Y-54225543D01*
X87465026Y-54205552D01*
X87478910Y-54186832D01*
X87494562Y-54169562D01*
X87511832Y-54153910D01*
X87530552Y-54140026D01*
X87550543Y-54128044D01*
X87571613Y-54118079D01*
X87593557Y-54110227D01*
X87616166Y-54104563D01*
X87639221Y-54101144D01*
X87662500Y-54100000D01*
X88137500Y-54100000D01*
X88160779Y-54101144D01*
X88160779Y-54101144D01*
G37*
D11*
X87900000Y-54625000D03*
D12*
X80650000Y-108075000D03*
X80650000Y-107125000D03*
X80650000Y-106175000D03*
X83350000Y-106175000D03*
X83350000Y-108075000D03*
D10*
G36*
X111460779Y-83876144D02*
G01*
X111483834Y-83879563D01*
X111506443Y-83885227D01*
X111528387Y-83893079D01*
X111549457Y-83903044D01*
X111569448Y-83915026D01*
X111588168Y-83928910D01*
X111605438Y-83944562D01*
X111621090Y-83961832D01*
X111634974Y-83980552D01*
X111646956Y-84000543D01*
X111656921Y-84021613D01*
X111664773Y-84043557D01*
X111670437Y-84066166D01*
X111673856Y-84089221D01*
X111675000Y-84112500D01*
X111675000Y-84687500D01*
X111673856Y-84710779D01*
X111670437Y-84733834D01*
X111664773Y-84756443D01*
X111656921Y-84778387D01*
X111646956Y-84799457D01*
X111634974Y-84819448D01*
X111621090Y-84838168D01*
X111605438Y-84855438D01*
X111588168Y-84871090D01*
X111569448Y-84884974D01*
X111549457Y-84896956D01*
X111528387Y-84906921D01*
X111506443Y-84914773D01*
X111483834Y-84920437D01*
X111460779Y-84923856D01*
X111437500Y-84925000D01*
X110962500Y-84925000D01*
X110939221Y-84923856D01*
X110916166Y-84920437D01*
X110893557Y-84914773D01*
X110871613Y-84906921D01*
X110850543Y-84896956D01*
X110830552Y-84884974D01*
X110811832Y-84871090D01*
X110794562Y-84855438D01*
X110778910Y-84838168D01*
X110765026Y-84819448D01*
X110753044Y-84799457D01*
X110743079Y-84778387D01*
X110735227Y-84756443D01*
X110729563Y-84733834D01*
X110726144Y-84710779D01*
X110725000Y-84687500D01*
X110725000Y-84112500D01*
X110726144Y-84089221D01*
X110729563Y-84066166D01*
X110735227Y-84043557D01*
X110743079Y-84021613D01*
X110753044Y-84000543D01*
X110765026Y-83980552D01*
X110778910Y-83961832D01*
X110794562Y-83944562D01*
X110811832Y-83928910D01*
X110830552Y-83915026D01*
X110850543Y-83903044D01*
X110871613Y-83893079D01*
X110893557Y-83885227D01*
X110916166Y-83879563D01*
X110939221Y-83876144D01*
X110962500Y-83875000D01*
X111437500Y-83875000D01*
X111460779Y-83876144D01*
X111460779Y-83876144D01*
G37*
D11*
X111200000Y-84400000D03*
D10*
G36*
X111460779Y-82126144D02*
G01*
X111483834Y-82129563D01*
X111506443Y-82135227D01*
X111528387Y-82143079D01*
X111549457Y-82153044D01*
X111569448Y-82165026D01*
X111588168Y-82178910D01*
X111605438Y-82194562D01*
X111621090Y-82211832D01*
X111634974Y-82230552D01*
X111646956Y-82250543D01*
X111656921Y-82271613D01*
X111664773Y-82293557D01*
X111670437Y-82316166D01*
X111673856Y-82339221D01*
X111675000Y-82362500D01*
X111675000Y-82937500D01*
X111673856Y-82960779D01*
X111670437Y-82983834D01*
X111664773Y-83006443D01*
X111656921Y-83028387D01*
X111646956Y-83049457D01*
X111634974Y-83069448D01*
X111621090Y-83088168D01*
X111605438Y-83105438D01*
X111588168Y-83121090D01*
X111569448Y-83134974D01*
X111549457Y-83146956D01*
X111528387Y-83156921D01*
X111506443Y-83164773D01*
X111483834Y-83170437D01*
X111460779Y-83173856D01*
X111437500Y-83175000D01*
X110962500Y-83175000D01*
X110939221Y-83173856D01*
X110916166Y-83170437D01*
X110893557Y-83164773D01*
X110871613Y-83156921D01*
X110850543Y-83146956D01*
X110830552Y-83134974D01*
X110811832Y-83121090D01*
X110794562Y-83105438D01*
X110778910Y-83088168D01*
X110765026Y-83069448D01*
X110753044Y-83049457D01*
X110743079Y-83028387D01*
X110735227Y-83006443D01*
X110729563Y-82983834D01*
X110726144Y-82960779D01*
X110725000Y-82937500D01*
X110725000Y-82362500D01*
X110726144Y-82339221D01*
X110729563Y-82316166D01*
X110735227Y-82293557D01*
X110743079Y-82271613D01*
X110753044Y-82250543D01*
X110765026Y-82230552D01*
X110778910Y-82211832D01*
X110794562Y-82194562D01*
X110811832Y-82178910D01*
X110830552Y-82165026D01*
X110850543Y-82153044D01*
X110871613Y-82143079D01*
X110893557Y-82135227D01*
X110916166Y-82129563D01*
X110939221Y-82126144D01*
X110962500Y-82125000D01*
X111437500Y-82125000D01*
X111460779Y-82126144D01*
X111460779Y-82126144D01*
G37*
D11*
X111200000Y-82650000D03*
D13*
X112840000Y-84450000D03*
X114960000Y-83500000D03*
X112840000Y-82550000D03*
D10*
G36*
X109285779Y-71126144D02*
G01*
X109308834Y-71129563D01*
X109331443Y-71135227D01*
X109353387Y-71143079D01*
X109374457Y-71153044D01*
X109394448Y-71165026D01*
X109413168Y-71178910D01*
X109430438Y-71194562D01*
X109446090Y-71211832D01*
X109459974Y-71230552D01*
X109471956Y-71250543D01*
X109481921Y-71271613D01*
X109489773Y-71293557D01*
X109495437Y-71316166D01*
X109498856Y-71339221D01*
X109500000Y-71362500D01*
X109500000Y-71837500D01*
X109498856Y-71860779D01*
X109495437Y-71883834D01*
X109489773Y-71906443D01*
X109481921Y-71928387D01*
X109471956Y-71949457D01*
X109459974Y-71969448D01*
X109446090Y-71988168D01*
X109430438Y-72005438D01*
X109413168Y-72021090D01*
X109394448Y-72034974D01*
X109374457Y-72046956D01*
X109353387Y-72056921D01*
X109331443Y-72064773D01*
X109308834Y-72070437D01*
X109285779Y-72073856D01*
X109262500Y-72075000D01*
X108687500Y-72075000D01*
X108664221Y-72073856D01*
X108641166Y-72070437D01*
X108618557Y-72064773D01*
X108596613Y-72056921D01*
X108575543Y-72046956D01*
X108555552Y-72034974D01*
X108536832Y-72021090D01*
X108519562Y-72005438D01*
X108503910Y-71988168D01*
X108490026Y-71969448D01*
X108478044Y-71949457D01*
X108468079Y-71928387D01*
X108460227Y-71906443D01*
X108454563Y-71883834D01*
X108451144Y-71860779D01*
X108450000Y-71837500D01*
X108450000Y-71362500D01*
X108451144Y-71339221D01*
X108454563Y-71316166D01*
X108460227Y-71293557D01*
X108468079Y-71271613D01*
X108478044Y-71250543D01*
X108490026Y-71230552D01*
X108503910Y-71211832D01*
X108519562Y-71194562D01*
X108536832Y-71178910D01*
X108555552Y-71165026D01*
X108575543Y-71153044D01*
X108596613Y-71143079D01*
X108618557Y-71135227D01*
X108641166Y-71129563D01*
X108664221Y-71126144D01*
X108687500Y-71125000D01*
X109262500Y-71125000D01*
X109285779Y-71126144D01*
X109285779Y-71126144D01*
G37*
D11*
X108975000Y-71600000D03*
D10*
G36*
X107535779Y-71126144D02*
G01*
X107558834Y-71129563D01*
X107581443Y-71135227D01*
X107603387Y-71143079D01*
X107624457Y-71153044D01*
X107644448Y-71165026D01*
X107663168Y-71178910D01*
X107680438Y-71194562D01*
X107696090Y-71211832D01*
X107709974Y-71230552D01*
X107721956Y-71250543D01*
X107731921Y-71271613D01*
X107739773Y-71293557D01*
X107745437Y-71316166D01*
X107748856Y-71339221D01*
X107750000Y-71362500D01*
X107750000Y-71837500D01*
X107748856Y-71860779D01*
X107745437Y-71883834D01*
X107739773Y-71906443D01*
X107731921Y-71928387D01*
X107721956Y-71949457D01*
X107709974Y-71969448D01*
X107696090Y-71988168D01*
X107680438Y-72005438D01*
X107663168Y-72021090D01*
X107644448Y-72034974D01*
X107624457Y-72046956D01*
X107603387Y-72056921D01*
X107581443Y-72064773D01*
X107558834Y-72070437D01*
X107535779Y-72073856D01*
X107512500Y-72075000D01*
X106937500Y-72075000D01*
X106914221Y-72073856D01*
X106891166Y-72070437D01*
X106868557Y-72064773D01*
X106846613Y-72056921D01*
X106825543Y-72046956D01*
X106805552Y-72034974D01*
X106786832Y-72021090D01*
X106769562Y-72005438D01*
X106753910Y-71988168D01*
X106740026Y-71969448D01*
X106728044Y-71949457D01*
X106718079Y-71928387D01*
X106710227Y-71906443D01*
X106704563Y-71883834D01*
X106701144Y-71860779D01*
X106700000Y-71837500D01*
X106700000Y-71362500D01*
X106701144Y-71339221D01*
X106704563Y-71316166D01*
X106710227Y-71293557D01*
X106718079Y-71271613D01*
X106728044Y-71250543D01*
X106740026Y-71230552D01*
X106753910Y-71211832D01*
X106769562Y-71194562D01*
X106786832Y-71178910D01*
X106805552Y-71165026D01*
X106825543Y-71153044D01*
X106846613Y-71143079D01*
X106868557Y-71135227D01*
X106891166Y-71129563D01*
X106914221Y-71126144D01*
X106937500Y-71125000D01*
X107512500Y-71125000D01*
X107535779Y-71126144D01*
X107535779Y-71126144D01*
G37*
D11*
X107225000Y-71600000D03*
D10*
G36*
X109285779Y-73426144D02*
G01*
X109308834Y-73429563D01*
X109331443Y-73435227D01*
X109353387Y-73443079D01*
X109374457Y-73453044D01*
X109394448Y-73465026D01*
X109413168Y-73478910D01*
X109430438Y-73494562D01*
X109446090Y-73511832D01*
X109459974Y-73530552D01*
X109471956Y-73550543D01*
X109481921Y-73571613D01*
X109489773Y-73593557D01*
X109495437Y-73616166D01*
X109498856Y-73639221D01*
X109500000Y-73662500D01*
X109500000Y-74137500D01*
X109498856Y-74160779D01*
X109495437Y-74183834D01*
X109489773Y-74206443D01*
X109481921Y-74228387D01*
X109471956Y-74249457D01*
X109459974Y-74269448D01*
X109446090Y-74288168D01*
X109430438Y-74305438D01*
X109413168Y-74321090D01*
X109394448Y-74334974D01*
X109374457Y-74346956D01*
X109353387Y-74356921D01*
X109331443Y-74364773D01*
X109308834Y-74370437D01*
X109285779Y-74373856D01*
X109262500Y-74375000D01*
X108687500Y-74375000D01*
X108664221Y-74373856D01*
X108641166Y-74370437D01*
X108618557Y-74364773D01*
X108596613Y-74356921D01*
X108575543Y-74346956D01*
X108555552Y-74334974D01*
X108536832Y-74321090D01*
X108519562Y-74305438D01*
X108503910Y-74288168D01*
X108490026Y-74269448D01*
X108478044Y-74249457D01*
X108468079Y-74228387D01*
X108460227Y-74206443D01*
X108454563Y-74183834D01*
X108451144Y-74160779D01*
X108450000Y-74137500D01*
X108450000Y-73662500D01*
X108451144Y-73639221D01*
X108454563Y-73616166D01*
X108460227Y-73593557D01*
X108468079Y-73571613D01*
X108478044Y-73550543D01*
X108490026Y-73530552D01*
X108503910Y-73511832D01*
X108519562Y-73494562D01*
X108536832Y-73478910D01*
X108555552Y-73465026D01*
X108575543Y-73453044D01*
X108596613Y-73443079D01*
X108618557Y-73435227D01*
X108641166Y-73429563D01*
X108664221Y-73426144D01*
X108687500Y-73425000D01*
X109262500Y-73425000D01*
X109285779Y-73426144D01*
X109285779Y-73426144D01*
G37*
D11*
X108975000Y-73900000D03*
D10*
G36*
X107535779Y-73426144D02*
G01*
X107558834Y-73429563D01*
X107581443Y-73435227D01*
X107603387Y-73443079D01*
X107624457Y-73453044D01*
X107644448Y-73465026D01*
X107663168Y-73478910D01*
X107680438Y-73494562D01*
X107696090Y-73511832D01*
X107709974Y-73530552D01*
X107721956Y-73550543D01*
X107731921Y-73571613D01*
X107739773Y-73593557D01*
X107745437Y-73616166D01*
X107748856Y-73639221D01*
X107750000Y-73662500D01*
X107750000Y-74137500D01*
X107748856Y-74160779D01*
X107745437Y-74183834D01*
X107739773Y-74206443D01*
X107731921Y-74228387D01*
X107721956Y-74249457D01*
X107709974Y-74269448D01*
X107696090Y-74288168D01*
X107680438Y-74305438D01*
X107663168Y-74321090D01*
X107644448Y-74334974D01*
X107624457Y-74346956D01*
X107603387Y-74356921D01*
X107581443Y-74364773D01*
X107558834Y-74370437D01*
X107535779Y-74373856D01*
X107512500Y-74375000D01*
X106937500Y-74375000D01*
X106914221Y-74373856D01*
X106891166Y-74370437D01*
X106868557Y-74364773D01*
X106846613Y-74356921D01*
X106825543Y-74346956D01*
X106805552Y-74334974D01*
X106786832Y-74321090D01*
X106769562Y-74305438D01*
X106753910Y-74288168D01*
X106740026Y-74269448D01*
X106728044Y-74249457D01*
X106718079Y-74228387D01*
X106710227Y-74206443D01*
X106704563Y-74183834D01*
X106701144Y-74160779D01*
X106700000Y-74137500D01*
X106700000Y-73662500D01*
X106701144Y-73639221D01*
X106704563Y-73616166D01*
X106710227Y-73593557D01*
X106718079Y-73571613D01*
X106728044Y-73550543D01*
X106740026Y-73530552D01*
X106753910Y-73511832D01*
X106769562Y-73494562D01*
X106786832Y-73478910D01*
X106805552Y-73465026D01*
X106825543Y-73453044D01*
X106846613Y-73443079D01*
X106868557Y-73435227D01*
X106891166Y-73429563D01*
X106914221Y-73426144D01*
X106937500Y-73425000D01*
X107512500Y-73425000D01*
X107535779Y-73426144D01*
X107535779Y-73426144D01*
G37*
D11*
X107225000Y-73900000D03*
D10*
G36*
X109285779Y-75226144D02*
G01*
X109308834Y-75229563D01*
X109331443Y-75235227D01*
X109353387Y-75243079D01*
X109374457Y-75253044D01*
X109394448Y-75265026D01*
X109413168Y-75278910D01*
X109430438Y-75294562D01*
X109446090Y-75311832D01*
X109459974Y-75330552D01*
X109471956Y-75350543D01*
X109481921Y-75371613D01*
X109489773Y-75393557D01*
X109495437Y-75416166D01*
X109498856Y-75439221D01*
X109500000Y-75462500D01*
X109500000Y-75937500D01*
X109498856Y-75960779D01*
X109495437Y-75983834D01*
X109489773Y-76006443D01*
X109481921Y-76028387D01*
X109471956Y-76049457D01*
X109459974Y-76069448D01*
X109446090Y-76088168D01*
X109430438Y-76105438D01*
X109413168Y-76121090D01*
X109394448Y-76134974D01*
X109374457Y-76146956D01*
X109353387Y-76156921D01*
X109331443Y-76164773D01*
X109308834Y-76170437D01*
X109285779Y-76173856D01*
X109262500Y-76175000D01*
X108687500Y-76175000D01*
X108664221Y-76173856D01*
X108641166Y-76170437D01*
X108618557Y-76164773D01*
X108596613Y-76156921D01*
X108575543Y-76146956D01*
X108555552Y-76134974D01*
X108536832Y-76121090D01*
X108519562Y-76105438D01*
X108503910Y-76088168D01*
X108490026Y-76069448D01*
X108478044Y-76049457D01*
X108468079Y-76028387D01*
X108460227Y-76006443D01*
X108454563Y-75983834D01*
X108451144Y-75960779D01*
X108450000Y-75937500D01*
X108450000Y-75462500D01*
X108451144Y-75439221D01*
X108454563Y-75416166D01*
X108460227Y-75393557D01*
X108468079Y-75371613D01*
X108478044Y-75350543D01*
X108490026Y-75330552D01*
X108503910Y-75311832D01*
X108519562Y-75294562D01*
X108536832Y-75278910D01*
X108555552Y-75265026D01*
X108575543Y-75253044D01*
X108596613Y-75243079D01*
X108618557Y-75235227D01*
X108641166Y-75229563D01*
X108664221Y-75226144D01*
X108687500Y-75225000D01*
X109262500Y-75225000D01*
X109285779Y-75226144D01*
X109285779Y-75226144D01*
G37*
D11*
X108975000Y-75700000D03*
D10*
G36*
X107535779Y-75226144D02*
G01*
X107558834Y-75229563D01*
X107581443Y-75235227D01*
X107603387Y-75243079D01*
X107624457Y-75253044D01*
X107644448Y-75265026D01*
X107663168Y-75278910D01*
X107680438Y-75294562D01*
X107696090Y-75311832D01*
X107709974Y-75330552D01*
X107721956Y-75350543D01*
X107731921Y-75371613D01*
X107739773Y-75393557D01*
X107745437Y-75416166D01*
X107748856Y-75439221D01*
X107750000Y-75462500D01*
X107750000Y-75937500D01*
X107748856Y-75960779D01*
X107745437Y-75983834D01*
X107739773Y-76006443D01*
X107731921Y-76028387D01*
X107721956Y-76049457D01*
X107709974Y-76069448D01*
X107696090Y-76088168D01*
X107680438Y-76105438D01*
X107663168Y-76121090D01*
X107644448Y-76134974D01*
X107624457Y-76146956D01*
X107603387Y-76156921D01*
X107581443Y-76164773D01*
X107558834Y-76170437D01*
X107535779Y-76173856D01*
X107512500Y-76175000D01*
X106937500Y-76175000D01*
X106914221Y-76173856D01*
X106891166Y-76170437D01*
X106868557Y-76164773D01*
X106846613Y-76156921D01*
X106825543Y-76146956D01*
X106805552Y-76134974D01*
X106786832Y-76121090D01*
X106769562Y-76105438D01*
X106753910Y-76088168D01*
X106740026Y-76069448D01*
X106728044Y-76049457D01*
X106718079Y-76028387D01*
X106710227Y-76006443D01*
X106704563Y-75983834D01*
X106701144Y-75960779D01*
X106700000Y-75937500D01*
X106700000Y-75462500D01*
X106701144Y-75439221D01*
X106704563Y-75416166D01*
X106710227Y-75393557D01*
X106718079Y-75371613D01*
X106728044Y-75350543D01*
X106740026Y-75330552D01*
X106753910Y-75311832D01*
X106769562Y-75294562D01*
X106786832Y-75278910D01*
X106805552Y-75265026D01*
X106825543Y-75253044D01*
X106846613Y-75243079D01*
X106868557Y-75235227D01*
X106891166Y-75229563D01*
X106914221Y-75226144D01*
X106937500Y-75225000D01*
X107512500Y-75225000D01*
X107535779Y-75226144D01*
X107535779Y-75226144D01*
G37*
D11*
X107225000Y-75700000D03*
D10*
G36*
X113835779Y-64426144D02*
G01*
X113858834Y-64429563D01*
X113881443Y-64435227D01*
X113903387Y-64443079D01*
X113924457Y-64453044D01*
X113944448Y-64465026D01*
X113963168Y-64478910D01*
X113980438Y-64494562D01*
X113996090Y-64511832D01*
X114009974Y-64530552D01*
X114021956Y-64550543D01*
X114031921Y-64571613D01*
X114039773Y-64593557D01*
X114045437Y-64616166D01*
X114048856Y-64639221D01*
X114050000Y-64662500D01*
X114050000Y-65137500D01*
X114048856Y-65160779D01*
X114045437Y-65183834D01*
X114039773Y-65206443D01*
X114031921Y-65228387D01*
X114021956Y-65249457D01*
X114009974Y-65269448D01*
X113996090Y-65288168D01*
X113980438Y-65305438D01*
X113963168Y-65321090D01*
X113944448Y-65334974D01*
X113924457Y-65346956D01*
X113903387Y-65356921D01*
X113881443Y-65364773D01*
X113858834Y-65370437D01*
X113835779Y-65373856D01*
X113812500Y-65375000D01*
X113237500Y-65375000D01*
X113214221Y-65373856D01*
X113191166Y-65370437D01*
X113168557Y-65364773D01*
X113146613Y-65356921D01*
X113125543Y-65346956D01*
X113105552Y-65334974D01*
X113086832Y-65321090D01*
X113069562Y-65305438D01*
X113053910Y-65288168D01*
X113040026Y-65269448D01*
X113028044Y-65249457D01*
X113018079Y-65228387D01*
X113010227Y-65206443D01*
X113004563Y-65183834D01*
X113001144Y-65160779D01*
X113000000Y-65137500D01*
X113000000Y-64662500D01*
X113001144Y-64639221D01*
X113004563Y-64616166D01*
X113010227Y-64593557D01*
X113018079Y-64571613D01*
X113028044Y-64550543D01*
X113040026Y-64530552D01*
X113053910Y-64511832D01*
X113069562Y-64494562D01*
X113086832Y-64478910D01*
X113105552Y-64465026D01*
X113125543Y-64453044D01*
X113146613Y-64443079D01*
X113168557Y-64435227D01*
X113191166Y-64429563D01*
X113214221Y-64426144D01*
X113237500Y-64425000D01*
X113812500Y-64425000D01*
X113835779Y-64426144D01*
X113835779Y-64426144D01*
G37*
D11*
X113525000Y-64900000D03*
D10*
G36*
X115585779Y-64426144D02*
G01*
X115608834Y-64429563D01*
X115631443Y-64435227D01*
X115653387Y-64443079D01*
X115674457Y-64453044D01*
X115694448Y-64465026D01*
X115713168Y-64478910D01*
X115730438Y-64494562D01*
X115746090Y-64511832D01*
X115759974Y-64530552D01*
X115771956Y-64550543D01*
X115781921Y-64571613D01*
X115789773Y-64593557D01*
X115795437Y-64616166D01*
X115798856Y-64639221D01*
X115800000Y-64662500D01*
X115800000Y-65137500D01*
X115798856Y-65160779D01*
X115795437Y-65183834D01*
X115789773Y-65206443D01*
X115781921Y-65228387D01*
X115771956Y-65249457D01*
X115759974Y-65269448D01*
X115746090Y-65288168D01*
X115730438Y-65305438D01*
X115713168Y-65321090D01*
X115694448Y-65334974D01*
X115674457Y-65346956D01*
X115653387Y-65356921D01*
X115631443Y-65364773D01*
X115608834Y-65370437D01*
X115585779Y-65373856D01*
X115562500Y-65375000D01*
X114987500Y-65375000D01*
X114964221Y-65373856D01*
X114941166Y-65370437D01*
X114918557Y-65364773D01*
X114896613Y-65356921D01*
X114875543Y-65346956D01*
X114855552Y-65334974D01*
X114836832Y-65321090D01*
X114819562Y-65305438D01*
X114803910Y-65288168D01*
X114790026Y-65269448D01*
X114778044Y-65249457D01*
X114768079Y-65228387D01*
X114760227Y-65206443D01*
X114754563Y-65183834D01*
X114751144Y-65160779D01*
X114750000Y-65137500D01*
X114750000Y-64662500D01*
X114751144Y-64639221D01*
X114754563Y-64616166D01*
X114760227Y-64593557D01*
X114768079Y-64571613D01*
X114778044Y-64550543D01*
X114790026Y-64530552D01*
X114803910Y-64511832D01*
X114819562Y-64494562D01*
X114836832Y-64478910D01*
X114855552Y-64465026D01*
X114875543Y-64453044D01*
X114896613Y-64443079D01*
X114918557Y-64435227D01*
X114941166Y-64429563D01*
X114964221Y-64426144D01*
X114987500Y-64425000D01*
X115562500Y-64425000D01*
X115585779Y-64426144D01*
X115585779Y-64426144D01*
G37*
D11*
X115275000Y-64900000D03*
D10*
G36*
X112574504Y-91551204D02*
G01*
X112598773Y-91554804D01*
X112622571Y-91560765D01*
X112645671Y-91569030D01*
X112667849Y-91579520D01*
X112688893Y-91592133D01*
X112708598Y-91606747D01*
X112726777Y-91623223D01*
X112743253Y-91641402D01*
X112757867Y-91661107D01*
X112770480Y-91682151D01*
X112780970Y-91704329D01*
X112789235Y-91727429D01*
X112795196Y-91751227D01*
X112798796Y-91775496D01*
X112800000Y-91800000D01*
X112800000Y-94800000D01*
X112798796Y-94824504D01*
X112795196Y-94848773D01*
X112789235Y-94872571D01*
X112780970Y-94895671D01*
X112770480Y-94917849D01*
X112757867Y-94938893D01*
X112743253Y-94958598D01*
X112726777Y-94976777D01*
X112708598Y-94993253D01*
X112688893Y-95007867D01*
X112667849Y-95020480D01*
X112645671Y-95030970D01*
X112622571Y-95039235D01*
X112598773Y-95045196D01*
X112574504Y-95048796D01*
X112550000Y-95050000D01*
X111450000Y-95050000D01*
X111425496Y-95048796D01*
X111401227Y-95045196D01*
X111377429Y-95039235D01*
X111354329Y-95030970D01*
X111332151Y-95020480D01*
X111311107Y-95007867D01*
X111291402Y-94993253D01*
X111273223Y-94976777D01*
X111256747Y-94958598D01*
X111242133Y-94938893D01*
X111229520Y-94917849D01*
X111219030Y-94895671D01*
X111210765Y-94872571D01*
X111204804Y-94848773D01*
X111201204Y-94824504D01*
X111200000Y-94800000D01*
X111200000Y-91800000D01*
X111201204Y-91775496D01*
X111204804Y-91751227D01*
X111210765Y-91727429D01*
X111219030Y-91704329D01*
X111229520Y-91682151D01*
X111242133Y-91661107D01*
X111256747Y-91641402D01*
X111273223Y-91623223D01*
X111291402Y-91606747D01*
X111311107Y-91592133D01*
X111332151Y-91579520D01*
X111354329Y-91569030D01*
X111377429Y-91560765D01*
X111401227Y-91554804D01*
X111425496Y-91551204D01*
X111450000Y-91550000D01*
X112550000Y-91550000D01*
X112574504Y-91551204D01*
X112574504Y-91551204D01*
G37*
D14*
X112000000Y-93300000D03*
D10*
G36*
X112574504Y-85951204D02*
G01*
X112598773Y-85954804D01*
X112622571Y-85960765D01*
X112645671Y-85969030D01*
X112667849Y-85979520D01*
X112688893Y-85992133D01*
X112708598Y-86006747D01*
X112726777Y-86023223D01*
X112743253Y-86041402D01*
X112757867Y-86061107D01*
X112770480Y-86082151D01*
X112780970Y-86104329D01*
X112789235Y-86127429D01*
X112795196Y-86151227D01*
X112798796Y-86175496D01*
X112800000Y-86200000D01*
X112800000Y-89200000D01*
X112798796Y-89224504D01*
X112795196Y-89248773D01*
X112789235Y-89272571D01*
X112780970Y-89295671D01*
X112770480Y-89317849D01*
X112757867Y-89338893D01*
X112743253Y-89358598D01*
X112726777Y-89376777D01*
X112708598Y-89393253D01*
X112688893Y-89407867D01*
X112667849Y-89420480D01*
X112645671Y-89430970D01*
X112622571Y-89439235D01*
X112598773Y-89445196D01*
X112574504Y-89448796D01*
X112550000Y-89450000D01*
X111450000Y-89450000D01*
X111425496Y-89448796D01*
X111401227Y-89445196D01*
X111377429Y-89439235D01*
X111354329Y-89430970D01*
X111332151Y-89420480D01*
X111311107Y-89407867D01*
X111291402Y-89393253D01*
X111273223Y-89376777D01*
X111256747Y-89358598D01*
X111242133Y-89338893D01*
X111229520Y-89317849D01*
X111219030Y-89295671D01*
X111210765Y-89272571D01*
X111204804Y-89248773D01*
X111201204Y-89224504D01*
X111200000Y-89200000D01*
X111200000Y-86200000D01*
X111201204Y-86175496D01*
X111204804Y-86151227D01*
X111210765Y-86127429D01*
X111219030Y-86104329D01*
X111229520Y-86082151D01*
X111242133Y-86061107D01*
X111256747Y-86041402D01*
X111273223Y-86023223D01*
X111291402Y-86006747D01*
X111311107Y-85992133D01*
X111332151Y-85979520D01*
X111354329Y-85969030D01*
X111377429Y-85960765D01*
X111401227Y-85954804D01*
X111425496Y-85951204D01*
X111450000Y-85950000D01*
X112550000Y-85950000D01*
X112574504Y-85951204D01*
X112574504Y-85951204D01*
G37*
D14*
X112000000Y-87700000D03*
M02*
